<svg width="200" height="250" viewBox="0 0 371 468" fill="none" xmlns="http://www.w3.org/2000/svg">
<rect width="371" height="468" rx="25" fill="white"/>
<g clip-path="url(#clip0_0_1)">
<path d="M205.743 192.481L229.464 170.348C232.505 167.413 236.629 165.764 240.929 165.764C245.23 165.764 249.354 167.413 252.395 170.348C255.435 173.283 257.144 177.264 257.144 181.415C257.144 185.566 255.435 189.546 252.395 192.481L229.464 215.378L249.232 272.618L229.464 292.08L201.789 242.09L178.068 264.986V287.883L162.254 303.147L150.393 268.802L114.812 257.354L130.626 242.09H154.347L178.068 219.194L126.672 192.481L146.44 173.401L205.743 192.481Z" stroke="#1473FB" stroke-width="10" stroke-linecap="round" stroke-linejoin="round"/>
</g>
<rect x="51" y="379" width="270.422" height="30.2231" rx="15" fill="#1473FB"/>
<path d="M141.715 398.763V388.581H145.533C146.316 388.581 146.972 388.727 147.502 389.019C148.036 389.311 148.438 389.712 148.71 390.222C148.985 390.729 149.123 391.306 149.123 391.952C149.123 392.605 148.985 393.185 148.71 393.692C148.435 394.199 148.029 394.599 147.492 394.89C146.955 395.179 146.294 395.323 145.509 395.323H142.978V393.807H145.26C145.717 393.807 146.092 393.727 146.384 393.568C146.675 393.409 146.891 393.19 147.03 392.912C147.172 392.633 147.244 392.313 147.244 391.952C147.244 391.591 147.172 391.273 147.03 390.998C146.891 390.722 146.674 390.509 146.379 390.356C146.087 390.2 145.711 390.123 145.25 390.123H143.56V398.763H141.715ZM150.645 398.763V391.127H152.39V392.4H152.47C152.609 391.959 152.848 391.619 153.186 391.38C153.527 391.138 153.917 391.017 154.354 391.017C154.454 391.017 154.565 391.022 154.687 391.032C154.813 391.039 154.918 391.051 155.001 391.067V392.723C154.924 392.696 154.803 392.673 154.638 392.653C154.475 392.63 154.318 392.618 154.165 392.618C153.837 392.618 153.542 392.69 153.28 392.832C153.022 392.971 152.818 393.165 152.669 393.414C152.52 393.662 152.445 393.949 152.445 394.274V398.763H150.645ZM159.213 398.912C158.467 398.912 157.821 398.748 157.274 398.42C156.727 398.092 156.303 397.633 156.001 397.043C155.703 396.453 155.554 395.764 155.554 394.975C155.554 394.186 155.703 393.495 156.001 392.902C156.303 392.308 156.727 391.848 157.274 391.52C157.821 391.191 158.467 391.027 159.213 391.027C159.958 391.027 160.605 391.191 161.152 391.52C161.699 391.848 162.121 392.308 162.419 392.902C162.721 393.495 162.872 394.186 162.872 394.975C162.872 395.764 162.721 396.453 162.419 397.043C162.121 397.633 161.699 398.092 161.152 398.42C160.605 398.748 159.958 398.912 159.213 398.912ZM159.223 397.471C159.627 397.471 159.965 397.36 160.237 397.137C160.509 396.912 160.711 396.61 160.843 396.233C160.979 395.855 161.047 395.434 161.047 394.97C161.047 394.503 160.979 394.08 160.843 393.702C160.711 393.321 160.509 393.018 160.237 392.792C159.965 392.567 159.627 392.454 159.223 392.454C158.808 392.454 158.464 392.567 158.189 392.792C157.917 393.018 157.713 393.321 157.577 393.702C157.444 394.08 157.378 394.503 157.378 394.97C157.378 395.434 157.444 395.855 157.577 396.233C157.713 396.61 157.917 396.912 158.189 397.137C158.464 397.36 158.808 397.471 159.223 397.471ZM165.584 391.127L167.125 393.946L168.691 391.127H170.595L168.293 394.945L170.635 398.763H168.741L167.125 396.014L165.524 398.763H163.615L165.942 394.945L163.675 391.127H165.584ZM171.987 398.763V391.127H173.787V398.763H171.987ZM172.892 390.043C172.607 390.043 172.362 389.949 172.156 389.76C171.951 389.567 171.848 389.337 171.848 389.069C171.848 388.797 171.951 388.566 172.156 388.378C172.362 388.185 172.607 388.089 172.892 388.089C173.18 388.089 173.426 388.185 173.628 388.378C173.833 388.566 173.936 388.797 173.936 389.069C173.936 389.337 173.833 389.567 173.628 389.76C173.426 389.949 173.18 390.043 172.892 390.043ZM175.638 398.763V391.127H177.358V392.424H177.447C177.606 391.987 177.87 391.646 178.238 391.4C178.606 391.152 179.045 391.027 179.555 391.027C180.072 391.027 180.508 391.153 180.863 391.405C181.221 391.654 181.473 391.994 181.618 392.424H181.698C181.867 392 182.152 391.662 182.553 391.41C182.957 391.155 183.436 391.027 183.99 391.027C184.693 391.027 185.266 391.249 185.71 391.694C186.154 392.138 186.376 392.786 186.376 393.637V398.763H184.572V393.916C184.572 393.442 184.446 393.096 184.194 392.877C183.942 392.655 183.634 392.544 183.269 392.544C182.835 392.544 182.495 392.68 182.25 392.951C182.008 393.22 181.887 393.57 181.887 394V398.763H180.122V393.841C180.122 393.447 180.003 393.132 179.764 392.897C179.529 392.661 179.22 392.544 178.839 392.544C178.581 392.544 178.345 392.61 178.133 392.743C177.921 392.872 177.752 393.056 177.626 393.294C177.5 393.53 177.437 393.805 177.437 394.12V398.763H175.638ZM190.4 398.917C189.916 398.917 189.48 398.831 189.092 398.659C188.708 398.483 188.403 398.225 188.177 397.883C187.955 397.542 187.844 397.121 187.844 396.62C187.844 396.19 187.924 395.833 188.083 395.552C188.242 395.27 188.459 395.044 188.734 394.875C189.009 394.706 189.319 394.579 189.664 394.493C190.012 394.403 190.371 394.338 190.743 394.299C191.19 394.252 191.553 394.211 191.831 394.174C192.11 394.135 192.312 394.075 192.438 393.995C192.567 393.913 192.632 393.785 192.632 393.613V393.583C192.632 393.208 192.521 392.918 192.299 392.713C192.077 392.507 191.757 392.405 191.339 392.405C190.898 392.405 190.549 392.501 190.29 392.693C190.035 392.885 189.863 393.112 189.773 393.374L188.093 393.135C188.225 392.671 188.444 392.284 188.749 391.972C189.054 391.657 189.427 391.422 189.868 391.266C190.308 391.107 190.796 391.027 191.329 391.027C191.697 391.027 192.063 391.07 192.428 391.157C192.792 391.243 193.126 391.385 193.427 391.584C193.729 391.78 193.971 392.047 194.153 392.385C194.339 392.723 194.431 393.145 194.431 393.652V398.763H192.701V397.714H192.642C192.532 397.926 192.378 398.125 192.179 398.311C191.984 398.493 191.737 398.641 191.439 398.753C191.144 398.863 190.797 398.917 190.4 398.917ZM190.867 397.595C191.228 397.595 191.541 397.524 191.806 397.381C192.072 397.235 192.275 397.043 192.418 396.804C192.564 396.566 192.637 396.306 192.637 396.024V395.124C192.58 395.17 192.484 395.213 192.348 395.253C192.216 395.293 192.067 395.328 191.901 395.358C191.735 395.387 191.571 395.414 191.409 395.437C191.246 395.46 191.105 395.48 190.986 395.497C190.718 395.533 190.477 395.593 190.265 395.676C190.053 395.759 189.886 395.875 189.763 396.024C189.641 396.17 189.579 396.359 189.579 396.591C189.579 396.922 189.7 397.172 189.942 397.341C190.184 397.51 190.492 397.595 190.867 397.595ZM196.241 398.763V391.127H197.961V392.424H198.051C198.21 391.987 198.473 391.646 198.841 391.4C199.209 391.152 199.648 391.027 200.159 391.027C200.676 391.027 201.112 391.153 201.466 391.405C201.824 391.654 202.076 391.994 202.222 392.424H202.301C202.471 392 202.756 391.662 203.157 391.41C203.561 391.155 204.04 391.027 204.593 391.027C205.296 391.027 205.869 391.249 206.314 391.694C206.758 392.138 206.98 392.786 206.98 393.637V398.763H205.175V393.916C205.175 393.442 205.049 393.096 204.797 392.877C204.545 392.655 204.237 392.544 203.873 392.544C203.438 392.544 203.099 392.68 202.853 392.951C202.611 393.22 202.49 393.57 202.49 394V398.763H200.725V393.841C200.725 393.447 200.606 393.132 200.368 392.897C200.132 392.661 199.824 392.544 199.443 392.544C199.184 392.544 198.949 392.61 198.737 392.743C198.525 392.872 198.356 393.056 198.23 393.294C198.104 393.53 198.041 393.805 198.041 394.12V398.763H196.241ZM212.186 398.912C211.421 398.912 210.759 398.753 210.203 398.435C209.649 398.114 209.223 397.659 208.925 397.073C208.627 396.483 208.477 395.789 208.477 394.99C208.477 394.204 208.627 393.515 208.925 392.922C209.227 392.325 209.647 391.861 210.188 391.53C210.728 391.195 211.363 391.027 212.092 391.027C212.562 391.027 213.007 391.104 213.424 391.256C213.845 391.405 214.216 391.637 214.538 391.952C214.863 392.267 215.118 392.668 215.303 393.155C215.489 393.639 215.582 394.216 215.582 394.885V395.437H209.323V394.224H213.857C213.853 393.879 213.779 393.573 213.633 393.304C213.487 393.033 213.283 392.819 213.021 392.663C212.763 392.507 212.461 392.429 212.117 392.429C211.749 392.429 211.426 392.519 211.147 392.698C210.869 392.874 210.652 393.106 210.496 393.394C210.343 393.679 210.266 393.992 210.262 394.333V395.392C210.262 395.837 210.343 396.218 210.506 396.536C210.668 396.851 210.895 397.093 211.187 397.262C211.479 397.427 211.82 397.51 212.211 397.51C212.473 397.51 212.71 397.474 212.922 397.401C213.134 397.325 213.318 397.214 213.474 397.068C213.63 396.922 213.747 396.741 213.827 396.526L215.507 396.715C215.401 397.159 215.199 397.547 214.901 397.878C214.606 398.206 214.228 398.462 213.767 398.644C213.307 398.823 212.78 398.912 212.186 398.912ZM218.904 394.289V398.763H217.104V391.127H218.825V392.424H218.914C219.09 391.997 219.37 391.657 219.754 391.405C220.142 391.153 220.621 391.027 221.191 391.027C221.718 391.027 222.177 391.14 222.568 391.365C222.963 391.591 223.268 391.917 223.483 392.345C223.702 392.772 223.809 393.291 223.806 393.901V398.763H222.006V394.179C222.006 393.669 221.874 393.27 221.609 392.981C221.347 392.693 220.984 392.549 220.52 392.549C220.205 392.549 219.925 392.618 219.68 392.758C219.438 392.893 219.247 393.091 219.108 393.349C218.972 393.608 218.904 393.921 218.904 394.289ZM229.449 391.127V392.519H225.059V391.127H229.449ZM226.143 389.297H227.942V396.466C227.942 396.708 227.979 396.894 228.052 397.023C228.128 397.149 228.228 397.235 228.35 397.282C228.473 397.328 228.609 397.351 228.758 397.351C228.871 397.351 228.973 397.343 229.066 397.326C229.162 397.31 229.235 397.295 229.285 397.282L229.588 398.689C229.492 398.722 229.354 398.758 229.175 398.798C229 398.838 228.784 398.861 228.529 398.868C228.078 398.881 227.672 398.813 227.311 398.664C226.95 398.511 226.663 398.276 226.451 397.958C226.242 397.64 226.139 397.242 226.143 396.765V389.297ZM234.253 398.912C233.487 398.912 232.826 398.753 232.269 398.435C231.715 398.114 231.29 397.659 230.991 397.073C230.693 396.483 230.544 395.789 230.544 394.99C230.544 394.204 230.693 393.515 230.991 392.922C231.293 392.325 231.714 391.861 232.254 391.53C232.794 391.195 233.429 391.027 234.158 391.027C234.629 391.027 235.073 391.104 235.491 391.256C235.912 391.405 236.283 391.637 236.604 391.952C236.929 392.267 237.184 392.668 237.37 393.155C237.555 393.639 237.648 394.216 237.648 394.885V395.437H231.389V394.224H235.923C235.92 393.879 235.845 393.573 235.699 393.304C235.554 393.033 235.35 392.819 235.088 392.663C234.829 392.507 234.528 392.429 234.183 392.429C233.815 392.429 233.492 392.519 233.214 392.698C232.935 392.874 232.718 393.106 232.562 393.394C232.41 393.679 232.332 393.992 232.329 394.333V395.392C232.329 395.837 232.41 396.218 232.572 396.536C232.735 396.851 232.962 397.093 233.253 397.262C233.545 397.427 233.886 397.51 234.278 397.51C234.539 397.51 234.776 397.474 234.988 397.401C235.201 397.325 235.385 397.214 235.54 397.068C235.696 396.922 235.814 396.741 235.893 396.526L237.574 396.715C237.468 397.159 237.265 397.547 236.967 397.878C236.672 398.206 236.294 398.462 235.834 398.644C235.373 398.823 234.846 398.912 234.253 398.912Z" fill="white"/>
<rect x="86.5" y="424.5" width="199" height="27" rx="13.5" fill="#EDF4FF" stroke="#1473FB"/>
<path d="M124.979 443H123.348L127.012 432.818H128.787L132.451 443H130.82L127.942 434.668H127.862L124.979 443ZM125.252 439.013H130.542V440.305H125.252V439.013ZM136.881 446.023C136.274 446.023 135.752 445.943 135.315 445.784C134.88 445.625 134.526 445.415 134.251 445.153C133.976 444.891 133.77 444.604 133.634 444.293L134.912 443.766C135.001 443.911 135.121 444.066 135.27 444.228C135.422 444.394 135.628 444.535 135.886 444.651C136.148 444.767 136.485 444.825 136.896 444.825C137.459 444.825 137.925 444.687 138.293 444.412C138.661 444.14 138.844 443.706 138.844 443.109V441.608H138.75C138.661 441.77 138.531 441.951 138.362 442.15C138.196 442.349 137.968 442.521 137.676 442.667C137.384 442.813 137.005 442.886 136.538 442.886C135.934 442.886 135.391 442.745 134.907 442.463C134.426 442.178 134.045 441.759 133.763 441.205C133.485 440.648 133.346 439.964 133.346 439.152C133.346 438.34 133.483 437.644 133.759 437.064C134.037 436.484 134.418 436.04 134.902 435.732C135.386 435.42 135.934 435.264 136.548 435.264C137.022 435.264 137.404 435.344 137.696 435.503C137.988 435.659 138.215 435.841 138.377 436.05C138.543 436.259 138.67 436.442 138.76 436.602H138.869V435.364H140.326V443.169C140.326 443.825 140.174 444.364 139.869 444.785C139.564 445.206 139.151 445.517 138.631 445.719C138.114 445.922 137.53 446.023 136.881 446.023ZM136.866 441.653C137.293 441.653 137.655 441.553 137.95 441.354C138.248 441.152 138.473 440.864 138.626 440.489C138.781 440.112 138.859 439.659 138.859 439.132C138.859 438.618 138.783 438.166 138.631 437.775C138.478 437.384 138.254 437.079 137.96 436.86C137.665 436.638 137.3 436.527 136.866 436.527C136.418 436.527 136.045 436.643 135.747 436.875C135.449 437.104 135.223 437.415 135.071 437.81C134.922 438.204 134.847 438.645 134.847 439.132C134.847 439.633 134.924 440.072 135.076 440.45C135.228 440.827 135.454 441.122 135.752 441.335C136.054 441.547 136.425 441.653 136.866 441.653ZM145.611 443.154C144.858 443.154 144.21 442.993 143.667 442.672C143.127 442.347 142.709 441.891 142.414 441.305C142.122 440.715 141.977 440.024 141.977 439.232C141.977 438.449 142.122 437.76 142.414 437.163C142.709 436.567 143.12 436.101 143.647 435.766C144.177 435.432 144.797 435.264 145.506 435.264C145.937 435.264 146.355 435.335 146.759 435.478C147.164 435.621 147.527 435.844 147.848 436.149C148.17 436.454 148.423 436.85 148.609 437.337C148.794 437.821 148.887 438.41 148.887 439.102V439.629H142.817V438.516H147.43C147.43 438.125 147.351 437.778 147.192 437.477C147.033 437.172 146.809 436.931 146.521 436.756C146.236 436.58 145.901 436.492 145.516 436.492C145.099 436.492 144.734 436.595 144.423 436.8C144.114 437.003 143.876 437.268 143.707 437.596C143.541 437.921 143.458 438.274 143.458 438.655V439.525C143.458 440.035 143.548 440.469 143.727 440.827C143.909 441.185 144.162 441.459 144.487 441.648C144.812 441.833 145.192 441.926 145.626 441.926C145.907 441.926 146.164 441.886 146.396 441.807C146.628 441.724 146.829 441.601 146.998 441.439C147.167 441.277 147.296 441.076 147.386 440.837L148.793 441.091C148.68 441.505 148.478 441.868 148.186 442.18C147.898 442.488 147.535 442.728 147.097 442.901C146.663 443.07 146.168 443.154 145.611 443.154ZM152.023 438.466V443H150.536V435.364H151.963V436.607H152.058C152.233 436.202 152.508 435.877 152.883 435.632C153.261 435.387 153.736 435.264 154.31 435.264C154.83 435.264 155.286 435.374 155.677 435.592C156.068 435.808 156.371 436.129 156.587 436.557C156.802 436.984 156.91 437.513 156.91 438.143V443H155.423V438.322C155.423 437.768 155.279 437.336 154.991 437.024C154.703 436.709 154.307 436.552 153.803 436.552C153.458 436.552 153.151 436.626 152.883 436.776C152.618 436.925 152.407 437.143 152.252 437.432C152.099 437.717 152.023 438.062 152.023 438.466ZM162.12 443.154C161.381 443.154 160.745 442.987 160.211 442.652C159.681 442.314 159.273 441.848 158.988 441.255C158.703 440.662 158.561 439.982 158.561 439.217C158.561 438.441 158.706 437.757 158.998 437.163C159.29 436.567 159.701 436.101 160.231 435.766C160.761 435.432 161.386 435.264 162.105 435.264C162.685 435.264 163.202 435.372 163.656 435.587C164.11 435.799 164.477 436.098 164.755 436.482C165.037 436.867 165.204 437.316 165.257 437.83H163.811C163.731 437.472 163.549 437.163 163.264 436.905C162.982 436.646 162.604 436.517 162.13 436.517C161.716 436.517 161.353 436.626 161.041 436.845C160.733 437.061 160.493 437.369 160.32 437.77C160.148 438.168 160.062 438.638 160.062 439.182C160.062 439.739 160.146 440.219 160.316 440.624C160.485 441.028 160.723 441.341 161.031 441.563C161.343 441.785 161.709 441.896 162.13 441.896C162.412 441.896 162.667 441.845 162.896 441.742C163.128 441.636 163.322 441.485 163.477 441.29C163.637 441.094 163.748 440.859 163.811 440.584H165.257C165.204 441.078 165.044 441.518 164.775 441.906C164.507 442.294 164.147 442.599 163.696 442.821C163.249 443.043 162.723 443.154 162.12 443.154ZM166.847 443V435.364H168.333V443H166.847ZM167.598 434.185C167.339 434.185 167.117 434.099 166.931 433.927C166.749 433.751 166.658 433.542 166.658 433.3C166.658 433.055 166.749 432.846 166.931 432.674C167.117 432.498 167.339 432.411 167.598 432.411C167.856 432.411 168.077 432.498 168.259 432.674C168.444 432.846 168.537 433.055 168.537 433.3C168.537 433.542 168.444 433.751 168.259 433.927C168.077 434.099 167.856 434.185 167.598 434.185ZM172.556 443.169C172.072 443.169 171.634 443.08 171.243 442.901C170.852 442.718 170.542 442.455 170.313 442.11C170.088 441.765 169.975 441.343 169.975 440.842C169.975 440.411 170.058 440.057 170.224 439.778C170.39 439.5 170.613 439.28 170.895 439.117C171.177 438.955 171.492 438.832 171.84 438.749C172.188 438.666 172.542 438.603 172.904 438.56C173.361 438.507 173.732 438.464 174.017 438.431C174.302 438.395 174.509 438.337 174.639 438.257C174.768 438.178 174.833 438.048 174.833 437.869V437.835C174.833 437.4 174.71 437.064 174.465 436.825C174.223 436.587 173.861 436.467 173.381 436.467C172.88 436.467 172.486 436.578 172.198 436.8C171.913 437.019 171.715 437.263 171.606 437.531L170.209 437.213C170.375 436.749 170.617 436.375 170.935 436.089C171.256 435.801 171.626 435.592 172.044 435.463C172.461 435.33 172.9 435.264 173.361 435.264C173.666 435.264 173.989 435.301 174.33 435.374C174.675 435.443 174.997 435.572 175.295 435.761C175.597 435.95 175.843 436.22 176.036 436.572C176.228 436.92 176.324 437.372 176.324 437.929V443H174.872V441.956H174.813C174.717 442.148 174.572 442.337 174.38 442.523C174.188 442.708 173.941 442.862 173.639 442.985C173.338 443.108 172.977 443.169 172.556 443.169ZM172.879 441.976C173.29 441.976 173.641 441.895 173.933 441.732C174.228 441.57 174.451 441.358 174.604 441.096C174.76 440.831 174.838 440.547 174.838 440.246V439.261C174.785 439.314 174.682 439.364 174.529 439.411C174.38 439.454 174.209 439.492 174.017 439.525C173.825 439.555 173.638 439.583 173.455 439.609C173.273 439.633 173.121 439.652 172.998 439.669C172.71 439.705 172.446 439.767 172.208 439.853C171.972 439.939 171.783 440.063 171.641 440.226C171.502 440.385 171.432 440.597 171.432 440.862C171.432 441.23 171.568 441.509 171.84 441.697C172.111 441.883 172.458 441.976 172.879 441.976ZM184.026 437.228L182.679 437.467C182.623 437.294 182.533 437.13 182.411 436.974C182.291 436.819 182.129 436.691 181.923 436.592C181.718 436.492 181.461 436.442 181.153 436.442C180.732 436.442 180.38 436.537 180.099 436.726C179.817 436.911 179.676 437.152 179.676 437.447C179.676 437.702 179.771 437.907 179.96 438.063C180.148 438.219 180.453 438.347 180.874 438.446L182.087 438.724C182.79 438.887 183.314 439.137 183.658 439.475C184.003 439.813 184.175 440.252 184.175 440.793C184.175 441.25 184.043 441.658 183.778 442.016C183.516 442.37 183.15 442.649 182.679 442.851C182.212 443.053 181.67 443.154 181.053 443.154C180.198 443.154 179.5 442.972 178.96 442.607C178.42 442.239 178.089 441.717 177.966 441.041L179.403 440.822C179.492 441.197 179.676 441.48 179.955 441.673C180.233 441.862 180.596 441.956 181.043 441.956C181.531 441.956 181.92 441.855 182.212 441.653C182.503 441.447 182.649 441.197 182.649 440.902C182.649 440.663 182.56 440.463 182.381 440.3C182.205 440.138 181.935 440.015 181.57 439.933L180.278 439.649C179.565 439.487 179.038 439.228 178.697 438.874C178.359 438.519 178.19 438.07 178.19 437.526C178.19 437.076 178.316 436.681 178.567 436.343C178.819 436.005 179.167 435.741 179.612 435.553C180.056 435.36 180.564 435.264 181.138 435.264C181.963 435.264 182.613 435.443 183.087 435.801C183.561 436.156 183.874 436.631 184.026 437.228ZM192.374 443.149C191.757 443.149 191.207 442.992 190.723 442.677C190.242 442.359 189.865 441.906 189.589 441.32C189.318 440.73 189.182 440.022 189.182 439.197C189.182 438.371 189.319 437.665 189.594 437.079C189.873 436.492 190.254 436.043 190.738 435.732C191.222 435.42 191.77 435.264 192.384 435.264C192.857 435.264 193.239 435.344 193.527 435.503C193.819 435.659 194.044 435.841 194.203 436.05C194.366 436.259 194.491 436.442 194.581 436.602H194.67V432.818H196.157V443H194.705V441.812H194.581C194.491 441.974 194.362 442.16 194.193 442.369C194.027 442.577 193.799 442.76 193.507 442.915C193.215 443.071 192.838 443.149 192.374 443.149ZM192.702 441.881C193.129 441.881 193.491 441.769 193.786 441.543C194.084 441.315 194.309 440.998 194.462 440.594C194.617 440.189 194.695 439.719 194.695 439.182C194.695 438.652 194.619 438.187 194.467 437.79C194.314 437.392 194.09 437.082 193.795 436.86C193.5 436.638 193.136 436.527 192.702 436.527C192.254 436.527 191.881 436.643 191.583 436.875C191.285 437.107 191.059 437.424 190.907 437.825C190.758 438.226 190.683 438.678 190.683 439.182C190.683 439.692 190.759 440.151 190.912 440.559C191.064 440.967 191.29 441.29 191.588 441.528C191.89 441.764 192.261 441.881 192.702 441.881ZM201.57 443.154C200.817 443.154 200.169 442.993 199.626 442.672C199.086 442.347 198.668 441.891 198.373 441.305C198.081 440.715 197.936 440.024 197.936 439.232C197.936 438.449 198.081 437.76 198.373 437.163C198.668 436.567 199.079 436.101 199.606 435.766C200.136 435.432 200.756 435.264 201.465 435.264C201.896 435.264 202.314 435.335 202.718 435.478C203.123 435.621 203.485 435.844 203.807 436.149C204.128 436.454 204.382 436.85 204.568 437.337C204.753 437.821 204.846 438.41 204.846 439.102V439.629H198.776V438.516H203.389C203.389 438.125 203.31 437.778 203.151 437.477C202.992 437.172 202.768 436.931 202.48 436.756C202.195 436.58 201.86 436.492 201.475 436.492C201.058 436.492 200.693 436.595 200.382 436.8C200.073 437.003 199.835 437.268 199.666 437.596C199.5 437.921 199.417 438.274 199.417 438.655V439.525C199.417 440.035 199.507 440.469 199.686 440.827C199.868 441.185 200.121 441.459 200.446 441.648C200.771 441.833 201.151 441.926 201.585 441.926C201.866 441.926 202.123 441.886 202.355 441.807C202.587 441.724 202.788 441.601 202.957 441.439C203.126 441.277 203.255 441.076 203.345 440.837L204.752 441.091C204.639 441.505 204.437 441.868 204.145 442.18C203.857 442.488 203.494 442.728 203.056 442.901C202.622 443.07 202.127 443.154 201.57 443.154ZM216.733 435.364L213.964 443H212.373L209.599 435.364H211.195L213.129 441.24H213.208L215.137 435.364H216.733ZM218.13 443V435.364H219.617V443H218.13ZM218.881 434.185C218.622 434.185 218.4 434.099 218.215 433.927C218.032 433.751 217.941 433.542 217.941 433.3C217.941 433.055 218.032 432.846 218.215 432.674C218.4 432.498 218.622 432.411 218.881 432.411C219.139 432.411 219.36 432.498 219.542 432.674C219.728 432.846 219.82 433.055 219.82 433.3C219.82 433.542 219.728 433.751 219.542 433.927C219.36 434.099 219.139 434.185 218.881 434.185ZM223.839 443.169C223.355 443.169 222.917 443.08 222.526 442.901C222.135 442.718 221.825 442.455 221.597 442.11C221.371 441.765 221.259 441.343 221.259 440.842C221.259 440.411 221.341 440.057 221.507 439.778C221.673 439.5 221.897 439.28 222.178 439.117C222.46 438.955 222.775 438.832 223.123 438.749C223.471 438.666 223.826 438.603 224.187 438.56C224.644 438.507 225.015 438.464 225.3 438.431C225.585 438.395 225.793 438.337 225.922 438.257C226.051 438.178 226.116 438.048 226.116 437.869V437.835C226.116 437.4 225.993 437.064 225.748 436.825C225.506 436.587 225.145 436.467 224.664 436.467C224.164 436.467 223.769 436.578 223.481 436.8C223.196 437.019 222.999 437.263 222.889 437.531L221.492 437.213C221.658 436.749 221.9 436.375 222.218 436.089C222.54 435.801 222.909 435.592 223.327 435.463C223.744 435.33 224.183 435.264 224.644 435.264C224.949 435.264 225.272 435.301 225.614 435.374C225.958 435.443 226.28 435.572 226.578 435.761C226.88 435.95 227.127 436.22 227.319 436.572C227.511 436.92 227.607 437.372 227.607 437.929V443H226.156V441.956H226.096C226 442.148 225.856 442.337 225.663 442.523C225.471 442.708 225.224 442.862 224.923 442.985C224.621 443.108 224.26 443.169 223.839 443.169ZM224.162 441.976C224.573 441.976 224.924 441.895 225.216 441.732C225.511 441.57 225.735 441.358 225.887 441.096C226.043 440.831 226.121 440.547 226.121 440.246V439.261C226.068 439.314 225.965 439.364 225.812 439.411C225.663 439.454 225.493 439.492 225.3 439.525C225.108 439.555 224.921 439.583 224.739 439.609C224.556 439.633 224.404 439.652 224.281 439.669C223.993 439.705 223.729 439.767 223.491 439.853C223.255 439.939 223.067 440.063 222.924 440.226C222.785 440.385 222.715 440.597 222.715 440.862C222.715 441.23 222.851 441.509 223.123 441.697C223.395 441.883 223.741 441.976 224.162 441.976ZM229.587 435.364H231.074V443.497C231.074 444.008 230.981 444.438 230.795 444.79C230.613 445.141 230.341 445.408 229.98 445.59C229.622 445.772 229.18 445.864 228.653 445.864C228.599 445.864 228.55 445.864 228.503 445.864C228.454 445.864 228.402 445.862 228.349 445.859V444.581C228.396 444.581 228.437 444.581 228.474 444.581C228.507 444.581 228.545 444.581 228.588 444.581C228.939 444.581 229.193 444.487 229.349 444.298C229.508 444.112 229.587 443.842 229.587 443.487V435.364ZM230.323 434.185C230.064 434.185 229.842 434.099 229.657 433.927C229.474 433.751 229.383 433.542 229.383 433.3C229.383 433.055 229.474 432.846 229.657 432.674C229.842 432.498 230.064 432.411 230.323 432.411C230.581 432.411 230.802 432.498 230.984 432.674C231.17 432.846 231.263 433.055 231.263 433.3C231.263 433.542 231.17 433.751 230.984 433.927C230.802 434.099 230.581 434.185 230.323 434.185ZM236.365 443.154C235.612 443.154 234.964 442.993 234.421 442.672C233.881 442.347 233.463 441.891 233.168 441.305C232.876 440.715 232.73 440.024 232.73 439.232C232.73 438.449 232.876 437.76 233.168 437.163C233.463 436.567 233.874 436.101 234.401 435.766C234.931 435.432 235.551 435.264 236.26 435.264C236.691 435.264 237.109 435.335 237.513 435.478C237.917 435.621 238.28 435.844 238.602 436.149C238.923 436.454 239.177 436.85 239.363 437.337C239.548 437.821 239.641 438.41 239.641 439.102V439.629H233.571V438.516H238.184C238.184 438.125 238.105 437.778 237.946 437.477C237.787 437.172 237.563 436.931 237.275 436.756C236.989 436.58 236.655 436.492 236.27 436.492C235.853 436.492 235.488 436.595 235.176 436.8C234.868 437.003 234.63 437.268 234.461 437.596C234.295 437.921 234.212 438.274 234.212 438.655V439.525C234.212 440.035 234.301 440.469 234.48 440.827C234.663 441.185 234.916 441.459 235.241 441.648C235.566 441.833 235.945 441.926 236.38 441.926C236.661 441.926 236.918 441.886 237.15 441.807C237.382 441.724 237.583 441.601 237.752 441.439C237.921 441.277 238.05 441.076 238.14 440.837L239.547 441.091C239.434 441.505 239.232 441.868 238.94 442.18C238.652 442.488 238.289 442.728 237.851 442.901C237.417 443.07 236.922 443.154 236.365 443.154ZM247.013 437.228L245.665 437.467C245.609 437.294 245.519 437.13 245.397 436.974C245.278 436.819 245.115 436.691 244.91 436.592C244.704 436.492 244.447 436.442 244.139 436.442C243.718 436.442 243.367 436.537 243.085 436.726C242.803 436.911 242.662 437.152 242.662 437.447C242.662 437.702 242.757 437.907 242.946 438.063C243.135 438.219 243.44 438.347 243.861 438.446L245.074 438.724C245.776 438.887 246.3 439.137 246.645 439.475C246.989 439.813 247.162 440.252 247.162 440.793C247.162 441.25 247.029 441.658 246.764 442.016C246.502 442.37 246.136 442.649 245.665 442.851C245.198 443.053 244.656 443.154 244.04 443.154C243.184 443.154 242.487 442.972 241.947 442.607C241.406 442.239 241.075 441.717 240.952 441.041L242.389 440.822C242.479 441.197 242.662 441.48 242.941 441.673C243.219 441.862 243.582 441.956 244.03 441.956C244.517 441.956 244.906 441.855 245.198 441.653C245.49 441.447 245.635 441.197 245.635 440.902C245.635 440.663 245.546 440.463 245.367 440.3C245.191 440.138 244.921 440.015 244.557 439.933L243.264 439.649C242.551 439.487 242.024 439.228 241.683 438.874C241.345 438.519 241.176 438.07 241.176 437.526C241.176 437.076 241.302 436.681 241.554 436.343C241.806 436.005 242.154 435.741 242.598 435.553C243.042 435.36 243.551 435.264 244.124 435.264C244.949 435.264 245.599 435.443 246.073 435.801C246.547 436.156 246.86 436.631 247.013 437.228Z" fill="#1473FB"/>
<defs>
<clipPath id="clip0_0_1">
<rect width="189.77" height="183.17" fill="white" transform="translate(91.0898 142.873)"/>
</clipPath>
</defs>
</svg>
