<svg width="200" height="250" viewBox="0 0 371 468" fill="none" xmlns="http://www.w3.org/2000/svg">
<rect width="371" height="468" rx="25" fill="white"/>
<rect x="51" y="379" width="270.422" height="30.2231" rx="15" fill="#1473FB"/>
<path d="M136.004 398V387.818H139.822C140.605 387.818 141.261 387.964 141.791 388.256C142.325 388.547 142.728 388.948 142.999 389.459C143.274 389.966 143.412 390.543 143.412 391.189C143.412 391.842 143.274 392.422 142.999 392.929C142.724 393.436 142.318 393.835 141.781 394.127C141.244 394.415 140.583 394.56 139.798 394.56H137.267V393.043H139.549C140.006 393.043 140.381 392.964 140.673 392.805C140.964 392.646 141.18 392.427 141.319 392.148C141.461 391.87 141.533 391.55 141.533 391.189C141.533 390.828 141.461 390.509 141.319 390.234C141.18 389.959 140.963 389.746 140.668 389.593C140.376 389.437 140 389.359 139.539 389.359H137.849V398H136.004ZM144.934 398V390.364H146.68V391.636H146.759C146.898 391.196 147.137 390.856 147.475 390.617C147.816 390.375 148.206 390.254 148.643 390.254C148.743 390.254 148.854 390.259 148.976 390.269C149.102 390.276 149.207 390.287 149.29 390.304V391.96C149.213 391.933 149.092 391.91 148.927 391.89C148.764 391.867 148.607 391.855 148.454 391.855C148.126 391.855 147.831 391.926 147.569 392.069C147.311 392.208 147.107 392.402 146.958 392.651C146.809 392.899 146.734 393.186 146.734 393.511V398H144.934ZM153.502 398.149C152.756 398.149 152.11 397.985 151.563 397.657C151.016 397.329 150.592 396.87 150.29 396.28C149.992 395.69 149.843 395 149.843 394.212C149.843 393.423 149.992 392.732 150.29 392.138C150.592 391.545 151.016 391.085 151.563 390.756C152.11 390.428 152.756 390.264 153.502 390.264C154.248 390.264 154.894 390.428 155.441 390.756C155.988 391.085 156.41 391.545 156.708 392.138C157.01 392.732 157.161 393.423 157.161 394.212C157.161 395 157.01 395.69 156.708 396.28C156.41 396.87 155.988 397.329 155.441 397.657C154.894 397.985 154.248 398.149 153.502 398.149ZM153.512 396.707C153.916 396.707 154.254 396.596 154.526 396.374C154.798 396.149 155 395.847 155.132 395.469C155.268 395.092 155.336 394.671 155.336 394.207C155.336 393.739 155.268 393.317 155.132 392.939C155 392.558 154.798 392.254 154.526 392.029C154.254 391.804 153.916 391.691 153.512 391.691C153.097 391.691 152.753 391.804 152.478 392.029C152.206 392.254 152.002 392.558 151.866 392.939C151.734 393.317 151.667 393.739 151.667 394.207C151.667 394.671 151.734 395.092 151.866 395.469C152.002 395.847 152.206 396.149 152.478 396.374C152.753 396.596 153.097 396.707 153.512 396.707ZM159.873 390.364L161.414 393.183L162.98 390.364H164.884L162.582 394.182L164.924 398H163.03L161.414 395.251L159.813 398H157.904L160.231 394.182L157.964 390.364H159.873ZM166.276 398V390.364H168.076V398H166.276ZM167.181 389.28C166.896 389.28 166.651 389.185 166.445 388.996C166.24 388.804 166.137 388.574 166.137 388.305C166.137 388.034 166.24 387.803 166.445 387.614C166.651 387.422 166.896 387.326 167.181 387.326C167.469 387.326 167.715 387.422 167.917 387.614C168.122 387.803 168.225 388.034 168.225 388.305C168.225 388.574 168.122 388.804 167.917 388.996C167.715 389.185 167.469 389.28 167.181 389.28ZM169.927 398V390.364H171.647V391.661H171.736C171.895 391.224 172.159 390.882 172.527 390.637C172.895 390.388 173.334 390.264 173.844 390.264C174.361 390.264 174.797 390.39 175.152 390.642C175.51 390.891 175.762 391.23 175.907 391.661H175.987C176.156 391.237 176.441 390.899 176.842 390.647C177.247 390.392 177.725 390.264 178.279 390.264C178.982 390.264 179.555 390.486 179.999 390.93C180.443 391.375 180.665 392.022 180.665 392.874V398H178.861V393.153C178.861 392.679 178.735 392.332 178.483 392.114C178.231 391.892 177.923 391.781 177.558 391.781C177.124 391.781 176.784 391.916 176.539 392.188C176.297 392.457 176.176 392.806 176.176 393.237V398H174.411V393.078C174.411 392.684 174.292 392.369 174.053 392.134C173.818 391.898 173.51 391.781 173.128 391.781C172.87 391.781 172.635 391.847 172.422 391.979C172.21 392.109 172.041 392.293 171.915 392.531C171.789 392.767 171.726 393.042 171.726 393.357V398H169.927ZM184.689 398.154C184.205 398.154 183.769 398.068 183.381 397.896C182.997 397.72 182.692 397.461 182.466 397.12C182.244 396.779 182.133 396.358 182.133 395.857C182.133 395.426 182.213 395.07 182.372 394.788C182.531 394.507 182.748 394.281 183.023 394.112C183.298 393.943 183.608 393.816 183.953 393.729C184.301 393.64 184.66 393.575 185.032 393.536C185.479 393.489 185.842 393.448 186.12 393.411C186.399 393.371 186.601 393.312 186.727 393.232C186.856 393.149 186.921 393.022 186.921 392.849V392.82C186.921 392.445 186.81 392.155 186.588 391.95C186.366 391.744 186.046 391.641 185.628 391.641C185.187 391.641 184.838 391.737 184.579 391.93C184.324 392.122 184.152 392.349 184.062 392.611L182.382 392.372C182.514 391.908 182.733 391.52 183.038 391.209C183.343 390.894 183.716 390.659 184.157 390.503C184.597 390.344 185.085 390.264 185.618 390.264C185.986 390.264 186.352 390.307 186.717 390.393C187.082 390.48 187.415 390.622 187.716 390.821C188.018 391.017 188.26 391.283 188.442 391.621C188.628 391.96 188.721 392.382 188.721 392.889V398H186.99V396.951H186.931C186.821 397.163 186.667 397.362 186.468 397.548C186.273 397.73 186.026 397.877 185.728 397.99C185.433 398.099 185.086 398.154 184.689 398.154ZM185.156 396.832C185.517 396.832 185.83 396.76 186.096 396.618C186.361 396.472 186.565 396.28 186.707 396.041C186.853 395.803 186.926 395.542 186.926 395.261V394.361C186.869 394.407 186.773 394.45 186.637 394.49C186.505 394.53 186.356 394.565 186.19 394.594C186.024 394.624 185.86 394.651 185.698 394.674C185.535 394.697 185.395 394.717 185.275 394.734C185.007 394.77 184.766 394.83 184.554 394.913C184.342 394.996 184.175 395.112 184.052 395.261C183.93 395.406 183.868 395.595 183.868 395.827C183.868 396.159 183.989 396.409 184.231 396.578C184.473 396.747 184.781 396.832 185.156 396.832ZM190.53 398V390.364H192.25V391.661H192.34C192.499 391.224 192.762 390.882 193.13 390.637C193.498 390.388 193.937 390.264 194.448 390.264C194.965 390.264 195.401 390.39 195.755 390.642C196.113 390.891 196.365 391.23 196.511 391.661H196.591C196.76 391.237 197.045 390.899 197.446 390.647C197.85 390.392 198.329 390.264 198.882 390.264C199.585 390.264 200.158 390.486 200.603 390.93C201.047 391.375 201.269 392.022 201.269 392.874V398H199.464V393.153C199.464 392.679 199.338 392.332 199.086 392.114C198.834 391.892 198.526 391.781 198.162 391.781C197.727 391.781 197.388 391.916 197.142 392.188C196.9 392.457 196.779 392.806 196.779 393.237V398H195.015V393.078C195.015 392.684 194.895 392.369 194.657 392.134C194.421 391.898 194.113 391.781 193.732 391.781C193.473 391.781 193.238 391.847 193.026 391.979C192.814 392.109 192.645 392.293 192.519 392.531C192.393 392.767 192.33 393.042 192.33 393.357V398H190.53ZM206.475 398.149C205.71 398.149 205.048 397.99 204.492 397.672C203.938 397.35 203.512 396.896 203.214 396.31C202.916 395.72 202.767 395.025 202.767 394.227C202.767 393.441 202.916 392.752 203.214 392.158C203.516 391.562 203.936 391.098 204.477 390.766C205.017 390.432 205.652 390.264 206.381 390.264C206.852 390.264 207.296 390.34 207.713 390.493C208.134 390.642 208.505 390.874 208.827 391.189C209.152 391.504 209.407 391.905 209.593 392.392C209.778 392.876 209.871 393.453 209.871 394.122V394.674H203.612V393.461H208.146C208.142 393.116 208.068 392.81 207.922 392.541C207.776 392.269 207.572 392.056 207.311 391.9C207.052 391.744 206.75 391.666 206.406 391.666C206.038 391.666 205.715 391.756 205.436 391.935C205.158 392.11 204.941 392.342 204.785 392.631C204.633 392.916 204.555 393.229 204.551 393.57V394.629C204.551 395.073 204.633 395.455 204.795 395.773C204.957 396.088 205.184 396.33 205.476 396.499C205.768 396.664 206.109 396.747 206.5 396.747C206.762 396.747 206.999 396.711 207.211 396.638C207.423 396.562 207.607 396.451 207.763 396.305C207.919 396.159 208.036 395.978 208.116 395.763L209.796 395.952C209.69 396.396 209.488 396.784 209.19 397.115C208.895 397.443 208.517 397.698 208.056 397.881C207.596 398.06 207.069 398.149 206.475 398.149ZM213.193 393.526V398H211.393V390.364H213.114V391.661H213.203C213.379 391.234 213.659 390.894 214.043 390.642C214.431 390.39 214.91 390.264 215.48 390.264C216.007 390.264 216.466 390.377 216.857 390.602C217.252 390.828 217.557 391.154 217.772 391.582C217.991 392.009 218.098 392.528 218.095 393.138V398H216.295V393.416C216.295 392.906 216.163 392.506 215.898 392.218C215.636 391.93 215.273 391.786 214.809 391.786C214.494 391.786 214.214 391.855 213.969 391.994C213.727 392.13 213.536 392.327 213.397 392.586C213.261 392.844 213.193 393.158 213.193 393.526ZM223.738 390.364V391.756H219.348V390.364H223.738ZM220.432 388.534H222.232V395.703C222.232 395.945 222.268 396.131 222.341 396.26C222.417 396.386 222.517 396.472 222.639 396.518C222.762 396.565 222.898 396.588 223.047 396.588C223.16 396.588 223.262 396.58 223.355 396.563C223.451 396.547 223.524 396.532 223.574 396.518L223.877 397.925C223.781 397.959 223.643 397.995 223.464 398.035C223.289 398.075 223.073 398.098 222.818 398.104C222.367 398.118 221.961 398.05 221.6 397.901C221.239 397.748 220.952 397.513 220.74 397.195C220.531 396.876 220.429 396.479 220.432 396.001V388.534ZM228.542 398.149C227.776 398.149 227.115 397.99 226.558 397.672C226.005 397.35 225.579 396.896 225.28 396.31C224.982 395.72 224.833 395.025 224.833 394.227C224.833 393.441 224.982 392.752 225.28 392.158C225.582 391.562 226.003 391.098 226.543 390.766C227.083 390.432 227.718 390.264 228.447 390.264C228.918 390.264 229.362 390.34 229.78 390.493C230.201 390.642 230.572 390.874 230.893 391.189C231.218 391.504 231.473 391.905 231.659 392.392C231.845 392.876 231.937 393.453 231.937 394.122V394.674H225.678V393.461H230.212C230.209 393.116 230.134 392.81 229.988 392.541C229.843 392.269 229.639 392.056 229.377 391.9C229.118 391.744 228.817 391.666 228.472 391.666C228.104 391.666 227.781 391.756 227.503 391.935C227.224 392.11 227.007 392.342 226.851 392.631C226.699 392.916 226.621 393.229 226.618 393.57V394.629C226.618 395.073 226.699 395.455 226.861 395.773C227.024 396.088 227.251 396.33 227.542 396.499C227.834 396.664 228.175 396.747 228.567 396.747C228.828 396.747 229.065 396.711 229.278 396.638C229.49 396.562 229.674 396.451 229.829 396.305C229.985 396.159 230.103 395.978 230.182 395.763L231.863 395.952C231.757 396.396 231.555 396.784 231.256 397.115C230.961 397.443 230.583 397.698 230.123 397.881C229.662 398.06 229.135 398.149 228.542 398.149Z" fill="white"/>
<g clip-path="url(#clip0_0_1)">
<path d="M156 211.5H216" stroke="#1473FB" stroke-width="10" stroke-linecap="round" stroke-linejoin="round"/>
<path d="M156 241.5H201" stroke="#1473FB" stroke-width="10" stroke-linecap="round" stroke-linejoin="round"/>
<path d="M186 301.5L163.5 279H141C135.033 279 129.31 276.629 125.09 272.41C120.871 268.19 118.5 262.467 118.5 256.5V196.5C118.5 190.533 120.871 184.81 125.09 180.59C129.31 176.371 135.033 174 141 174H231C236.967 174 242.69 176.371 246.91 180.59C251.129 184.81 253.5 190.533 253.5 196.5V241.5" stroke="#1473FB" stroke-width="10" stroke-linecap="round" stroke-linejoin="round"/>
<path d="M216 309L253.5 271.5" stroke="#1473FB" stroke-width="10" stroke-linecap="round" stroke-linejoin="round"/>
<path d="M253.5 305.25V271.5H219.75" stroke="#1473FB" stroke-width="10" stroke-linecap="round" stroke-linejoin="round"/>
</g>
<rect x="86.5" y="424.5" width="199" height="27" rx="13.5" fill="#EDF4FF" stroke="#1473FB"/>
<path d="M126.337 432.818V443H124.925L119.749 435.533H119.655V443H118.119V432.818H119.54L124.721 440.295H124.815V432.818H126.337ZM131.749 443.154C130.997 443.154 130.349 442.993 129.806 442.672C129.265 442.347 128.848 441.891 128.553 441.305C128.261 440.715 128.115 440.024 128.115 439.232C128.115 438.449 128.261 437.76 128.553 437.163C128.848 436.567 129.259 436.101 129.786 435.766C130.316 435.432 130.936 435.264 131.645 435.264C132.076 435.264 132.494 435.335 132.898 435.478C133.302 435.621 133.665 435.844 133.987 436.149C134.308 436.454 134.562 436.85 134.747 437.337C134.933 437.821 135.026 438.41 135.026 439.102V439.629H128.955V438.516H133.569C133.569 438.125 133.49 437.778 133.33 437.477C133.171 437.172 132.948 436.931 132.659 436.756C132.374 436.58 132.039 436.492 131.655 436.492C131.237 436.492 130.873 436.595 130.561 436.8C130.253 437.003 130.014 437.268 129.845 437.596C129.68 437.921 129.597 438.274 129.597 438.655V439.525C129.597 440.035 129.686 440.469 129.865 440.827C130.048 441.185 130.301 441.459 130.626 441.648C130.951 441.833 131.33 441.926 131.764 441.926C132.046 441.926 132.303 441.886 132.535 441.807C132.767 441.724 132.968 441.601 133.137 441.439C133.306 441.277 133.435 441.076 133.524 440.837L134.931 441.091C134.819 441.505 134.616 441.868 134.325 442.18C134.036 442.488 133.673 442.728 133.236 442.901C132.802 443.07 132.306 443.154 131.749 443.154ZM139.877 446.023C139.27 446.023 138.748 445.943 138.311 445.784C137.877 445.625 137.522 445.415 137.247 445.153C136.972 444.891 136.766 444.604 136.63 444.293L137.908 443.766C137.998 443.911 138.117 444.066 138.266 444.228C138.418 444.394 138.624 444.535 138.882 444.651C139.144 444.767 139.481 444.825 139.892 444.825C140.455 444.825 140.921 444.687 141.289 444.412C141.657 444.14 141.841 443.706 141.841 443.109V441.608H141.746C141.657 441.77 141.527 441.951 141.358 442.15C141.193 442.349 140.964 442.521 140.672 442.667C140.381 442.813 140.001 442.886 139.534 442.886C138.931 442.886 138.387 442.745 137.903 442.463C137.422 442.178 137.041 441.759 136.76 441.205C136.481 440.648 136.342 439.964 136.342 439.152C136.342 438.34 136.48 437.644 136.755 437.064C137.033 436.484 137.414 436.04 137.898 435.732C138.382 435.42 138.931 435.264 139.544 435.264C140.018 435.264 140.4 435.344 140.692 435.503C140.984 435.659 141.211 435.841 141.373 436.05C141.539 436.259 141.667 436.442 141.756 436.602H141.865V435.364H143.322V443.169C143.322 443.825 143.17 444.364 142.865 444.785C142.56 445.206 142.147 445.517 141.627 445.719C141.11 445.922 140.526 446.023 139.877 446.023ZM139.862 441.653C140.289 441.653 140.651 441.553 140.946 441.354C141.244 441.152 141.469 440.864 141.622 440.489C141.778 440.112 141.855 439.659 141.855 439.132C141.855 438.618 141.779 438.166 141.627 437.775C141.474 437.384 141.251 437.079 140.956 436.86C140.661 436.638 140.296 436.527 139.862 436.527C139.414 436.527 139.042 436.643 138.743 436.875C138.445 437.104 138.22 437.415 138.067 437.81C137.918 438.204 137.843 438.645 137.843 439.132C137.843 439.633 137.92 440.072 138.072 440.45C138.225 440.827 138.45 441.122 138.748 441.335C139.05 441.547 139.421 441.653 139.862 441.653ZM148.532 443.154C147.816 443.154 147.192 442.99 146.658 442.662C146.124 442.334 145.71 441.875 145.415 441.285C145.12 440.695 144.973 440.005 144.973 439.217C144.973 438.424 145.12 437.732 145.415 437.138C145.71 436.545 146.124 436.085 146.658 435.756C147.192 435.428 147.816 435.264 148.532 435.264C149.248 435.264 149.873 435.428 150.407 435.756C150.94 436.085 151.355 436.545 151.65 437.138C151.944 437.732 152.092 438.424 152.092 439.217C152.092 440.005 151.944 440.695 151.65 441.285C151.355 441.875 150.94 442.334 150.407 442.662C149.873 442.99 149.248 443.154 148.532 443.154ZM148.537 441.906C149.001 441.906 149.386 441.784 149.691 441.538C149.996 441.293 150.221 440.967 150.367 440.559C150.516 440.151 150.591 439.702 150.591 439.212C150.591 438.724 150.516 438.277 150.367 437.869C150.221 437.458 149.996 437.129 149.691 436.88C149.386 436.631 149.001 436.507 148.537 436.507C148.07 436.507 147.682 436.631 147.374 436.88C147.069 437.129 146.842 437.458 146.693 437.869C146.547 438.277 146.474 438.724 146.474 439.212C146.474 439.702 146.547 440.151 146.693 440.559C146.842 440.967 147.069 441.293 147.374 441.538C147.682 441.784 148.07 441.906 148.537 441.906ZM156.968 443.154C156.229 443.154 155.592 442.987 155.059 442.652C154.528 442.314 154.121 441.848 153.836 441.255C153.551 440.662 153.408 439.982 153.408 439.217C153.408 438.441 153.554 437.757 153.846 437.163C154.137 436.567 154.548 436.101 155.079 435.766C155.609 435.432 156.234 435.264 156.953 435.264C157.533 435.264 158.05 435.372 158.504 435.587C158.958 435.799 159.324 436.098 159.603 436.482C159.885 436.867 160.052 437.316 160.105 437.83H158.658C158.579 437.472 158.396 437.163 158.111 436.905C157.83 436.646 157.452 436.517 156.978 436.517C156.564 436.517 156.201 436.626 155.889 436.845C155.581 437.061 155.34 437.369 155.168 437.77C154.996 438.168 154.91 438.638 154.91 439.182C154.91 439.739 154.994 440.219 155.163 440.624C155.332 441.028 155.571 441.341 155.879 441.563C156.191 441.785 156.557 441.896 156.978 441.896C157.26 441.896 157.515 441.845 157.743 441.742C157.975 441.636 158.169 441.485 158.325 441.29C158.484 441.094 158.595 440.859 158.658 440.584H160.105C160.052 441.078 159.891 441.518 159.623 441.906C159.354 442.294 158.995 442.599 158.544 442.821C158.096 443.043 157.571 443.154 156.968 443.154ZM161.695 443V435.364H163.181V443H161.695ZM162.445 434.185C162.187 434.185 161.965 434.099 161.779 433.927C161.597 433.751 161.506 433.542 161.506 433.3C161.506 433.055 161.597 432.846 161.779 432.674C161.965 432.498 162.187 432.411 162.445 432.411C162.704 432.411 162.924 432.498 163.107 432.674C163.292 432.846 163.385 433.055 163.385 433.3C163.385 433.542 163.292 433.751 163.107 433.927C162.924 434.099 162.704 434.185 162.445 434.185ZM168.398 443.154C167.682 443.154 167.057 442.99 166.523 442.662C165.99 442.334 165.575 441.875 165.28 441.285C164.985 440.695 164.838 440.005 164.838 439.217C164.838 438.424 164.985 437.732 165.28 437.138C165.575 436.545 165.99 436.085 166.523 435.756C167.057 435.428 167.682 435.264 168.398 435.264C169.113 435.264 169.738 435.428 170.272 435.756C170.805 436.085 171.22 436.545 171.515 437.138C171.81 437.732 171.957 438.424 171.957 439.217C171.957 440.005 171.81 440.695 171.515 441.285C171.22 441.875 170.805 442.334 170.272 442.662C169.738 442.99 169.113 443.154 168.398 443.154ZM168.403 441.906C168.867 441.906 169.251 441.784 169.556 441.538C169.861 441.293 170.086 440.967 170.232 440.559C170.381 440.151 170.456 439.702 170.456 439.212C170.456 438.724 170.381 438.277 170.232 437.869C170.086 437.458 169.861 437.129 169.556 436.88C169.251 436.631 168.867 436.507 168.403 436.507C167.935 436.507 167.547 436.631 167.239 436.88C166.934 437.129 166.707 437.458 166.558 437.869C166.412 438.277 166.339 438.724 166.339 439.212C166.339 439.702 166.412 440.151 166.558 440.559C166.707 440.967 166.934 441.293 167.239 441.538C167.547 441.784 167.935 441.906 168.403 441.906ZM179.339 437.228L177.991 437.467C177.935 437.294 177.846 437.13 177.723 436.974C177.604 436.819 177.441 436.691 177.236 436.592C177.03 436.492 176.773 436.442 176.465 436.442C176.044 436.442 175.693 436.537 175.411 436.726C175.129 436.911 174.989 437.152 174.989 437.447C174.989 437.702 175.083 437.907 175.272 438.063C175.461 438.219 175.766 438.347 176.187 438.446L177.4 438.724C178.103 438.887 178.626 439.137 178.971 439.475C179.316 439.813 179.488 440.252 179.488 440.793C179.488 441.25 179.355 441.658 179.09 442.016C178.828 442.37 178.462 442.649 177.991 442.851C177.524 443.053 176.982 443.154 176.366 443.154C175.511 443.154 174.813 442.972 174.273 442.607C173.732 442.239 173.401 441.717 173.278 441.041L174.715 440.822C174.805 441.197 174.989 441.48 175.267 441.673C175.545 441.862 175.908 441.956 176.356 441.956C176.843 441.956 177.232 441.855 177.524 441.653C177.816 441.447 177.962 441.197 177.962 440.902C177.962 440.663 177.872 440.463 177.693 440.3C177.518 440.138 177.247 440.015 176.883 439.933L175.59 439.649C174.878 439.487 174.351 439.228 174.009 438.874C173.671 438.519 173.502 438.07 173.502 437.526C173.502 437.076 173.628 436.681 173.88 436.343C174.132 436.005 174.48 435.741 174.924 435.553C175.368 435.36 175.877 435.264 176.45 435.264C177.276 435.264 177.925 435.443 178.399 435.801C178.873 436.156 179.186 436.631 179.339 437.228ZM188.119 443.154C187.366 443.154 186.718 442.993 186.175 442.672C185.634 442.347 185.217 441.891 184.922 441.305C184.63 440.715 184.484 440.024 184.484 439.232C184.484 438.449 184.63 437.76 184.922 437.163C185.217 436.567 185.628 436.101 186.155 435.766C186.685 435.432 187.305 435.264 188.014 435.264C188.445 435.264 188.863 435.335 189.267 435.478C189.671 435.621 190.034 435.844 190.356 436.149C190.677 436.454 190.931 436.85 191.116 437.337C191.302 437.821 191.395 438.41 191.395 439.102V439.629H185.325V438.516H189.938C189.938 438.125 189.859 437.778 189.7 437.477C189.54 437.172 189.317 436.931 189.028 436.756C188.743 436.58 188.409 436.492 188.024 436.492C187.607 436.492 187.242 436.595 186.93 436.8C186.622 437.003 186.384 437.268 186.214 437.596C186.049 437.921 185.966 438.274 185.966 438.655V439.525C185.966 440.035 186.055 440.469 186.234 440.827C186.417 441.185 186.67 441.459 186.995 441.648C187.32 441.833 187.699 441.926 188.134 441.926C188.415 441.926 188.672 441.886 188.904 441.807C189.136 441.724 189.337 441.601 189.506 441.439C189.675 441.277 189.804 441.076 189.893 440.837L191.3 441.091C191.188 441.505 190.986 441.868 190.694 442.18C190.406 442.488 190.043 442.728 189.605 442.901C189.171 443.07 188.675 443.154 188.119 443.154ZM194.531 438.466V443H193.044V435.364H194.471V436.607H194.566C194.741 436.202 195.016 435.877 195.391 435.632C195.769 435.387 196.244 435.264 196.818 435.264C197.338 435.264 197.794 435.374 198.185 435.592C198.576 435.808 198.879 436.129 199.095 436.557C199.31 436.984 199.418 437.513 199.418 438.143V443H197.931V438.322C197.931 437.768 197.787 437.336 197.499 437.024C197.21 436.709 196.814 436.552 196.311 436.552C195.966 436.552 195.659 436.626 195.391 436.776C195.126 436.925 194.915 437.143 194.759 437.432C194.607 437.717 194.531 438.062 194.531 438.466ZM208.318 446.023C207.712 446.023 207.19 445.943 206.752 445.784C206.318 445.625 205.963 445.415 205.688 445.153C205.413 444.891 205.208 444.604 205.072 444.293L206.349 443.766C206.439 443.911 206.558 444.066 206.707 444.228C206.86 444.394 207.065 444.535 207.324 444.651C207.586 444.767 207.922 444.825 208.333 444.825C208.897 444.825 209.362 444.687 209.73 444.412C210.098 444.14 210.282 443.706 210.282 443.109V441.608H210.188C210.098 441.77 209.969 441.951 209.8 442.15C209.634 442.349 209.405 442.521 209.114 442.667C208.822 442.813 208.442 442.886 207.975 442.886C207.372 442.886 206.828 442.745 206.344 442.463C205.864 442.178 205.483 441.759 205.201 441.205C204.923 440.648 204.783 439.964 204.783 439.152C204.783 438.34 204.921 437.644 205.196 437.064C205.474 436.484 205.856 436.04 206.339 435.732C206.823 435.42 207.372 435.264 207.985 435.264C208.459 435.264 208.842 435.344 209.134 435.503C209.425 435.659 209.652 435.841 209.815 436.05C209.98 436.259 210.108 436.442 210.197 436.602H210.307V435.364H211.763V443.169C211.763 443.825 211.611 444.364 211.306 444.785C211.001 445.206 210.589 445.517 210.068 445.719C209.551 445.922 208.968 446.023 208.318 446.023ZM208.303 441.653C208.731 441.653 209.092 441.553 209.387 441.354C209.685 441.152 209.911 440.864 210.063 440.489C210.219 440.112 210.297 439.659 210.297 439.132C210.297 438.618 210.221 438.166 210.068 437.775C209.916 437.384 209.692 437.079 209.397 436.86C209.102 436.638 208.737 436.527 208.303 436.527C207.856 436.527 207.483 436.643 207.185 436.875C206.886 437.104 206.661 437.415 206.509 437.81C206.359 438.204 206.285 438.645 206.285 439.132C206.285 439.633 206.361 440.072 206.513 440.45C206.666 440.827 206.891 441.122 207.19 441.335C207.491 441.547 207.862 441.653 208.303 441.653ZM217.048 443.154C216.296 443.154 215.648 442.993 215.104 442.672C214.564 442.347 214.147 441.891 213.852 441.305C213.56 440.715 213.414 440.024 213.414 439.232C213.414 438.449 213.56 437.76 213.852 437.163C214.147 436.567 214.558 436.101 215.085 435.766C215.615 435.432 216.235 435.264 216.944 435.264C217.375 435.264 217.792 435.335 218.197 435.478C218.601 435.621 218.964 435.844 219.286 436.149C219.607 436.454 219.861 436.85 220.046 437.337C220.232 437.821 220.325 438.41 220.325 439.102V439.629H214.254V438.516H218.868C218.868 438.125 218.788 437.778 218.629 437.477C218.47 437.172 218.246 436.931 217.958 436.756C217.673 436.58 217.338 436.492 216.954 436.492C216.536 436.492 216.172 436.595 215.86 436.8C215.552 437.003 215.313 437.268 215.144 437.596C214.978 437.921 214.896 438.274 214.896 438.655V439.525C214.896 440.035 214.985 440.469 215.164 440.827C215.346 441.185 215.6 441.459 215.925 441.648C216.25 441.833 216.629 441.926 217.063 441.926C217.345 441.926 217.602 441.886 217.834 441.807C218.066 441.724 218.266 441.601 218.435 441.439C218.604 441.277 218.734 441.076 218.823 440.837L220.23 441.091C220.117 441.505 219.915 441.868 219.624 442.18C219.335 442.488 218.972 442.728 218.535 442.901C218.101 443.07 217.605 443.154 217.048 443.154ZM223.46 438.466V443H221.974V435.364H223.401V436.607H223.495C223.671 436.202 223.946 435.877 224.32 435.632C224.698 435.387 225.174 435.264 225.747 435.264C226.268 435.264 226.723 435.374 227.115 435.592C227.506 435.808 227.809 436.129 228.024 436.557C228.24 436.984 228.347 437.513 228.347 438.143V443H226.861V438.322C226.861 437.768 226.717 437.336 226.428 437.024C226.14 436.709 225.744 436.552 225.24 436.552C224.896 436.552 224.589 436.626 224.32 436.776C224.055 436.925 223.845 437.143 223.689 437.432C223.537 437.717 223.46 438.062 223.46 438.466ZM233.632 443.154C232.88 443.154 232.232 442.993 231.688 442.672C231.148 442.347 230.731 441.891 230.436 441.305C230.144 440.715 229.998 440.024 229.998 439.232C229.998 438.449 230.144 437.76 230.436 437.163C230.731 436.567 231.142 436.101 231.669 435.766C232.199 435.432 232.819 435.264 233.528 435.264C233.959 435.264 234.376 435.335 234.781 435.478C235.185 435.621 235.548 435.844 235.869 436.149C236.191 436.454 236.445 436.85 236.63 437.337C236.816 437.821 236.909 438.41 236.909 439.102V439.629H230.838V438.516H235.452C235.452 438.125 235.372 437.778 235.213 437.477C235.054 437.172 234.83 436.931 234.542 436.756C234.257 436.58 233.922 436.492 233.538 436.492C233.12 436.492 232.756 436.595 232.444 436.8C232.136 437.003 231.897 437.268 231.728 437.596C231.562 437.921 231.48 438.274 231.48 438.655V439.525C231.48 440.035 231.569 440.469 231.748 440.827C231.93 441.185 232.184 441.459 232.509 441.648C232.834 441.833 233.213 441.926 233.647 441.926C233.929 441.926 234.186 441.886 234.418 441.807C234.65 441.724 234.85 441.601 235.019 441.439C235.188 441.277 235.318 441.076 235.407 440.837L236.814 441.091C236.701 441.505 236.499 441.868 236.208 442.18C235.919 442.488 235.556 442.728 235.119 442.901C234.685 443.07 234.189 443.154 233.632 443.154ZM238.558 443V435.364H239.995V436.577H240.074C240.213 436.166 240.459 435.843 240.81 435.607C241.165 435.369 241.566 435.249 242.013 435.249C242.106 435.249 242.215 435.253 242.341 435.259C242.471 435.266 242.572 435.274 242.645 435.284V436.706C242.585 436.689 242.479 436.671 242.326 436.651C242.174 436.628 242.021 436.616 241.869 436.616C241.518 436.616 241.204 436.691 240.929 436.84C240.658 436.986 240.442 437.19 240.283 437.452C240.124 437.71 240.044 438.005 240.044 438.337V443H238.558ZM246.085 443.169C245.601 443.169 245.163 443.08 244.772 442.901C244.381 442.718 244.071 442.455 243.843 442.11C243.617 441.765 243.505 441.343 243.505 440.842C243.505 440.411 243.587 440.057 243.753 439.778C243.919 439.5 244.143 439.28 244.424 439.117C244.706 438.955 245.021 438.832 245.369 438.749C245.717 438.666 246.072 438.603 246.433 438.56C246.89 438.507 247.261 438.464 247.547 438.431C247.832 438.395 248.039 438.337 248.168 438.257C248.297 438.178 248.362 438.048 248.362 437.869V437.835C248.362 437.4 248.239 437.064 247.994 436.825C247.752 436.587 247.391 436.467 246.91 436.467C246.41 436.467 246.015 436.578 245.727 436.8C245.442 437.019 245.245 437.263 245.135 437.531L243.738 437.213C243.904 436.749 244.146 436.375 244.464 436.089C244.786 435.801 245.155 435.592 245.573 435.463C245.99 435.33 246.43 435.264 246.89 435.264C247.195 435.264 247.518 435.301 247.86 435.374C248.204 435.443 248.526 435.572 248.824 435.761C249.126 435.95 249.373 436.22 249.565 436.572C249.757 436.92 249.853 437.372 249.853 437.929V443H248.402V441.956H248.342C248.246 442.148 248.102 442.337 247.909 442.523C247.717 442.708 247.47 442.862 247.169 442.985C246.867 443.108 246.506 443.169 246.085 443.169ZM246.408 441.976C246.819 441.976 247.17 441.895 247.462 441.732C247.757 441.57 247.981 441.358 248.133 441.096C248.289 440.831 248.367 440.547 248.367 440.246V439.261C248.314 439.314 248.211 439.364 248.059 439.411C247.909 439.454 247.739 439.492 247.547 439.525C247.354 439.555 247.167 439.583 246.985 439.609C246.802 439.633 246.65 439.652 246.527 439.669C246.239 439.705 245.975 439.767 245.737 439.853C245.502 439.939 245.313 440.063 245.17 440.226C245.031 440.385 244.961 440.597 244.961 440.862C244.961 441.23 245.097 441.509 245.369 441.697C245.641 441.883 245.987 441.976 246.408 441.976ZM253.32 432.818V443H251.833V432.818H253.32Z" fill="#1473FB"/>
<defs>
<clipPath id="clip0_0_1">
<rect width="180" height="180" fill="white" transform="translate(96 144)"/>
</clipPath>
</defs>
</svg>
