<svg width="150" height="192" viewBox="0 0 150 192" fill="none" xmlns="http://www.w3.org/2000/svg">
<rect y="42" width="150" height="150" rx="25" fill="#D4D5D5"/>
<g clip-path="url(#clip0_1506_401)">
<path d="M101.517 86.3167C108.402 93.2006 112.339 102.492 112.497 112.227C112.655 121.961 109.021 131.376 102.363 138.479L101.517 139.354L83.8377 157.029C81.5945 159.271 78.583 160.576 75.4134 160.681C72.2437 160.785 69.1528 159.681 66.7669 157.592L66.1669 157.029L48.4836 139.35C41.4509 132.317 37.5 122.779 37.5 112.833C37.5 102.888 41.4509 93.3493 48.4836 86.3167C55.5162 79.284 65.0546 75.3331 75.0002 75.3331C84.9459 75.3331 94.4842 79.284 101.517 86.3167ZM75.0002 100.333C73.3587 100.333 71.7333 100.657 70.2167 101.285C68.7001 101.913 67.3221 102.834 66.1614 103.995C65.0007 105.155 64.0799 106.533 63.4517 108.05C62.8236 109.566 62.5002 111.192 62.5002 112.833C62.5002 114.475 62.8236 116.1 63.4517 117.617C64.0799 119.133 65.0007 120.511 66.1614 121.672C67.3221 122.833 68.7001 123.754 70.2167 124.382C71.7333 125.01 73.3587 125.333 75.0002 125.333C78.3154 125.333 81.4949 124.016 83.8391 121.672C86.1833 119.328 87.5002 116.149 87.5002 112.833C87.5002 109.518 86.1833 106.339 83.8391 103.995C81.4949 101.65 78.3154 100.333 75.0002 100.333Z" fill="#6C6C73"/>
</g>
<rect x="141" width="30" height="134" rx="15" transform="rotate(90 141 0)" fill="#F2F2F2"/>
<path d="M40.1186 20V9.81818H46.5021V11.1406H41.6548V14.2429H46.169V15.5604H41.6548V18.6776H46.5618V20H40.1186ZM49.9213 15.4659V20H48.4348V12.3636H49.8617V13.6065H49.9561C50.1318 13.2022 50.4069 12.8774 50.7814 12.6321C51.1593 12.3868 51.6349 12.2642 52.2083 12.2642C52.7286 12.2642 53.1844 12.3736 53.5755 12.5923C53.9666 12.8078 54.2698 13.1293 54.4853 13.5568C54.7007 13.9844 54.8084 14.513 54.8084 15.1428V20H53.3219V15.3217C53.3219 14.7682 53.1777 14.3357 52.8894 14.0241C52.601 13.7093 52.205 13.5518 51.7012 13.5518C51.3565 13.5518 51.0499 13.6264 50.7814 13.7756C50.5163 13.9247 50.3058 14.1435 50.15 14.4318C49.9976 14.7169 49.9213 15.0616 49.9213 15.4659ZM63.7237 20.1541C62.9846 20.1541 62.3482 19.9867 61.8146 19.652C61.2843 19.3139 60.8767 18.8482 60.5916 18.255C60.3066 17.6617 60.1641 16.9822 60.1641 16.2166C60.1641 15.4411 60.3099 14.7566 60.6016 14.1634C60.8932 13.5668 61.3042 13.1011 61.8345 12.7663C62.3648 12.4316 62.9896 12.2642 63.7088 12.2642C64.2888 12.2642 64.8059 12.3719 65.2599 12.5874C65.714 12.7995 66.0803 13.0978 66.3587 13.4822C66.6404 13.8667 66.8078 14.3158 66.8608 14.8295H65.4141C65.3345 14.4716 65.1522 14.1634 64.8672 13.9048C64.5855 13.6463 64.2076 13.517 63.7337 13.517C63.3194 13.517 62.9564 13.6264 62.6449 13.8452C62.3366 14.0606 62.0964 14.3688 61.924 14.7699C61.7517 15.1676 61.6655 15.6383 61.6655 16.1818C61.6655 16.7386 61.75 17.2192 61.919 17.6236C62.0881 18.0279 62.3267 18.3411 62.6349 18.5632C62.9465 18.7853 63.3127 18.8963 63.7337 18.8963C64.0154 18.8963 64.2706 18.8449 64.4993 18.7422C64.7313 18.6361 64.9252 18.4853 65.081 18.2898C65.2401 18.0942 65.3511 17.8589 65.4141 17.5838H66.8608C66.8078 18.0777 66.647 18.5185 66.3786 18.9062C66.1101 19.294 65.7505 19.599 65.2997 19.821C64.8523 20.0431 64.3269 20.1541 63.7237 20.1541ZM70.6728 20.169C70.1889 20.169 69.7514 20.0795 69.3603 19.9006C68.9692 19.7183 68.6593 19.4548 68.4306 19.1101C68.2052 18.7654 68.0925 18.3428 68.0925 17.8423C68.0925 17.4115 68.1754 17.0568 68.3411 16.7784C68.5068 16.5 68.7305 16.2796 69.0123 16.1172C69.294 15.9548 69.6088 15.8321 69.9569 15.7493C70.3049 15.6664 70.6595 15.6035 71.0208 15.5604C71.4782 15.5073 71.8494 15.4643 72.1344 15.4311C72.4194 15.3946 72.6266 15.3366 72.7559 15.2571C72.8851 15.1776 72.9498 15.0483 72.9498 14.8693V14.8345C72.9498 14.4003 72.8271 14.0639 72.5819 13.8253C72.3399 13.5866 71.9786 13.4673 71.498 13.4673C70.9976 13.4673 70.6032 13.5784 70.3148 13.8004C70.0298 14.0192 69.8326 14.2628 69.7232 14.5312L68.3262 14.2131C68.4919 13.7491 68.7338 13.3745 69.052 13.0895C69.3735 12.8011 69.7431 12.5923 70.1607 12.4631C70.5783 12.3305 71.0175 12.2642 71.4782 12.2642C71.7831 12.2642 72.1062 12.3007 72.4476 12.3736C72.7923 12.4432 73.1138 12.5724 73.4121 12.7614C73.7137 12.9503 73.9606 13.2204 74.1529 13.5717C74.3451 13.9197 74.4412 14.3722 74.4412 14.929V20H72.9895V18.956H72.9299C72.8337 19.1482 72.6896 19.3371 72.4973 19.5227C72.3051 19.7083 72.0582 19.8625 71.7566 19.9851C71.455 20.1077 71.0937 20.169 70.6728 20.169ZM70.9959 18.9759C71.4069 18.9759 71.7582 18.8946 72.0499 18.7322C72.3449 18.5698 72.5686 18.3577 72.7211 18.0959C72.8768 17.8307 72.9547 17.5473 72.9547 17.2457V16.2614C72.9017 16.3144 72.7989 16.3641 72.6465 16.4105C72.4973 16.4536 72.3266 16.4917 72.1344 16.5249C71.9422 16.5547 71.7549 16.5829 71.5726 16.6094C71.3903 16.6326 71.2379 16.6525 71.1152 16.669C70.8269 16.7055 70.5634 16.7668 70.3248 16.853C70.0894 16.9392 69.9005 17.0634 69.758 17.2259C69.6188 17.3849 69.5492 17.5971 69.5492 17.8622C69.5492 18.2301 69.6851 18.5085 69.9569 18.6974C70.2286 18.883 70.575 18.9759 70.9959 18.9759ZM76.4212 20V12.3636H77.848V13.6065H77.9425C78.1016 13.1856 78.3617 12.8575 78.723 12.6222C79.0843 12.3835 79.5168 12.2642 80.0206 12.2642C80.531 12.2642 80.9586 12.3835 81.3033 12.6222C81.6513 12.8608 81.9081 13.1889 82.0739 13.6065H82.1534C82.3357 13.1989 82.6257 12.8741 83.0234 12.6321C83.4212 12.3868 83.8951 12.2642 84.4453 12.2642C85.138 12.2642 85.7031 12.4813 86.1406 12.9155C86.5814 13.3497 86.8018 14.0043 86.8018 14.8793V20H85.3153V15.0185C85.3153 14.5014 85.1745 14.1269 84.8928 13.8949C84.611 13.6629 84.2746 13.5469 83.8835 13.5469C83.3996 13.5469 83.0234 13.696 82.755 13.9943C82.4865 14.2893 82.3523 14.6688 82.3523 15.1328V20H80.8707V14.924C80.8707 14.5097 80.7415 14.1766 80.483 13.9247C80.2244 13.6728 79.888 13.5469 79.4737 13.5469C79.192 13.5469 78.9318 13.6214 78.6932 13.7706C78.4579 13.9164 78.2673 14.1203 78.1214 14.3821C77.9789 14.6439 77.9077 14.9472 77.9077 15.2919V20H76.4212ZM88.7942 20V12.3636H90.2807V20H88.7942ZM89.5449 11.1854C89.2864 11.1854 89.0643 11.0992 88.8787 10.9268C88.6964 10.7512 88.6053 10.5424 88.6053 10.3004C88.6053 10.0552 88.6964 9.84635 88.8787 9.67401C89.0643 9.49834 89.2864 9.41051 89.5449 9.41051C89.8034 9.41051 90.0239 9.49834 90.2061 9.67401C90.3917 9.84635 90.4846 10.0552 90.4846 10.3004C90.4846 10.5424 90.3917 10.7512 90.2061 10.9268C90.0239 11.0992 89.8034 11.1854 89.5449 11.1854ZM93.767 15.4659V20H92.2805V12.3636H93.7074V13.6065H93.8018C93.9775 13.2022 94.2526 12.8774 94.6271 12.6321C95.005 12.3868 95.4806 12.2642 96.054 12.2642C96.5743 12.2642 97.0301 12.3736 97.4212 12.5923C97.8123 12.8078 98.1155 13.1293 98.331 13.5568C98.5464 13.9844 98.6541 14.513 98.6541 15.1428V20H97.1676V15.3217C97.1676 14.7682 97.0234 14.3357 96.7351 14.0241C96.4467 13.7093 96.0507 13.5518 95.5469 13.5518C95.2022 13.5518 94.8956 13.6264 94.6271 13.7756C94.362 13.9247 94.1515 14.1435 93.9957 14.4318C93.8433 14.7169 93.767 15.0616 93.767 15.4659ZM103.864 20.1541C103.148 20.1541 102.524 19.9901 101.99 19.6619C101.456 19.3338 101.042 18.8748 100.747 18.2848C100.452 17.6948 100.305 17.0054 100.305 16.2166C100.305 15.4245 100.452 14.7318 100.747 14.1385C101.042 13.5452 101.456 13.0845 101.99 12.7564C102.524 12.4283 103.148 12.2642 103.864 12.2642C104.58 12.2642 105.205 12.4283 105.739 12.7564C106.272 13.0845 106.687 13.5452 106.982 14.1385C107.277 14.7318 107.424 15.4245 107.424 16.2166C107.424 17.0054 107.277 17.6948 106.982 18.2848C106.687 18.8748 106.272 19.3338 105.739 19.6619C105.205 19.9901 104.58 20.1541 103.864 20.1541ZM103.869 18.9062C104.333 18.9062 104.718 18.7836 105.023 18.5384C105.328 18.2931 105.553 17.9666 105.699 17.5589C105.848 17.1513 105.923 16.7022 105.923 16.2116C105.923 15.7244 105.848 15.277 105.699 14.8693C105.553 14.4583 105.328 14.1286 105.023 13.88C104.718 13.6314 104.333 13.5071 103.869 13.5071C103.402 13.5071 103.014 13.6314 102.706 13.88C102.401 14.1286 102.174 14.4583 102.025 14.8693C101.879 15.277 101.806 15.7244 101.806 16.2116C101.806 16.7022 101.879 17.1513 102.025 17.5589C102.174 17.9666 102.401 18.2931 102.706 18.5384C103.014 18.7836 103.402 18.9062 103.869 18.9062Z" fill="#747373"/>
<defs>
<clipPath id="clip0_1506_401">
<rect width="100" height="100" fill="white" transform="translate(25 67)"/>
</clipPath>
</defs>
</svg>
