<svg width="200" height="250" viewBox="0 0 371 468" fill="none" xmlns="http://www.w3.org/2000/svg">
<rect width="371" height="468" rx="25" fill="white"/>
<rect x="50" y="379" width="270.422" height="30.2231" rx="15" fill="#1473FB"/>
<path d="M131.278 400V388.364H135.426C136.331 388.364 137.081 388.528 137.676 388.858C138.271 389.187 138.716 389.638 139.011 390.21C139.307 390.778 139.455 391.419 139.455 392.131C139.455 392.847 139.305 393.491 139.006 394.062C138.71 394.631 138.263 395.081 137.665 395.415C137.07 395.744 136.322 395.909 135.42 395.909H132.568V394.42H135.261C135.833 394.42 136.297 394.322 136.653 394.125C137.009 393.924 137.271 393.652 137.438 393.307C137.604 392.962 137.688 392.57 137.688 392.131C137.688 391.691 137.604 391.301 137.438 390.96C137.271 390.619 137.008 390.352 136.648 390.159C136.292 389.966 135.822 389.869 135.239 389.869H133.034V400H131.278ZM141.376 400V391.273H143.018V392.659H143.109C143.268 392.189 143.549 391.82 143.95 391.551C144.356 391.278 144.814 391.142 145.325 391.142C145.431 391.142 145.556 391.146 145.7 391.153C145.848 391.161 145.964 391.17 146.047 391.182V392.807C145.979 392.788 145.857 392.767 145.683 392.744C145.509 392.718 145.335 392.705 145.161 392.705C144.759 392.705 144.401 392.79 144.087 392.96C143.776 393.127 143.53 393.36 143.348 393.659C143.166 393.955 143.075 394.292 143.075 394.67V400H141.376ZM150.881 400.176C150.063 400.176 149.348 399.989 148.739 399.614C148.129 399.239 147.655 398.714 147.318 398.04C146.981 397.366 146.812 396.578 146.812 395.676C146.812 394.771 146.981 393.979 147.318 393.301C147.655 392.623 148.129 392.097 148.739 391.722C149.348 391.347 150.063 391.159 150.881 391.159C151.699 391.159 152.413 391.347 153.023 391.722C153.633 392.097 154.106 392.623 154.443 393.301C154.78 393.979 154.949 394.771 154.949 395.676C154.949 396.578 154.78 397.366 154.443 398.04C154.106 398.714 153.633 399.239 153.023 399.614C152.413 399.989 151.699 400.176 150.881 400.176ZM150.886 398.75C151.417 398.75 151.856 398.61 152.205 398.33C152.553 398.049 152.811 397.676 152.977 397.21C153.148 396.744 153.233 396.231 153.233 395.67C153.233 395.114 153.148 394.602 152.977 394.136C152.811 393.667 152.553 393.29 152.205 393.006C151.856 392.722 151.417 392.58 150.886 392.58C150.352 392.58 149.909 392.722 149.557 393.006C149.208 393.29 148.949 393.667 148.778 394.136C148.612 394.602 148.528 395.114 148.528 395.67C148.528 396.231 148.612 396.744 148.778 397.21C148.949 397.676 149.208 398.049 149.557 398.33C149.909 398.61 150.352 398.75 150.886 398.75ZM157.842 391.273L159.768 394.67L161.712 391.273H163.57L160.848 395.636L163.592 400H161.734L159.768 396.739L157.808 400H155.945L158.661 395.636L155.979 391.273H157.842ZM165.314 400V391.273H167.013V400H165.314ZM166.172 389.926C165.876 389.926 165.623 389.828 165.411 389.631C165.202 389.43 165.098 389.191 165.098 388.915C165.098 388.634 165.202 388.396 165.411 388.199C165.623 387.998 165.876 387.898 166.172 387.898C166.467 387.898 166.719 387.998 166.928 388.199C167.14 388.396 167.246 388.634 167.246 388.915C167.246 389.191 167.14 389.43 166.928 389.631C166.719 389.828 166.467 389.926 166.172 389.926ZM169.298 400V391.273H170.929V392.693H171.037C171.219 392.212 171.516 391.837 171.929 391.568C172.342 391.295 172.836 391.159 173.412 391.159C173.995 391.159 174.484 391.295 174.878 391.568C175.276 391.841 175.569 392.216 175.759 392.693H175.849C176.058 392.227 176.389 391.856 176.844 391.58C177.298 391.299 177.84 391.159 178.469 391.159C179.26 391.159 179.906 391.407 180.406 391.903C180.91 392.4 181.162 393.148 181.162 394.148V400H179.463V394.307C179.463 393.716 179.302 393.288 178.98 393.023C178.658 392.758 178.274 392.625 177.827 392.625C177.274 392.625 176.844 392.795 176.537 393.136C176.23 393.473 176.077 393.907 176.077 394.438V400H174.384V394.199C174.384 393.725 174.236 393.345 173.94 393.057C173.645 392.769 173.26 392.625 172.787 392.625C172.465 392.625 172.168 392.71 171.895 392.881C171.626 393.047 171.408 393.28 171.241 393.58C171.079 393.879 170.997 394.225 170.997 394.619V400H169.298ZM185.979 400.193C185.426 400.193 184.926 400.091 184.479 399.886C184.032 399.678 183.678 399.377 183.416 398.983C183.159 398.589 183.03 398.106 183.03 397.534C183.03 397.042 183.125 396.636 183.314 396.318C183.503 396 183.759 395.748 184.081 395.562C184.403 395.377 184.763 395.237 185.161 395.142C185.558 395.047 185.964 394.975 186.376 394.926C186.899 394.866 187.323 394.816 187.649 394.778C187.975 394.737 188.212 394.67 188.359 394.58C188.507 394.489 188.581 394.341 188.581 394.136V394.097C188.581 393.6 188.441 393.216 188.161 392.943C187.884 392.67 187.471 392.534 186.922 392.534C186.35 392.534 185.899 392.661 185.57 392.915C185.244 393.165 185.018 393.443 184.893 393.75L183.297 393.386C183.486 392.856 183.763 392.428 184.126 392.102C184.494 391.773 184.916 391.534 185.393 391.386C185.871 391.235 186.373 391.159 186.899 391.159C187.248 391.159 187.617 391.201 188.007 391.284C188.401 391.364 188.768 391.511 189.109 391.727C189.454 391.943 189.736 392.252 189.956 392.653C190.176 393.051 190.286 393.568 190.286 394.205V400H188.626V398.807H188.558C188.448 399.027 188.284 399.242 188.064 399.455C187.844 399.667 187.562 399.843 187.217 399.983C186.873 400.123 186.46 400.193 185.979 400.193ZM186.348 398.83C186.818 398.83 187.219 398.737 187.553 398.551C187.89 398.366 188.145 398.123 188.32 397.824C188.498 397.521 188.587 397.197 188.587 396.852V395.727C188.526 395.788 188.409 395.845 188.234 395.898C188.064 395.947 187.869 395.991 187.649 396.028C187.429 396.062 187.215 396.095 187.007 396.125C186.799 396.152 186.625 396.174 186.484 396.193C186.155 396.235 185.854 396.305 185.581 396.403C185.312 396.502 185.096 396.644 184.933 396.83C184.774 397.011 184.695 397.254 184.695 397.557C184.695 397.977 184.85 398.295 185.161 398.511C185.471 398.723 185.867 398.83 186.348 398.83ZM192.548 400V391.273H194.179V392.693H194.287C194.469 392.212 194.766 391.837 195.179 391.568C195.592 391.295 196.086 391.159 196.662 391.159C197.245 391.159 197.734 391.295 198.128 391.568C198.526 391.841 198.819 392.216 199.009 392.693H199.099C199.308 392.227 199.639 391.856 200.094 391.58C200.548 391.299 201.09 391.159 201.719 391.159C202.51 391.159 203.156 391.407 203.656 391.903C204.16 392.4 204.412 393.148 204.412 394.148V400H202.713V394.307C202.713 393.716 202.552 393.288 202.23 393.023C201.908 392.758 201.524 392.625 201.077 392.625C200.524 392.625 200.094 392.795 199.787 393.136C199.48 393.473 199.327 393.907 199.327 394.438V400H197.634V394.199C197.634 393.725 197.486 393.345 197.19 393.057C196.895 392.769 196.51 392.625 196.037 392.625C195.715 392.625 195.418 392.71 195.145 392.881C194.876 393.047 194.658 393.28 194.491 393.58C194.329 393.879 194.247 394.225 194.247 394.619V400H192.548ZM210.45 400.176C209.59 400.176 208.85 399.992 208.229 399.625C207.611 399.254 207.134 398.733 206.797 398.062C206.464 397.388 206.297 396.598 206.297 395.693C206.297 394.799 206.464 394.011 206.797 393.33C207.134 392.648 207.604 392.116 208.206 391.733C208.812 391.35 209.52 391.159 210.331 391.159C210.823 391.159 211.301 391.241 211.763 391.403C212.225 391.566 212.64 391.822 213.007 392.17C213.375 392.519 213.664 392.972 213.876 393.528C214.089 394.081 214.195 394.754 214.195 395.545V396.148H207.257V394.875H212.53C212.53 394.428 212.439 394.032 212.257 393.688C212.075 393.339 211.82 393.064 211.49 392.864C211.164 392.663 210.782 392.562 210.342 392.562C209.865 392.562 209.448 392.68 209.092 392.915C208.74 393.146 208.467 393.449 208.274 393.824C208.085 394.195 207.99 394.598 207.99 395.034V396.028C207.99 396.612 208.092 397.108 208.297 397.517C208.505 397.926 208.795 398.239 209.166 398.455C209.537 398.667 209.971 398.773 210.467 398.773C210.789 398.773 211.083 398.727 211.348 398.636C211.613 398.542 211.842 398.402 212.036 398.216C212.229 398.03 212.376 397.801 212.479 397.528L214.087 397.818C213.958 398.292 213.727 398.706 213.393 399.062C213.064 399.415 212.649 399.689 212.149 399.886C211.653 400.08 211.087 400.176 210.45 400.176ZM217.778 394.818V400H216.08V391.273H217.71V392.693H217.818C218.019 392.231 218.333 391.86 218.761 391.58C219.193 391.299 219.737 391.159 220.392 391.159C220.987 391.159 221.508 391.284 221.955 391.534C222.402 391.78 222.748 392.148 222.994 392.636C223.241 393.125 223.364 393.729 223.364 394.449V400H221.665V394.653C221.665 394.021 221.5 393.527 221.17 393.17C220.841 392.811 220.388 392.631 219.812 392.631C219.419 392.631 219.068 392.716 218.761 392.886C218.458 393.057 218.218 393.307 218.04 393.636C217.866 393.962 217.778 394.356 217.778 394.818ZM229.716 391.273V392.636H224.949V391.273H229.716ZM226.227 389.182H227.926V397.438C227.926 397.767 227.975 398.015 228.074 398.182C228.172 398.345 228.299 398.456 228.455 398.517C228.614 398.574 228.786 398.602 228.972 398.602C229.108 398.602 229.227 398.593 229.33 398.574C229.432 398.555 229.511 398.54 229.568 398.528L229.875 399.932C229.777 399.97 229.636 400.008 229.455 400.045C229.273 400.087 229.045 400.11 228.773 400.114C228.326 400.121 227.909 400.042 227.523 399.875C227.136 399.708 226.824 399.451 226.585 399.102C226.347 398.754 226.227 398.316 226.227 397.79V389.182ZM235.263 400.176C234.403 400.176 233.662 399.992 233.041 399.625C232.424 399.254 231.946 398.733 231.609 398.062C231.276 397.388 231.109 396.598 231.109 395.693C231.109 394.799 231.276 394.011 231.609 393.33C231.946 392.648 232.416 392.116 233.018 391.733C233.625 391.35 234.333 391.159 235.143 391.159C235.636 391.159 236.113 391.241 236.575 391.403C237.037 391.566 237.452 391.822 237.82 392.17C238.187 392.519 238.477 392.972 238.689 393.528C238.901 394.081 239.007 394.754 239.007 395.545V396.148H232.07V394.875H237.342C237.342 394.428 237.251 394.032 237.07 393.688C236.888 393.339 236.632 393.064 236.303 392.864C235.977 392.663 235.594 392.562 235.155 392.562C234.678 392.562 234.261 392.68 233.905 392.915C233.553 393.146 233.28 393.449 233.087 393.824C232.897 394.195 232.803 394.598 232.803 395.034V396.028C232.803 396.612 232.905 397.108 233.109 397.517C233.318 397.926 233.607 398.239 233.979 398.455C234.35 398.667 234.784 398.773 235.28 398.773C235.602 398.773 235.895 398.727 236.161 398.636C236.426 398.542 236.655 398.402 236.848 398.216C237.041 398.03 237.189 397.801 237.291 397.528L238.899 397.818C238.77 398.292 238.539 398.706 238.206 399.062C237.876 399.415 237.462 399.689 236.962 399.886C236.465 400.08 235.899 400.176 235.263 400.176Z" fill="white"/>
<rect x="100" y="106" width="180" height="180" rx="90" fill="#1473FB"/>
<circle cx="190.001" cy="196" r="60" fill="white"/>
<circle cx="189.999" cy="196" r="30" fill="#1473FB"/>
<line x1="190" y1="220" x2="190" y2="280" stroke="#1473FB" stroke-width="10"/>
<g filter="url(#filter0_d_0_1)">
<path d="M116.42 65.7273V89H112.67L101.705 73.1477H101.511V89H97.2955V65.7273H101.068L112.023 81.5909H112.227V65.7273H116.42ZM121.014 89V65.7273H136.151V69.2614H125.23V75.5795H135.366V79.1136H125.23V85.4659H136.241V89H121.014ZM143.974 65.7273L149.099 74.25H149.281L154.429 65.7273H159.236L152.065 77.3636L159.349 89H154.463L149.281 80.5341H149.099L143.918 89H139.054L146.406 77.3636L139.145 65.7273H143.974ZM166.068 65.7273L171.193 74.25H171.375L176.523 65.7273H181.33L174.159 77.3636L181.443 89H176.557L171.375 80.5341H171.193L166.011 89H161.148L168.5 77.3636L161.239 65.7273H166.068ZM199.31 65.7273H203.526V80.9318C203.526 82.5985 203.132 84.0644 202.344 85.3295C201.563 86.5947 200.465 87.5833 199.048 88.2955C197.632 89 195.976 89.3523 194.082 89.3523C192.181 89.3523 190.522 89 189.105 88.2955C187.688 87.5833 186.59 86.5947 185.81 85.3295C185.029 84.0644 184.639 82.5985 184.639 80.9318V65.7273H188.855V80.5795C188.855 81.5492 189.067 82.4129 189.491 83.1705C189.923 83.928 190.529 84.5227 191.31 84.9545C192.09 85.3788 193.014 85.5909 194.082 85.5909C195.151 85.5909 196.075 85.3788 196.855 84.9545C197.643 84.5227 198.249 83.928 198.673 83.1705C199.098 82.4129 199.31 81.5492 199.31 80.5795V65.7273ZM220.756 72.125C220.65 71.1326 220.203 70.3598 219.415 69.8068C218.634 69.2538 217.619 68.9773 216.369 68.9773C215.491 68.9773 214.737 69.1098 214.108 69.375C213.479 69.6402 212.998 70 212.665 70.4545C212.331 70.9091 212.161 71.428 212.153 72.0114C212.153 72.4962 212.263 72.9167 212.483 73.2727C212.71 73.6288 213.017 73.9318 213.403 74.1818C213.79 74.4242 214.218 74.6288 214.688 74.7955C215.157 74.9621 215.631 75.1023 216.108 75.2159L218.29 75.7614C219.169 75.9659 220.013 76.2424 220.824 76.5909C221.642 76.9394 222.373 77.3788 223.017 77.9091C223.669 78.4394 224.184 79.0795 224.562 79.8295C224.941 80.5795 225.131 81.4583 225.131 82.4659C225.131 83.8295 224.782 85.0303 224.085 86.0682C223.388 87.0985 222.381 87.9053 221.062 88.4886C219.752 89.0644 218.165 89.3523 216.301 89.3523C214.491 89.3523 212.919 89.072 211.585 88.5114C210.259 87.9508 209.222 87.1326 208.472 86.0568C207.729 84.9811 207.328 83.6705 207.267 82.125H211.415C211.475 82.9356 211.725 83.6098 212.165 84.1477C212.604 84.6856 213.176 85.0871 213.881 85.3523C214.593 85.6174 215.388 85.75 216.267 85.75C217.184 85.75 217.987 85.6136 218.676 85.3409C219.373 85.0606 219.919 84.6742 220.312 84.1818C220.706 83.6818 220.907 83.0985 220.915 82.4318C220.907 81.8258 220.729 81.3258 220.381 80.9318C220.032 80.5303 219.544 80.197 218.915 79.9318C218.294 79.6591 217.566 79.4167 216.733 79.2045L214.085 78.5227C212.169 78.0303 210.653 77.2841 209.54 76.2841C208.434 75.2765 207.881 73.9394 207.881 72.2727C207.881 70.9015 208.252 69.7008 208.994 68.6705C209.744 67.6402 210.763 66.8409 212.051 66.2727C213.339 65.697 214.797 65.4091 216.426 65.4091C218.078 65.4091 219.525 65.697 220.767 66.2727C222.017 66.8409 222.998 67.6326 223.71 68.6477C224.422 69.6553 224.79 70.8144 224.812 72.125H220.756ZM236.599 89V85.9545L244.679 78.0341C245.452 77.2538 246.096 76.5606 246.611 75.9545C247.126 75.3485 247.512 74.7614 247.77 74.1932C248.027 73.625 248.156 73.0189 248.156 72.375C248.156 71.6402 247.99 71.0114 247.656 70.4886C247.323 69.9583 246.865 69.5492 246.281 69.2614C245.698 68.9735 245.035 68.8295 244.293 68.8295C243.527 68.8295 242.857 68.9886 242.281 69.3068C241.705 69.6174 241.259 70.0606 240.94 70.6364C240.63 71.2121 240.474 71.8977 240.474 72.6932H236.463C236.463 71.2159 236.8 69.9318 237.474 68.8409C238.149 67.75 239.077 66.9053 240.259 66.3068C241.448 65.7083 242.812 65.4091 244.349 65.4091C245.91 65.4091 247.281 65.7008 248.463 66.2841C249.645 66.8674 250.562 67.6667 251.213 68.6818C251.872 69.697 252.202 70.8561 252.202 72.1591C252.202 73.0303 252.035 73.8864 251.702 74.7273C251.368 75.5682 250.781 76.5 249.94 77.5227C249.107 78.5455 247.937 79.7841 246.429 81.2386L242.418 85.3182V85.4773H252.554V89H236.599ZM259.054 89.25C258.365 89.25 257.774 89.0076 257.281 88.5227C256.789 88.0379 256.546 87.447 256.554 86.75C256.546 86.0682 256.789 85.4848 257.281 85C257.774 84.5152 258.365 84.2727 259.054 84.2727C259.721 84.2727 260.3 84.5152 260.793 85C261.293 85.4848 261.546 86.0682 261.554 86.75C261.546 87.2121 261.425 87.6326 261.19 88.0114C260.963 88.3902 260.66 88.6932 260.281 88.9205C259.91 89.1402 259.501 89.25 259.054 89.25ZM273.452 89.4432C271.58 89.4432 269.974 88.9697 268.634 88.0227C267.3 87.0682 266.274 85.6932 265.554 83.8977C264.842 82.0947 264.486 79.9242 264.486 77.3864C264.493 74.8485 264.853 72.6894 265.565 70.9091C266.285 69.1212 267.312 67.7576 268.645 66.8182C269.986 65.8788 271.588 65.4091 273.452 65.4091C275.315 65.4091 276.918 65.8788 278.259 66.8182C279.599 67.7576 280.626 69.1212 281.338 70.9091C282.058 72.697 282.418 74.8561 282.418 77.3864C282.418 79.9318 282.058 82.1061 281.338 83.9091C280.626 85.7045 279.599 87.0758 278.259 88.0227C276.925 88.9697 275.323 89.4432 273.452 89.4432ZM273.452 85.8864C274.906 85.8864 276.054 85.1705 276.895 83.7386C277.743 82.2992 278.168 80.1818 278.168 77.3864C278.168 75.5379 277.974 73.9848 277.588 72.7273C277.202 71.4697 276.656 70.5227 275.952 69.8864C275.247 69.2424 274.414 68.9205 273.452 68.9205C272.005 68.9205 270.861 69.6402 270.02 71.0795C269.179 72.5114 268.755 74.6136 268.747 77.3864C268.74 79.2424 268.925 80.803 269.304 82.0682C269.69 83.3333 270.236 84.2879 270.94 84.9318C271.645 85.5682 272.482 85.8864 273.452 85.8864Z" fill="#33343A"/>
</g>
<g clip-path="url(#clip0_0_1)">
<path d="M183.75 327.417C183.75 325.759 184.408 324.169 185.581 322.997C186.753 321.825 188.342 321.167 190 321.167C191.658 321.167 193.247 321.825 194.419 322.997C195.592 324.169 196.25 325.759 196.25 327.417V337.833C196.25 339.491 195.592 341.081 194.419 342.253C193.247 343.425 191.658 344.083 190 344.083C188.342 344.083 186.753 343.425 185.581 342.253C184.408 341.081 183.75 339.491 183.75 337.833V327.417Z" stroke="#1473FB" stroke-width="5" stroke-linecap="round" stroke-linejoin="round"/>
<path d="M175.417 337.833C175.417 341.701 176.953 345.41 179.688 348.145C182.423 350.88 186.133 352.417 190 352.417C193.868 352.417 197.577 350.88 200.312 348.145C203.047 345.41 204.584 341.701 204.584 337.833" stroke="#1473FB" stroke-width="5" stroke-linecap="round" stroke-linejoin="round"/>
<path d="M181.667 360.75H198.334" stroke="#1473FB" stroke-width="5" stroke-linecap="round" stroke-linejoin="round"/>
<path d="M190 352.417V360.75" stroke="#1473FB" stroke-width="5" stroke-linecap="round" stroke-linejoin="round"/>
</g>
<rect x="201.5" y="424.5" width="136" height="27" rx="13.5" fill="#EDF4FF" stroke="#1473FB"/>
<rect x="34.5" y="424.5" width="136" height="27" rx="13.5" fill="#EDF4FF" stroke="#1473FB"/>
<path d="M71.1186 443V432.818H77.5021V434.141H72.6548V437.243H77.169V438.56H72.6548V441.678H77.5618V443H71.1186ZM79.4348 443V435.364H80.8617V436.607H80.9561C81.1152 436.186 81.3754 435.857 81.7367 435.622C82.098 435.384 82.5305 435.264 83.0343 435.264C83.5447 435.264 83.9722 435.384 84.3169 435.622C84.665 435.861 84.9218 436.189 85.0875 436.607H85.1671C85.3494 436.199 85.6394 435.874 86.0371 435.632C86.4348 435.387 86.9088 435.264 87.459 435.264C88.1517 435.264 88.7168 435.481 89.1543 435.915C89.5951 436.35 89.8155 437.004 89.8155 437.879V443H88.329V438.018C88.329 437.501 88.1882 437.127 87.9064 436.895C87.6247 436.663 87.2883 436.547 86.8972 436.547C86.4133 436.547 86.0371 436.696 85.7686 436.994C85.5002 437.289 85.3659 437.669 85.3659 438.133V443H83.8844V437.924C83.8844 437.51 83.7551 437.177 83.4966 436.925C83.2381 436.673 82.9017 436.547 82.4874 436.547C82.2057 436.547 81.9455 436.621 81.7069 436.771C81.4715 436.916 81.281 437.12 81.1351 437.382C80.9926 437.644 80.9213 437.947 80.9213 438.292V443H79.4348ZM91.8079 445.864V435.364H93.2596V436.602H93.3839C93.4701 436.442 93.5943 436.259 93.7567 436.05C93.9192 435.841 94.1445 435.659 94.4329 435.503C94.7212 435.344 95.1024 435.264 95.5763 435.264C96.1928 435.264 96.743 435.42 97.2269 435.732C97.7108 436.043 98.0903 436.492 98.3654 437.079C98.6438 437.665 98.783 438.371 98.783 439.197C98.783 440.022 98.6455 440.73 98.3704 441.32C98.0953 441.906 97.7174 442.359 97.2369 442.677C96.7563 442.992 96.2077 443.149 95.5913 443.149C95.1272 443.149 94.7478 443.071 94.4528 442.915C94.1611 442.76 93.9324 442.577 93.7667 442.369C93.601 442.16 93.4734 441.974 93.3839 441.812H93.2944V445.864H91.8079ZM93.2646 439.182C93.2646 439.719 93.3424 440.189 93.4982 440.594C93.654 440.998 93.8794 441.315 94.1744 441.543C94.4693 441.769 94.8306 441.881 95.2582 441.881C95.7023 441.881 96.0735 441.764 96.3718 441.528C96.6701 441.29 96.8955 440.967 97.0479 440.559C97.2037 440.151 97.2816 439.692 97.2816 439.182C97.2816 438.678 97.2054 438.226 97.0529 437.825C96.9038 437.424 96.6784 437.107 96.3768 436.875C96.0785 436.643 95.7056 436.527 95.2582 436.527C94.8273 436.527 94.4627 436.638 94.1644 436.86C93.8694 437.082 93.6457 437.392 93.4933 437.79C93.3408 438.187 93.2646 438.652 93.2646 439.182ZM100.449 443V435.364H101.885V436.577H101.965C102.104 436.166 102.349 435.843 102.701 435.607C103.055 435.369 103.456 435.249 103.904 435.249C103.997 435.249 104.106 435.253 104.232 435.259C104.361 435.266 104.462 435.274 104.535 435.284V436.706C104.475 436.689 104.369 436.671 104.217 436.651C104.065 436.628 103.912 436.616 103.76 436.616C103.408 436.616 103.095 436.691 102.82 436.84C102.548 436.986 102.333 437.19 102.174 437.452C102.015 437.71 101.935 438.005 101.935 438.337V443H100.449ZM108.839 443.154C108.087 443.154 107.439 442.993 106.895 442.672C106.355 442.347 105.938 441.891 105.643 441.305C105.351 440.715 105.205 440.024 105.205 439.232C105.205 438.449 105.351 437.76 105.643 437.163C105.938 436.567 106.349 436.101 106.876 435.766C107.406 435.432 108.026 435.264 108.735 435.264C109.166 435.264 109.583 435.335 109.988 435.478C110.392 435.621 110.755 435.844 111.077 436.149C111.398 436.454 111.652 436.85 111.837 437.337C112.023 437.821 112.116 438.41 112.116 439.102V439.629H106.045V438.516H110.659C110.659 438.125 110.579 437.778 110.42 437.477C110.261 437.172 110.037 436.931 109.749 436.756C109.464 436.58 109.129 436.492 108.745 436.492C108.327 436.492 107.963 436.595 107.651 436.8C107.343 437.003 107.104 437.268 106.935 437.596C106.769 437.921 106.687 438.274 106.687 438.655V439.525C106.687 440.035 106.776 440.469 106.955 440.827C107.137 441.185 107.391 441.459 107.716 441.648C108.041 441.833 108.42 441.926 108.854 441.926C109.136 441.926 109.393 441.886 109.625 441.807C109.857 441.724 110.057 441.601 110.226 441.439C110.395 441.277 110.525 441.076 110.614 440.837L112.021 441.091C111.908 441.505 111.706 441.868 111.415 442.18C111.126 442.488 110.763 442.728 110.326 442.901C109.892 443.07 109.396 443.154 108.839 443.154ZM119.487 437.228L118.14 437.467C118.084 437.294 117.994 437.13 117.871 436.974C117.752 436.819 117.59 436.691 117.384 436.592C117.179 436.492 116.922 436.442 116.614 436.442C116.193 436.442 115.841 436.537 115.56 436.726C115.278 436.911 115.137 437.152 115.137 437.447C115.137 437.702 115.232 437.907 115.42 438.063C115.609 438.219 115.914 438.347 116.335 438.446L117.548 438.724C118.251 438.887 118.775 439.137 119.119 439.475C119.464 439.813 119.636 440.252 119.636 440.793C119.636 441.25 119.504 441.658 119.239 442.016C118.977 442.37 118.611 442.649 118.14 442.851C117.673 443.053 117.131 443.154 116.514 443.154C115.659 443.154 114.961 442.972 114.421 442.607C113.881 442.239 113.549 441.717 113.427 441.041L114.864 440.822C114.953 441.197 115.137 441.48 115.415 441.673C115.694 441.862 116.057 441.956 116.504 441.956C116.991 441.956 117.381 441.855 117.673 441.653C117.964 441.447 118.11 441.197 118.11 440.902C118.11 440.663 118.021 440.463 117.842 440.3C117.666 440.138 117.396 440.015 117.031 439.933L115.739 439.649C115.026 439.487 114.499 439.228 114.158 438.874C113.82 438.519 113.651 438.07 113.651 437.526C113.651 437.076 113.777 436.681 114.028 436.343C114.28 436.005 114.628 435.741 115.072 435.553C115.517 435.36 116.025 435.264 116.599 435.264C117.424 435.264 118.074 435.443 118.548 435.801C119.022 436.156 119.335 436.631 119.487 437.228ZM123.493 443.169C123.009 443.169 122.572 443.08 122.181 442.901C121.789 442.718 121.48 442.455 121.251 442.11C121.026 441.765 120.913 441.343 120.913 440.842C120.913 440.411 120.996 440.057 121.161 439.778C121.327 439.5 121.551 439.28 121.833 439.117C122.114 438.955 122.429 438.832 122.777 438.749C123.125 438.666 123.48 438.603 123.841 438.56C124.298 438.507 124.67 438.464 124.955 438.431C125.24 438.395 125.447 438.337 125.576 438.257C125.705 438.178 125.77 438.048 125.77 437.869V437.835C125.77 437.4 125.647 437.064 125.402 436.825C125.16 436.587 124.799 436.467 124.318 436.467C123.818 436.467 123.423 436.578 123.135 436.8C122.85 437.019 122.653 437.263 122.544 437.531L121.146 437.213C121.312 436.749 121.554 436.375 121.872 436.089C122.194 435.801 122.563 435.592 122.981 435.463C123.399 435.33 123.838 435.264 124.298 435.264C124.603 435.264 124.927 435.301 125.268 435.374C125.613 435.443 125.934 435.572 126.232 435.761C126.534 435.95 126.781 436.22 126.973 436.572C127.165 436.92 127.262 437.372 127.262 437.929V443H125.81V441.956H125.75C125.654 442.148 125.51 442.337 125.318 442.523C125.125 442.708 124.878 442.862 124.577 442.985C124.275 443.108 123.914 443.169 123.493 443.169ZM123.816 441.976C124.227 441.976 124.579 441.895 124.87 441.732C125.165 441.57 125.389 441.358 125.541 441.096C125.697 440.831 125.775 440.547 125.775 440.246V439.261C125.722 439.314 125.619 439.364 125.467 439.411C125.318 439.454 125.147 439.492 124.955 439.525C124.762 439.555 124.575 439.583 124.393 439.609C124.211 439.633 124.058 439.652 123.936 439.669C123.647 439.705 123.384 439.767 123.145 439.853C122.91 439.939 122.721 440.063 122.578 440.226C122.439 440.385 122.369 440.597 122.369 440.862C122.369 441.23 122.505 441.509 122.777 441.697C123.049 441.883 123.395 441.976 123.816 441.976ZM134.964 437.228L133.616 437.467C133.56 437.294 133.471 437.13 133.348 436.974C133.229 436.819 133.066 436.691 132.861 436.592C132.655 436.492 132.398 436.442 132.09 436.442C131.669 436.442 131.318 436.537 131.036 436.726C130.754 436.911 130.614 437.152 130.614 437.447C130.614 437.702 130.708 437.907 130.897 438.063C131.086 438.219 131.391 438.347 131.812 438.446L133.025 438.724C133.728 438.887 134.251 439.137 134.596 439.475C134.941 439.813 135.113 440.252 135.113 440.793C135.113 441.25 134.98 441.658 134.715 442.016C134.453 442.37 134.087 442.649 133.616 442.851C133.149 443.053 132.607 443.154 131.991 443.154C131.136 443.154 130.438 442.972 129.898 442.607C129.357 442.239 129.026 441.717 128.903 441.041L130.34 440.822C130.43 441.197 130.614 441.48 130.892 441.673C131.17 441.862 131.533 441.956 131.981 441.956C132.468 441.956 132.857 441.855 133.149 441.653C133.441 441.447 133.587 441.197 133.587 440.902C133.587 440.663 133.497 440.463 133.318 440.3C133.143 440.138 132.872 440.015 132.508 439.933L131.215 439.649C130.503 439.487 129.976 439.228 129.634 438.874C129.296 438.519 129.127 438.07 129.127 437.526C129.127 437.076 129.253 436.681 129.505 436.343C129.757 436.005 130.105 435.741 130.549 435.553C130.993 435.36 131.502 435.264 132.075 435.264C132.901 435.264 133.55 435.443 134.024 435.801C134.498 436.156 134.811 436.631 134.964 437.228Z" fill="#1473FB"/>
<path d="M239.199 443V432.091H246.038V433.508H240.844V436.832H245.681V438.243H240.844V441.583H246.102V443H239.199ZM254.24 436.816L252.796 437.071C252.736 436.887 252.64 436.711 252.509 436.544C252.381 436.377 252.207 436.24 251.987 436.134C251.766 436.027 251.491 435.974 251.161 435.974C250.71 435.974 250.334 436.075 250.032 436.278C249.73 436.477 249.579 436.734 249.579 437.05C249.579 437.324 249.68 437.544 249.883 437.711C250.085 437.877 250.412 438.014 250.863 438.121L252.162 438.419C252.915 438.593 253.476 438.861 253.846 439.223C254.215 439.586 254.4 440.056 254.4 440.635C254.4 441.125 254.258 441.562 253.973 441.945C253.693 442.325 253.301 442.624 252.796 442.84C252.296 443.057 251.715 443.165 251.054 443.165C250.138 443.165 249.391 442.97 248.812 442.579C248.233 442.185 247.878 441.626 247.747 440.901L249.286 440.667C249.382 441.068 249.579 441.372 249.877 441.578C250.176 441.78 250.564 441.881 251.044 441.881C251.566 441.881 251.983 441.773 252.296 441.556C252.608 441.336 252.764 441.068 252.764 440.752C252.764 440.496 252.668 440.282 252.477 440.108C252.288 439.934 251.999 439.802 251.608 439.713L250.223 439.41C249.46 439.236 248.895 438.959 248.53 438.579C248.167 438.199 247.986 437.718 247.986 437.135C247.986 436.652 248.121 436.23 248.391 435.868C248.661 435.505 249.034 435.223 249.51 435.021C249.986 434.815 250.531 434.712 251.145 434.712C252.029 434.712 252.725 434.903 253.233 435.287C253.741 435.667 254.076 436.176 254.24 436.816ZM259.597 443.165C258.805 443.165 258.123 442.986 257.552 442.627C256.983 442.265 256.547 441.766 256.241 441.13C255.936 440.495 255.783 439.767 255.783 438.946C255.783 438.115 255.939 437.382 256.252 436.746C256.564 436.107 257.005 435.608 257.573 435.25C258.141 434.891 258.811 434.712 259.581 434.712C260.203 434.712 260.757 434.827 261.243 435.058C261.73 435.285 262.122 435.605 262.42 436.017C262.722 436.429 262.901 436.91 262.958 437.46H261.408C261.323 437.077 261.128 436.746 260.822 436.469C260.52 436.192 260.116 436.054 259.608 436.054C259.164 436.054 258.775 436.171 258.441 436.406C258.111 436.636 257.854 436.967 257.669 437.396C257.484 437.822 257.392 438.327 257.392 438.909C257.392 439.506 257.482 440.021 257.664 440.454C257.845 440.887 258.1 441.223 258.431 441.461C258.764 441.699 259.157 441.817 259.608 441.817C259.91 441.817 260.183 441.762 260.428 441.652C260.677 441.539 260.884 441.377 261.051 441.168C261.222 440.958 261.341 440.706 261.408 440.411H262.958C262.901 440.94 262.729 441.413 262.442 441.828C262.154 442.244 261.769 442.57 261.286 442.808C260.806 443.046 260.243 443.165 259.597 443.165ZM269.844 439.607V434.818H271.442V443H269.876V441.583H269.791C269.603 442.02 269.301 442.384 268.886 442.675C268.474 442.963 267.96 443.107 267.346 443.107C266.821 443.107 266.355 442.991 265.951 442.76C265.549 442.526 265.233 442.18 265.002 441.722C264.775 441.263 264.661 440.697 264.661 440.022V434.818H266.254V439.831C266.254 440.388 266.409 440.832 266.718 441.162C267.027 441.493 267.428 441.658 267.921 441.658C268.22 441.658 268.516 441.583 268.811 441.434C269.109 441.285 269.356 441.059 269.551 440.757C269.75 440.456 269.848 440.072 269.844 439.607ZM277.109 443.165C276.303 443.165 275.608 442.993 275.026 442.648C274.447 442.3 274 441.812 273.684 441.184C273.371 440.551 273.215 439.811 273.215 438.962C273.215 438.124 273.371 437.386 273.684 436.746C274 436.107 274.44 435.608 275.005 435.25C275.573 434.891 276.237 434.712 276.997 434.712C277.458 434.712 277.906 434.788 278.339 434.941C278.772 435.093 279.161 435.333 279.506 435.66C279.85 435.987 280.122 436.411 280.321 436.933C280.52 437.451 280.619 438.082 280.619 438.824V439.388H274.115V438.195H279.058C279.058 437.776 278.973 437.405 278.803 437.082C278.632 436.755 278.392 436.498 278.083 436.31C277.778 436.121 277.419 436.027 277.007 436.027C276.56 436.027 276.169 436.137 275.836 436.358C275.505 436.574 275.25 436.858 275.069 437.21C274.891 437.558 274.802 437.936 274.802 438.344V439.277C274.802 439.824 274.898 440.289 275.09 440.672C275.285 441.056 275.557 441.349 275.905 441.551C276.253 441.75 276.659 441.849 277.125 441.849C277.426 441.849 277.702 441.807 277.95 441.722C278.199 441.633 278.414 441.501 278.595 441.327C278.776 441.153 278.914 440.939 279.01 440.683L280.518 440.955C280.397 441.398 280.18 441.787 279.868 442.121C279.559 442.451 279.17 442.709 278.701 442.893C278.236 443.075 277.705 443.165 277.109 443.165ZM283.979 432.091V443H282.386V432.091H283.979ZM288.502 443.181C287.984 443.181 287.515 443.085 287.096 442.893C286.677 442.698 286.345 442.416 286.1 442.047C285.859 441.677 285.738 441.224 285.738 440.688C285.738 440.227 285.827 439.847 286.004 439.548C286.182 439.25 286.422 439.014 286.723 438.84C287.025 438.666 287.363 438.534 287.735 438.446C288.108 438.357 288.488 438.289 288.875 438.243C289.365 438.186 289.763 438.14 290.069 438.105C290.374 438.066 290.596 438.004 290.734 437.918C290.873 437.833 290.942 437.695 290.942 437.503V437.466C290.942 437 290.811 436.64 290.548 436.384C290.289 436.129 289.902 436.001 289.387 436.001C288.85 436.001 288.428 436.12 288.119 436.358C287.814 436.592 287.602 436.853 287.485 437.141L285.988 436.8C286.166 436.303 286.425 435.901 286.766 435.596C287.11 435.287 287.506 435.063 287.954 434.925C288.401 434.783 288.872 434.712 289.365 434.712C289.692 434.712 290.038 434.751 290.404 434.829C290.773 434.903 291.118 435.042 291.438 435.244C291.761 435.447 292.025 435.736 292.231 436.113C292.437 436.485 292.54 436.97 292.54 437.567V443H290.985V441.881H290.921C290.818 442.087 290.663 442.29 290.457 442.489C290.251 442.687 289.987 442.853 289.664 442.984C289.341 443.115 288.953 443.181 288.502 443.181ZM288.849 441.903C289.289 441.903 289.665 441.816 289.978 441.642C290.294 441.468 290.534 441.24 290.697 440.96C290.864 440.676 290.947 440.372 290.947 440.049V438.994C290.891 439.051 290.781 439.104 290.617 439.154C290.457 439.2 290.275 439.241 290.069 439.277C289.863 439.309 289.662 439.339 289.467 439.367C289.271 439.392 289.108 439.413 288.977 439.431C288.668 439.47 288.385 439.536 288.13 439.628C287.877 439.721 287.675 439.854 287.522 440.028C287.373 440.198 287.299 440.425 287.299 440.71C287.299 441.104 287.444 441.402 287.735 441.604C288.027 441.803 288.398 441.903 288.849 441.903ZM300.793 436.816L299.349 437.071C299.289 436.887 299.193 436.711 299.061 436.544C298.934 436.377 298.759 436.24 298.539 436.134C298.319 436.027 298.044 435.974 297.714 435.974C297.263 435.974 296.886 436.075 296.584 436.278C296.283 436.477 296.132 436.734 296.132 437.05C296.132 437.324 296.233 437.544 296.435 437.711C296.638 437.877 296.964 438.014 297.415 438.121L298.715 438.419C299.468 438.593 300.029 438.861 300.398 439.223C300.768 439.586 300.952 440.056 300.952 440.635C300.952 441.125 300.81 441.562 300.526 441.945C300.246 442.325 299.853 442.624 299.349 442.84C298.848 443.057 298.268 443.165 297.607 443.165C296.691 443.165 295.943 442.97 295.365 442.579C294.786 442.185 294.431 441.626 294.299 440.901L295.839 440.667C295.935 441.068 296.132 441.372 296.43 441.578C296.728 441.78 297.117 441.881 297.597 441.881C298.119 441.881 298.536 441.773 298.848 441.556C299.161 441.336 299.317 441.068 299.317 440.752C299.317 440.496 299.221 440.282 299.029 440.108C298.841 439.934 298.552 439.802 298.161 439.713L296.776 439.41C296.013 439.236 295.448 438.959 295.082 438.579C294.72 438.199 294.539 437.718 294.539 437.135C294.539 436.652 294.674 436.23 294.944 435.868C295.214 435.505 295.587 435.223 296.062 435.021C296.538 434.815 297.083 434.712 297.698 434.712C298.582 434.712 299.278 434.903 299.786 435.287C300.294 435.667 300.629 436.176 300.793 436.816Z" fill="#1473FB"/>
<defs>
<filter id="filter0_d_0_1" x="93.2959" y="65.4091" width="193.122" height="32.0342" filterUnits="userSpaceOnUse" color-interpolation-filters="sRGB">
<feFlood flood-opacity="0" result="BackgroundImageFix"/>
<feColorMatrix in="SourceAlpha" type="matrix" values="0 0 0 0 0 0 0 0 0 0 0 0 0 0 0 0 0 0 127 0" result="hardAlpha"/>
<feOffset dy="4"/>
<feGaussianBlur stdDeviation="2"/>
<feComposite in2="hardAlpha" operator="out"/>
<feColorMatrix type="matrix" values="0 0 0 0 0 0 0 0 0 0 0 0 0 0 0 0 0 0 0.25 0"/>
<feBlend mode="normal" in2="BackgroundImageFix" result="effect1_dropShadow_0_1"/>
<feBlend mode="normal" in="SourceGraphic" in2="effect1_dropShadow_0_1" result="shape"/>
</filter>
<clipPath id="clip0_0_1">
<rect width="50" height="50" fill="white" transform="translate(165 317)"/>
</clipPath>
</defs>
</svg>
