<svg width="150" height="192" viewBox="0 0 150 192" fill="none" xmlns="http://www.w3.org/2000/svg">
<rect x="144" width="30" height="134" rx="15" transform="rotate(90 144 0)" fill="#00B854"/>
<path d="M40.0085 9.81818L42.8423 18.1108H42.9567L45.7905 9.81818H47.451L43.7869 20H42.0121L38.348 9.81818H40.0085ZM51.3276 20.1541C50.5752 20.1541 49.9273 19.9934 49.3837 19.6719C48.8435 19.3471 48.4258 18.8913 48.1309 18.3047C47.8392 17.7147 47.6934 17.0237 47.6934 16.2315C47.6934 15.4493 47.8392 14.7599 48.1309 14.1634C48.4258 13.5668 48.8368 13.1011 49.3638 12.7663C49.8941 12.4316 50.5139 12.2642 51.2232 12.2642C51.6541 12.2642 52.0717 12.3355 52.476 12.478C52.8804 12.6205 53.2433 12.8442 53.5648 13.1491C53.8863 13.4541 54.1399 13.8501 54.3255 14.3374C54.5111 14.8213 54.6039 15.4096 54.6039 16.1023V16.6293H48.5336V15.5156H53.1472C53.1472 15.1245 53.0676 14.7782 52.9086 14.4766C52.7495 14.1716 52.5257 13.9313 52.2374 13.7557C51.9524 13.58 51.6176 13.4922 51.2331 13.4922C50.8155 13.4922 50.4509 13.5949 50.1394 13.8004C49.8311 14.0026 49.5925 14.2678 49.4235 14.5959C49.2578 14.9207 49.1749 15.2737 49.1749 15.6548V16.5249C49.1749 17.0353 49.2644 17.4695 49.4434 17.8274C49.6257 18.1854 49.8792 18.4588 50.204 18.6477C50.5288 18.8333 50.9083 18.9261 51.3425 18.9261C51.6242 18.9261 51.8811 18.8864 52.1131 18.8068C52.3451 18.724 52.5456 18.6013 52.7147 18.4389C52.8837 18.2765 53.013 18.076 53.1025 17.8374L54.5094 18.0909C54.3967 18.5052 54.1945 18.8681 53.9029 19.1797C53.6145 19.4879 53.2516 19.7282 52.8141 19.9006C52.3799 20.0696 51.8844 20.1541 51.3276 20.1541ZM56.2532 20V12.3636H57.69V13.5767H57.7695C57.9087 13.1657 58.154 12.8426 58.5053 12.6072C58.86 12.3686 59.261 12.2493 59.7085 12.2493C59.8013 12.2493 59.9106 12.2526 60.0366 12.2592C60.1658 12.2659 60.2669 12.2741 60.3398 12.2841V13.706C60.2802 13.6894 60.1741 13.6712 60.0217 13.6513C59.8692 13.6281 59.7167 13.6165 59.5643 13.6165C59.213 13.6165 58.8997 13.6911 58.6246 13.8402C58.3529 13.986 58.1374 14.1899 57.9783 14.4517C57.8192 14.7102 57.7397 15.0052 57.7397 15.3366V20H56.2532ZM67.3485 14.228L66.0012 14.4666C65.9449 14.2943 65.8554 14.1302 65.7328 13.9744C65.6135 13.8187 65.4511 13.6911 65.2456 13.5916C65.0401 13.4922 64.7832 13.4425 64.475 13.4425C64.054 13.4425 63.7027 13.5369 63.421 13.7259C63.1393 13.9115 62.9984 14.1518 62.9984 14.4467C62.9984 14.7019 63.0929 14.9074 63.2818 15.0632C63.4707 15.219 63.7756 15.3466 64.1966 15.446L65.4096 15.7244C66.1123 15.8868 66.6359 16.1371 66.9806 16.4751C67.3253 16.8132 67.4977 17.2524 67.4977 17.7926C67.4977 18.25 67.3651 18.6577 67.1 19.0156C66.8381 19.3703 66.4719 19.6487 66.0012 19.8509C65.5339 20.053 64.992 20.1541 64.3755 20.1541C63.5204 20.1541 62.8227 19.9718 62.2825 19.6072C61.7422 19.2393 61.4108 18.7173 61.2882 18.0412L62.725 17.8224C62.8145 18.197 62.9984 18.4804 63.2768 18.6726C63.5552 18.8615 63.9181 18.956 64.3656 18.956C64.8528 18.956 65.2422 18.8549 65.5339 18.6527C65.8256 18.4472 65.9714 18.197 65.9714 17.902C65.9714 17.6634 65.8819 17.4628 65.7029 17.3004C65.5273 17.138 65.2572 17.0154 64.8926 16.9325L63.6 16.6491C62.8874 16.4867 62.3604 16.2282 62.019 15.8736C61.6809 15.5189 61.5119 15.0698 61.5119 14.5263C61.5119 14.0755 61.6378 13.6811 61.8897 13.343C62.1416 13.005 62.4896 12.7415 62.9338 12.5526C63.3779 12.3603 63.8867 12.2642 64.46 12.2642C65.2853 12.2642 65.935 12.4432 66.4089 12.8011C66.8829 13.1558 67.1961 13.6314 67.3485 14.228ZM69.1321 20V12.3636H70.6186V20H69.1321ZM69.8828 11.1854C69.6243 11.1854 69.4022 11.0992 69.2166 10.9268C69.0343 10.7512 68.9432 10.5424 68.9432 10.3004C68.9432 10.0552 69.0343 9.84635 69.2166 9.67401C69.4022 9.49834 69.6243 9.41051 69.8828 9.41051C70.1413 9.41051 70.3617 9.49834 70.544 9.67401C70.7296 9.84635 70.8224 10.0552 70.8224 10.3004C70.8224 10.5424 70.7296 10.7512 70.544 10.9268C70.3617 11.0992 70.1413 11.1854 69.8828 11.1854ZM75.835 20.1541C75.1191 20.1541 74.4944 19.9901 73.9608 19.6619C73.4271 19.3338 73.0128 18.8748 72.7179 18.2848C72.4229 17.6948 72.2754 17.0054 72.2754 16.2166C72.2754 15.4245 72.4229 14.7318 72.7179 14.1385C73.0128 13.5452 73.4271 13.0845 73.9608 12.7564C74.4944 12.4283 75.1191 12.2642 75.835 12.2642C76.551 12.2642 77.1757 12.4283 77.7093 12.7564C78.243 13.0845 78.6573 13.5452 78.9522 14.1385C79.2472 14.7318 79.3947 15.4245 79.3947 16.2166C79.3947 17.0054 79.2472 17.6948 78.9522 18.2848C78.6573 18.8748 78.243 19.3338 77.7093 19.6619C77.1757 19.9901 76.551 20.1541 75.835 20.1541ZM75.84 18.9062C76.304 18.9062 76.6885 18.7836 76.9934 18.5384C77.2984 18.2931 77.5237 17.9666 77.6696 17.5589C77.8187 17.1513 77.8933 16.7022 77.8933 16.2116C77.8933 15.7244 77.8187 15.277 77.6696 14.8693C77.5237 14.4583 77.2984 14.1286 76.9934 13.88C76.6885 13.6314 76.304 13.5071 75.84 13.5071C75.3727 13.5071 74.9849 13.6314 74.6767 13.88C74.3717 14.1286 74.1447 14.4583 73.9956 14.8693C73.8497 15.277 73.7768 15.7244 73.7768 16.2116C73.7768 16.7022 73.8497 17.1513 73.9956 17.5589C74.1447 17.9666 74.3717 18.2931 74.6767 18.5384C74.9849 18.7836 75.3727 18.9062 75.84 18.9062ZM82.5405 15.4659V20H81.054V12.3636H82.4808V13.6065H82.5753C82.7509 13.2022 83.026 12.8774 83.4006 12.6321C83.7784 12.3868 84.254 12.2642 84.8274 12.2642C85.3478 12.2642 85.8035 12.3736 86.1946 12.5923C86.5857 12.8078 86.889 13.1293 87.1044 13.5568C87.3198 13.9844 87.4276 14.513 87.4276 15.1428V20H85.9411V15.3217C85.9411 14.7682 85.7969 14.3357 85.5085 14.0241C85.2202 13.7093 84.8241 13.5518 84.3203 13.5518C83.9756 13.5518 83.669 13.6264 83.4006 13.7756C83.1354 13.9247 82.925 14.1435 82.7692 14.4318C82.6167 14.7169 82.5405 15.0616 82.5405 15.4659ZM96.9693 9.81818V20H95.4281V11.3594H95.3684L92.9324 12.9503V11.4787L95.4728 9.81818H96.9693ZM100.135 20.0945C99.8632 20.0945 99.6295 19.9983 99.4339 19.8061C99.2384 19.6106 99.1406 19.3752 99.1406 19.1001C99.1406 18.8284 99.2384 18.5964 99.4339 18.4041C99.6295 18.2086 99.8632 18.1108 100.135 18.1108C100.407 18.1108 100.64 18.2086 100.836 18.4041C101.031 18.5964 101.129 18.8284 101.129 19.1001C101.129 19.2824 101.083 19.4498 100.99 19.6023C100.901 19.7514 100.781 19.8707 100.632 19.9602C100.483 20.0497 100.317 20.0945 100.135 20.0945ZM106.276 20.169C105.491 20.1657 104.819 19.9586 104.263 19.5476C103.706 19.1366 103.28 18.5384 102.985 17.7528C102.69 16.9673 102.542 16.0211 102.542 14.9141C102.542 13.8104 102.69 12.8674 102.985 12.0852C103.283 11.303 103.711 10.7064 104.268 10.2955C104.828 9.88447 105.497 9.67898 106.276 9.67898C107.055 9.67898 107.723 9.88613 108.28 10.3004C108.836 10.7114 109.262 11.308 109.557 12.0902C109.856 12.8691 110.005 13.8104 110.005 14.9141C110.005 16.0244 109.857 16.9723 109.562 17.7578C109.267 18.54 108.841 19.1383 108.285 19.5526C107.728 19.9635 107.058 20.169 106.276 20.169ZM106.276 18.8416C106.965 18.8416 107.504 18.5052 107.892 17.8324C108.283 17.1596 108.479 16.1868 108.479 14.9141C108.479 14.0689 108.389 13.3546 108.21 12.7713C108.034 12.1847 107.781 11.7405 107.449 11.4389C107.121 11.134 106.73 10.9815 106.276 10.9815C105.59 10.9815 105.051 11.3196 104.66 11.9957C104.269 12.6719 104.072 13.6446 104.069 14.9141C104.069 15.7625 104.157 16.4801 104.332 17.0668C104.511 17.6501 104.765 18.0926 105.093 18.3942C105.421 18.6925 105.815 18.8416 106.276 18.8416Z" fill="#FAFAFA"/>
<rect y="42" width="150" height="150" rx="25" fill="#207DF8"/>
<g filter="url(#filter0_d_2396_18)">
<path d="M112.5 120C112.5 115.075 111.53 110.199 109.645 105.649C107.761 101.1 104.999 96.9657 101.517 93.4835C98.0343 90.0013 93.9003 87.2391 89.3506 85.3545C84.8009 83.47 79.9246 82.5 75 82.5C70.0754 82.5 65.1991 83.47 60.6494 85.3545C56.0997 87.2391 51.9657 90.0013 48.4835 93.4835C45.0013 96.9657 42.2391 101.1 40.3545 105.649C38.47 110.199 37.5 115.075 37.5 120L75 120H112.5Z" fill="white"/>
<rect x="73.5" y="76.5" width="3" height="6" fill="white"/>
<rect x="79.5" y="76.5" width="3" height="9" transform="rotate(90 79.5 76.5)" fill="white"/>
<path d="M43.4995 106.5C46.3177 100.283 52.6321 93.6888 55.8169 92.0724" stroke="#BDBDBD" stroke-linecap="round"/>
<rect x="30" y="120" width="90" height="4.5" rx="2.25" fill="#F2F2F2"/>
<rect x="36" y="124.5" width="78" height="4.5" rx="2.25" fill="#D8D8D8"/>
<rect x="57" y="129" width="36" height="7.5" rx="3.75" fill="#FFE8C9"/>
<rect x="61.5" y="136.5" width="27" height="9" rx="2" fill="#33343A"/>
<circle cx="85.5" cy="141" r="1.5" fill="white"/>
</g>
<defs>
<filter id="filter0_d_2396_18" x="26" y="76.5" width="98" height="77" filterUnits="userSpaceOnUse" color-interpolation-filters="sRGB">
<feFlood flood-opacity="0" result="BackgroundImageFix"/>
<feColorMatrix in="SourceAlpha" type="matrix" values="0 0 0 0 0 0 0 0 0 0 0 0 0 0 0 0 0 0 127 0" result="hardAlpha"/>
<feOffset dy="4"/>
<feGaussianBlur stdDeviation="2"/>
<feComposite in2="hardAlpha" operator="out"/>
<feColorMatrix type="matrix" values="0 0 0 0 0 0 0 0 0 0 0 0 0 0 0 0 0 0 0.25 0"/>
<feBlend mode="normal" in2="BackgroundImageFix" result="effect1_dropShadow_2396_18"/>
<feBlend mode="normal" in="SourceGraphic" in2="effect1_dropShadow_2396_18" result="shape"/>
</filter>
</defs>
</svg>
