<svg width="485" height="234" viewBox="0 0 485 234" fill="none" xmlns="http://www.w3.org/2000/svg">
<rect x="0.5" y="0.5" width="484" height="233" rx="14.5" fill="white" stroke="#F2F2F2"/>
<path d="M66.4091 38V26.3636H67.8182V31.5455H74.0227V26.3636H75.4318V38H74.0227V32.7955H67.8182V38H66.4091ZM77.6165 27.6136V26.3636H86.3438V27.6136H82.6847V38H81.2756V27.6136H77.6165ZM88.5185 26.3636H90.2003L94.1548 36.0227H94.2912L98.2457 26.3636H99.9276V38H98.6094V29.1591H98.4957L94.8594 38H93.5866L89.9503 29.1591H89.8366V38H88.5185V26.3636ZM102.753 38V26.3636H104.162V36.75H109.571V38H102.753Z" fill="#1473FB"/>
<rect x="352" y="23" width="95" height="22" rx="11" fill="#B1F1CE"/>
<path d="M377.759 38V29.2727H383.639V30.794H379.604V32.8736H383.337V34.3949H379.604V36.4787H383.656V38H377.759ZM385.072 31.4545H386.887V38.3239C386.887 38.8295 386.788 39.2386 386.589 39.5511C386.39 39.8636 386.105 40.0923 385.733 40.2372C385.363 40.3821 384.922 40.4545 384.407 40.4545C384.345 40.4545 384.285 40.4531 384.228 40.4503C384.169 40.4503 384.106 40.4489 384.041 40.446V39.027C384.089 39.0298 384.132 39.0312 384.169 39.0312C384.203 39.0341 384.24 39.0355 384.279 39.0355C384.572 39.0355 384.777 38.973 384.893 38.848C385.012 38.7259 385.072 38.5412 385.072 38.294V31.4545ZM385.975 30.6108C385.708 30.6108 385.478 30.5213 385.285 30.3423C385.092 30.1605 384.995 29.9432 384.995 29.6903C384.995 29.4403 385.092 29.2259 385.285 29.0469C385.478 28.8651 385.708 28.7741 385.975 28.7741C386.248 28.7741 386.48 28.8651 386.67 29.0469C386.863 29.2259 386.96 29.4403 386.96 29.6903C386.96 29.9432 386.863 30.1605 386.67 30.3423C386.48 30.5213 386.248 30.6108 385.975 30.6108ZM391.325 38.1278C390.651 38.1278 390.072 37.9915 389.586 37.7188C389.103 37.4432 388.731 37.054 388.469 36.5511C388.208 36.0455 388.077 35.4474 388.077 34.7571C388.077 34.0838 388.208 33.4929 388.469 32.9844C388.731 32.4759 389.099 32.0795 389.573 31.7955C390.05 31.5114 390.61 31.3693 391.252 31.3693C391.684 31.3693 392.086 31.4389 392.458 31.5781C392.833 31.7145 393.16 31.9205 393.438 32.196C393.719 32.4716 393.938 32.8182 394.094 33.2358C394.251 33.6506 394.329 34.1364 394.329 34.6932V35.1918H388.802V34.0668H392.62C392.62 33.8054 392.563 33.5739 392.45 33.3722C392.336 33.1705 392.178 33.0128 391.977 32.8991C391.778 32.7827 391.546 32.7244 391.282 32.7244C391.006 32.7244 390.762 32.7884 390.549 32.9162C390.339 33.0412 390.174 33.2102 390.055 33.4233C389.935 33.6335 389.874 33.8679 389.871 34.1264V35.196C389.871 35.5199 389.931 35.7997 390.05 36.0355C390.173 36.2713 390.344 36.4531 390.566 36.581C390.788 36.7088 391.05 36.7727 391.354 36.7727C391.556 36.7727 391.741 36.7443 391.908 36.6875C392.076 36.6307 392.219 36.5455 392.339 36.4318C392.458 36.3182 392.549 36.179 392.612 36.0142L394.29 36.125C394.205 36.5284 394.031 36.8807 393.766 37.1818C393.505 37.4801 393.167 37.7131 392.752 37.8807C392.34 38.0455 391.864 38.1278 391.325 38.1278ZM395.513 38V31.4545H397.244V32.6094H397.32C397.457 32.2259 397.684 31.9233 398.002 31.7017C398.32 31.4801 398.701 31.3693 399.144 31.3693C399.593 31.3693 399.975 31.4815 400.29 31.706C400.606 31.9276 400.816 32.2287 400.921 32.6094H400.989C401.123 32.2344 401.364 31.9347 401.714 31.7102C402.066 31.483 402.482 31.3693 402.962 31.3693C403.573 31.3693 404.069 31.5639 404.45 31.9531C404.833 32.3395 405.025 32.8878 405.025 33.598V38H403.214V33.956C403.214 33.5923 403.117 33.3196 402.924 33.1378C402.731 32.956 402.489 32.8651 402.2 32.8651C401.87 32.8651 401.613 32.9702 401.428 33.1804C401.244 33.3878 401.151 33.6619 401.151 34.0028V38H399.391V33.9176C399.391 33.5966 399.299 33.3409 399.114 33.1506C398.933 32.9602 398.692 32.8651 398.394 32.8651C398.192 32.8651 398.011 32.9162 397.849 33.0185C397.69 33.1179 397.563 33.2585 397.469 33.4403C397.376 33.6193 397.329 33.8295 397.329 34.071V38H395.513ZM406.459 40.4545V31.4545H408.249V32.554H408.33C408.409 32.3778 408.524 32.1989 408.675 32.017C408.828 31.8324 409.027 31.679 409.271 31.5568C409.518 31.4318 409.825 31.3693 410.192 31.3693C410.669 31.3693 411.109 31.4943 411.513 31.7443C411.916 31.9915 412.239 32.3651 412.48 32.8651C412.722 33.3622 412.842 33.9858 412.842 34.7358C412.842 35.4659 412.724 36.0824 412.489 36.5852C412.256 37.0852 411.938 37.4645 411.534 37.723C411.134 37.9787 410.685 38.1065 410.188 38.1065C409.835 38.1065 409.536 38.0483 409.288 37.9318C409.044 37.8153 408.844 37.669 408.688 37.4929C408.531 37.3139 408.412 37.1335 408.33 36.9517H408.274V40.4545H406.459ZM408.236 34.7273C408.236 35.1165 408.29 35.456 408.398 35.7457C408.506 36.0355 408.662 36.2614 408.866 36.4233C409.071 36.5824 409.32 36.6619 409.612 36.6619C409.908 36.6619 410.158 36.581 410.362 36.419C410.567 36.2543 410.722 36.027 410.827 35.7372C410.935 35.4446 410.989 35.108 410.989 34.7273C410.989 34.3494 410.936 34.017 410.831 33.7301C410.726 33.4432 410.571 33.2187 410.366 33.0568C410.162 32.8949 409.911 32.8139 409.612 32.8139C409.317 32.8139 409.067 32.892 408.862 33.0483C408.661 33.2045 408.506 33.4261 408.398 33.7131C408.29 34 408.236 34.3381 408.236 34.7273ZM415.868 29.2727V38H414.053V29.2727H415.868ZM420.279 38.1278C419.618 38.1278 419.045 37.9872 418.562 37.706C418.082 37.4219 417.711 37.027 417.45 36.5213C417.189 36.0128 417.058 35.4233 417.058 34.7528C417.058 34.0767 417.189 33.4858 417.45 32.9801C417.711 32.4716 418.082 32.0767 418.562 31.7955C419.045 31.5114 419.618 31.3693 420.279 31.3693C420.941 31.3693 421.512 31.5114 421.993 31.7955C422.475 32.0767 422.848 32.4716 423.109 32.9801C423.37 33.4858 423.501 34.0767 423.501 34.7528C423.501 35.4233 423.37 36.0128 423.109 36.5213C422.848 37.027 422.475 37.4219 421.993 37.706C421.512 37.9872 420.941 38.1278 420.279 38.1278ZM420.288 36.7216C420.589 36.7216 420.841 36.6364 421.042 36.4659C421.244 36.2926 421.396 36.0568 421.498 35.7585C421.603 35.4602 421.656 35.1207 421.656 34.7401C421.656 34.3594 421.603 34.0199 421.498 33.7216C421.396 33.4233 421.244 33.1875 421.042 33.0142C420.841 32.8409 420.589 32.7543 420.288 32.7543C419.984 32.7543 419.728 32.8409 419.521 33.0142C419.316 33.1875 419.162 33.4233 419.056 33.7216C418.954 34.0199 418.903 34.3594 418.903 34.7401C418.903 35.1207 418.954 35.4602 419.056 35.7585C419.162 36.0568 419.316 36.2926 419.521 36.4659C419.728 36.6364 419.984 36.7216 420.288 36.7216Z" fill="#00A34A"/>
<g clip-path="url(#clip0_1507_413)">
<path d="M58.8337 24.1666L56.7503 39.2708L50.5003 41.3541L44.2503 39.2708L42.167 24.1666H58.8337Z" stroke="#1473FB" stroke-width="2" stroke-linecap="round" stroke-linejoin="round"/>
<path d="M54.1462 28.3334H46.8545L47.3753 32.5H53.6253L53.1045 36.1459L50.5003 36.9271L47.8962 36.1459L47.792 35.625" stroke="#1473FB" stroke-width="2" stroke-linecap="round" stroke-linejoin="round"/>
</g>
<rect x="38" y="67" width="409" height="135" rx="15" fill="#F2F2F2"/>
<path d="M61.1676 99.0426V98.0881L66.8267 95.3438V96.6435L62.6506 98.5483L62.6889 98.4716V98.6548L62.6506 98.5824L66.8267 100.483V101.787L61.1676 99.0426ZM71.299 102.128C70.7706 102.128 70.299 101.993 69.8842 101.723C69.4723 101.45 69.1484 101.062 68.9126 100.56C68.6797 100.054 68.5632 99.4474 68.5632 98.7401C68.5632 98.0327 68.6811 97.4276 68.9169 96.9247C69.1555 96.4219 69.4822 96.0369 69.897 95.7699C70.3118 95.5028 70.782 95.3693 71.3075 95.3693C71.7138 95.3693 72.0405 95.4375 72.2876 95.5739C72.5376 95.7074 72.7308 95.8636 72.8672 96.0426C73.0064 96.2216 73.1143 96.3793 73.1911 96.5156H73.2678V93.2727H74.5419V102H73.2976V100.982H73.1911C73.1143 101.121 73.0036 101.28 72.8587 101.459C72.7166 101.638 72.5206 101.794 72.2706 101.928C72.0206 102.061 71.6967 102.128 71.299 102.128ZM71.5803 101.041C71.9467 101.041 72.2564 100.945 72.5092 100.751C72.7649 100.555 72.9581 100.284 73.0888 99.9375C73.2223 99.5909 73.2891 99.1875 73.2891 98.7273C73.2891 98.2727 73.2237 97.875 73.093 97.5341C72.9624 97.1932 72.7706 96.9276 72.5178 96.7372C72.2649 96.5469 71.9524 96.4517 71.5803 96.4517C71.1967 96.4517 70.8771 96.5511 70.6214 96.75C70.3658 96.9489 70.1726 97.2202 70.0419 97.5639C69.9141 97.9077 69.8501 98.2955 69.8501 98.7273C69.8501 99.1648 69.9155 99.5582 70.0462 99.9077C70.1768 100.257 70.37 100.534 70.6257 100.739C70.8842 100.94 71.2024 101.041 71.5803 101.041ZM76.3604 102V95.4545H77.6346V102H76.3604ZM77.0039 94.4446C76.7823 94.4446 76.592 94.3707 76.4329 94.223C76.2766 94.0724 76.1985 93.8935 76.1985 93.6861C76.1985 93.4759 76.2766 93.2969 76.4329 93.1491C76.592 92.9986 76.7823 92.9233 77.0039 92.9233C77.2255 92.9233 77.4144 92.9986 77.5707 93.1491C77.7298 93.2969 77.8093 93.4759 77.8093 93.6861C77.8093 93.8935 77.7298 94.0724 77.5707 94.223C77.4144 94.3707 77.2255 94.4446 77.0039 94.4446ZM84.9482 95.4545L82.5746 102H81.2109L78.8331 95.4545H80.201L81.8587 100.491H81.9268L83.5803 95.4545H84.9482ZM92.0785 102.132C91.445 102.132 90.8995 101.989 90.4421 101.702C89.9876 101.412 89.6381 101.013 89.3938 100.504C89.1495 99.9957 89.0273 99.4134 89.0273 98.7571C89.0273 98.0923 89.1523 97.5057 89.4023 96.9972C89.6523 96.4858 90.0046 96.0866 90.4592 95.7997C90.9137 95.5128 91.4492 95.3693 92.0657 95.3693C92.5629 95.3693 93.006 95.4616 93.3952 95.6463C93.7844 95.8281 94.0984 96.0838 94.337 96.4134C94.5785 96.7429 94.7219 97.1278 94.7674 97.5682H93.5273C93.4592 97.2614 93.3029 96.9972 93.0586 96.7756C92.8171 96.554 92.4933 96.4432 92.087 96.4432C91.7319 96.4432 91.4208 96.5369 91.1538 96.7244C90.8896 96.9091 90.6836 97.1733 90.5359 97.517C90.3881 97.858 90.3143 98.2614 90.3143 98.7273C90.3143 99.2045 90.3867 99.6165 90.5316 99.9631C90.6765 100.31 90.881 100.578 91.1452 100.768C91.4123 100.959 91.7262 101.054 92.087 101.054C92.3285 101.054 92.5472 101.01 92.7433 100.922C92.9421 100.831 93.1083 100.702 93.2418 100.534C93.3782 100.366 93.4734 100.165 93.5273 99.929H94.7674C94.7219 100.352 94.5842 100.73 94.354 101.062C94.1239 101.395 93.8157 101.656 93.4293 101.847C93.0458 102.037 92.5955 102.132 92.0785 102.132ZM97.4041 93.2727V102H96.13V93.2727H97.4041ZM101.023 102.145C100.608 102.145 100.233 102.068 99.8981 101.915C99.5629 101.759 99.2972 101.533 99.1012 101.237C98.908 100.942 98.8114 100.58 98.8114 100.151C98.8114 99.7812 98.8825 99.4773 99.0245 99.2386C99.1665 99 99.3583 98.8111 99.5998 98.6719C99.8413 98.5327 100.111 98.4276 100.409 98.3565C100.708 98.2855 101.012 98.2315 101.321 98.1946C101.713 98.1491 102.032 98.1122 102.276 98.0838C102.52 98.0526 102.698 98.0028 102.809 97.9347C102.919 97.8665 102.975 97.7557 102.975 97.6023V97.5724C102.975 97.2003 102.87 96.9119 102.659 96.7074C102.452 96.5028 102.142 96.4006 101.73 96.4006C101.301 96.4006 100.963 96.4957 100.716 96.6861C100.472 96.8736 100.303 97.0824 100.209 97.3125L99.0117 97.0398C99.1538 96.642 99.3612 96.321 99.6339 96.0767C99.9094 95.8295 100.226 95.6506 100.584 95.5398C100.942 95.4261 101.319 95.3693 101.713 95.3693C101.975 95.3693 102.252 95.4006 102.544 95.4631C102.84 95.5227 103.115 95.6335 103.371 95.7955C103.63 95.9574 103.841 96.1889 104.006 96.4901C104.171 96.7884 104.253 97.1761 104.253 97.6534V102H103.009V101.105H102.958C102.875 101.27 102.752 101.432 102.587 101.591C102.422 101.75 102.211 101.882 101.952 101.987C101.694 102.092 101.384 102.145 101.023 102.145ZM101.3 101.122C101.652 101.122 101.953 101.053 102.203 100.913C102.456 100.774 102.648 100.592 102.779 100.368C102.912 100.141 102.979 99.8977 102.979 99.6392V98.7955C102.934 98.8409 102.846 98.8835 102.715 98.9233C102.587 98.9602 102.441 98.9929 102.276 99.0213C102.111 99.0469 101.951 99.071 101.794 99.0938C101.638 99.1136 101.507 99.1307 101.402 99.1449C101.155 99.1761 100.929 99.2287 100.725 99.3026C100.523 99.3764 100.361 99.483 100.239 99.6222C100.12 99.7585 100.06 99.9403 100.06 100.168C100.06 100.483 100.176 100.722 100.409 100.884C100.642 101.043 100.939 101.122 101.3 101.122ZM110.855 97.0526L109.7 97.2571C109.652 97.1094 109.575 96.9687 109.47 96.8352C109.368 96.7017 109.229 96.5923 109.053 96.5071C108.876 96.4219 108.656 96.3793 108.392 96.3793C108.031 96.3793 107.73 96.4602 107.489 96.6222C107.247 96.7812 107.126 96.9872 107.126 97.2401C107.126 97.4588 107.207 97.6349 107.369 97.7685C107.531 97.902 107.793 98.0114 108.153 98.0966L109.193 98.3352C109.795 98.4744 110.244 98.6889 110.54 98.9787C110.835 99.2685 110.983 99.6449 110.983 100.108C110.983 100.5 110.869 100.849 110.642 101.156C110.418 101.46 110.104 101.699 109.7 101.872C109.3 102.045 108.835 102.132 108.307 102.132C107.574 102.132 106.976 101.976 106.513 101.663C106.05 101.348 105.766 100.901 105.661 100.321L106.892 100.134C106.969 100.455 107.126 100.697 107.365 100.862C107.604 101.024 107.915 101.105 108.298 101.105C108.716 101.105 109.05 101.018 109.3 100.845C109.55 100.669 109.675 100.455 109.675 100.202C109.675 99.9972 109.598 99.8253 109.445 99.6861C109.294 99.5469 109.062 99.4418 108.75 99.3707L107.642 99.1278C107.031 98.9886 106.58 98.767 106.287 98.4631C105.997 98.1591 105.852 97.7741 105.852 97.3082C105.852 96.9219 105.96 96.5838 106.176 96.294C106.392 96.0043 106.69 95.7784 107.071 95.6165C107.452 95.4517 107.888 95.3693 108.379 95.3693C109.087 95.3693 109.643 95.5227 110.05 95.8295C110.456 96.1335 110.724 96.5412 110.855 97.0526ZM117.289 97.0526L116.134 97.2571C116.086 97.1094 116.009 96.9687 115.904 96.8352C115.801 96.7017 115.662 96.5923 115.486 96.5071C115.31 96.4219 115.09 96.3793 114.826 96.3793C114.465 96.3793 114.164 96.4602 113.922 96.6222C113.681 96.7812 113.56 96.9872 113.56 97.2401C113.56 97.4588 113.641 97.6349 113.803 97.7685C113.965 97.902 114.226 98.0114 114.587 98.0966L115.627 98.3352C116.229 98.4744 116.678 98.6889 116.973 98.9787C117.269 99.2685 117.417 99.6449 117.417 100.108C117.417 100.5 117.303 100.849 117.076 101.156C116.851 101.46 116.537 101.699 116.134 101.872C115.733 102.045 115.269 102.132 114.74 102.132C114.007 102.132 113.409 101.976 112.946 101.663C112.483 101.348 112.199 100.901 112.094 100.321L113.326 100.134C113.402 100.455 113.56 100.697 113.799 100.862C114.037 101.024 114.348 101.105 114.732 101.105C115.15 101.105 115.483 101.018 115.733 100.845C115.983 100.669 116.108 100.455 116.108 100.202C116.108 99.9972 116.032 99.8253 115.878 99.6861C115.728 99.5469 115.496 99.4418 115.184 99.3707L114.076 99.1278C113.465 98.9886 113.013 98.767 112.721 98.4631C112.431 98.1591 112.286 97.7741 112.286 97.3082C112.286 96.9219 112.394 96.5838 112.61 96.294C112.826 96.0043 113.124 95.7784 113.505 95.6165C113.885 95.4517 114.321 95.3693 114.813 95.3693C115.52 95.3693 116.077 95.5227 116.483 95.8295C116.89 96.1335 117.158 96.5412 117.289 97.0526ZM119.227 97.8111V96.6903H124.685V97.8111H119.227ZM119.227 100.436V99.3153H124.685V100.436H119.227ZM127.777 93.2727V96.3793H126.72V93.2727H127.777ZM129.967 93.2727V96.3793H128.911V93.2727H129.967ZM131.603 102V95.4545H132.877V102H131.603ZM132.246 94.4446C132.025 94.4446 131.834 94.3707 131.675 94.223C131.519 94.0724 131.441 93.8935 131.441 93.6861C131.441 93.4759 131.519 93.2969 131.675 93.1491C131.834 92.9986 132.025 92.9233 132.246 92.9233C132.468 92.9233 132.657 92.9986 132.813 93.1491C132.972 93.2969 133.051 93.4759 133.051 93.6861C133.051 93.8935 132.972 94.0724 132.813 94.223C132.657 94.3707 132.468 94.4446 132.246 94.4446ZM137.706 95.4545V96.4773H134.007V95.4545H137.706ZM135.021 102V94.696C135.021 94.2869 135.111 93.9474 135.29 93.6776C135.469 93.4048 135.706 93.2017 136.001 93.0682C136.297 92.9318 136.618 92.8636 136.964 92.8636C137.22 92.8636 137.439 92.8849 137.621 92.9276C137.803 92.9673 137.938 93.0043 138.026 93.0384L137.727 94.0696C137.668 94.0526 137.591 94.0327 137.497 94.0099C137.403 93.9844 137.29 93.9716 137.156 93.9716C136.847 93.9716 136.625 94.0483 136.491 94.2017C136.361 94.3551 136.295 94.5767 136.295 94.8665V102H135.021ZM139.021 102V95.4545H140.252V96.4943H140.32C140.44 96.142 140.65 95.8651 140.951 95.6634C141.255 95.4588 141.599 95.3565 141.982 95.3565C142.062 95.3565 142.156 95.3594 142.263 95.3651C142.374 95.3707 142.461 95.3778 142.523 95.3864V96.6051C142.472 96.5909 142.381 96.5753 142.251 96.5582C142.12 96.5384 141.989 96.5284 141.859 96.5284C141.558 96.5284 141.289 96.5923 141.053 96.7202C140.82 96.8452 140.636 97.0199 140.499 97.2443C140.363 97.4659 140.295 97.7187 140.295 98.0028V102H139.021ZM145.472 102.145C145.058 102.145 144.683 102.068 144.347 101.915C144.012 101.759 143.746 101.533 143.55 101.237C143.357 100.942 143.261 100.58 143.261 100.151C143.261 99.7812 143.332 99.4773 143.474 99.2386C143.616 99 143.808 98.8111 144.049 98.6719C144.29 98.5327 144.56 98.4276 144.859 98.3565C145.157 98.2855 145.461 98.2315 145.771 98.1946C146.163 98.1491 146.481 98.1122 146.725 98.0838C146.969 98.0526 147.147 98.0028 147.258 97.9347C147.369 97.8665 147.424 97.7557 147.424 97.6023V97.5724C147.424 97.2003 147.319 96.9119 147.109 96.7074C146.901 96.5028 146.592 96.4006 146.18 96.4006C145.751 96.4006 145.413 96.4957 145.165 96.6861C144.921 96.8736 144.752 97.0824 144.658 97.3125L143.461 97.0398C143.603 96.642 143.81 96.321 144.083 96.0767C144.359 95.8295 144.675 95.6506 145.033 95.5398C145.391 95.4261 145.768 95.3693 146.163 95.3693C146.424 95.3693 146.701 95.4006 146.994 95.4631C147.289 95.5227 147.565 95.6335 147.82 95.7955C148.079 95.9574 148.29 96.1889 148.455 96.4901C148.62 96.7884 148.702 97.1761 148.702 97.6534V102H147.458V101.105H147.407C147.325 101.27 147.201 101.432 147.036 101.591C146.871 101.75 146.66 101.882 146.401 101.987C146.143 102.092 145.833 102.145 145.472 102.145ZM145.749 101.122C146.102 101.122 146.403 101.053 146.653 100.913C146.906 100.774 147.097 100.592 147.228 100.368C147.362 100.141 147.428 99.8977 147.428 99.6392V98.7955C147.383 98.8409 147.295 98.8835 147.164 98.9233C147.036 98.9602 146.89 98.9929 146.725 99.0213C146.56 99.0469 146.4 99.071 146.244 99.0938C146.087 99.1136 145.957 99.1307 145.852 99.1449C145.604 99.1761 145.379 99.2287 145.174 99.3026C144.972 99.3764 144.81 99.483 144.688 99.6222C144.569 99.7585 144.509 99.9403 144.509 100.168C144.509 100.483 144.626 100.722 144.859 100.884C145.092 101.043 145.388 101.122 145.749 101.122ZM150.4 102V95.4545H151.623V96.5199H151.703C151.84 96.1591 152.063 95.8778 152.373 95.6761C152.682 95.4716 153.053 95.3693 153.485 95.3693C153.922 95.3693 154.289 95.4716 154.584 95.6761C154.882 95.8807 155.103 96.1619 155.245 96.5199H155.313C155.469 96.1705 155.718 95.892 156.059 95.6847C156.4 95.4744 156.806 95.3693 157.277 95.3693C157.871 95.3693 158.355 95.5554 158.73 95.9276C159.108 96.2997 159.297 96.8608 159.297 97.6108V102H158.023V97.7301C158.023 97.2869 157.902 96.9659 157.661 96.767C157.419 96.5682 157.131 96.4688 156.796 96.4688C156.381 96.4688 156.059 96.5966 155.828 96.8523C155.598 97.1051 155.483 97.4304 155.483 97.8281V102H154.213V97.6491C154.213 97.294 154.103 97.0085 153.881 96.7926C153.659 96.5767 153.371 96.4688 153.016 96.4688C152.775 96.4688 152.551 96.5327 152.347 96.6605C152.145 96.7855 151.982 96.9602 151.857 97.1847C151.735 97.4091 151.674 97.669 151.674 97.9645V102H150.4ZM163.826 102.132C163.181 102.132 162.626 101.994 162.16 101.719C161.697 101.44 161.339 101.05 161.086 100.547C160.836 100.041 160.711 99.4489 160.711 98.7699C160.711 98.0994 160.836 97.5085 161.086 96.9972C161.339 96.4858 161.691 96.0866 162.143 95.7997C162.597 95.5128 163.129 95.3693 163.737 95.3693C164.106 95.3693 164.464 95.4304 164.81 95.5526C165.157 95.6747 165.468 95.8665 165.744 96.1278C166.019 96.3892 166.237 96.7287 166.396 97.1463C166.555 97.5611 166.634 98.0653 166.634 98.6591V99.1108H161.431V98.1562H165.386C165.386 97.821 165.317 97.5241 165.181 97.2656C165.045 97.0043 164.853 96.7983 164.606 96.6477C164.362 96.4972 164.075 96.4219 163.745 96.4219C163.387 96.4219 163.075 96.5099 162.808 96.6861C162.543 96.8594 162.339 97.0866 162.194 97.3679C162.052 97.6463 161.981 97.9489 161.981 98.2756V99.0213C161.981 99.4588 162.058 99.831 162.211 100.138C162.367 100.445 162.585 100.679 162.863 100.841C163.141 101 163.467 101.08 163.839 101.08C164.08 101.08 164.3 101.045 164.499 100.977C164.698 100.906 164.87 100.801 165.015 100.662C165.16 100.523 165.271 100.351 165.347 100.146L166.553 100.364C166.457 100.719 166.283 101.03 166.033 101.297C165.786 101.561 165.475 101.767 165.1 101.915C164.728 102.06 164.303 102.132 163.826 102.132ZM171.904 97.7599V98.8636H168.035V97.7599H171.904ZM176.36 102.132C175.726 102.132 175.181 101.989 174.723 101.702C174.269 101.412 173.919 101.013 173.675 100.504C173.431 99.9957 173.309 99.4134 173.309 98.7571C173.309 98.0923 173.434 97.5057 173.684 96.9972C173.934 96.4858 174.286 96.0866 174.74 95.7997C175.195 95.5128 175.73 95.3693 176.347 95.3693C176.844 95.3693 177.287 95.4616 177.676 95.6463C178.066 95.8281 178.38 96.0838 178.618 96.4134C178.86 96.7429 179.003 97.1278 179.049 97.5682H177.809C177.74 97.2614 177.584 96.9972 177.34 96.7756C177.098 96.554 176.775 96.4432 176.368 96.4432C176.013 96.4432 175.702 96.5369 175.435 96.7244C175.171 96.9091 174.965 97.1733 174.817 97.517C174.669 97.858 174.596 98.2614 174.596 98.7273C174.596 99.2045 174.668 99.6165 174.813 99.9631C174.958 100.31 175.162 100.578 175.426 100.768C175.694 100.959 176.007 101.054 176.368 101.054C176.61 101.054 176.828 101.01 177.025 100.922C177.223 100.831 177.39 100.702 177.523 100.534C177.659 100.366 177.755 100.165 177.809 99.929H179.049C179.003 100.352 178.865 100.73 178.635 101.062C178.405 101.395 178.097 101.656 177.711 101.847C177.327 102.037 176.877 102.132 176.36 102.132ZM183.168 102.132C182.555 102.132 182.019 101.991 181.562 101.71C181.104 101.429 180.749 101.036 180.496 100.53C180.244 100.024 180.117 99.4332 180.117 98.7571C180.117 98.0781 180.244 97.4844 180.496 96.9759C180.749 96.4673 181.104 96.0724 181.562 95.7912C182.019 95.5099 182.555 95.3693 183.168 95.3693C183.782 95.3693 184.317 95.5099 184.775 95.7912C185.232 96.0724 185.587 96.4673 185.84 96.9759C186.093 97.4844 186.219 98.0781 186.219 98.7571C186.219 99.4332 186.093 100.024 185.84 100.53C185.587 101.036 185.232 101.429 184.775 101.71C184.317 101.991 183.782 102.132 183.168 102.132ZM183.173 101.062C183.57 101.062 183.9 100.957 184.161 100.747C184.423 100.537 184.616 100.257 184.741 99.9077C184.869 99.5582 184.933 99.1733 184.933 98.7528C184.933 98.3352 184.869 97.9517 184.741 97.6023C184.616 97.25 184.423 96.9673 184.161 96.7543C183.9 96.5412 183.57 96.4347 183.173 96.4347C182.772 96.4347 182.44 96.5412 182.175 96.7543C181.914 96.9673 181.719 97.25 181.592 97.6023C181.467 97.9517 181.404 98.3352 181.404 98.7528C181.404 99.1733 181.467 99.5582 181.592 99.9077C181.719 100.257 181.914 100.537 182.175 100.747C182.44 100.957 182.772 101.062 183.173 101.062ZM188.916 98.1136V102H187.642V95.4545H188.865V96.5199H188.946C189.096 96.1733 189.332 95.8949 189.653 95.6847C189.977 95.4744 190.385 95.3693 190.876 95.3693C191.322 95.3693 191.713 95.4631 192.048 95.6506C192.383 95.8352 192.643 96.1108 192.828 96.4773C193.012 96.8437 193.105 97.2969 193.105 97.8366V102H191.831V97.9901C191.831 97.5156 191.707 97.1449 191.46 96.8778C191.213 96.608 190.873 96.473 190.441 96.473C190.146 96.473 189.883 96.5369 189.653 96.6648C189.426 96.7926 189.245 96.9801 189.112 97.2273C188.981 97.4716 188.916 97.767 188.916 98.1136ZM197.869 95.4545V96.4773H194.294V95.4545H197.869ZM195.252 93.8864H196.527V100.078C196.527 100.325 196.564 100.511 196.637 100.636C196.711 100.759 196.806 100.842 196.923 100.888C197.042 100.93 197.172 100.952 197.311 100.952C197.413 100.952 197.502 100.945 197.579 100.93C197.656 100.916 197.716 100.905 197.758 100.896L197.988 101.949C197.914 101.977 197.809 102.006 197.673 102.034C197.537 102.065 197.366 102.082 197.162 102.085C196.826 102.091 196.514 102.031 196.224 101.906C195.934 101.781 195.7 101.588 195.521 101.327C195.342 101.065 195.252 100.737 195.252 100.342V93.8864ZM201.183 102.145C200.768 102.145 200.393 102.068 200.058 101.915C199.723 101.759 199.457 101.533 199.261 101.237C199.068 100.942 198.972 100.58 198.972 100.151C198.972 99.7812 199.043 99.4773 199.185 99.2386C199.327 99 199.518 98.8111 199.76 98.6719C200.001 98.5327 200.271 98.4276 200.57 98.3565C200.868 98.2855 201.172 98.2315 201.482 98.1946C201.874 98.1491 202.192 98.1122 202.436 98.0838C202.68 98.0526 202.858 98.0028 202.969 97.9347C203.08 97.8665 203.135 97.7557 203.135 97.6023V97.5724C203.135 97.2003 203.03 96.9119 202.82 96.7074C202.612 96.5028 202.303 96.4006 201.891 96.4006C201.462 96.4006 201.124 96.4957 200.876 96.6861C200.632 96.8736 200.463 97.0824 200.369 97.3125L199.172 97.0398C199.314 96.642 199.521 96.321 199.794 96.0767C200.07 95.8295 200.386 95.6506 200.744 95.5398C201.102 95.4261 201.479 95.3693 201.874 95.3693C202.135 95.3693 202.412 95.4006 202.705 95.4631C203 95.5227 203.276 95.6335 203.531 95.7955C203.79 95.9574 204.001 96.1889 204.166 96.4901C204.331 96.7884 204.413 97.1761 204.413 97.6534V102H203.169V101.105H203.118C203.036 101.27 202.912 101.432 202.747 101.591C202.582 101.75 202.371 101.882 202.112 101.987C201.854 102.092 201.544 102.145 201.183 102.145ZM201.46 101.122C201.813 101.122 202.114 101.053 202.364 100.913C202.616 100.774 202.808 100.592 202.939 100.368C203.072 100.141 203.139 99.8977 203.139 99.6392V98.7955C203.094 98.8409 203.006 98.8835 202.875 98.9233C202.747 98.9602 202.601 98.9929 202.436 99.0213C202.271 99.0469 202.111 99.071 201.955 99.0938C201.798 99.1136 201.668 99.1307 201.562 99.1449C201.315 99.1761 201.089 99.2287 200.885 99.3026C200.683 99.3764 200.521 99.483 200.399 99.6222C200.28 99.7585 200.22 99.9403 200.22 100.168C200.22 100.483 200.337 100.722 200.57 100.884C200.803 101.043 201.099 101.122 201.46 101.122ZM206.11 102V95.4545H207.385V102H206.11ZM206.754 94.4446C206.532 94.4446 206.342 94.3707 206.183 94.223C206.027 94.0724 205.949 93.8935 205.949 93.6861C205.949 93.4759 206.027 93.2969 206.183 93.1491C206.342 92.9986 206.532 92.9233 206.754 92.9233C206.975 92.9233 207.164 92.9986 207.321 93.1491C207.48 93.2969 207.559 93.4759 207.559 93.6861C207.559 93.8935 207.48 94.0724 207.321 94.223C207.164 94.3707 206.975 94.4446 206.754 94.4446ZM210.373 98.1136V102H209.099V95.4545H210.322V96.5199H210.403C210.553 96.1733 210.789 95.8949 211.11 95.6847C211.434 95.4744 211.842 95.3693 212.333 95.3693C212.779 95.3693 213.17 95.4631 213.505 95.6506C213.84 95.8352 214.1 96.1108 214.285 96.4773C214.469 96.8437 214.562 97.2969 214.562 97.8366V102H213.288V97.9901C213.288 97.5156 213.164 97.1449 212.917 96.8778C212.67 96.608 212.33 96.473 211.898 96.473C211.603 96.473 211.34 96.5369 211.11 96.6648C210.883 96.7926 210.702 96.9801 210.569 97.2273C210.438 97.4716 210.373 97.767 210.373 98.1136ZM219.092 102.132C218.447 102.132 217.891 101.994 217.425 101.719C216.962 101.44 216.604 101.05 216.352 100.547C216.102 100.041 215.977 99.4489 215.977 98.7699C215.977 98.0994 216.102 97.5085 216.352 96.9972C216.604 96.4858 216.957 96.0866 217.408 95.7997C217.863 95.5128 218.394 95.3693 219.002 95.3693C219.371 95.3693 219.729 95.4304 220.076 95.5526C220.423 95.6747 220.734 95.8665 221.009 96.1278C221.285 96.3892 221.502 96.7287 221.661 97.1463C221.82 97.5611 221.9 98.0653 221.9 98.6591V99.1108H216.697V98.1562H220.651C220.651 97.821 220.583 97.5241 220.447 97.2656C220.31 97.0043 220.119 96.7983 219.871 96.6477C219.627 96.4972 219.34 96.4219 219.011 96.4219C218.653 96.4219 218.34 96.5099 218.073 96.6861C217.809 96.8594 217.604 97.0866 217.46 97.3679C217.317 97.6463 217.246 97.9489 217.246 98.2756V99.0213C217.246 99.4588 217.323 99.831 217.477 100.138C217.633 100.445 217.85 100.679 218.129 100.841C218.407 101 218.732 101.08 219.104 101.08C219.346 101.08 219.566 101.045 219.765 100.977C219.964 100.906 220.136 100.801 220.281 100.662C220.425 100.523 220.536 100.351 220.613 100.146L221.819 100.364C221.722 100.719 221.549 101.03 221.299 101.297C221.052 101.561 220.741 101.767 220.366 101.915C219.994 102.06 219.569 102.132 219.092 102.132ZM223.314 102V95.4545H224.545V96.4943H224.613C224.733 96.142 224.943 95.8651 225.244 95.6634C225.548 95.4588 225.892 95.3565 226.275 95.3565C226.355 95.3565 226.449 95.3594 226.556 95.3651C226.667 95.3707 226.754 95.3778 226.816 95.3864V96.6051C226.765 96.5909 226.674 96.5753 226.544 96.5582C226.413 96.5384 226.282 96.5284 226.152 96.5284C225.85 96.5284 225.582 96.5923 225.346 96.7202C225.113 96.8452 224.929 97.0199 224.792 97.2443C224.656 97.4659 224.588 97.7187 224.588 98.0028V102H223.314ZM228.886 93.2727V96.3793H227.83V93.2727H228.886ZM231.077 93.2727V96.3793H230.02V93.2727H231.077ZM238.682 99.0426L233.023 101.787V100.483L237.199 98.5824L237.157 98.6548V98.4716L237.199 98.5483L233.023 96.6435V95.3438L238.682 98.0881V99.0426ZM86.5739 114.043V113.088L92.233 110.344V111.643L88.0568 113.548L88.0952 113.472V113.655L88.0568 113.582L92.233 115.483V116.787L86.5739 114.043ZM94.255 117V110.455H95.5291V117H94.255ZM94.8984 109.445C94.6768 109.445 94.4865 109.371 94.3274 109.223C94.1712 109.072 94.093 108.893 94.093 108.686C94.093 108.476 94.1712 108.297 94.3274 108.149C94.4865 107.999 94.6768 107.923 94.8984 107.923C95.12 107.923 95.3089 107.999 95.4652 108.149C95.6243 108.297 95.7038 108.476 95.7038 108.686C95.7038 108.893 95.6243 109.072 95.4652 109.223C95.3089 109.371 95.12 109.445 94.8984 109.445ZM100.358 110.455V111.477H96.6594V110.455H100.358ZM97.6737 117V109.696C97.6737 109.287 97.7631 108.947 97.9421 108.678C98.1211 108.405 98.3583 108.202 98.6538 108.068C98.9492 107.932 99.2702 107.864 99.6168 107.864C99.8725 107.864 100.091 107.885 100.273 107.928C100.455 107.967 100.59 108.004 100.678 108.038L100.38 109.07C100.32 109.053 100.243 109.033 100.15 109.01C100.056 108.984 99.9421 108.972 99.8086 108.972C99.4989 108.972 99.2773 109.048 99.1438 109.202C99.0131 109.355 98.9478 109.577 98.9478 109.866V117H97.6737ZM101.673 117V110.455H102.904V111.494H102.973C103.092 111.142 103.302 110.865 103.603 110.663C103.907 110.459 104.251 110.357 104.635 110.357C104.714 110.357 104.808 110.359 104.916 110.365C105.027 110.371 105.113 110.378 105.176 110.386V111.605C105.125 111.591 105.034 111.575 104.903 111.558C104.772 111.538 104.642 111.528 104.511 111.528C104.21 111.528 103.941 111.592 103.706 111.72C103.473 111.845 103.288 112.02 103.152 112.244C103.015 112.466 102.947 112.719 102.947 113.003V117H101.673ZM108.125 117.145C107.71 117.145 107.335 117.068 107 116.915C106.664 116.759 106.399 116.533 106.203 116.237C106.01 115.942 105.913 115.58 105.913 115.151C105.913 114.781 105.984 114.477 106.126 114.239C106.268 114 106.46 113.811 106.701 113.672C106.943 113.533 107.213 113.428 107.511 113.357C107.809 113.286 108.113 113.232 108.423 113.195C108.815 113.149 109.133 113.112 109.377 113.084C109.622 113.053 109.799 113.003 109.91 112.935C110.021 112.866 110.076 112.756 110.076 112.602V112.572C110.076 112.2 109.971 111.912 109.761 111.707C109.554 111.503 109.244 111.401 108.832 111.401C108.403 111.401 108.065 111.496 107.818 111.686C107.574 111.874 107.404 112.082 107.311 112.312L106.113 112.04C106.255 111.642 106.463 111.321 106.735 111.077C107.011 110.83 107.328 110.651 107.686 110.54C108.044 110.426 108.42 110.369 108.815 110.369C109.076 110.369 109.353 110.401 109.646 110.463C109.941 110.523 110.217 110.634 110.473 110.795C110.731 110.957 110.943 111.189 111.108 111.49C111.272 111.788 111.355 112.176 111.355 112.653V117H110.11V116.105H110.059C109.977 116.27 109.853 116.432 109.689 116.591C109.524 116.75 109.312 116.882 109.054 116.987C108.795 117.092 108.485 117.145 108.125 117.145ZM108.402 116.122C108.754 116.122 109.055 116.053 109.305 115.913C109.558 115.774 109.75 115.592 109.88 115.368C110.014 115.141 110.081 114.898 110.081 114.639V113.795C110.035 113.841 109.947 113.884 109.816 113.923C109.689 113.96 109.542 113.993 109.377 114.021C109.213 114.047 109.052 114.071 108.896 114.094C108.74 114.114 108.609 114.131 108.504 114.145C108.257 114.176 108.031 114.229 107.826 114.303C107.625 114.376 107.463 114.483 107.341 114.622C107.221 114.759 107.162 114.94 107.162 115.168C107.162 115.483 107.278 115.722 107.511 115.884C107.744 116.043 108.041 116.122 108.402 116.122ZM113.052 117V110.455H114.275V111.52H114.356C114.492 111.159 114.715 110.878 115.025 110.676C115.335 110.472 115.705 110.369 116.137 110.369C116.575 110.369 116.941 110.472 117.237 110.676C117.535 110.881 117.755 111.162 117.897 111.52H117.965C118.121 111.17 118.37 110.892 118.711 110.685C119.052 110.474 119.458 110.369 119.93 110.369C120.523 110.369 121.008 110.555 121.383 110.928C121.761 111.3 121.95 111.861 121.95 112.611V117H120.675V112.73C120.675 112.287 120.555 111.966 120.313 111.767C120.072 111.568 119.783 111.469 119.448 111.469C119.033 111.469 118.711 111.597 118.481 111.852C118.251 112.105 118.136 112.43 118.136 112.828V117H116.866V112.649C116.866 112.294 116.755 112.009 116.533 111.793C116.312 111.577 116.023 111.469 115.668 111.469C115.427 111.469 115.204 111.533 114.999 111.661C114.798 111.786 114.634 111.96 114.509 112.185C114.387 112.409 114.326 112.669 114.326 112.964V117H113.052ZM126.478 117.132C125.833 117.132 125.278 116.994 124.812 116.719C124.349 116.44 123.991 116.05 123.738 115.547C123.488 115.041 123.363 114.449 123.363 113.77C123.363 113.099 123.488 112.509 123.738 111.997C123.991 111.486 124.343 111.087 124.795 110.8C125.25 110.513 125.781 110.369 126.389 110.369C126.758 110.369 127.116 110.43 127.463 110.553C127.809 110.675 128.12 110.866 128.396 111.128C128.672 111.389 128.889 111.729 129.048 112.146C129.207 112.561 129.287 113.065 129.287 113.659V114.111H124.083V113.156H128.038C128.038 112.821 127.97 112.524 127.833 112.266C127.697 112.004 127.505 111.798 127.258 111.648C127.014 111.497 126.727 111.422 126.397 111.422C126.039 111.422 125.727 111.51 125.46 111.686C125.196 111.859 124.991 112.087 124.846 112.368C124.704 112.646 124.633 112.949 124.633 113.276V114.021C124.633 114.459 124.71 114.831 124.863 115.138C125.02 115.445 125.237 115.679 125.515 115.841C125.794 116 126.119 116.08 126.491 116.08C126.733 116.08 126.953 116.045 127.152 115.977C127.35 115.906 127.522 115.801 127.667 115.662C127.812 115.523 127.923 115.351 128 115.146L129.206 115.364C129.109 115.719 128.936 116.03 128.686 116.297C128.439 116.561 128.127 116.767 127.752 116.915C127.38 117.06 126.956 117.132 126.478 117.132ZM103.871 127.053L102.716 127.257C102.668 127.109 102.591 126.969 102.486 126.835C102.384 126.702 102.244 126.592 102.068 126.507C101.892 126.422 101.672 126.379 101.408 126.379C101.047 126.379 100.746 126.46 100.504 126.622C100.263 126.781 100.142 126.987 100.142 127.24C100.142 127.459 100.223 127.635 100.385 127.768C100.547 127.902 100.808 128.011 101.169 128.097L102.209 128.335C102.811 128.474 103.26 128.689 103.555 128.979C103.851 129.268 103.999 129.645 103.999 130.108C103.999 130.5 103.885 130.849 103.658 131.156C103.433 131.46 103.119 131.699 102.716 131.872C102.315 132.045 101.851 132.132 101.322 132.132C100.589 132.132 99.9915 131.976 99.5284 131.663C99.0653 131.348 98.7813 130.901 98.6761 130.321L99.9077 130.134C99.9844 130.455 100.142 130.697 100.381 130.862C100.619 131.024 100.93 131.105 101.314 131.105C101.732 131.105 102.065 131.018 102.315 130.845C102.565 130.669 102.69 130.455 102.69 130.202C102.69 129.997 102.614 129.825 102.46 129.686C102.31 129.547 102.078 129.442 101.766 129.371L100.658 129.128C100.047 128.989 99.5952 128.767 99.3026 128.463C99.0128 128.159 98.8679 127.774 98.8679 127.308C98.8679 126.922 98.9759 126.584 99.1918 126.294C99.4077 126.004 99.706 125.778 100.087 125.616C100.467 125.452 100.903 125.369 101.395 125.369C102.102 125.369 102.659 125.523 103.065 125.83C103.472 126.134 103.74 126.541 103.871 127.053ZM105.4 132V125.455H106.631V126.494H106.699C106.819 126.142 107.029 125.865 107.33 125.663C107.634 125.459 107.978 125.357 108.361 125.357C108.441 125.357 108.534 125.359 108.642 125.365C108.753 125.371 108.84 125.378 108.902 125.386V126.605C108.851 126.591 108.76 126.575 108.63 126.558C108.499 126.538 108.368 126.528 108.238 126.528C107.936 126.528 107.668 126.592 107.432 126.72C107.199 126.845 107.015 127.02 106.878 127.244C106.742 127.466 106.674 127.719 106.674 128.003V132H105.4ZM112.528 132.132C111.894 132.132 111.349 131.989 110.891 131.702C110.437 131.412 110.087 131.013 109.843 130.504C109.599 129.996 109.477 129.413 109.477 128.757C109.477 128.092 109.602 127.506 109.852 126.997C110.102 126.486 110.454 126.087 110.908 125.8C111.363 125.513 111.898 125.369 112.515 125.369C113.012 125.369 113.455 125.462 113.844 125.646C114.234 125.828 114.548 126.084 114.786 126.413C115.028 126.743 115.171 127.128 115.217 127.568H113.977C113.908 127.261 113.752 126.997 113.508 126.776C113.266 126.554 112.942 126.443 112.536 126.443C112.181 126.443 111.87 126.537 111.603 126.724C111.339 126.909 111.133 127.173 110.985 127.517C110.837 127.858 110.763 128.261 110.763 128.727C110.763 129.205 110.836 129.616 110.981 129.963C111.126 130.31 111.33 130.578 111.594 130.768C111.862 130.959 112.175 131.054 112.536 131.054C112.778 131.054 112.996 131.01 113.192 130.922C113.391 130.831 113.558 130.702 113.691 130.534C113.827 130.366 113.923 130.165 113.977 129.929H115.217C115.171 130.352 115.033 130.73 114.803 131.062C114.573 131.395 114.265 131.656 113.879 131.847C113.495 132.037 113.045 132.132 112.528 132.132ZM116.988 127.811V126.69H122.447V127.811H116.988ZM116.988 130.436V129.315H122.447V130.436H116.988ZM125.539 123.273V126.379H124.482V123.273H125.539ZM127.729 123.273V126.379H126.672V123.273H127.729ZM130.638 128.114V132H129.364V123.273H130.621V126.52H130.702C130.856 126.168 131.09 125.888 131.406 125.68C131.721 125.473 132.133 125.369 132.641 125.369C133.09 125.369 133.482 125.462 133.817 125.646C134.156 125.831 134.417 126.107 134.602 126.473C134.789 126.837 134.883 127.291 134.883 127.837V132H133.609V127.99C133.609 127.51 133.485 127.138 133.238 126.874C132.991 126.607 132.647 126.473 132.207 126.473C131.906 126.473 131.636 126.537 131.397 126.665C131.161 126.793 130.975 126.98 130.839 127.227C130.705 127.472 130.638 127.767 130.638 128.114ZM139.638 125.455V126.477H136.063V125.455H139.638ZM137.022 123.886H138.296V130.078C138.296 130.325 138.333 130.511 138.407 130.636C138.481 130.759 138.576 130.842 138.692 130.888C138.812 130.93 138.941 130.952 139.08 130.952C139.183 130.952 139.272 130.945 139.349 130.93C139.425 130.916 139.485 130.905 139.528 130.896L139.758 131.949C139.684 131.977 139.579 132.006 139.442 132.034C139.306 132.065 139.136 132.082 138.931 132.085C138.596 132.091 138.283 132.031 137.994 131.906C137.704 131.781 137.469 131.588 137.29 131.327C137.112 131.065 137.022 130.737 137.022 130.342V123.886ZM144.103 125.455V126.477H140.528V125.455H144.103ZM141.487 123.886H142.761V130.078C142.761 130.325 142.798 130.511 142.872 130.636C142.946 130.759 143.041 130.842 143.157 130.888C143.277 130.93 143.406 130.952 143.545 130.952C143.647 130.952 143.737 130.945 143.814 130.93C143.89 130.916 143.95 130.905 143.993 130.896L144.223 131.949C144.149 131.977 144.044 132.006 143.907 132.034C143.771 132.065 143.6 132.082 143.396 132.085C143.061 132.091 142.748 132.031 142.458 131.906C142.169 131.781 141.934 131.588 141.755 131.327C141.576 131.065 141.487 130.737 141.487 130.342V123.886ZM145.513 134.455V125.455H146.757V126.516H146.864C146.938 126.379 147.044 126.222 147.183 126.043C147.322 125.864 147.516 125.707 147.763 125.574C148.01 125.438 148.337 125.369 148.743 125.369C149.271 125.369 149.743 125.503 150.158 125.77C150.572 126.037 150.898 126.422 151.134 126.925C151.372 127.428 151.491 128.033 151.491 128.74C151.491 129.447 151.374 130.054 151.138 130.56C150.902 131.062 150.578 131.45 150.166 131.723C149.754 131.993 149.284 132.128 148.756 132.128C148.358 132.128 148.033 132.061 147.78 131.928C147.53 131.794 147.334 131.638 147.192 131.459C147.05 131.28 146.94 131.121 146.864 130.982H146.787V134.455H145.513ZM146.761 128.727C146.761 129.187 146.828 129.591 146.962 129.938C147.095 130.284 147.288 130.555 147.541 130.751C147.794 130.945 148.104 131.041 148.47 131.041C148.851 131.041 149.169 130.94 149.425 130.739C149.68 130.534 149.874 130.257 150.004 129.908C150.138 129.558 150.205 129.165 150.205 128.727C150.205 128.295 150.139 127.908 150.009 127.564C149.881 127.22 149.688 126.949 149.429 126.75C149.173 126.551 148.854 126.452 148.47 126.452C148.101 126.452 147.788 126.547 147.533 126.737C147.28 126.928 147.088 127.193 146.957 127.534C146.827 127.875 146.761 128.273 146.761 128.727ZM153.759 132.081C153.526 132.081 153.325 131.999 153.158 131.834C152.99 131.666 152.906 131.464 152.906 131.229C152.906 130.996 152.99 130.797 153.158 130.632C153.325 130.464 153.526 130.381 153.759 130.381C153.991 130.381 154.192 130.464 154.359 130.632C154.527 130.797 154.611 130.996 154.611 131.229C154.611 131.385 154.571 131.528 154.491 131.659C154.415 131.787 154.312 131.889 154.185 131.966C154.057 132.043 153.915 132.081 153.759 132.081ZM153.759 127.317C153.526 127.317 153.325 127.233 153.158 127.065C152.99 126.898 152.906 126.697 152.906 126.464C152.906 126.232 152.99 126.033 153.158 125.868C153.325 125.7 153.526 125.616 153.759 125.616C153.991 125.616 154.192 125.7 154.359 125.868C154.527 126.033 154.611 126.232 154.611 126.464C154.611 126.621 154.571 126.764 154.491 126.895C154.415 127.023 154.312 127.125 154.185 127.202C154.057 127.278 153.915 127.317 153.759 127.317ZM159.641 122.864L156.829 133.312H155.691L158.504 122.864H159.641ZM164.048 122.864L161.235 133.312H160.097L162.91 122.864H164.048ZM166.404 123.273V132H165.13V123.273H166.404ZM170.875 132.132C170.262 132.132 169.726 131.991 169.269 131.71C168.811 131.429 168.456 131.036 168.203 130.53C167.951 130.024 167.824 129.433 167.824 128.757C167.824 128.078 167.951 127.484 168.203 126.976C168.456 126.467 168.811 126.072 169.269 125.791C169.726 125.51 170.262 125.369 170.875 125.369C171.489 125.369 172.025 125.51 172.482 125.791C172.939 126.072 173.294 126.467 173.547 126.976C173.8 127.484 173.926 128.078 173.926 128.757C173.926 129.433 173.8 130.024 173.547 130.53C173.294 131.036 172.939 131.429 172.482 131.71C172.025 131.991 171.489 132.132 170.875 132.132ZM170.88 131.062C171.277 131.062 171.607 130.957 171.868 130.747C172.13 130.537 172.323 130.257 172.448 129.908C172.576 129.558 172.64 129.173 172.64 128.753C172.64 128.335 172.576 127.952 172.448 127.602C172.323 127.25 172.13 126.967 171.868 126.754C171.607 126.541 171.277 126.435 170.88 126.435C170.479 126.435 170.147 126.541 169.882 126.754C169.621 126.967 169.426 127.25 169.299 127.602C169.174 127.952 169.111 128.335 169.111 128.753C169.111 129.173 169.174 129.558 169.299 129.908C169.426 130.257 169.621 130.537 169.882 130.747C170.147 130.957 170.479 131.062 170.88 131.062ZM178.106 132.132C177.472 132.132 176.927 131.989 176.469 131.702C176.015 131.412 175.665 131.013 175.421 130.504C175.177 129.996 175.055 129.413 175.055 128.757C175.055 128.092 175.18 127.506 175.43 126.997C175.68 126.486 176.032 126.087 176.487 125.8C176.941 125.513 177.477 125.369 178.093 125.369C178.59 125.369 179.033 125.462 179.423 125.646C179.812 125.828 180.126 126.084 180.364 126.413C180.606 126.743 180.749 127.128 180.795 127.568H179.555C179.487 127.261 179.33 126.997 179.086 126.776C178.844 126.554 178.521 126.443 178.114 126.443C177.759 126.443 177.448 126.537 177.181 126.724C176.917 126.909 176.711 127.173 176.563 127.517C176.415 127.858 176.342 128.261 176.342 128.727C176.342 129.205 176.414 129.616 176.559 129.963C176.704 130.31 176.908 130.578 177.173 130.768C177.44 130.959 177.754 131.054 178.114 131.054C178.356 131.054 178.575 131.01 178.771 130.922C178.969 130.831 179.136 130.702 179.269 130.534C179.406 130.366 179.501 130.165 179.555 129.929H180.795C180.749 130.352 180.612 130.73 180.381 131.062C180.151 131.395 179.843 131.656 179.457 131.847C179.073 132.037 178.623 132.132 178.106 132.132ZM184.062 132.145C183.647 132.145 183.272 132.068 182.937 131.915C182.602 131.759 182.336 131.533 182.14 131.237C181.947 130.942 181.85 130.58 181.85 130.151C181.85 129.781 181.922 129.477 182.064 129.239C182.206 129 182.397 128.811 182.639 128.672C182.88 128.533 183.15 128.428 183.449 128.357C183.747 128.286 184.051 128.232 184.36 128.195C184.752 128.149 185.071 128.112 185.315 128.084C185.559 128.053 185.737 128.003 185.848 127.935C185.958 127.866 186.014 127.756 186.014 127.602V127.572C186.014 127.2 185.909 126.912 185.699 126.707C185.491 126.503 185.181 126.401 184.77 126.401C184.341 126.401 184.002 126.496 183.755 126.686C183.511 126.874 183.342 127.082 183.248 127.312L182.051 127.04C182.193 126.642 182.4 126.321 182.673 126.077C182.949 125.83 183.265 125.651 183.623 125.54C183.981 125.426 184.358 125.369 184.752 125.369C185.014 125.369 185.291 125.401 185.583 125.463C185.879 125.523 186.154 125.634 186.41 125.795C186.669 125.957 186.88 126.189 187.045 126.49C187.21 126.788 187.292 127.176 187.292 127.653V132H186.048V131.105H185.997C185.914 131.27 185.791 131.432 185.626 131.591C185.461 131.75 185.25 131.882 184.991 131.987C184.733 132.092 184.423 132.145 184.062 132.145ZM184.339 131.122C184.691 131.122 184.993 131.053 185.243 130.913C185.495 130.774 185.687 130.592 185.818 130.368C185.951 130.141 186.018 129.898 186.018 129.639V128.795C185.973 128.841 185.885 128.884 185.754 128.923C185.626 128.96 185.48 128.993 185.315 129.021C185.15 129.047 184.99 129.071 184.833 129.094C184.677 129.114 184.547 129.131 184.441 129.145C184.194 129.176 183.968 129.229 183.764 129.303C183.562 129.376 183.4 129.483 183.278 129.622C183.159 129.759 183.099 129.94 183.099 130.168C183.099 130.483 183.216 130.722 183.449 130.884C183.681 131.043 183.978 131.122 184.339 131.122ZM190.263 123.273V132H188.989V123.273H190.263ZM193.252 128.114V132H191.978V123.273H193.235V126.52H193.316C193.469 126.168 193.703 125.888 194.019 125.68C194.334 125.473 194.746 125.369 195.255 125.369C195.703 125.369 196.096 125.462 196.431 125.646C196.769 125.831 197.03 126.107 197.215 126.473C197.402 126.837 197.496 127.291 197.496 127.837V132H196.222V127.99C196.222 127.51 196.098 127.138 195.851 126.874C195.604 126.607 195.26 126.473 194.82 126.473C194.519 126.473 194.249 126.537 194.01 126.665C193.775 126.793 193.588 126.98 193.452 127.227C193.319 127.472 193.252 127.767 193.252 128.114ZM201.953 132.132C201.34 132.132 200.804 131.991 200.347 131.71C199.89 131.429 199.534 131.036 199.282 130.53C199.029 130.024 198.902 129.433 198.902 128.757C198.902 128.078 199.029 127.484 199.282 126.976C199.534 126.467 199.89 126.072 200.347 125.791C200.804 125.51 201.34 125.369 201.953 125.369C202.567 125.369 203.103 125.51 203.56 125.791C204.017 126.072 204.373 126.467 204.625 126.976C204.878 127.484 205.005 128.078 205.005 128.757C205.005 129.433 204.878 130.024 204.625 130.53C204.373 131.036 204.017 131.429 203.56 131.71C203.103 131.991 202.567 132.132 201.953 132.132ZM201.958 131.062C202.355 131.062 202.685 130.957 202.946 130.747C203.208 130.537 203.401 130.257 203.526 129.908C203.654 129.558 203.718 129.173 203.718 128.753C203.718 128.335 203.654 127.952 203.526 127.602C203.401 127.25 203.208 126.967 202.946 126.754C202.685 126.541 202.355 126.435 201.958 126.435C201.557 126.435 201.225 126.541 200.961 126.754C200.699 126.967 200.505 127.25 200.377 127.602C200.252 127.952 200.189 128.335 200.189 128.753C200.189 129.173 200.252 129.558 200.377 129.908C200.505 130.257 200.699 130.537 200.961 130.747C201.225 130.957 201.557 131.062 201.958 131.062ZM211.332 127.053L210.177 127.257C210.129 127.109 210.052 126.969 209.947 126.835C209.844 126.702 209.705 126.592 209.529 126.507C209.353 126.422 209.133 126.379 208.869 126.379C208.508 126.379 208.207 126.46 207.965 126.622C207.724 126.781 207.603 126.987 207.603 127.24C207.603 127.459 207.684 127.635 207.846 127.768C208.008 127.902 208.269 128.011 208.63 128.097L209.67 128.335C210.272 128.474 210.721 128.689 211.016 128.979C211.312 129.268 211.46 129.645 211.46 130.108C211.46 130.5 211.346 130.849 211.119 131.156C210.894 131.46 210.58 131.699 210.177 131.872C209.776 132.045 209.312 132.132 208.783 132.132C208.05 132.132 207.452 131.976 206.989 131.663C206.526 131.348 206.242 130.901 206.137 130.321L207.369 130.134C207.445 130.455 207.603 130.697 207.842 130.862C208.08 131.024 208.391 131.105 208.775 131.105C209.192 131.105 209.526 131.018 209.776 130.845C210.026 130.669 210.151 130.455 210.151 130.202C210.151 129.997 210.075 129.825 209.921 129.686C209.771 129.547 209.539 129.442 209.227 129.371L208.119 129.128C207.508 128.989 207.056 128.767 206.763 128.463C206.474 128.159 206.329 127.774 206.329 127.308C206.329 126.922 206.437 126.584 206.653 126.294C206.869 126.004 207.167 125.778 207.548 125.616C207.928 125.452 208.364 125.369 208.856 125.369C209.563 125.369 210.12 125.523 210.526 125.83C210.933 126.134 211.201 126.541 211.332 127.053ZM215.916 125.455V126.477H212.341V125.455H215.916ZM213.299 123.886H214.574V130.078C214.574 130.325 214.61 130.511 214.684 130.636C214.758 130.759 214.853 130.842 214.97 130.888C215.089 130.93 215.218 130.952 215.358 130.952C215.46 130.952 215.549 130.945 215.626 130.93C215.703 130.916 215.762 130.905 215.805 130.896L216.035 131.949C215.961 131.977 215.856 132.006 215.72 132.034C215.583 132.065 215.413 132.082 215.208 132.085C214.873 132.091 214.561 132.031 214.271 131.906C213.981 131.781 213.747 131.588 213.568 131.327C213.389 131.065 213.299 130.737 213.299 130.342V123.886ZM218.165 132.081C217.932 132.081 217.732 131.999 217.564 131.834C217.396 131.666 217.312 131.464 217.312 131.229C217.312 130.996 217.396 130.797 217.564 130.632C217.732 130.464 217.932 130.381 218.165 130.381C218.398 130.381 218.598 130.464 218.766 130.632C218.933 130.797 219.017 130.996 219.017 131.229C219.017 131.385 218.977 131.528 218.898 131.659C218.821 131.787 218.719 131.889 218.591 131.966C218.463 132.043 218.321 132.081 218.165 132.081ZM218.165 127.317C217.932 127.317 217.732 127.233 217.564 127.065C217.396 126.898 217.312 126.697 217.312 126.464C217.312 126.232 217.396 126.033 217.564 125.868C217.732 125.7 217.932 125.616 218.165 125.616C218.398 125.616 218.598 125.7 218.766 125.868C218.933 126.033 219.017 126.232 219.017 126.464C219.017 126.621 218.977 126.764 218.898 126.895C218.821 127.023 218.719 127.125 218.591 127.202C218.463 127.278 218.321 127.317 218.165 127.317ZM223.745 132.119C223.16 132.119 222.637 132.018 222.177 131.817C221.719 131.615 221.357 131.335 221.09 130.977C220.826 130.616 220.684 130.199 220.664 129.724H222.002C222.019 129.983 222.106 130.207 222.262 130.398C222.421 130.585 222.629 130.73 222.884 130.832C223.14 130.935 223.424 130.986 223.737 130.986C224.08 130.986 224.384 130.926 224.648 130.807C224.915 130.687 225.124 130.521 225.275 130.308C225.425 130.092 225.501 129.844 225.501 129.562C225.501 129.27 225.425 129.013 225.275 128.791C225.127 128.567 224.91 128.391 224.623 128.263C224.339 128.135 223.995 128.071 223.592 128.071H222.854V126.997H223.592C223.915 126.997 224.2 126.939 224.444 126.822C224.691 126.706 224.884 126.544 225.023 126.337C225.163 126.126 225.232 125.881 225.232 125.599C225.232 125.33 225.171 125.095 225.049 124.896C224.93 124.695 224.759 124.537 224.538 124.423C224.319 124.31 224.06 124.253 223.762 124.253C223.478 124.253 223.212 124.305 222.965 124.411C222.721 124.513 222.522 124.661 222.369 124.854C222.215 125.044 222.133 125.273 222.121 125.54H220.847C220.862 125.068 221.001 124.653 221.265 124.295C221.532 123.937 221.884 123.658 222.322 123.456C222.759 123.254 223.245 123.153 223.779 123.153C224.339 123.153 224.822 123.263 225.228 123.482C225.637 123.697 225.952 123.986 226.174 124.347C226.398 124.707 226.509 125.102 226.506 125.531C226.509 126.02 226.373 126.435 226.097 126.776C225.825 127.116 225.461 127.345 225.006 127.462V127.53C225.586 127.618 226.035 127.848 226.353 128.22C226.674 128.592 226.833 129.054 226.83 129.605C226.833 130.085 226.7 130.516 226.43 130.896C226.163 131.277 225.798 131.577 225.335 131.795C224.871 132.011 224.342 132.119 223.745 132.119ZM231.479 132.145C230.806 132.142 230.231 131.964 229.754 131.612C229.276 131.26 228.911 130.747 228.658 130.074C228.406 129.401 228.279 128.589 228.279 127.641C228.279 126.695 228.406 125.886 228.658 125.216C228.914 124.545 229.281 124.034 229.758 123.682C230.238 123.33 230.812 123.153 231.479 123.153C232.147 123.153 232.719 123.331 233.197 123.686C233.674 124.038 234.039 124.55 234.292 125.22C234.548 125.888 234.675 126.695 234.675 127.641C234.675 128.592 234.549 129.405 234.296 130.078C234.043 130.749 233.678 131.261 233.201 131.616C232.724 131.969 232.15 132.145 231.479 132.145ZM231.479 131.007C232.07 131.007 232.532 130.719 232.864 130.142C233.2 129.565 233.367 128.732 233.367 127.641C233.367 126.916 233.29 126.304 233.137 125.804C232.987 125.301 232.769 124.92 232.485 124.662C232.204 124.401 231.869 124.27 231.479 124.27C230.891 124.27 230.43 124.56 230.094 125.139C229.759 125.719 229.59 126.553 229.587 127.641C229.587 128.368 229.663 128.983 229.813 129.486C229.967 129.986 230.184 130.365 230.465 130.624C230.746 130.879 231.085 131.007 231.479 131.007ZM239.225 132.145C238.552 132.142 237.977 131.964 237.5 131.612C237.022 131.26 236.657 130.747 236.404 130.074C236.152 129.401 236.025 128.589 236.025 127.641C236.025 126.695 236.152 125.886 236.404 125.216C236.66 124.545 237.027 124.034 237.504 123.682C237.984 123.33 238.558 123.153 239.225 123.153C239.893 123.153 240.466 123.331 240.943 123.686C241.42 124.038 241.785 124.55 242.038 125.22C242.294 125.888 242.422 126.695 242.422 127.641C242.422 128.592 242.295 129.405 242.042 130.078C241.789 130.749 241.424 131.261 240.947 131.616C240.47 131.969 239.896 132.145 239.225 132.145ZM239.225 131.007C239.816 131.007 240.278 130.719 240.61 130.142C240.946 129.565 241.113 128.732 241.113 127.641C241.113 126.916 241.037 126.304 240.883 125.804C240.733 125.301 240.515 124.92 240.231 124.662C239.95 124.401 239.615 124.27 239.225 124.27C238.637 124.27 238.176 124.56 237.841 125.139C237.505 125.719 237.336 126.553 237.333 127.641C237.333 128.368 237.409 128.983 237.559 129.486C237.713 129.986 237.93 130.365 238.211 130.624C238.493 130.879 238.831 131.007 239.225 131.007ZM246.972 132.145C246.298 132.142 245.723 131.964 245.246 131.612C244.768 131.26 244.403 130.747 244.151 130.074C243.898 129.401 243.771 128.589 243.771 127.641C243.771 126.695 243.898 125.886 244.151 125.216C244.406 124.545 244.773 124.034 245.25 123.682C245.73 123.33 246.304 123.153 246.972 123.153C247.639 123.153 248.212 123.331 248.689 123.686C249.166 124.038 249.531 124.55 249.784 125.22C250.04 125.888 250.168 126.695 250.168 127.641C250.168 128.592 250.041 129.405 249.788 130.078C249.536 130.749 249.17 131.261 248.693 131.616C248.216 131.969 247.642 132.145 246.972 132.145ZM246.972 131.007C247.563 131.007 248.024 130.719 248.357 130.142C248.692 129.565 248.859 128.732 248.859 127.641C248.859 126.916 248.783 126.304 248.629 125.804C248.479 125.301 248.261 124.92 247.977 124.662C247.696 124.401 247.361 124.27 246.972 124.27C246.384 124.27 245.922 124.56 245.587 125.139C245.251 125.719 245.082 126.553 245.08 127.641C245.08 128.368 245.155 128.983 245.305 129.486C245.459 129.986 245.676 130.365 245.957 130.624C246.239 130.879 246.577 131.007 246.972 131.007ZM252.664 123.273V126.379H251.607V123.273H252.664ZM254.854 123.273V126.379H253.797V123.273H254.854ZM263.152 128.224V127.27L268.811 124.526V125.825L264.635 127.73L264.673 127.653V127.837L264.635 127.764L268.811 129.665V130.969L263.152 128.224ZM272.44 123.273L272.329 129.49H271.148L271.038 123.273H272.44ZM271.741 132.081C271.505 132.081 271.303 131.999 271.136 131.834C270.968 131.666 270.886 131.464 270.888 131.229C270.886 130.996 270.968 130.797 271.136 130.632C271.303 130.464 271.505 130.381 271.741 130.381C271.971 130.381 272.17 130.464 272.337 130.632C272.505 130.797 272.59 130.996 272.593 131.229C272.59 131.385 272.549 131.528 272.469 131.659C272.393 131.787 272.29 131.889 272.163 131.966C272.035 132.043 271.894 132.081 271.741 132.081ZM278.217 127.082V128.19H274.348V127.082H278.217ZM283.772 127.082V128.19H279.902V127.082H283.772ZM289.485 132H288.087L291.228 123.273H292.749L295.89 132H294.492L292.025 124.858H291.957L289.485 132ZM289.719 128.582H294.254V129.69H289.719V128.582ZM297.15 132V123.273H300.261C300.94 123.273 301.502 123.396 301.949 123.643C302.395 123.891 302.728 124.229 302.95 124.658C303.172 125.084 303.282 125.564 303.282 126.098C303.282 126.635 303.17 127.118 302.946 127.547C302.724 127.973 302.389 128.311 301.94 128.561C301.494 128.808 300.933 128.932 300.257 128.932H298.118V127.815H300.137C300.566 127.815 300.914 127.741 301.181 127.594C301.449 127.443 301.645 127.239 301.77 126.98C301.895 126.722 301.957 126.428 301.957 126.098C301.957 125.768 301.895 125.476 301.77 125.22C301.645 124.964 301.447 124.764 301.177 124.619C300.91 124.474 300.558 124.402 300.12 124.402H298.467V132H297.15ZM306.143 123.273V132H304.826V123.273H306.143ZM311.236 132V123.273H312.553V127.44H312.659L316.32 123.273H317.978L314.458 127.202L317.99 132H316.405L313.584 128.101L312.553 129.286V132H311.236ZM321.443 132.132C320.798 132.132 320.243 131.994 319.777 131.719C319.314 131.44 318.956 131.05 318.703 130.547C318.453 130.041 318.328 129.449 318.328 128.77C318.328 128.099 318.453 127.509 318.703 126.997C318.956 126.486 319.308 126.087 319.76 125.8C320.214 125.513 320.746 125.369 321.354 125.369C321.723 125.369 322.081 125.43 322.428 125.553C322.774 125.675 323.085 125.866 323.361 126.128C323.636 126.389 323.854 126.729 324.013 127.146C324.172 127.561 324.251 128.065 324.251 128.659V129.111H319.048V128.156H323.003C323.003 127.821 322.935 127.524 322.798 127.266C322.662 127.004 322.47 126.798 322.223 126.648C321.979 126.497 321.692 126.422 321.362 126.422C321.004 126.422 320.692 126.51 320.425 126.686C320.161 126.859 319.956 127.087 319.811 127.368C319.669 127.646 319.598 127.949 319.598 128.276V129.021C319.598 129.459 319.675 129.831 319.828 130.138C319.984 130.445 320.202 130.679 320.48 130.841C320.759 131 321.084 131.08 321.456 131.08C321.697 131.08 321.918 131.045 322.116 130.977C322.315 130.906 322.487 130.801 322.632 130.662C322.777 130.523 322.888 130.351 322.964 130.146L324.17 130.364C324.074 130.719 323.901 131.03 323.651 131.297C323.403 131.561 323.092 131.767 322.717 131.915C322.345 132.06 321.92 132.132 321.443 132.132ZM326.283 134.455C326.093 134.455 325.919 134.439 325.763 134.408C325.607 134.379 325.49 134.348 325.414 134.314L325.721 133.27C325.953 133.332 326.161 133.359 326.343 133.351C326.525 133.342 326.685 133.274 326.824 133.146C326.966 133.018 327.091 132.81 327.199 132.52L327.357 132.085L324.962 125.455H326.326L327.983 130.534H328.051L329.709 125.455H331.077L328.38 132.874C328.255 133.214 328.096 133.503 327.902 133.739C327.709 133.977 327.479 134.156 327.212 134.276C326.945 134.395 326.635 134.455 326.283 134.455ZM338.271 132.132C337.626 132.132 337.071 131.994 336.605 131.719C336.142 131.44 335.784 131.05 335.531 130.547C335.281 130.041 335.156 129.449 335.156 128.77C335.156 128.099 335.281 127.509 335.531 126.997C335.784 126.486 336.136 126.087 336.588 125.8C337.043 125.513 337.574 125.369 338.182 125.369C338.551 125.369 338.909 125.43 339.256 125.553C339.602 125.675 339.913 125.866 340.189 126.128C340.464 126.389 340.682 126.729 340.841 127.146C341 127.561 341.08 128.065 341.08 128.659V129.111H335.876V128.156H339.831C339.831 127.821 339.763 127.524 339.626 127.266C339.49 127.004 339.298 126.798 339.051 126.648C338.807 126.497 338.52 126.422 338.19 126.422C337.832 126.422 337.52 126.51 337.253 126.686C336.989 126.859 336.784 127.087 336.639 127.368C336.497 127.646 336.426 127.949 336.426 128.276V129.021C336.426 129.459 336.503 129.831 336.656 130.138C336.812 130.445 337.03 130.679 337.308 130.841C337.587 131 337.912 131.08 338.284 131.08C338.526 131.08 338.746 131.045 338.945 130.977C339.143 130.906 339.315 130.801 339.46 130.662C339.605 130.523 339.716 130.351 339.793 130.146L340.999 130.364C340.902 130.719 340.729 131.03 340.479 131.297C340.232 131.561 339.92 131.767 339.545 131.915C339.173 132.06 338.749 132.132 338.271 132.132ZM342.493 125.455H343.767V132.426C343.767 132.864 343.688 133.233 343.529 133.534C343.373 133.835 343.14 134.064 342.83 134.22C342.523 134.376 342.144 134.455 341.692 134.455C341.647 134.455 341.604 134.455 341.564 134.455C341.522 134.455 341.478 134.453 341.432 134.45V133.355C341.472 133.355 341.507 133.355 341.539 133.355C341.567 133.355 341.6 133.355 341.637 133.355C341.938 133.355 342.155 133.274 342.289 133.112C342.425 132.953 342.493 132.722 342.493 132.418V125.455ZM343.124 124.445C342.902 124.445 342.712 124.371 342.553 124.223C342.397 124.072 342.319 123.893 342.319 123.686C342.319 123.476 342.397 123.297 342.553 123.149C342.712 122.999 342.902 122.923 343.124 122.923C343.346 122.923 343.534 122.999 343.691 123.149C343.85 123.297 343.929 123.476 343.929 123.686C343.929 123.893 343.85 124.072 343.691 124.223C343.534 124.371 343.346 124.445 343.124 124.445ZM348.303 132.132C347.658 132.132 347.102 131.994 346.636 131.719C346.173 131.44 345.815 131.05 345.562 130.547C345.312 130.041 345.188 129.449 345.188 128.77C345.188 128.099 345.312 127.509 345.562 126.997C345.815 126.486 346.168 126.087 346.619 125.8C347.074 125.513 347.605 125.369 348.213 125.369C348.582 125.369 348.94 125.43 349.287 125.553C349.634 125.675 349.945 125.866 350.22 126.128C350.496 126.389 350.713 126.729 350.872 127.146C351.031 127.561 351.111 128.065 351.111 128.659V129.111H345.908V128.156H349.862C349.862 127.821 349.794 127.524 349.658 127.266C349.521 127.004 349.33 126.798 349.082 126.648C348.838 126.497 348.551 126.422 348.222 126.422C347.864 126.422 347.551 126.51 347.284 126.686C347.02 126.859 346.815 127.087 346.67 127.368C346.528 127.646 346.457 127.949 346.457 128.276V129.021C346.457 129.459 346.534 129.831 346.688 130.138C346.844 130.445 347.061 130.679 347.339 130.841C347.618 131 347.943 131.08 348.315 131.08C348.557 131.08 348.777 131.045 348.976 130.977C349.175 130.906 349.347 130.801 349.491 130.662C349.636 130.523 349.747 130.351 349.824 130.146L351.03 130.364C350.933 130.719 350.76 131.03 350.51 131.297C350.263 131.561 349.952 131.767 349.577 131.915C349.205 132.06 348.78 132.132 348.303 132.132ZM352.525 132V125.455H353.748V126.52H353.828C353.965 126.159 354.188 125.878 354.498 125.676C354.807 125.472 355.178 125.369 355.61 125.369C356.047 125.369 356.414 125.472 356.709 125.676C357.007 125.881 357.228 126.162 357.37 126.52H357.438C357.594 126.17 357.843 125.892 358.184 125.685C358.525 125.474 358.931 125.369 359.402 125.369C359.996 125.369 360.48 125.555 360.855 125.928C361.233 126.3 361.422 126.861 361.422 127.611V132H360.148V127.73C360.148 127.287 360.027 126.966 359.786 126.767C359.544 126.568 359.256 126.469 358.921 126.469C358.506 126.469 358.184 126.597 357.953 126.852C357.723 127.105 357.608 127.43 357.608 127.828V132H356.338V127.649C356.338 127.294 356.228 127.009 356.006 126.793C355.784 126.577 355.496 126.469 355.141 126.469C354.9 126.469 354.676 126.533 354.472 126.661C354.27 126.786 354.107 126.96 353.982 127.185C353.86 127.409 353.799 127.669 353.799 127.964V132H352.525ZM363.13 134.455V125.455H364.374V126.516H364.481C364.555 126.379 364.661 126.222 364.8 126.043C364.94 125.864 365.133 125.707 365.38 125.574C365.627 125.438 365.954 125.369 366.36 125.369C366.888 125.369 367.36 125.503 367.775 125.77C368.19 126.037 368.515 126.422 368.751 126.925C368.989 127.428 369.109 128.033 369.109 128.74C369.109 129.447 368.991 130.054 368.755 130.56C368.519 131.062 368.195 131.45 367.783 131.723C367.371 131.993 366.901 132.128 366.373 132.128C365.975 132.128 365.65 132.061 365.397 131.928C365.147 131.794 364.951 131.638 364.809 131.459C364.667 131.28 364.558 131.121 364.481 130.982H364.404V134.455H363.13ZM364.379 128.727C364.379 129.187 364.445 129.591 364.579 129.938C364.712 130.284 364.906 130.555 365.158 130.751C365.411 130.945 365.721 131.041 366.087 131.041C366.468 131.041 366.786 130.94 367.042 130.739C367.298 130.534 367.491 130.257 367.621 129.908C367.755 129.558 367.822 129.165 367.822 128.727C367.822 128.295 367.756 127.908 367.626 127.564C367.498 127.22 367.305 126.949 367.046 126.75C366.79 126.551 366.471 126.452 366.087 126.452C365.718 126.452 365.406 126.547 365.15 126.737C364.897 126.928 364.705 127.193 364.575 127.534C364.444 127.875 364.379 128.273 364.379 128.727ZM371.81 123.273V132H370.536V123.273H371.81ZM376.282 132.132C375.668 132.132 375.132 131.991 374.675 131.71C374.218 131.429 373.863 131.036 373.61 130.53C373.357 130.024 373.23 129.433 373.23 128.757C373.23 128.078 373.357 127.484 373.61 126.976C373.863 126.467 374.218 126.072 374.675 125.791C375.132 125.51 375.668 125.369 376.282 125.369C376.895 125.369 377.431 125.51 377.888 125.791C378.346 126.072 378.701 126.467 378.953 126.976C379.206 127.484 379.333 128.078 379.333 128.757C379.333 129.433 379.206 130.024 378.953 130.53C378.701 131.036 378.346 131.429 377.888 131.71C377.431 131.991 376.895 132.132 376.282 132.132ZM376.286 131.062C376.684 131.062 377.013 130.957 377.275 130.747C377.536 130.537 377.729 130.257 377.854 129.908C377.982 129.558 378.046 129.173 378.046 128.753C378.046 128.335 377.982 127.952 377.854 127.602C377.729 127.25 377.536 126.967 377.275 126.754C377.013 126.541 376.684 126.435 376.286 126.435C375.885 126.435 375.553 126.541 375.289 126.754C375.027 126.967 374.833 127.25 374.705 127.602C374.58 127.952 374.517 128.335 374.517 128.753C374.517 129.173 374.58 129.558 374.705 129.908C374.833 130.257 375.027 130.537 375.289 130.747C375.553 130.957 375.885 131.062 376.286 131.062ZM394.005 132.158L393.238 131.395L395.901 128.736H384.574V127.628H395.901L393.238 124.964L394.005 124.206L397.98 128.182L394.005 132.158ZM102.021 140.455V141.477H98.446V140.455H102.021ZM99.4048 138.886H100.679V145.078C100.679 145.325 100.716 145.511 100.79 145.636C100.864 145.759 100.959 145.842 101.075 145.888C101.195 145.93 101.324 145.952 101.463 145.952C101.565 145.952 101.655 145.945 101.732 145.93C101.808 145.916 101.868 145.905 101.911 145.896L102.141 146.949C102.067 146.977 101.962 147.006 101.825 147.034C101.689 147.065 101.518 147.082 101.314 147.085C100.979 147.091 100.666 147.031 100.376 146.906C100.087 146.781 99.8523 146.588 99.6733 146.327C99.4943 146.065 99.4048 145.737 99.4048 145.342V138.886ZM103.431 147V140.455H104.705V147H103.431ZM104.074 139.445C103.853 139.445 103.662 139.371 103.503 139.223C103.347 139.072 103.269 138.893 103.269 138.686C103.269 138.476 103.347 138.297 103.503 138.149C103.662 137.999 103.853 137.923 104.074 137.923C104.296 137.923 104.485 137.999 104.641 138.149C104.8 138.297 104.88 138.476 104.88 138.686C104.88 138.893 104.8 139.072 104.641 139.223C104.485 139.371 104.296 139.445 104.074 139.445ZM109.474 140.455V141.477H105.899V140.455H109.474ZM106.858 138.886H108.132V145.078C108.132 145.325 108.169 145.511 108.243 145.636C108.317 145.759 108.412 145.842 108.528 145.888C108.648 145.93 108.777 145.952 108.916 145.952C109.018 145.952 109.108 145.945 109.185 145.93C109.261 145.916 109.321 145.905 109.364 145.896L109.594 146.949C109.52 146.977 109.415 147.006 109.278 147.034C109.142 147.065 108.972 147.082 108.767 147.085C108.432 147.091 108.119 147.031 107.83 146.906C107.54 146.781 107.305 146.588 107.126 146.327C106.947 146.065 106.858 145.737 106.858 145.342V138.886ZM112.299 138.273V147H111.025V138.273H112.299ZM116.834 147.132C116.189 147.132 115.634 146.994 115.168 146.719C114.705 146.44 114.347 146.05 114.094 145.547C113.844 145.041 113.719 144.449 113.719 143.77C113.719 143.099 113.844 142.509 114.094 141.997C114.347 141.486 114.699 141.087 115.151 140.8C115.605 140.513 116.136 140.369 116.744 140.369C117.114 140.369 117.472 140.43 117.818 140.553C118.165 140.675 118.476 140.866 118.751 141.128C119.027 141.389 119.244 141.729 119.403 142.146C119.563 142.561 119.642 143.065 119.642 143.659V144.111H114.439V143.156H118.393C118.393 142.821 118.325 142.524 118.189 142.266C118.053 142.004 117.861 141.798 117.614 141.648C117.369 141.497 117.082 141.422 116.753 141.422C116.395 141.422 116.082 141.51 115.815 141.686C115.551 141.859 115.347 142.087 115.202 142.368C115.06 142.646 114.989 142.949 114.989 143.276V144.021C114.989 144.459 115.065 144.831 115.219 145.138C115.375 145.445 115.592 145.679 115.871 145.841C116.149 146 116.474 146.08 116.847 146.08C117.088 146.08 117.308 146.045 117.507 145.977C117.706 145.906 117.878 145.801 118.023 145.662C118.168 145.523 118.278 145.351 118.355 145.146L119.561 145.364C119.464 145.719 119.291 146.03 119.041 146.297C118.794 146.561 118.483 146.767 118.108 146.915C117.736 147.06 117.311 147.132 116.834 147.132ZM121.465 142.811V141.69H126.924V142.811H121.465ZM121.465 145.436V144.315H126.924V145.436H121.465ZM130.015 138.273V141.379H128.958V138.273H130.015ZM132.206 138.273V141.379H131.149V138.273H132.206ZM133.943 138.273H135.541L138.32 145.057H138.422L141.2 138.273H142.798V147H141.545V140.685H141.464L138.891 146.987H137.851L135.277 140.68H135.196V147H133.943V138.273ZM145.416 149.455C145.225 149.455 145.052 149.439 144.896 149.408C144.74 149.379 144.623 149.348 144.547 149.314L144.853 148.27C145.086 148.332 145.294 148.359 145.475 148.351C145.657 148.342 145.818 148.274 145.957 148.146C146.099 148.018 146.224 147.81 146.332 147.52L146.49 147.085L144.095 140.455H145.458L147.116 145.534H147.184L148.842 140.455H150.21L147.512 147.874C147.387 148.214 147.228 148.503 147.035 148.739C146.842 148.977 146.612 149.156 146.345 149.276C146.078 149.395 145.768 149.455 145.416 149.455ZM154.685 147V138.273H160.157V139.406H156.002V142.065H159.871V143.195H156.002V145.866H160.208V147H154.685ZM161.814 147V140.455H163.037V141.52H163.118C163.254 141.159 163.477 140.878 163.787 140.676C164.096 140.472 164.467 140.369 164.899 140.369C165.336 140.369 165.703 140.472 165.998 140.676C166.297 140.881 166.517 141.162 166.659 141.52H166.727C166.883 141.17 167.132 140.892 167.473 140.685C167.814 140.474 168.22 140.369 168.691 140.369C169.285 140.369 169.77 140.555 170.145 140.928C170.522 141.3 170.711 141.861 170.711 142.611V147H169.437V142.73C169.437 142.287 169.316 141.966 169.075 141.767C168.833 141.568 168.545 141.469 168.21 141.469C167.795 141.469 167.473 141.597 167.243 141.852C167.012 142.105 166.897 142.43 166.897 142.828V147H165.627V142.649C165.627 142.294 165.517 142.009 165.295 141.793C165.074 141.577 164.785 141.469 164.43 141.469C164.189 141.469 163.966 141.533 163.761 141.661C163.559 141.786 163.396 141.96 163.271 142.185C163.149 142.409 163.088 142.669 163.088 142.964V147H161.814ZM172.521 147V138.273H173.795V141.516H173.872C173.946 141.379 174.053 141.222 174.192 141.043C174.331 140.864 174.524 140.707 174.771 140.574C175.018 140.438 175.345 140.369 175.751 140.369C176.28 140.369 176.751 140.503 177.166 140.77C177.581 141.037 177.906 141.422 178.142 141.925C178.381 142.428 178.5 143.033 178.5 143.74C178.5 144.447 178.382 145.054 178.146 145.56C177.911 146.062 177.587 146.45 177.175 146.723C176.763 146.993 176.293 147.128 175.764 147.128C175.366 147.128 175.041 147.061 174.788 146.928C174.538 146.794 174.342 146.638 174.2 146.459C174.058 146.28 173.949 146.121 173.872 145.982H173.766V147H172.521ZM173.77 143.727C173.77 144.187 173.837 144.591 173.97 144.938C174.104 145.284 174.297 145.555 174.55 145.751C174.803 145.945 175.112 146.041 175.479 146.041C175.859 146.041 176.178 145.94 176.433 145.739C176.689 145.534 176.882 145.257 177.013 144.908C177.146 144.558 177.213 144.165 177.213 143.727C177.213 143.295 177.148 142.908 177.017 142.564C176.889 142.22 176.696 141.949 176.438 141.75C176.182 141.551 175.862 141.452 175.479 141.452C175.109 141.452 174.797 141.547 174.541 141.737C174.288 141.928 174.097 142.193 173.966 142.534C173.835 142.875 173.77 143.273 173.77 143.727ZM182.752 147.132C182.107 147.132 181.551 146.994 181.086 146.719C180.623 146.44 180.265 146.05 180.012 145.547C179.762 145.041 179.637 144.449 179.637 143.77C179.637 143.099 179.762 142.509 180.012 141.997C180.265 141.486 180.617 141.087 181.069 140.8C181.523 140.513 182.054 140.369 182.662 140.369C183.032 140.369 183.39 140.43 183.736 140.553C184.083 140.675 184.394 140.866 184.669 141.128C184.945 141.389 185.162 141.729 185.321 142.146C185.48 142.561 185.56 143.065 185.56 143.659V144.111H180.357V143.156H184.311C184.311 142.821 184.243 142.524 184.107 142.266C183.971 142.004 183.779 141.798 183.532 141.648C183.287 141.497 183 141.422 182.671 141.422C182.313 141.422 182 141.51 181.733 141.686C181.469 141.859 181.265 142.087 181.12 142.368C180.978 142.646 180.907 142.949 180.907 143.276V144.021C180.907 144.459 180.983 144.831 181.137 145.138C181.293 145.445 181.51 145.679 181.789 145.841C182.067 146 182.392 146.08 182.765 146.08C183.006 146.08 183.226 146.045 183.425 145.977C183.624 145.906 183.796 145.801 183.941 145.662C184.086 145.523 184.196 145.351 184.273 145.146L185.479 145.364C185.382 145.719 185.209 146.03 184.959 146.297C184.712 146.561 184.401 146.767 184.026 146.915C183.654 147.06 183.229 147.132 182.752 147.132ZM189.424 147.128C188.896 147.128 188.424 146.993 188.009 146.723C187.597 146.45 187.273 146.062 187.038 145.56C186.805 145.054 186.688 144.447 186.688 143.74C186.688 143.033 186.806 142.428 187.042 141.925C187.281 141.422 187.607 141.037 188.022 140.77C188.437 140.503 188.907 140.369 189.433 140.369C189.839 140.369 190.165 140.438 190.413 140.574C190.663 140.707 190.856 140.864 190.992 141.043C191.131 141.222 191.239 141.379 191.316 141.516H191.393V138.273H192.667V147H191.423V145.982H191.316C191.239 146.121 191.129 146.28 190.984 146.459C190.842 146.638 190.646 146.794 190.396 146.928C190.146 147.061 189.822 147.128 189.424 147.128ZM189.705 146.041C190.072 146.041 190.381 145.945 190.634 145.751C190.89 145.555 191.083 145.284 191.214 144.938C191.347 144.591 191.414 144.187 191.414 143.727C191.414 143.273 191.349 142.875 191.218 142.534C191.087 142.193 190.896 141.928 190.643 141.737C190.39 141.547 190.077 141.452 189.705 141.452C189.322 141.452 189.002 141.551 188.746 141.75C188.491 141.949 188.298 142.22 188.167 142.564C188.039 142.908 187.975 143.295 187.975 143.727C187.975 144.165 188.04 144.558 188.171 144.908C188.302 145.257 188.495 145.534 188.751 145.739C189.009 145.94 189.327 146.041 189.705 146.041ZM196.936 147.128C196.407 147.128 195.936 146.993 195.521 146.723C195.109 146.45 194.785 146.062 194.549 145.56C194.316 145.054 194.2 144.447 194.2 143.74C194.2 143.033 194.318 142.428 194.554 141.925C194.792 141.422 195.119 141.037 195.534 140.77C195.949 140.503 196.419 140.369 196.944 140.369C197.35 140.369 197.677 140.438 197.924 140.574C198.174 140.707 198.368 140.864 198.504 141.043C198.643 141.222 198.751 141.379 198.828 141.516H198.904V138.273H200.179V147H198.934V145.982H198.828C198.751 146.121 198.64 146.28 198.495 146.459C198.353 146.638 198.157 146.794 197.907 146.928C197.657 147.061 197.333 147.128 196.936 147.128ZM197.217 146.041C197.583 146.041 197.893 145.945 198.146 145.751C198.402 145.555 198.595 145.284 198.725 144.938C198.859 144.591 198.926 144.187 198.926 143.727C198.926 143.273 198.86 142.875 198.73 142.534C198.599 142.193 198.407 141.928 198.154 141.737C197.902 141.547 197.589 141.452 197.217 141.452C196.833 141.452 196.514 141.551 196.258 141.75C196.002 141.949 195.809 142.22 195.679 142.564C195.551 142.908 195.487 143.295 195.487 143.727C195.487 144.165 195.552 144.558 195.683 144.908C195.814 145.257 196.007 145.534 196.262 145.739C196.521 145.94 196.839 146.041 197.217 146.041ZM204.818 147.132C204.173 147.132 203.618 146.994 203.152 146.719C202.689 146.44 202.331 146.05 202.078 145.547C201.828 145.041 201.703 144.449 201.703 143.77C201.703 143.099 201.828 142.509 202.078 141.997C202.331 141.486 202.683 141.087 203.135 140.8C203.589 140.513 204.121 140.369 204.729 140.369C205.098 140.369 205.456 140.43 205.803 140.553C206.149 140.675 206.46 140.866 206.736 141.128C207.011 141.389 207.229 141.729 207.388 142.146C207.547 142.561 207.626 143.065 207.626 143.659V144.111H202.423V143.156H206.378C206.378 142.821 206.31 142.524 206.173 142.266C206.037 142.004 205.845 141.798 205.598 141.648C205.354 141.497 205.067 141.422 204.737 141.422C204.379 141.422 204.067 141.51 203.8 141.686C203.536 141.859 203.331 142.087 203.186 142.368C203.044 142.646 202.973 142.949 202.973 143.276V144.021C202.973 144.459 203.05 144.831 203.203 145.138C203.359 145.445 203.577 145.679 203.855 145.841C204.134 146 204.459 146.08 204.831 146.08C205.072 146.08 205.293 146.045 205.491 145.977C205.69 145.906 205.862 145.801 206.007 145.662C206.152 145.523 206.263 145.351 206.339 145.146L207.545 145.364C207.449 145.719 207.276 146.03 207.026 146.297C206.778 146.561 206.467 146.767 206.092 146.915C205.72 147.06 205.295 147.132 204.818 147.132ZM211.49 147.128C210.962 147.128 210.49 146.993 210.076 146.723C209.664 146.45 209.34 146.062 209.104 145.56C208.871 145.054 208.755 144.447 208.755 143.74C208.755 143.033 208.873 142.428 209.108 141.925C209.347 141.422 209.674 141.037 210.088 140.77C210.503 140.503 210.973 140.369 211.499 140.369C211.905 140.369 212.232 140.438 212.479 140.574C212.729 140.707 212.922 140.864 213.059 141.043C213.198 141.222 213.306 141.379 213.382 141.516H213.459V138.273H214.733V147H213.489V145.982H213.382C213.306 146.121 213.195 146.28 213.05 146.459C212.908 146.638 212.712 146.794 212.462 146.928C212.212 147.061 211.888 147.128 211.49 147.128ZM211.772 146.041C212.138 146.041 212.448 145.945 212.701 145.751C212.956 145.555 213.15 145.284 213.28 144.938C213.414 144.591 213.48 144.187 213.48 143.727C213.48 143.273 213.415 142.875 213.284 142.534C213.154 142.193 212.962 141.928 212.709 141.737C212.456 141.547 212.144 141.452 211.772 141.452C211.388 141.452 211.069 141.551 210.813 141.75C210.557 141.949 210.364 142.22 210.233 142.564C210.105 142.908 210.042 143.295 210.042 143.727C210.042 144.165 210.107 144.558 210.238 144.908C210.368 145.257 210.561 145.534 210.817 145.739C211.076 145.94 211.394 146.041 211.772 146.041ZM220.567 147H219.169L222.31 138.273H223.831L226.972 147H225.574L223.107 139.858H223.039L220.567 147ZM220.801 143.582H225.336V144.69H220.801V143.582ZM228.13 149.455V140.455H229.374V141.516H229.481C229.555 141.379 229.661 141.222 229.8 141.043C229.94 140.864 230.133 140.707 230.38 140.574C230.627 140.438 230.954 140.369 231.36 140.369C231.888 140.369 232.36 140.503 232.775 140.77C233.19 141.037 233.515 141.422 233.751 141.925C233.989 142.428 234.109 143.033 234.109 143.74C234.109 144.447 233.991 145.054 233.755 145.56C233.519 146.062 233.195 146.45 232.783 146.723C232.371 146.993 231.901 147.128 231.373 147.128C230.975 147.128 230.65 147.061 230.397 146.928C230.147 146.794 229.951 146.638 229.809 146.459C229.667 146.28 229.558 146.121 229.481 145.982H229.404V149.455H228.13ZM229.379 143.727C229.379 144.187 229.445 144.591 229.579 144.938C229.712 145.284 229.906 145.555 230.158 145.751C230.411 145.945 230.721 146.041 231.087 146.041C231.468 146.041 231.786 145.94 232.042 145.739C232.298 145.534 232.491 145.257 232.621 144.908C232.755 144.558 232.822 144.165 232.822 143.727C232.822 143.295 232.756 142.908 232.626 142.564C232.498 142.22 232.305 141.949 232.046 141.75C231.79 141.551 231.471 141.452 231.087 141.452C230.718 141.452 230.406 141.547 230.15 141.737C229.897 141.928 229.705 142.193 229.575 142.534C229.444 142.875 229.379 143.273 229.379 143.727ZM235.536 149.455V140.455H236.781V141.516H236.887C236.961 141.379 237.067 141.222 237.207 141.043C237.346 140.864 237.539 140.707 237.786 140.574C238.033 140.438 238.36 140.369 238.766 140.369C239.295 140.369 239.766 140.503 240.181 140.77C240.596 141.037 240.921 141.422 241.157 141.925C241.396 142.428 241.515 143.033 241.515 143.74C241.515 144.447 241.397 145.054 241.161 145.56C240.925 146.062 240.602 146.45 240.19 146.723C239.778 146.993 239.308 147.128 238.779 147.128C238.381 147.128 238.056 147.061 237.803 146.928C237.553 146.794 237.357 146.638 237.215 146.459C237.073 146.28 236.964 146.121 236.887 145.982H236.81V149.455H235.536ZM236.785 143.727C236.785 144.187 236.852 144.591 236.985 144.938C237.119 145.284 237.312 145.555 237.565 145.751C237.817 145.945 238.127 146.041 238.494 146.041C238.874 146.041 239.192 145.94 239.448 145.739C239.704 145.534 239.897 145.257 240.028 144.908C240.161 144.558 240.228 144.165 240.228 143.727C240.228 143.295 240.163 142.908 240.032 142.564C239.904 142.22 239.711 141.949 239.452 141.75C239.197 141.551 238.877 141.452 238.494 141.452C238.124 141.452 237.812 141.547 237.556 141.737C237.303 141.928 237.112 142.193 236.981 142.534C236.85 142.875 236.785 143.273 236.785 143.727ZM243.91 138.273V141.379H242.853V138.273H243.91ZM246.1 138.273V141.379H245.043V138.273H246.1ZM253.706 144.043L248.047 146.787V145.483L252.223 143.582L252.18 143.655V143.472L252.223 143.548L248.047 141.643V140.344L253.706 143.088V144.043ZM86.5739 159.043V158.088L92.233 155.344V156.643L88.0568 158.548L88.0952 158.472V158.655L88.0568 158.582L92.233 160.483V161.787L86.5739 159.043ZM97.5788 152.864L94.7663 163.312H93.6286L96.4411 152.864H97.5788ZM98.6612 162V155.455H99.9354V162H98.6612ZM99.3047 154.445C99.0831 154.445 98.8928 154.371 98.7337 154.223C98.5774 154.072 98.4993 153.893 98.4993 153.686C98.4993 153.476 98.5774 153.297 98.7337 153.149C98.8928 152.999 99.0831 152.923 99.3047 152.923C99.5263 152.923 99.7152 152.999 99.8714 153.149C100.031 153.297 100.11 153.476 100.11 153.686C100.11 153.893 100.031 154.072 99.8714 154.223C99.7152 154.371 99.5263 154.445 99.3047 154.445ZM104.765 155.455V156.477H101.066V155.455H104.765ZM102.08 162V154.696C102.08 154.287 102.169 153.947 102.348 153.678C102.527 153.405 102.765 153.202 103.06 153.068C103.355 152.932 103.676 152.864 104.023 152.864C104.279 152.864 104.498 152.885 104.679 152.928C104.861 152.967 104.996 153.004 105.084 153.038L104.786 154.07C104.726 154.053 104.65 154.033 104.556 154.01C104.462 153.984 104.348 153.972 104.215 153.972C103.905 153.972 103.684 154.048 103.55 154.202C103.419 154.355 103.354 154.577 103.354 154.866V162H102.08ZM106.079 162V155.455H107.311V156.494H107.379C107.498 156.142 107.708 155.865 108.01 155.663C108.314 155.459 108.657 155.357 109.041 155.357C109.12 155.357 109.214 155.359 109.322 155.365C109.433 155.371 109.52 155.378 109.582 155.386V156.605C109.531 156.591 109.44 156.575 109.309 156.558C109.179 156.538 109.048 156.528 108.917 156.528C108.616 156.528 108.348 156.592 108.112 156.72C107.879 156.845 107.694 157.02 107.558 157.244C107.422 157.466 107.353 157.719 107.353 158.003V162H106.079ZM112.531 162.145C112.116 162.145 111.741 162.068 111.406 161.915C111.071 161.759 110.805 161.533 110.609 161.237C110.416 160.942 110.319 160.58 110.319 160.151C110.319 159.781 110.39 159.477 110.532 159.239C110.674 159 110.866 158.811 111.108 158.672C111.349 158.533 111.619 158.428 111.917 158.357C112.216 158.286 112.52 158.232 112.829 158.195C113.221 158.149 113.539 158.112 113.784 158.084C114.028 158.053 114.206 158.003 114.316 157.935C114.427 157.866 114.483 157.756 114.483 157.602V157.572C114.483 157.2 114.377 156.912 114.167 156.707C113.96 156.503 113.65 156.401 113.238 156.401C112.809 156.401 112.471 156.496 112.224 156.686C111.98 156.874 111.811 157.082 111.717 157.312L110.52 157.04C110.662 156.642 110.869 156.321 111.142 156.077C111.417 155.83 111.734 155.651 112.092 155.54C112.45 155.426 112.826 155.369 113.221 155.369C113.483 155.369 113.76 155.401 114.052 155.463C114.348 155.523 114.623 155.634 114.879 155.795C115.137 155.957 115.349 156.189 115.514 156.49C115.679 156.788 115.761 157.176 115.761 157.653V162H114.517V161.105H114.466C114.383 161.27 114.26 161.432 114.095 161.591C113.93 161.75 113.718 161.882 113.46 161.987C113.201 162.092 112.892 162.145 112.531 162.145ZM112.808 161.122C113.16 161.122 113.461 161.053 113.711 160.913C113.964 160.774 114.156 160.592 114.287 160.368C114.42 160.141 114.487 159.898 114.487 159.639V158.795C114.441 158.841 114.353 158.884 114.223 158.923C114.095 158.96 113.949 158.993 113.784 159.021C113.619 159.047 113.458 159.071 113.302 159.094C113.146 159.114 113.015 159.131 112.91 159.145C112.663 159.176 112.437 159.229 112.233 159.303C112.031 159.376 111.869 159.483 111.747 159.622C111.627 159.759 111.568 159.94 111.568 160.168C111.568 160.483 111.684 160.722 111.917 160.884C112.15 161.043 112.447 161.122 112.808 161.122ZM117.458 162V155.455H118.681V156.52H118.762C118.898 156.159 119.121 155.878 119.431 155.676C119.741 155.472 120.112 155.369 120.543 155.369C120.981 155.369 121.347 155.472 121.643 155.676C121.941 155.881 122.161 156.162 122.303 156.52H122.371C122.528 156.17 122.776 155.892 123.117 155.685C123.458 155.474 123.864 155.369 124.336 155.369C124.93 155.369 125.414 155.555 125.789 155.928C126.167 156.3 126.356 156.861 126.356 157.611V162H125.082V157.73C125.082 157.287 124.961 156.966 124.719 156.767C124.478 156.568 124.19 156.469 123.854 156.469C123.44 156.469 123.117 156.597 122.887 156.852C122.657 157.105 122.542 157.43 122.542 157.828V162H121.272V157.649C121.272 157.294 121.161 157.009 120.94 156.793C120.718 156.577 120.43 156.469 120.075 156.469C119.833 156.469 119.61 156.533 119.406 156.661C119.204 156.786 119.04 156.96 118.915 157.185C118.793 157.409 118.732 157.669 118.732 157.964V162H117.458ZM130.885 162.132C130.24 162.132 129.684 161.994 129.218 161.719C128.755 161.44 128.397 161.05 128.145 160.547C127.895 160.041 127.77 159.449 127.77 158.77C127.77 158.099 127.895 157.509 128.145 156.997C128.397 156.486 128.75 156.087 129.201 155.8C129.656 155.513 130.187 155.369 130.795 155.369C131.164 155.369 131.522 155.43 131.869 155.553C132.216 155.675 132.527 155.866 132.802 156.128C133.078 156.389 133.295 156.729 133.454 157.146C133.613 157.561 133.693 158.065 133.693 158.659V159.111H128.49V158.156H132.444C132.444 157.821 132.376 157.524 132.24 157.266C132.103 157.004 131.912 156.798 131.664 156.648C131.42 156.497 131.133 156.422 130.804 156.422C130.446 156.422 130.133 156.51 129.866 156.686C129.602 156.859 129.397 157.087 129.252 157.368C129.11 157.646 129.039 157.949 129.039 158.276V159.021C129.039 159.459 129.116 159.831 129.27 160.138C129.426 160.445 129.643 160.679 129.922 160.841C130.2 161 130.525 161.08 130.897 161.08C131.139 161.08 131.359 161.045 131.558 160.977C131.757 160.906 131.929 160.801 132.074 160.662C132.218 160.523 132.329 160.351 132.406 160.146L133.612 160.364C133.515 160.719 133.342 161.03 133.092 161.297C132.845 161.561 132.534 161.767 132.159 161.915C131.787 162.06 131.362 162.132 130.885 162.132ZM141.077 159.043L135.418 161.787V160.483L139.594 158.582L139.551 158.655V158.472L139.594 158.548L135.418 156.643V155.344L141.077 158.088V159.043ZM73.8707 174.043V173.088L79.5298 170.344V171.643L75.3537 173.548L75.392 173.472V173.655L75.3537 173.582L79.5298 175.483V176.787L73.8707 174.043ZM84.8757 167.864L82.0632 178.312H80.9254L83.7379 167.864H84.8757ZM88.4084 177.128C87.88 177.128 87.4084 176.993 86.9936 176.723C86.5817 176.45 86.2578 176.062 86.022 175.56C85.7891 175.054 85.6726 174.447 85.6726 173.74C85.6726 173.033 85.7905 172.428 86.0263 171.925C86.2649 171.422 86.5916 171.037 87.0064 170.77C87.4212 170.503 87.8913 170.369 88.4169 170.369C88.8232 170.369 89.1499 170.438 89.397 170.574C89.647 170.707 89.8402 170.864 89.9766 171.043C90.1158 171.222 90.2237 171.379 90.3004 171.516H90.3771V168.273H91.6513V177H90.407V175.982H90.3004C90.2237 176.121 90.1129 176.28 89.968 176.459C89.826 176.638 89.63 176.794 89.38 176.928C89.13 177.061 88.8061 177.128 88.4084 177.128ZM88.6896 176.041C89.0561 176.041 89.3658 175.945 89.6186 175.751C89.8743 175.555 90.0675 175.284 90.1982 174.938C90.3317 174.591 90.3984 174.187 90.3984 173.727C90.3984 173.273 90.3331 172.875 90.2024 172.534C90.0717 172.193 89.88 171.928 89.6271 171.737C89.3743 171.547 89.0618 171.452 88.6896 171.452C88.3061 171.452 87.9865 171.551 87.7308 171.75C87.4751 171.949 87.282 172.22 87.1513 172.564C87.0234 172.908 86.9595 173.295 86.9595 173.727C86.9595 174.165 87.0249 174.558 87.1555 174.908C87.2862 175.257 87.4794 175.534 87.7351 175.739C87.9936 175.94 88.3118 176.041 88.6896 176.041ZM93.4698 177V170.455H94.744V177H93.4698ZM94.1133 169.445C93.8917 169.445 93.7013 169.371 93.5423 169.223C93.386 169.072 93.3079 168.893 93.3079 168.686C93.3079 168.476 93.386 168.297 93.5423 168.149C93.7013 167.999 93.8917 167.923 94.1133 167.923C94.3349 167.923 94.5238 167.999 94.68 168.149C94.8391 168.297 94.9187 168.476 94.9187 168.686C94.9187 168.893 94.8391 169.072 94.68 169.223C94.5238 169.371 94.3349 169.445 94.1133 169.445ZM102.058 170.455L99.6839 177H98.3203L95.9425 170.455H97.3104L98.968 175.491H99.0362L100.69 170.455H102.058ZM109.225 174.043L103.566 176.787V175.483L107.742 173.582L107.7 173.655V173.472L107.742 173.548L103.566 171.643V170.344L109.225 173.088V174.043Z" fill="#33343A"/>
<defs>
<clipPath id="clip0_1507_413">
<rect width="25" height="25" fill="white" transform="translate(38 20)"/>
</clipPath>
</defs>
</svg>
