<svg width="200" height="250" viewBox="0 0 371 468" fill="none" xmlns="http://www.w3.org/2000/svg">
<rect width="371" height="468" rx="25" fill="white"/>
<rect x="51" y="379" width="270.422" height="30.2231" rx="15" fill="#1473FB"/>
<path d="M141.004 398V387.818H144.822C145.605 387.818 146.261 387.964 146.791 388.256C147.325 388.547 147.728 388.948 147.999 389.459C148.274 389.966 148.412 390.543 148.412 391.189C148.412 391.842 148.274 392.422 147.999 392.929C147.724 393.436 147.318 393.835 146.781 394.127C146.244 394.415 145.583 394.56 144.798 394.56H142.267V393.043H144.549C145.006 393.043 145.381 392.964 145.673 392.805C145.964 392.646 146.18 392.427 146.319 392.148C146.461 391.87 146.533 391.55 146.533 391.189C146.533 390.828 146.461 390.509 146.319 390.234C146.18 389.959 145.963 389.746 145.668 389.593C145.376 389.437 145 389.359 144.539 389.359H142.849V398H141.004ZM149.934 398V390.364H151.68V391.636H151.759C151.898 391.196 152.137 390.856 152.475 390.617C152.816 390.375 153.206 390.254 153.643 390.254C153.743 390.254 153.854 390.259 153.976 390.269C154.102 390.276 154.207 390.287 154.29 390.304V391.96C154.213 391.933 154.092 391.91 153.927 391.89C153.764 391.867 153.607 391.855 153.454 391.855C153.126 391.855 152.831 391.926 152.569 392.069C152.311 392.208 152.107 392.402 151.958 392.651C151.809 392.899 151.734 393.186 151.734 393.511V398H149.934ZM158.502 398.149C157.756 398.149 157.11 397.985 156.563 397.657C156.016 397.329 155.592 396.87 155.29 396.28C154.992 395.69 154.843 395 154.843 394.212C154.843 393.423 154.992 392.732 155.29 392.138C155.592 391.545 156.016 391.085 156.563 390.756C157.11 390.428 157.756 390.264 158.502 390.264C159.248 390.264 159.894 390.428 160.441 390.756C160.988 391.085 161.41 391.545 161.708 392.138C162.01 392.732 162.161 393.423 162.161 394.212C162.161 395 162.01 395.69 161.708 396.28C161.41 396.87 160.988 397.329 160.441 397.657C159.894 397.985 159.248 398.149 158.502 398.149ZM158.512 396.707C158.916 396.707 159.254 396.596 159.526 396.374C159.798 396.149 160 395.847 160.132 395.469C160.268 395.092 160.336 394.671 160.336 394.207C160.336 393.739 160.268 393.317 160.132 392.939C160 392.558 159.798 392.254 159.526 392.029C159.254 391.804 158.916 391.691 158.512 391.691C158.097 391.691 157.753 391.804 157.478 392.029C157.206 392.254 157.002 392.558 156.866 392.939C156.734 393.317 156.667 393.739 156.667 394.207C156.667 394.671 156.734 395.092 156.866 395.469C157.002 395.847 157.206 396.149 157.478 396.374C157.753 396.596 158.097 396.707 158.512 396.707ZM164.873 390.364L166.414 393.183L167.98 390.364H169.884L167.582 394.182L169.924 398H168.03L166.414 395.251L164.813 398H162.904L165.231 394.182L162.964 390.364H164.873ZM171.276 398V390.364H173.076V398H171.276ZM172.181 389.28C171.896 389.28 171.651 389.185 171.445 388.996C171.24 388.804 171.137 388.574 171.137 388.305C171.137 388.034 171.24 387.803 171.445 387.614C171.651 387.422 171.896 387.326 172.181 387.326C172.469 387.326 172.715 387.422 172.917 387.614C173.122 387.803 173.225 388.034 173.225 388.305C173.225 388.574 173.122 388.804 172.917 388.996C172.715 389.185 172.469 389.28 172.181 389.28ZM174.927 398V390.364H176.647V391.661H176.736C176.895 391.224 177.159 390.882 177.527 390.637C177.895 390.388 178.334 390.264 178.844 390.264C179.361 390.264 179.797 390.39 180.152 390.642C180.51 390.891 180.762 391.23 180.907 391.661H180.987C181.156 391.237 181.441 390.899 181.842 390.647C182.247 390.392 182.725 390.264 183.279 390.264C183.982 390.264 184.555 390.486 184.999 390.93C185.443 391.375 185.665 392.022 185.665 392.874V398H183.861V393.153C183.861 392.679 183.735 392.332 183.483 392.114C183.231 391.892 182.923 391.781 182.558 391.781C182.124 391.781 181.784 391.916 181.539 392.188C181.297 392.457 181.176 392.806 181.176 393.237V398H179.411V393.078C179.411 392.684 179.292 392.369 179.053 392.134C178.818 391.898 178.51 391.781 178.128 391.781C177.87 391.781 177.635 391.847 177.422 391.979C177.21 392.109 177.041 392.293 176.915 392.531C176.789 392.767 176.726 393.042 176.726 393.357V398H174.927ZM189.689 398.154C189.205 398.154 188.769 398.068 188.381 397.896C187.997 397.72 187.692 397.461 187.466 397.12C187.244 396.779 187.133 396.358 187.133 395.857C187.133 395.426 187.213 395.07 187.372 394.788C187.531 394.507 187.748 394.281 188.023 394.112C188.298 393.943 188.608 393.816 188.953 393.729C189.301 393.64 189.66 393.575 190.032 393.536C190.479 393.489 190.842 393.448 191.12 393.411C191.399 393.371 191.601 393.312 191.727 393.232C191.856 393.149 191.921 393.022 191.921 392.849V392.82C191.921 392.445 191.81 392.155 191.588 391.95C191.366 391.744 191.046 391.641 190.628 391.641C190.187 391.641 189.838 391.737 189.579 391.93C189.324 392.122 189.152 392.349 189.062 392.611L187.382 392.372C187.514 391.908 187.733 391.52 188.038 391.209C188.343 390.894 188.716 390.659 189.157 390.503C189.597 390.344 190.085 390.264 190.618 390.264C190.986 390.264 191.352 390.307 191.717 390.393C192.082 390.48 192.415 390.622 192.716 390.821C193.018 391.017 193.26 391.283 193.442 391.621C193.628 391.96 193.721 392.382 193.721 392.889V398H191.99V396.951H191.931C191.821 397.163 191.667 397.362 191.468 397.548C191.273 397.73 191.026 397.877 190.728 397.99C190.433 398.099 190.086 398.154 189.689 398.154ZM190.156 396.832C190.517 396.832 190.83 396.76 191.096 396.618C191.361 396.472 191.565 396.28 191.707 396.041C191.853 395.803 191.926 395.542 191.926 395.261V394.361C191.869 394.407 191.773 394.45 191.637 394.49C191.505 394.53 191.356 394.565 191.19 394.594C191.024 394.624 190.86 394.651 190.698 394.674C190.535 394.697 190.395 394.717 190.275 394.734C190.007 394.77 189.766 394.83 189.554 394.913C189.342 394.996 189.175 395.112 189.052 395.261C188.93 395.406 188.868 395.595 188.868 395.827C188.868 396.159 188.989 396.409 189.231 396.578C189.473 396.747 189.781 396.832 190.156 396.832ZM195.53 398V390.364H197.25V391.661H197.34C197.499 391.224 197.762 390.882 198.13 390.637C198.498 390.388 198.937 390.264 199.448 390.264C199.965 390.264 200.401 390.39 200.755 390.642C201.113 390.891 201.365 391.23 201.511 391.661H201.591C201.76 391.237 202.045 390.899 202.446 390.647C202.85 390.392 203.329 390.264 203.882 390.264C204.585 390.264 205.158 390.486 205.603 390.93C206.047 391.375 206.269 392.022 206.269 392.874V398H204.464V393.153C204.464 392.679 204.338 392.332 204.086 392.114C203.834 391.892 203.526 391.781 203.162 391.781C202.727 391.781 202.388 391.916 202.142 392.188C201.9 392.457 201.779 392.806 201.779 393.237V398H200.015V393.078C200.015 392.684 199.895 392.369 199.657 392.134C199.421 391.898 199.113 391.781 198.732 391.781C198.473 391.781 198.238 391.847 198.026 391.979C197.814 392.109 197.645 392.293 197.519 392.531C197.393 392.767 197.33 393.042 197.33 393.357V398H195.53ZM211.475 398.149C210.71 398.149 210.048 397.99 209.492 397.672C208.938 397.35 208.512 396.896 208.214 396.31C207.916 395.72 207.767 395.025 207.767 394.227C207.767 393.441 207.916 392.752 208.214 392.158C208.516 391.562 208.936 391.098 209.477 390.766C210.017 390.432 210.652 390.264 211.381 390.264C211.852 390.264 212.296 390.34 212.713 390.493C213.134 390.642 213.505 390.874 213.827 391.189C214.152 391.504 214.407 391.905 214.593 392.392C214.778 392.876 214.871 393.453 214.871 394.122V394.674H208.612V393.461H213.146C213.142 393.116 213.068 392.81 212.922 392.541C212.776 392.269 212.572 392.056 212.311 391.9C212.052 391.744 211.75 391.666 211.406 391.666C211.038 391.666 210.715 391.756 210.436 391.935C210.158 392.11 209.941 392.342 209.785 392.631C209.633 392.916 209.555 393.229 209.551 393.57V394.629C209.551 395.073 209.633 395.455 209.795 395.773C209.957 396.088 210.184 396.33 210.476 396.499C210.768 396.664 211.109 396.747 211.5 396.747C211.762 396.747 211.999 396.711 212.211 396.638C212.423 396.562 212.607 396.451 212.763 396.305C212.919 396.159 213.036 395.978 213.116 395.763L214.796 395.952C214.69 396.396 214.488 396.784 214.19 397.115C213.895 397.443 213.517 397.698 213.056 397.881C212.596 398.06 212.069 398.149 211.475 398.149ZM218.193 393.526V398H216.393V390.364H218.114V391.661H218.203C218.379 391.234 218.659 390.894 219.043 390.642C219.431 390.39 219.91 390.264 220.48 390.264C221.007 390.264 221.466 390.377 221.857 390.602C222.252 390.828 222.557 391.154 222.772 391.582C222.991 392.009 223.098 392.528 223.095 393.138V398H221.295V393.416C221.295 392.906 221.163 392.506 220.898 392.218C220.636 391.93 220.273 391.786 219.809 391.786C219.494 391.786 219.214 391.855 218.969 391.994C218.727 392.13 218.536 392.327 218.397 392.586C218.261 392.844 218.193 393.158 218.193 393.526ZM228.738 390.364V391.756H224.348V390.364H228.738ZM225.432 388.534H227.232V395.703C227.232 395.945 227.268 396.131 227.341 396.26C227.417 396.386 227.517 396.472 227.639 396.518C227.762 396.565 227.898 396.588 228.047 396.588C228.16 396.588 228.262 396.58 228.355 396.563C228.451 396.547 228.524 396.532 228.574 396.518L228.877 397.925C228.781 397.959 228.643 397.995 228.464 398.035C228.289 398.075 228.073 398.098 227.818 398.104C227.367 398.118 226.961 398.05 226.6 397.901C226.239 397.748 225.952 397.513 225.74 397.195C225.531 396.876 225.429 396.479 225.432 396.001V388.534ZM233.542 398.149C232.776 398.149 232.115 397.99 231.558 397.672C231.005 397.35 230.579 396.896 230.28 396.31C229.982 395.72 229.833 395.025 229.833 394.227C229.833 393.441 229.982 392.752 230.28 392.158C230.582 391.562 231.003 391.098 231.543 390.766C232.083 390.432 232.718 390.264 233.447 390.264C233.918 390.264 234.362 390.34 234.78 390.493C235.201 390.642 235.572 390.874 235.893 391.189C236.218 391.504 236.473 391.905 236.659 392.392C236.845 392.876 236.937 393.453 236.937 394.122V394.674H230.678V393.461H235.212C235.209 393.116 235.134 392.81 234.988 392.541C234.843 392.269 234.639 392.056 234.377 391.9C234.118 391.744 233.817 391.666 233.472 391.666C233.104 391.666 232.781 391.756 232.503 391.935C232.224 392.11 232.007 392.342 231.851 392.631C231.699 392.916 231.621 393.229 231.618 393.57V394.629C231.618 395.073 231.699 395.455 231.861 395.773C232.024 396.088 232.251 396.33 232.542 396.499C232.834 396.664 233.175 396.747 233.567 396.747C233.828 396.747 234.065 396.711 234.278 396.638C234.49 396.562 234.674 396.451 234.829 396.305C234.985 396.159 235.103 395.978 235.182 395.763L236.863 395.952C236.757 396.396 236.555 396.784 236.256 397.115C235.961 397.443 235.583 397.698 235.123 397.881C234.662 398.06 234.135 398.149 233.542 398.149Z" fill="white"/>
<g clip-path="url(#clip0_0_1)">
<path d="M201 166.5V196.5C201 198.489 201.79 200.397 203.197 201.803C204.603 203.21 206.511 204 208.5 204H238.5" stroke="#1473FB" stroke-width="10" stroke-linecap="round" stroke-linejoin="round"/>
<path d="M223.5 301.5H148.5C144.522 301.5 140.706 299.92 137.893 297.107C135.08 294.294 133.5 290.478 133.5 286.5V181.5C133.5 177.522 135.08 173.706 137.893 170.893C140.706 168.08 144.522 166.5 148.5 166.5H201L238.5 204V286.5C238.5 290.478 236.92 294.294 234.107 297.107C231.294 299.92 227.478 301.5 223.5 301.5Z" stroke="#1473FB" stroke-width="10" stroke-linecap="round" stroke-linejoin="round"/>
<path d="M163.5 211.5H171" stroke="#1473FB" stroke-width="10" stroke-linecap="round" stroke-linejoin="round"/>
<path d="M163.5 241.5H208.5" stroke="#1473FB" stroke-width="10" stroke-linecap="round" stroke-linejoin="round"/>
<path d="M163.5 271.5H208.5" stroke="#1473FB" stroke-width="10" stroke-linecap="round" stroke-linejoin="round"/>
</g>
<rect x="122.5" y="424.5" width="136" height="27" rx="13.5" fill="#EDF4FF" stroke="#1473FB"/>
<path d="M159.119 443V432.818H165.502V434.141H160.655V437.243H165.169V438.56H160.655V441.678H165.562V443H159.119ZM167.435 443V435.364H168.862V436.607H168.956C169.115 436.186 169.375 435.857 169.737 435.622C170.098 435.384 170.53 435.264 171.034 435.264C171.545 435.264 171.972 435.384 172.317 435.622C172.665 435.861 172.922 436.189 173.088 436.607H173.167C173.349 436.199 173.639 435.874 174.037 435.632C174.435 435.387 174.909 435.264 175.459 435.264C176.152 435.264 176.717 435.481 177.154 435.915C177.595 436.35 177.816 437.004 177.816 437.879V443H176.329V438.018C176.329 437.501 176.188 437.127 175.906 436.895C175.625 436.663 175.288 436.547 174.897 436.547C174.413 436.547 174.037 436.696 173.769 436.994C173.5 437.289 173.366 437.669 173.366 438.133V443H171.884V437.924C171.884 437.51 171.755 437.177 171.497 436.925C171.238 436.673 170.902 436.547 170.487 436.547C170.206 436.547 169.945 436.621 169.707 436.771C169.472 436.916 169.281 437.12 169.135 437.382C168.993 437.644 168.921 437.947 168.921 438.292V443H167.435ZM179.808 445.864V435.364H181.26V436.602H181.384C181.47 436.442 181.594 436.259 181.757 436.05C181.919 435.841 182.145 435.659 182.433 435.503C182.721 435.344 183.102 435.264 183.576 435.264C184.193 435.264 184.743 435.42 185.227 435.732C185.711 436.043 186.09 436.492 186.365 437.079C186.644 437.665 186.783 438.371 186.783 439.197C186.783 440.022 186.645 440.73 186.37 441.32C186.095 441.906 185.717 442.359 185.237 442.677C184.756 442.992 184.208 443.149 183.591 443.149C183.127 443.149 182.748 443.071 182.453 442.915C182.161 442.76 181.932 442.577 181.767 442.369C181.601 442.16 181.473 441.974 181.384 441.812H181.294V445.864H179.808ZM181.265 439.182C181.265 439.719 181.342 440.189 181.498 440.594C181.654 440.998 181.879 441.315 182.174 441.543C182.469 441.769 182.831 441.881 183.258 441.881C183.702 441.881 184.074 441.764 184.372 441.528C184.67 441.29 184.895 440.967 185.048 440.559C185.204 440.151 185.282 439.692 185.282 439.182C185.282 438.678 185.205 438.226 185.053 437.825C184.904 437.424 184.678 437.107 184.377 436.875C184.078 436.643 183.706 436.527 183.258 436.527C182.827 436.527 182.463 436.638 182.164 436.86C181.869 437.082 181.646 437.392 181.493 437.79C181.341 438.187 181.265 438.652 181.265 439.182ZM188.449 443V435.364H189.885V436.577H189.965C190.104 436.166 190.349 435.843 190.701 435.607C191.055 435.369 191.456 435.249 191.904 435.249C191.997 435.249 192.106 435.253 192.232 435.259C192.361 435.266 192.462 435.274 192.535 435.284V436.706C192.475 436.689 192.369 436.671 192.217 436.651C192.065 436.628 191.912 436.616 191.76 436.616C191.408 436.616 191.095 436.691 190.82 436.84C190.548 436.986 190.333 437.19 190.174 437.452C190.015 437.71 189.935 438.005 189.935 438.337V443H188.449ZM196.839 443.154C196.087 443.154 195.439 442.993 194.895 442.672C194.355 442.347 193.938 441.891 193.643 441.305C193.351 440.715 193.205 440.024 193.205 439.232C193.205 438.449 193.351 437.76 193.643 437.163C193.938 436.567 194.349 436.101 194.876 435.766C195.406 435.432 196.026 435.264 196.735 435.264C197.166 435.264 197.583 435.335 197.988 435.478C198.392 435.621 198.755 435.844 199.077 436.149C199.398 436.454 199.652 436.85 199.837 437.337C200.023 437.821 200.116 438.41 200.116 439.102V439.629H194.045V438.516H198.659C198.659 438.125 198.579 437.778 198.42 437.477C198.261 437.172 198.037 436.931 197.749 436.756C197.464 436.58 197.129 436.492 196.745 436.492C196.327 436.492 195.963 436.595 195.651 436.8C195.343 437.003 195.104 437.268 194.935 437.596C194.769 437.921 194.687 438.274 194.687 438.655V439.525C194.687 440.035 194.776 440.469 194.955 440.827C195.137 441.185 195.391 441.459 195.716 441.648C196.041 441.833 196.42 441.926 196.854 441.926C197.136 441.926 197.393 441.886 197.625 441.807C197.857 441.724 198.057 441.601 198.226 441.439C198.395 441.277 198.525 441.076 198.614 440.837L200.021 441.091C199.908 441.505 199.706 441.868 199.415 442.18C199.126 442.488 198.763 442.728 198.326 442.901C197.892 443.07 197.396 443.154 196.839 443.154ZM207.487 437.228L206.14 437.467C206.084 437.294 205.994 437.13 205.871 436.974C205.752 436.819 205.59 436.691 205.384 436.592C205.179 436.492 204.922 436.442 204.614 436.442C204.193 436.442 203.841 436.537 203.56 436.726C203.278 436.911 203.137 437.152 203.137 437.447C203.137 437.702 203.232 437.907 203.42 438.063C203.609 438.219 203.914 438.347 204.335 438.446L205.548 438.724C206.251 438.887 206.775 439.137 207.119 439.475C207.464 439.813 207.636 440.252 207.636 440.793C207.636 441.25 207.504 441.658 207.239 442.016C206.977 442.37 206.611 442.649 206.14 442.851C205.673 443.053 205.131 443.154 204.514 443.154C203.659 443.154 202.961 442.972 202.421 442.607C201.881 442.239 201.549 441.717 201.427 441.041L202.864 440.822C202.953 441.197 203.137 441.48 203.415 441.673C203.694 441.862 204.057 441.956 204.504 441.956C204.991 441.956 205.381 441.855 205.673 441.653C205.964 441.447 206.11 441.197 206.11 440.902C206.11 440.663 206.021 440.463 205.842 440.3C205.666 440.138 205.396 440.015 205.031 439.933L203.739 439.649C203.026 439.487 202.499 439.228 202.158 438.874C201.82 438.519 201.651 438.07 201.651 437.526C201.651 437.076 201.777 436.681 202.028 436.343C202.28 436.005 202.628 435.741 203.072 435.553C203.517 435.36 204.025 435.264 204.599 435.264C205.424 435.264 206.074 435.443 206.548 435.801C207.022 436.156 207.335 436.631 207.487 437.228ZM211.493 443.169C211.009 443.169 210.572 443.08 210.181 442.901C209.789 442.718 209.48 442.455 209.251 442.11C209.026 441.765 208.913 441.343 208.913 440.842C208.913 440.411 208.996 440.057 209.161 439.778C209.327 439.5 209.551 439.28 209.833 439.117C210.114 438.955 210.429 438.832 210.777 438.749C211.125 438.666 211.48 438.603 211.841 438.56C212.298 438.507 212.67 438.464 212.955 438.431C213.24 438.395 213.447 438.337 213.576 438.257C213.705 438.178 213.77 438.048 213.77 437.869V437.835C213.77 437.4 213.647 437.064 213.402 436.825C213.16 436.587 212.799 436.467 212.318 436.467C211.818 436.467 211.423 436.578 211.135 436.8C210.85 437.019 210.653 437.263 210.544 437.531L209.146 437.213C209.312 436.749 209.554 436.375 209.872 436.089C210.194 435.801 210.563 435.592 210.981 435.463C211.399 435.33 211.838 435.264 212.298 435.264C212.603 435.264 212.927 435.301 213.268 435.374C213.613 435.443 213.934 435.572 214.232 435.761C214.534 435.95 214.781 436.22 214.973 436.572C215.165 436.92 215.262 437.372 215.262 437.929V443H213.81V441.956H213.75C213.654 442.148 213.51 442.337 213.318 442.523C213.125 442.708 212.878 442.862 212.577 442.985C212.275 443.108 211.914 443.169 211.493 443.169ZM211.816 441.976C212.227 441.976 212.579 441.895 212.87 441.732C213.165 441.57 213.389 441.358 213.541 441.096C213.697 440.831 213.775 440.547 213.775 440.246V439.261C213.722 439.314 213.619 439.364 213.467 439.411C213.318 439.454 213.147 439.492 212.955 439.525C212.762 439.555 212.575 439.583 212.393 439.609C212.211 439.633 212.058 439.652 211.936 439.669C211.647 439.705 211.384 439.767 211.145 439.853C210.91 439.939 210.721 440.063 210.578 440.226C210.439 440.385 210.369 440.597 210.369 440.862C210.369 441.23 210.505 441.509 210.777 441.697C211.049 441.883 211.395 441.976 211.816 441.976ZM222.964 437.228L221.616 437.467C221.56 437.294 221.471 437.13 221.348 436.974C221.229 436.819 221.066 436.691 220.861 436.592C220.655 436.492 220.398 436.442 220.09 436.442C219.669 436.442 219.318 436.537 219.036 436.726C218.754 436.911 218.614 437.152 218.614 437.447C218.614 437.702 218.708 437.907 218.897 438.063C219.086 438.219 219.391 438.347 219.812 438.446L221.025 438.724C221.728 438.887 222.251 439.137 222.596 439.475C222.941 439.813 223.113 440.252 223.113 440.793C223.113 441.25 222.98 441.658 222.715 442.016C222.453 442.37 222.087 442.649 221.616 442.851C221.149 443.053 220.607 443.154 219.991 443.154C219.136 443.154 218.438 442.972 217.898 442.607C217.357 442.239 217.026 441.717 216.903 441.041L218.34 440.822C218.43 441.197 218.614 441.48 218.892 441.673C219.17 441.862 219.533 441.956 219.981 441.956C220.468 441.956 220.857 441.855 221.149 441.653C221.441 441.447 221.587 441.197 221.587 440.902C221.587 440.663 221.497 440.463 221.318 440.3C221.143 440.138 220.872 440.015 220.508 439.933L219.215 439.649C218.503 439.487 217.976 439.228 217.634 438.874C217.296 438.519 217.127 438.07 217.127 437.526C217.127 437.076 217.253 436.681 217.505 436.343C217.757 436.005 218.105 435.741 218.549 435.553C218.993 435.36 219.502 435.264 220.075 435.264C220.901 435.264 221.55 435.443 222.024 435.801C222.498 436.156 222.811 436.631 222.964 437.228Z" fill="#1473FB"/>
<defs>
<clipPath id="clip0_0_1">
<rect width="180" height="180" fill="white" transform="translate(96 144)"/>
</clipPath>
</defs>
</svg>
