<svg width="200" height="250" viewBox="0 0 371 468" fill="none" xmlns="http://www.w3.org/2000/svg">
<rect width="371" height="468" rx="25" fill="white"/>
<rect x="51" y="379" width="270.422" height="30.2231" rx="15" fill="#1473FB"/>
<path d="M140.004 398V387.818H143.822C144.605 387.818 145.261 387.964 145.791 388.256C146.325 388.547 146.728 388.948 146.999 389.459C147.274 389.966 147.412 390.543 147.412 391.189C147.412 391.842 147.274 392.422 146.999 392.929C146.724 393.436 146.318 393.835 145.781 394.127C145.244 394.415 144.583 394.56 143.798 394.56H141.267V393.043H143.549C144.006 393.043 144.381 392.964 144.673 392.805C144.964 392.646 145.18 392.427 145.319 392.148C145.461 391.87 145.533 391.55 145.533 391.189C145.533 390.828 145.461 390.509 145.319 390.234C145.18 389.959 144.963 389.746 144.668 389.593C144.376 389.437 144 389.359 143.539 389.359H141.849V398H140.004ZM148.934 398V390.364H150.68V391.636H150.759C150.898 391.196 151.137 390.856 151.475 390.617C151.816 390.375 152.206 390.254 152.643 390.254C152.743 390.254 152.854 390.259 152.976 390.269C153.102 390.276 153.207 390.287 153.29 390.304V391.96C153.213 391.933 153.092 391.91 152.927 391.89C152.764 391.867 152.607 391.855 152.454 391.855C152.126 391.855 151.831 391.926 151.569 392.069C151.311 392.208 151.107 392.402 150.958 392.651C150.809 392.899 150.734 393.186 150.734 393.511V398H148.934ZM157.502 398.149C156.756 398.149 156.11 397.985 155.563 397.657C155.016 397.329 154.592 396.87 154.29 396.28C153.992 395.69 153.843 395 153.843 394.212C153.843 393.423 153.992 392.732 154.29 392.138C154.592 391.545 155.016 391.085 155.563 390.756C156.11 390.428 156.756 390.264 157.502 390.264C158.248 390.264 158.894 390.428 159.441 390.756C159.988 391.085 160.41 391.545 160.708 392.138C161.01 392.732 161.161 393.423 161.161 394.212C161.161 395 161.01 395.69 160.708 396.28C160.41 396.87 159.988 397.329 159.441 397.657C158.894 397.985 158.248 398.149 157.502 398.149ZM157.512 396.707C157.916 396.707 158.254 396.596 158.526 396.374C158.798 396.149 159 395.847 159.132 395.469C159.268 395.092 159.336 394.671 159.336 394.207C159.336 393.739 159.268 393.317 159.132 392.939C159 392.558 158.798 392.254 158.526 392.029C158.254 391.804 157.916 391.691 157.512 391.691C157.097 391.691 156.753 391.804 156.478 392.029C156.206 392.254 156.002 392.558 155.866 392.939C155.734 393.317 155.667 393.739 155.667 394.207C155.667 394.671 155.734 395.092 155.866 395.469C156.002 395.847 156.206 396.149 156.478 396.374C156.753 396.596 157.097 396.707 157.512 396.707ZM163.873 390.364L165.414 393.183L166.98 390.364H168.884L166.582 394.182L168.924 398H167.03L165.414 395.251L163.813 398H161.904L164.231 394.182L161.964 390.364H163.873ZM170.276 398V390.364H172.076V398H170.276ZM171.181 389.28C170.896 389.28 170.651 389.185 170.445 388.996C170.24 388.804 170.137 388.574 170.137 388.305C170.137 388.034 170.24 387.803 170.445 387.614C170.651 387.422 170.896 387.326 171.181 387.326C171.469 387.326 171.715 387.422 171.917 387.614C172.122 387.803 172.225 388.034 172.225 388.305C172.225 388.574 172.122 388.804 171.917 388.996C171.715 389.185 171.469 389.28 171.181 389.28ZM173.927 398V390.364H175.647V391.661H175.736C175.895 391.224 176.159 390.882 176.527 390.637C176.895 390.388 177.334 390.264 177.844 390.264C178.361 390.264 178.797 390.39 179.152 390.642C179.51 390.891 179.762 391.23 179.907 391.661H179.987C180.156 391.237 180.441 390.899 180.842 390.647C181.247 390.392 181.725 390.264 182.279 390.264C182.982 390.264 183.555 390.486 183.999 390.93C184.443 391.375 184.665 392.022 184.665 392.874V398H182.861V393.153C182.861 392.679 182.735 392.332 182.483 392.114C182.231 391.892 181.923 391.781 181.558 391.781C181.124 391.781 180.784 391.916 180.539 392.188C180.297 392.457 180.176 392.806 180.176 393.237V398H178.411V393.078C178.411 392.684 178.292 392.369 178.053 392.134C177.818 391.898 177.51 391.781 177.128 391.781C176.87 391.781 176.635 391.847 176.422 391.979C176.21 392.109 176.041 392.293 175.915 392.531C175.789 392.767 175.726 393.042 175.726 393.357V398H173.927ZM188.689 398.154C188.205 398.154 187.769 398.068 187.381 397.896C186.997 397.72 186.692 397.461 186.466 397.12C186.244 396.779 186.133 396.358 186.133 395.857C186.133 395.426 186.213 395.07 186.372 394.788C186.531 394.507 186.748 394.281 187.023 394.112C187.298 393.943 187.608 393.816 187.953 393.729C188.301 393.64 188.66 393.575 189.032 393.536C189.479 393.489 189.842 393.448 190.12 393.411C190.399 393.371 190.601 393.312 190.727 393.232C190.856 393.149 190.921 393.022 190.921 392.849V392.82C190.921 392.445 190.81 392.155 190.588 391.95C190.366 391.744 190.046 391.641 189.628 391.641C189.187 391.641 188.838 391.737 188.579 391.93C188.324 392.122 188.152 392.349 188.062 392.611L186.382 392.372C186.514 391.908 186.733 391.52 187.038 391.209C187.343 390.894 187.716 390.659 188.157 390.503C188.597 390.344 189.085 390.264 189.618 390.264C189.986 390.264 190.352 390.307 190.717 390.393C191.082 390.48 191.415 390.622 191.716 390.821C192.018 391.017 192.26 391.283 192.442 391.621C192.628 391.96 192.721 392.382 192.721 392.889V398H190.99V396.951H190.931C190.821 397.163 190.667 397.362 190.468 397.548C190.273 397.73 190.026 397.877 189.728 397.99C189.433 398.099 189.086 398.154 188.689 398.154ZM189.156 396.832C189.517 396.832 189.83 396.76 190.096 396.618C190.361 396.472 190.565 396.28 190.707 396.041C190.853 395.803 190.926 395.542 190.926 395.261V394.361C190.869 394.407 190.773 394.45 190.637 394.49C190.505 394.53 190.356 394.565 190.19 394.594C190.024 394.624 189.86 394.651 189.698 394.674C189.535 394.697 189.395 394.717 189.275 394.734C189.007 394.77 188.766 394.83 188.554 394.913C188.342 394.996 188.175 395.112 188.052 395.261C187.93 395.406 187.868 395.595 187.868 395.827C187.868 396.159 187.989 396.409 188.231 396.578C188.473 396.747 188.781 396.832 189.156 396.832ZM194.53 398V390.364H196.25V391.661H196.34C196.499 391.224 196.762 390.882 197.13 390.637C197.498 390.388 197.937 390.264 198.448 390.264C198.965 390.264 199.401 390.39 199.755 390.642C200.113 390.891 200.365 391.23 200.511 391.661H200.591C200.76 391.237 201.045 390.899 201.446 390.647C201.85 390.392 202.329 390.264 202.882 390.264C203.585 390.264 204.158 390.486 204.603 390.93C205.047 391.375 205.269 392.022 205.269 392.874V398H203.464V393.153C203.464 392.679 203.338 392.332 203.086 392.114C202.834 391.892 202.526 391.781 202.162 391.781C201.727 391.781 201.388 391.916 201.142 392.188C200.9 392.457 200.779 392.806 200.779 393.237V398H199.015V393.078C199.015 392.684 198.895 392.369 198.657 392.134C198.421 391.898 198.113 391.781 197.732 391.781C197.473 391.781 197.238 391.847 197.026 391.979C196.814 392.109 196.645 392.293 196.519 392.531C196.393 392.767 196.33 393.042 196.33 393.357V398H194.53ZM210.475 398.149C209.71 398.149 209.048 397.99 208.492 397.672C207.938 397.35 207.512 396.896 207.214 396.31C206.916 395.72 206.767 395.025 206.767 394.227C206.767 393.441 206.916 392.752 207.214 392.158C207.516 391.562 207.936 391.098 208.477 390.766C209.017 390.432 209.652 390.264 210.381 390.264C210.852 390.264 211.296 390.34 211.713 390.493C212.134 390.642 212.505 390.874 212.827 391.189C213.152 391.504 213.407 391.905 213.593 392.392C213.778 392.876 213.871 393.453 213.871 394.122V394.674H207.612V393.461H212.146C212.142 393.116 212.068 392.81 211.922 392.541C211.776 392.269 211.572 392.056 211.311 391.9C211.052 391.744 210.75 391.666 210.406 391.666C210.038 391.666 209.715 391.756 209.436 391.935C209.158 392.11 208.941 392.342 208.785 392.631C208.633 392.916 208.555 393.229 208.551 393.57V394.629C208.551 395.073 208.633 395.455 208.795 395.773C208.957 396.088 209.184 396.33 209.476 396.499C209.768 396.664 210.109 396.747 210.5 396.747C210.762 396.747 210.999 396.711 211.211 396.638C211.423 396.562 211.607 396.451 211.763 396.305C211.919 396.159 212.036 395.978 212.116 395.763L213.796 395.952C213.69 396.396 213.488 396.784 213.19 397.115C212.895 397.443 212.517 397.698 212.056 397.881C211.596 398.06 211.069 398.149 210.475 398.149ZM217.193 393.526V398H215.393V390.364H217.114V391.661H217.203C217.379 391.234 217.659 390.894 218.043 390.642C218.431 390.39 218.91 390.264 219.48 390.264C220.007 390.264 220.466 390.377 220.857 390.602C221.252 390.828 221.557 391.154 221.772 391.582C221.991 392.009 222.098 392.528 222.095 393.138V398H220.295V393.416C220.295 392.906 220.163 392.506 219.898 392.218C219.636 391.93 219.273 391.786 218.809 391.786C218.494 391.786 218.214 391.855 217.969 391.994C217.727 392.13 217.536 392.327 217.397 392.586C217.261 392.844 217.193 393.158 217.193 393.526ZM227.738 390.364V391.756H223.348V390.364H227.738ZM224.432 388.534H226.232V395.703C226.232 395.945 226.268 396.131 226.341 396.26C226.417 396.386 226.517 396.472 226.639 396.518C226.762 396.565 226.898 396.588 227.047 396.588C227.16 396.588 227.262 396.58 227.355 396.563C227.451 396.547 227.524 396.532 227.574 396.518L227.877 397.925C227.781 397.959 227.643 397.995 227.464 398.035C227.289 398.075 227.073 398.098 226.818 398.104C226.367 398.118 225.961 398.05 225.6 397.901C225.239 397.748 224.952 397.513 224.74 397.195C224.531 396.876 224.429 396.479 224.432 396.001V388.534ZM232.542 398.149C231.776 398.149 231.115 397.99 230.558 397.672C230.005 397.35 229.579 396.896 229.28 396.31C228.982 395.72 228.833 395.025 228.833 394.227C228.833 393.441 228.982 392.752 229.28 392.158C229.582 391.562 230.003 391.098 230.543 390.766C231.083 390.432 231.718 390.264 232.447 390.264C232.918 390.264 233.362 390.34 233.78 390.493C234.201 390.642 234.572 390.874 234.893 391.189C235.218 391.504 235.473 391.905 235.659 392.392C235.845 392.876 235.937 393.453 235.937 394.122V394.674H229.678V393.461H234.212C234.209 393.116 234.134 392.81 233.988 392.541C233.843 392.269 233.639 392.056 233.377 391.9C233.118 391.744 232.817 391.666 232.472 391.666C232.104 391.666 231.781 391.756 231.503 391.935C231.224 392.11 231.007 392.342 230.851 392.631C230.699 392.916 230.621 393.229 230.618 393.57V394.629C230.618 395.073 230.699 395.455 230.861 395.773C231.024 396.088 231.251 396.33 231.542 396.499C231.834 396.664 232.175 396.747 232.567 396.747C232.828 396.747 233.065 396.711 233.278 396.638C233.49 396.562 233.674 396.451 233.829 396.305C233.985 396.159 234.103 395.978 234.182 395.763L235.863 395.952C235.757 396.396 235.555 396.784 235.256 397.115C234.961 397.443 234.583 397.698 234.123 397.881C233.662 398.06 233.135 398.149 232.542 398.149Z" fill="white"/>
<g clip-path="url(#clip0_0_1)">
<path d="M122.5 211.5L190 256.5L257.5 211.5L190 166.5L122.5 211.5Z" stroke="#1473FB" stroke-width="10" stroke-linecap="round" stroke-linejoin="round"/>
<path d="M257.5 211.5V286.5C257.5 290.478 255.92 294.294 253.107 297.107C250.294 299.92 246.478 301.5 242.5 301.5H137.5C133.522 301.5 129.706 299.92 126.893 297.107C124.08 294.294 122.5 290.478 122.5 286.5V211.5" stroke="#1473FB" stroke-width="10" stroke-linecap="round" stroke-linejoin="round"/>
<path d="M122.5 286.5L167.5 241.5" stroke="#1473FB" stroke-width="10" stroke-linecap="round" stroke-linejoin="round"/>
<path d="M212.5 241.5L257.5 286.5" stroke="#1473FB" stroke-width="10" stroke-linecap="round" stroke-linejoin="round"/>
</g>
<rect x="90.5" y="424.5" width="199" height="27" rx="13.5" fill="#EDF4FF" stroke="#1473FB"/>
<path d="M130.337 432.818V443H128.925L123.749 435.533H123.655V443H122.119V432.818H123.54L128.721 440.295H128.815V432.818H130.337ZM135.749 443.154C134.997 443.154 134.349 442.993 133.806 442.672C133.265 442.347 132.848 441.891 132.553 441.305C132.261 440.715 132.115 440.024 132.115 439.232C132.115 438.449 132.261 437.76 132.553 437.163C132.848 436.567 133.259 436.101 133.786 435.766C134.316 435.432 134.936 435.264 135.645 435.264C136.076 435.264 136.494 435.335 136.898 435.478C137.302 435.621 137.665 435.844 137.987 436.149C138.308 436.454 138.562 436.85 138.747 437.337C138.933 437.821 139.026 438.41 139.026 439.102V439.629H132.955V438.516H137.569C137.569 438.125 137.49 437.778 137.33 437.477C137.171 437.172 136.948 436.931 136.659 436.756C136.374 436.58 136.039 436.492 135.655 436.492C135.237 436.492 134.873 436.595 134.561 436.8C134.253 437.003 134.014 437.268 133.845 437.596C133.68 437.921 133.597 438.274 133.597 438.655V439.525C133.597 440.035 133.686 440.469 133.865 440.827C134.048 441.185 134.301 441.459 134.626 441.648C134.951 441.833 135.33 441.926 135.764 441.926C136.046 441.926 136.303 441.886 136.535 441.807C136.767 441.724 136.968 441.601 137.137 441.439C137.306 441.277 137.435 441.076 137.524 440.837L138.931 441.091C138.819 441.505 138.616 441.868 138.325 442.18C138.036 442.488 137.673 442.728 137.236 442.901C136.802 443.07 136.306 443.154 135.749 443.154ZM143.877 446.023C143.27 446.023 142.748 445.943 142.311 445.784C141.877 445.625 141.522 445.415 141.247 445.153C140.972 444.891 140.766 444.604 140.63 444.293L141.908 443.766C141.998 443.911 142.117 444.066 142.266 444.228C142.418 444.394 142.624 444.535 142.882 444.651C143.144 444.767 143.481 444.825 143.892 444.825C144.455 444.825 144.921 444.687 145.289 444.412C145.657 444.14 145.841 443.706 145.841 443.109V441.608H145.746C145.657 441.77 145.527 441.951 145.358 442.15C145.193 442.349 144.964 442.521 144.672 442.667C144.381 442.813 144.001 442.886 143.534 442.886C142.931 442.886 142.387 442.745 141.903 442.463C141.422 442.178 141.041 441.759 140.76 441.205C140.481 440.648 140.342 439.964 140.342 439.152C140.342 438.34 140.48 437.644 140.755 437.064C141.033 436.484 141.414 436.04 141.898 435.732C142.382 435.42 142.931 435.264 143.544 435.264C144.018 435.264 144.4 435.344 144.692 435.503C144.984 435.659 145.211 435.841 145.373 436.05C145.539 436.259 145.667 436.442 145.756 436.602H145.865V435.364H147.322V443.169C147.322 443.825 147.17 444.364 146.865 444.785C146.56 445.206 146.147 445.517 145.627 445.719C145.11 445.922 144.526 446.023 143.877 446.023ZM143.862 441.653C144.289 441.653 144.651 441.553 144.946 441.354C145.244 441.152 145.469 440.864 145.622 440.489C145.778 440.112 145.855 439.659 145.855 439.132C145.855 438.618 145.779 438.166 145.627 437.775C145.474 437.384 145.251 437.079 144.956 436.86C144.661 436.638 144.296 436.527 143.862 436.527C143.414 436.527 143.042 436.643 142.743 436.875C142.445 437.104 142.22 437.415 142.067 437.81C141.918 438.204 141.843 438.645 141.843 439.132C141.843 439.633 141.92 440.072 142.072 440.45C142.225 440.827 142.45 441.122 142.748 441.335C143.05 441.547 143.421 441.653 143.862 441.653ZM152.532 443.154C151.816 443.154 151.192 442.99 150.658 442.662C150.124 442.334 149.71 441.875 149.415 441.285C149.12 440.695 148.973 440.005 148.973 439.217C148.973 438.424 149.12 437.732 149.415 437.138C149.71 436.545 150.124 436.085 150.658 435.756C151.192 435.428 151.816 435.264 152.532 435.264C153.248 435.264 153.873 435.428 154.407 435.756C154.94 436.085 155.355 436.545 155.65 437.138C155.944 437.732 156.092 438.424 156.092 439.217C156.092 440.005 155.944 440.695 155.65 441.285C155.355 441.875 154.94 442.334 154.407 442.662C153.873 442.99 153.248 443.154 152.532 443.154ZM152.537 441.906C153.001 441.906 153.386 441.784 153.691 441.538C153.996 441.293 154.221 440.967 154.367 440.559C154.516 440.151 154.591 439.702 154.591 439.212C154.591 438.724 154.516 438.277 154.367 437.869C154.221 437.458 153.996 437.129 153.691 436.88C153.386 436.631 153.001 436.507 152.537 436.507C152.07 436.507 151.682 436.631 151.374 436.88C151.069 437.129 150.842 437.458 150.693 437.869C150.547 438.277 150.474 438.724 150.474 439.212C150.474 439.702 150.547 440.151 150.693 440.559C150.842 440.967 151.069 441.293 151.374 441.538C151.682 441.784 152.07 441.906 152.537 441.906ZM160.968 443.154C160.229 443.154 159.592 442.987 159.059 442.652C158.528 442.314 158.121 441.848 157.836 441.255C157.551 440.662 157.408 439.982 157.408 439.217C157.408 438.441 157.554 437.757 157.846 437.163C158.137 436.567 158.548 436.101 159.079 435.766C159.609 435.432 160.234 435.264 160.953 435.264C161.533 435.264 162.05 435.372 162.504 435.587C162.958 435.799 163.324 436.098 163.603 436.482C163.885 436.867 164.052 437.316 164.105 437.83H162.658C162.579 437.472 162.396 437.163 162.111 436.905C161.83 436.646 161.452 436.517 160.978 436.517C160.564 436.517 160.201 436.626 159.889 436.845C159.581 437.061 159.34 437.369 159.168 437.77C158.996 438.168 158.91 438.638 158.91 439.182C158.91 439.739 158.994 440.219 159.163 440.624C159.332 441.028 159.571 441.341 159.879 441.563C160.191 441.785 160.557 441.896 160.978 441.896C161.26 441.896 161.515 441.845 161.743 441.742C161.975 441.636 162.169 441.485 162.325 441.29C162.484 441.094 162.595 440.859 162.658 440.584H164.105C164.052 441.078 163.891 441.518 163.623 441.906C163.354 442.294 162.995 442.599 162.544 442.821C162.096 443.043 161.571 443.154 160.968 443.154ZM165.695 443V435.364H167.181V443H165.695ZM166.445 434.185C166.187 434.185 165.965 434.099 165.779 433.927C165.597 433.751 165.506 433.542 165.506 433.3C165.506 433.055 165.597 432.846 165.779 432.674C165.965 432.498 166.187 432.411 166.445 432.411C166.704 432.411 166.924 432.498 167.107 432.674C167.292 432.846 167.385 433.055 167.385 433.3C167.385 433.542 167.292 433.751 167.107 433.927C166.924 434.099 166.704 434.185 166.445 434.185ZM172.398 443.154C171.682 443.154 171.057 442.99 170.523 442.662C169.99 442.334 169.575 441.875 169.28 441.285C168.985 440.695 168.838 440.005 168.838 439.217C168.838 438.424 168.985 437.732 169.28 437.138C169.575 436.545 169.99 436.085 170.523 435.756C171.057 435.428 171.682 435.264 172.398 435.264C173.113 435.264 173.738 435.428 174.272 435.756C174.805 436.085 175.22 436.545 175.515 437.138C175.81 437.732 175.957 438.424 175.957 439.217C175.957 440.005 175.81 440.695 175.515 441.285C175.22 441.875 174.805 442.334 174.272 442.662C173.738 442.99 173.113 443.154 172.398 443.154ZM172.403 441.906C172.867 441.906 173.251 441.784 173.556 441.538C173.861 441.293 174.086 440.967 174.232 440.559C174.381 440.151 174.456 439.702 174.456 439.212C174.456 438.724 174.381 438.277 174.232 437.869C174.086 437.458 173.861 437.129 173.556 436.88C173.251 436.631 172.867 436.507 172.403 436.507C171.935 436.507 171.547 436.631 171.239 436.88C170.934 437.129 170.707 437.458 170.558 437.869C170.412 438.277 170.339 438.724 170.339 439.212C170.339 439.702 170.412 440.151 170.558 440.559C170.707 440.967 170.934 441.293 171.239 441.538C171.547 441.784 171.935 441.906 172.403 441.906ZM183.339 437.228L181.991 437.467C181.935 437.294 181.846 437.13 181.723 436.974C181.604 436.819 181.441 436.691 181.236 436.592C181.03 436.492 180.773 436.442 180.465 436.442C180.044 436.442 179.693 436.537 179.411 436.726C179.129 436.911 178.989 437.152 178.989 437.447C178.989 437.702 179.083 437.907 179.272 438.063C179.461 438.219 179.766 438.347 180.187 438.446L181.4 438.724C182.103 438.887 182.626 439.137 182.971 439.475C183.316 439.813 183.488 440.252 183.488 440.793C183.488 441.25 183.355 441.658 183.09 442.016C182.828 442.37 182.462 442.649 181.991 442.851C181.524 443.053 180.982 443.154 180.366 443.154C179.511 443.154 178.813 442.972 178.273 442.607C177.732 442.239 177.401 441.717 177.278 441.041L178.715 440.822C178.805 441.197 178.989 441.48 179.267 441.673C179.545 441.862 179.908 441.956 180.356 441.956C180.843 441.956 181.232 441.855 181.524 441.653C181.816 441.447 181.962 441.197 181.962 440.902C181.962 440.663 181.872 440.463 181.693 440.3C181.518 440.138 181.247 440.015 180.883 439.933L179.59 439.649C178.878 439.487 178.351 439.228 178.009 438.874C177.671 438.519 177.502 438.07 177.502 437.526C177.502 437.076 177.628 436.681 177.88 436.343C178.132 436.005 178.48 435.741 178.924 435.553C179.368 435.36 179.877 435.264 180.45 435.264C181.276 435.264 181.925 435.443 182.399 435.801C182.873 436.156 183.186 436.631 183.339 437.228ZM192.119 443.154C191.366 443.154 190.718 442.993 190.175 442.672C189.634 442.347 189.217 441.891 188.922 441.305C188.63 440.715 188.484 440.024 188.484 439.232C188.484 438.449 188.63 437.76 188.922 437.163C189.217 436.567 189.628 436.101 190.155 435.766C190.685 435.432 191.305 435.264 192.014 435.264C192.445 435.264 192.863 435.335 193.267 435.478C193.671 435.621 194.034 435.844 194.356 436.149C194.677 436.454 194.931 436.85 195.116 437.337C195.302 437.821 195.395 438.41 195.395 439.102V439.629H189.325V438.516H193.938C193.938 438.125 193.859 437.778 193.7 437.477C193.54 437.172 193.317 436.931 193.028 436.756C192.743 436.58 192.409 436.492 192.024 436.492C191.607 436.492 191.242 436.595 190.93 436.8C190.622 437.003 190.384 437.268 190.214 437.596C190.049 437.921 189.966 438.274 189.966 438.655V439.525C189.966 440.035 190.055 440.469 190.234 440.827C190.417 441.185 190.67 441.459 190.995 441.648C191.32 441.833 191.699 441.926 192.134 441.926C192.415 441.926 192.672 441.886 192.904 441.807C193.136 441.724 193.337 441.601 193.506 441.439C193.675 441.277 193.804 441.076 193.893 440.837L195.3 441.091C195.188 441.505 194.986 441.868 194.694 442.18C194.406 442.488 194.043 442.728 193.605 442.901C193.171 443.07 192.675 443.154 192.119 443.154ZM198.531 438.466V443H197.044V435.364H198.471V436.607H198.566C198.741 436.202 199.016 435.877 199.391 435.632C199.769 435.387 200.244 435.264 200.818 435.264C201.338 435.264 201.794 435.374 202.185 435.592C202.576 435.808 202.879 436.129 203.095 436.557C203.31 436.984 203.418 437.513 203.418 438.143V443H201.931V438.322C201.931 437.768 201.787 437.336 201.499 437.024C201.21 436.709 200.814 436.552 200.311 436.552C199.966 436.552 199.659 436.626 199.391 436.776C199.126 436.925 198.915 437.143 198.759 437.432C198.607 437.717 198.531 438.062 198.531 438.466ZM212.318 446.023C211.712 446.023 211.19 445.943 210.752 445.784C210.318 445.625 209.963 445.415 209.688 445.153C209.413 444.891 209.208 444.604 209.072 444.293L210.349 443.766C210.439 443.911 210.558 444.066 210.707 444.228C210.86 444.394 211.065 444.535 211.324 444.651C211.586 444.767 211.922 444.825 212.333 444.825C212.897 444.825 213.362 444.687 213.73 444.412C214.098 444.14 214.282 443.706 214.282 443.109V441.608H214.188C214.098 441.77 213.969 441.951 213.8 442.15C213.634 442.349 213.405 442.521 213.114 442.667C212.822 442.813 212.442 442.886 211.975 442.886C211.372 442.886 210.828 442.745 210.344 442.463C209.864 442.178 209.483 441.759 209.201 441.205C208.923 440.648 208.783 439.964 208.783 439.152C208.783 438.34 208.921 437.644 209.196 437.064C209.474 436.484 209.856 436.04 210.339 435.732C210.823 435.42 211.372 435.264 211.985 435.264C212.459 435.264 212.842 435.344 213.134 435.503C213.425 435.659 213.652 435.841 213.815 436.05C213.98 436.259 214.108 436.442 214.197 436.602H214.307V435.364H215.763V443.169C215.763 443.825 215.611 444.364 215.306 444.785C215.001 445.206 214.589 445.517 214.068 445.719C213.551 445.922 212.968 446.023 212.318 446.023ZM212.303 441.653C212.731 441.653 213.092 441.553 213.387 441.354C213.685 441.152 213.911 440.864 214.063 440.489C214.219 440.112 214.297 439.659 214.297 439.132C214.297 438.618 214.221 438.166 214.068 437.775C213.916 437.384 213.692 437.079 213.397 436.86C213.102 436.638 212.737 436.527 212.303 436.527C211.856 436.527 211.483 436.643 211.185 436.875C210.886 437.104 210.661 437.415 210.509 437.81C210.359 438.204 210.285 438.645 210.285 439.132C210.285 439.633 210.361 440.072 210.513 440.45C210.666 440.827 210.891 441.122 211.19 441.335C211.491 441.547 211.862 441.653 212.303 441.653ZM221.048 443.154C220.296 443.154 219.648 442.993 219.104 442.672C218.564 442.347 218.147 441.891 217.852 441.305C217.56 440.715 217.414 440.024 217.414 439.232C217.414 438.449 217.56 437.76 217.852 437.163C218.147 436.567 218.558 436.101 219.085 435.766C219.615 435.432 220.235 435.264 220.944 435.264C221.375 435.264 221.792 435.335 222.197 435.478C222.601 435.621 222.964 435.844 223.286 436.149C223.607 436.454 223.861 436.85 224.046 437.337C224.232 437.821 224.325 438.41 224.325 439.102V439.629H218.254V438.516H222.868C222.868 438.125 222.788 437.778 222.629 437.477C222.47 437.172 222.246 436.931 221.958 436.756C221.673 436.58 221.338 436.492 220.954 436.492C220.536 436.492 220.172 436.595 219.86 436.8C219.552 437.003 219.313 437.268 219.144 437.596C218.978 437.921 218.896 438.274 218.896 438.655V439.525C218.896 440.035 218.985 440.469 219.164 440.827C219.346 441.185 219.6 441.459 219.925 441.648C220.25 441.833 220.629 441.926 221.063 441.926C221.345 441.926 221.602 441.886 221.834 441.807C222.066 441.724 222.266 441.601 222.435 441.439C222.604 441.277 222.734 441.076 222.823 440.837L224.23 441.091C224.117 441.505 223.915 441.868 223.624 442.18C223.335 442.488 222.972 442.728 222.535 442.901C222.101 443.07 221.605 443.154 221.048 443.154ZM227.46 438.466V443H225.974V435.364H227.401V436.607H227.495C227.671 436.202 227.946 435.877 228.32 435.632C228.698 435.387 229.174 435.264 229.747 435.264C230.268 435.264 230.723 435.374 231.115 435.592C231.506 435.808 231.809 436.129 232.024 436.557C232.24 436.984 232.347 437.513 232.347 438.143V443H230.861V438.322C230.861 437.768 230.717 437.336 230.428 437.024C230.14 436.709 229.744 436.552 229.24 436.552C228.896 436.552 228.589 436.626 228.32 436.776C228.055 436.925 227.845 437.143 227.689 437.432C227.537 437.717 227.46 438.062 227.46 438.466ZM237.632 443.154C236.88 443.154 236.232 442.993 235.688 442.672C235.148 442.347 234.731 441.891 234.436 441.305C234.144 440.715 233.998 440.024 233.998 439.232C233.998 438.449 234.144 437.76 234.436 437.163C234.731 436.567 235.142 436.101 235.669 435.766C236.199 435.432 236.819 435.264 237.528 435.264C237.959 435.264 238.376 435.335 238.781 435.478C239.185 435.621 239.548 435.844 239.869 436.149C240.191 436.454 240.445 436.85 240.63 437.337C240.816 437.821 240.909 438.41 240.909 439.102V439.629H234.838V438.516H239.452C239.452 438.125 239.372 437.778 239.213 437.477C239.054 437.172 238.83 436.931 238.542 436.756C238.257 436.58 237.922 436.492 237.538 436.492C237.12 436.492 236.756 436.595 236.444 436.8C236.136 437.003 235.897 437.268 235.728 437.596C235.562 437.921 235.48 438.274 235.48 438.655V439.525C235.48 440.035 235.569 440.469 235.748 440.827C235.93 441.185 236.184 441.459 236.509 441.648C236.834 441.833 237.213 441.926 237.647 441.926C237.929 441.926 238.186 441.886 238.418 441.807C238.65 441.724 238.85 441.601 239.019 441.439C239.188 441.277 239.318 441.076 239.407 440.837L240.814 441.091C240.701 441.505 240.499 441.868 240.208 442.18C239.919 442.488 239.556 442.728 239.119 442.901C238.685 443.07 238.189 443.154 237.632 443.154ZM242.558 443V435.364H243.995V436.577H244.074C244.213 436.166 244.459 435.843 244.81 435.607C245.165 435.369 245.566 435.249 246.013 435.249C246.106 435.249 246.215 435.253 246.341 435.259C246.471 435.266 246.572 435.274 246.645 435.284V436.706C246.585 436.689 246.479 436.671 246.326 436.651C246.174 436.628 246.021 436.616 245.869 436.616C245.518 436.616 245.204 436.691 244.929 436.84C244.658 436.986 244.442 437.19 244.283 437.452C244.124 437.71 244.044 438.005 244.044 438.337V443H242.558ZM250.085 443.169C249.601 443.169 249.163 443.08 248.772 442.901C248.381 442.718 248.071 442.455 247.843 442.11C247.617 441.765 247.505 441.343 247.505 440.842C247.505 440.411 247.587 440.057 247.753 439.778C247.919 439.5 248.143 439.28 248.424 439.117C248.706 438.955 249.021 438.832 249.369 438.749C249.717 438.666 250.072 438.603 250.433 438.56C250.89 438.507 251.261 438.464 251.547 438.431C251.832 438.395 252.039 438.337 252.168 438.257C252.297 438.178 252.362 438.048 252.362 437.869V437.835C252.362 437.4 252.239 437.064 251.994 436.825C251.752 436.587 251.391 436.467 250.91 436.467C250.41 436.467 250.015 436.578 249.727 436.8C249.442 437.019 249.245 437.263 249.135 437.531L247.738 437.213C247.904 436.749 248.146 436.375 248.464 436.089C248.786 435.801 249.155 435.592 249.573 435.463C249.99 435.33 250.43 435.264 250.89 435.264C251.195 435.264 251.518 435.301 251.86 435.374C252.204 435.443 252.526 435.572 252.824 435.761C253.126 435.95 253.373 436.22 253.565 436.572C253.757 436.92 253.853 437.372 253.853 437.929V443H252.402V441.956H252.342C252.246 442.148 252.102 442.337 251.909 442.523C251.717 442.708 251.47 442.862 251.169 442.985C250.867 443.108 250.506 443.169 250.085 443.169ZM250.408 441.976C250.819 441.976 251.17 441.895 251.462 441.732C251.757 441.57 251.981 441.358 252.133 441.096C252.289 440.831 252.367 440.547 252.367 440.246V439.261C252.314 439.314 252.211 439.364 252.059 439.411C251.909 439.454 251.739 439.492 251.547 439.525C251.354 439.555 251.167 439.583 250.985 439.609C250.802 439.633 250.65 439.652 250.527 439.669C250.239 439.705 249.975 439.767 249.737 439.853C249.502 439.939 249.313 440.063 249.17 440.226C249.031 440.385 248.961 440.597 248.961 440.862C248.961 441.23 249.097 441.509 249.369 441.697C249.641 441.883 249.987 441.976 250.408 441.976ZM257.32 432.818V443H255.833V432.818H257.32Z" fill="#1473FB"/>
<defs>
<clipPath id="clip0_0_1">
<rect width="180" height="180" fill="white" transform="translate(100 144)"/>
</clipPath>
</defs>
</svg>
