<svg width="24" height="25" viewBox="0 0 24 25" fill="none" xmlns="http://www.w3.org/2000/svg">
<path d="M12.5321 18.3419C13.2888 18.2222 14.0131 17.9466 14.6639 17.5308C15.3146 17.1151 15.879 16.5673 16.3248 15.9189C16.7706 15.2704 17.089 14.5339 17.262 13.7515C17.435 12.969 17.4591 12.1559 17.3329 11.3586C17.2067 10.5613 16.9327 9.79536 16.5266 9.10456C16.1205 8.41376 15.5901 7.81161 14.9659 7.33249C14.3417 6.85337 13.6357 6.50667 12.8884 6.31217C12.1411 6.11768 11.367 6.07921 10.6104 6.19896C9.85375 6.3187 9.12938 6.59432 8.47864 7.01007C7.82789 7.42582 7.26352 7.97356 6.81773 8.62202C6.37193 9.27049 6.05346 10.007 5.88049 10.7894C5.70752 11.5719 5.68344 12.385 5.80963 13.1823C5.93581 13.9796 6.20979 14.7455 6.61592 15.4363C7.02205 16.1271 7.55237 16.7293 8.17661 17.2084C8.80086 17.6875 9.50679 18.0342 10.2541 18.2287C11.0014 18.4232 11.7755 18.4617 12.5321 18.3419Z" stroke="black" stroke-width="2.75" stroke-linecap="round" stroke-linejoin="round"/>
</svg>
