<svg width="150" height="192" viewBox="0 0 150 192" fill="none" xmlns="http://www.w3.org/2000/svg">
<rect y="42" width="150" height="150" rx="25" fill="#D4D5D5"/>
<g clip-path="url(#clip0_1506_402)">
<path d="M63.4997 79.5C64.4155 79.4999 65.3058 79.8016 66.033 80.3583L66.4497 80.7208L77.7247 92H105.166C108.355 91.9998 111.423 93.218 113.742 95.4053C116.062 97.5927 117.458 100.584 117.646 103.767L117.666 104.5V137.833C117.667 141.022 116.448 144.09 114.261 146.409C112.074 148.729 109.083 150.125 105.9 150.313L105.166 150.333H46.833C43.6446 150.334 40.5767 149.115 38.2569 146.928C35.9371 144.741 34.5409 141.75 34.3538 138.567L34.333 137.833V92C34.3328 88.8116 35.551 85.7437 37.7384 83.4239C39.9257 81.1041 42.9168 79.7079 46.0997 79.5208L46.833 79.5H63.4997Z" fill="#6C6C73"/>
</g>
<rect x="142" width="30" height="134" rx="15" transform="rotate(90 142 0)" fill="#F2F2F2"/>
<path d="M41.1186 20V9.81818H47.5021V11.1406H42.6548V14.2429H47.169V15.5604H42.6548V18.6776H47.5618V20H41.1186ZM50.9213 15.4659V20H49.4348V12.3636H50.8617V13.6065H50.9561C51.1318 13.2022 51.4069 12.8774 51.7814 12.6321C52.1593 12.3868 52.6349 12.2642 53.2083 12.2642C53.7286 12.2642 54.1844 12.3736 54.5755 12.5923C54.9666 12.8078 55.2698 13.1293 55.4853 13.5568C55.7007 13.9844 55.8084 14.513 55.8084 15.1428V20H54.3219V15.3217C54.3219 14.7682 54.1777 14.3357 53.8894 14.0241C53.601 13.7093 53.205 13.5518 52.7012 13.5518C52.3565 13.5518 52.0499 13.6264 51.7814 13.7756C51.5163 13.9247 51.3058 14.1435 51.15 14.4318C50.9976 14.7169 50.9213 15.0616 50.9213 15.4659ZM64.7237 20.1541C63.9846 20.1541 63.3482 19.9867 62.8146 19.652C62.2843 19.3139 61.8767 18.8482 61.5916 18.255C61.3066 17.6617 61.1641 16.9822 61.1641 16.2166C61.1641 15.4411 61.3099 14.7566 61.6016 14.1634C61.8932 13.5668 62.3042 13.1011 62.8345 12.7663C63.3648 12.4316 63.9896 12.2642 64.7088 12.2642C65.2888 12.2642 65.8059 12.3719 66.2599 12.5874C66.714 12.7995 67.0803 13.0978 67.3587 13.4822C67.6404 13.8667 67.8078 14.3158 67.8608 14.8295H66.4141C66.3345 14.4716 66.1522 14.1634 65.8672 13.9048C65.5855 13.6463 65.2076 13.517 64.7337 13.517C64.3194 13.517 63.9564 13.6264 63.6449 13.8452C63.3366 14.0606 63.0964 14.3688 62.924 14.7699C62.7517 15.1676 62.6655 15.6383 62.6655 16.1818C62.6655 16.7386 62.75 17.2192 62.919 17.6236C63.0881 18.0279 63.3267 18.3411 63.6349 18.5632C63.9465 18.7853 64.3127 18.8963 64.7337 18.8963C65.0154 18.8963 65.2706 18.8449 65.4993 18.7422C65.7313 18.6361 65.9252 18.4853 66.081 18.2898C66.2401 18.0942 66.3511 17.8589 66.4141 17.5838H67.8608C67.8078 18.0777 67.647 18.5185 67.3786 18.9062C67.1101 19.294 66.7505 19.599 66.2997 19.821C65.8523 20.0431 65.3269 20.1541 64.7237 20.1541ZM71.6728 20.169C71.1889 20.169 70.7514 20.0795 70.3603 19.9006C69.9692 19.7183 69.6593 19.4548 69.4306 19.1101C69.2052 18.7654 69.0925 18.3428 69.0925 17.8423C69.0925 17.4115 69.1754 17.0568 69.3411 16.7784C69.5068 16.5 69.7305 16.2796 70.0123 16.1172C70.294 15.9548 70.6088 15.8321 70.9569 15.7493C71.3049 15.6664 71.6595 15.6035 72.0208 15.5604C72.4782 15.5073 72.8494 15.4643 73.1344 15.4311C73.4194 15.3946 73.6266 15.3366 73.7559 15.2571C73.8851 15.1776 73.9498 15.0483 73.9498 14.8693V14.8345C73.9498 14.4003 73.8271 14.0639 73.5819 13.8253C73.3399 13.5866 72.9786 13.4673 72.498 13.4673C71.9976 13.4673 71.6032 13.5784 71.3148 13.8004C71.0298 14.0192 70.8326 14.2628 70.7232 14.5312L69.3262 14.2131C69.4919 13.7491 69.7338 13.3745 70.052 13.0895C70.3735 12.8011 70.7431 12.5923 71.1607 12.4631C71.5783 12.3305 72.0175 12.2642 72.4782 12.2642C72.7831 12.2642 73.1062 12.3007 73.4476 12.3736C73.7923 12.4432 74.1138 12.5724 74.4121 12.7614C74.7137 12.9503 74.9606 13.2204 75.1529 13.5717C75.3451 13.9197 75.4412 14.3722 75.4412 14.929V20H73.9895V18.956H73.9299C73.8337 19.1482 73.6896 19.3371 73.4973 19.5227C73.3051 19.7083 73.0582 19.8625 72.7566 19.9851C72.455 20.1077 72.0937 20.169 71.6728 20.169ZM71.9959 18.9759C72.4069 18.9759 72.7582 18.8946 73.0499 18.7322C73.3449 18.5698 73.5686 18.3577 73.7211 18.0959C73.8768 17.8307 73.9547 17.5473 73.9547 17.2457V16.2614C73.9017 16.3144 73.7989 16.3641 73.6465 16.4105C73.4973 16.4536 73.3266 16.4917 73.1344 16.5249C72.9422 16.5547 72.7549 16.5829 72.5726 16.6094C72.3903 16.6326 72.2379 16.6525 72.1152 16.669C71.8269 16.7055 71.5634 16.7668 71.3248 16.853C71.0894 16.9392 70.9005 17.0634 70.758 17.2259C70.6188 17.3849 70.5492 17.5971 70.5492 17.8622C70.5492 18.2301 70.6851 18.5085 70.9569 18.6974C71.2286 18.883 71.575 18.9759 71.9959 18.9759ZM77.4212 20V12.3636H78.848V13.6065H78.9425C79.1016 13.1856 79.3617 12.8575 79.723 12.6222C80.0843 12.3835 80.5168 12.2642 81.0206 12.2642C81.531 12.2642 81.9586 12.3835 82.3033 12.6222C82.6513 12.8608 82.9081 13.1889 83.0739 13.6065H83.1534C83.3357 13.1989 83.6257 12.8741 84.0234 12.6321C84.4212 12.3868 84.8951 12.2642 85.4453 12.2642C86.138 12.2642 86.7031 12.4813 87.1406 12.9155C87.5814 13.3497 87.8018 14.0043 87.8018 14.8793V20H86.3153V15.0185C86.3153 14.5014 86.1745 14.1269 85.8928 13.8949C85.611 13.6629 85.2746 13.5469 84.8835 13.5469C84.3996 13.5469 84.0234 13.696 83.755 13.9943C83.4865 14.2893 83.3523 14.6688 83.3523 15.1328V20H81.8707V14.924C81.8707 14.5097 81.7415 14.1766 81.483 13.9247C81.2244 13.6728 80.888 13.5469 80.4737 13.5469C80.192 13.5469 79.9318 13.6214 79.6932 13.7706C79.4579 13.9164 79.2673 14.1203 79.1214 14.3821C78.9789 14.6439 78.9077 14.9472 78.9077 15.2919V20H77.4212ZM89.7942 20V12.3636H91.2807V20H89.7942ZM90.5449 11.1854C90.2864 11.1854 90.0643 11.0992 89.8787 10.9268C89.6964 10.7512 89.6053 10.5424 89.6053 10.3004C89.6053 10.0552 89.6964 9.84635 89.8787 9.67401C90.0643 9.49834 90.2864 9.41051 90.5449 9.41051C90.8034 9.41051 91.0239 9.49834 91.2061 9.67401C91.3917 9.84635 91.4846 10.0552 91.4846 10.3004C91.4846 10.5424 91.3917 10.7512 91.2061 10.9268C91.0239 11.0992 90.8034 11.1854 90.5449 11.1854ZM94.767 15.4659V20H93.2805V12.3636H94.7074V13.6065H94.8018C94.9775 13.2022 95.2526 12.8774 95.6271 12.6321C96.005 12.3868 96.4806 12.2642 97.054 12.2642C97.5743 12.2642 98.0301 12.3736 98.4212 12.5923C98.8123 12.8078 99.1155 13.1293 99.331 13.5568C99.5464 13.9844 99.6541 14.513 99.6541 15.1428V20H98.1676V15.3217C98.1676 14.7682 98.0234 14.3357 97.7351 14.0241C97.4467 13.7093 97.0507 13.5518 96.5469 13.5518C96.2022 13.5518 95.8956 13.6264 95.6271 13.7756C95.362 13.9247 95.1515 14.1435 94.9957 14.4318C94.8433 14.7169 94.767 15.0616 94.767 15.4659ZM104.864 20.1541C104.148 20.1541 103.524 19.9901 102.99 19.6619C102.456 19.3338 102.042 18.8748 101.747 18.2848C101.452 17.6948 101.305 17.0054 101.305 16.2166C101.305 15.4245 101.452 14.7318 101.747 14.1385C102.042 13.5452 102.456 13.0845 102.99 12.7564C103.524 12.4283 104.148 12.2642 104.864 12.2642C105.58 12.2642 106.205 12.4283 106.739 12.7564C107.272 13.0845 107.687 13.5452 107.982 14.1385C108.277 14.7318 108.424 15.4245 108.424 16.2166C108.424 17.0054 108.277 17.6948 107.982 18.2848C107.687 18.8748 107.272 19.3338 106.739 19.6619C106.205 19.9901 105.58 20.1541 104.864 20.1541ZM104.869 18.9062C105.333 18.9062 105.718 18.7836 106.023 18.5384C106.328 18.2931 106.553 17.9666 106.699 17.5589C106.848 17.1513 106.923 16.7022 106.923 16.2116C106.923 15.7244 106.848 15.277 106.699 14.8693C106.553 14.4583 106.328 14.1286 106.023 13.88C105.718 13.6314 105.333 13.5071 104.869 13.5071C104.402 13.5071 104.014 13.6314 103.706 13.88C103.401 14.1286 103.174 14.4583 103.025 14.8693C102.879 15.277 102.806 15.7244 102.806 16.2116C102.806 16.7022 102.879 17.1513 103.025 17.5589C103.174 17.9666 103.401 18.2931 103.706 18.5384C104.014 18.7836 104.402 18.9062 104.869 18.9062Z" fill="#747373"/>
<defs>
<clipPath id="clip0_1506_402">
<rect width="100" height="100" fill="white" transform="translate(26 67)"/>
</clipPath>
</defs>
</svg>
