<svg width="406" height="113" viewBox="0 0 406 113" fill="none" xmlns="http://www.w3.org/2000/svg">
<g filter="url(#filter0_d_0_1)">
<rect x="4" width="100" height="100" rx="50" fill="#1473FB"/>
</g>
<circle cx="54.0003" cy="50" r="33.3333" fill="white"/>
<circle cx="53.9997" cy="50" r="16.6667" fill="#1473FB"/>
<line x1="54" y1="63" x2="54" y2="96.3333" stroke="#1473FB" stroke-width="10"/>
<g filter="url(#filter1_d_0_1)">
<path d="M151.131 32.0909V67H145.506L129.057 43.2216H128.767V67H122.443V32.0909H128.102L144.534 55.8864H144.841V32.0909H151.131ZM169.339 67.5114C166.714 67.5114 164.447 66.9659 162.538 65.875C160.641 64.7727 159.18 63.2159 158.158 61.2045C157.135 59.1818 156.624 56.8011 156.624 54.0625C156.624 51.3693 157.135 49.0057 158.158 46.9716C159.192 44.9261 160.635 43.3352 162.487 42.1989C164.339 41.0511 166.516 40.4773 169.016 40.4773C170.629 40.4773 172.152 40.7386 173.584 41.2614C175.027 41.7727 176.3 42.5682 177.402 43.6477C178.516 44.7273 179.391 46.1023 180.027 47.7727C180.663 49.4318 180.982 51.4091 180.982 53.7045V55.5966H159.521V51.4375H175.067C175.055 50.2557 174.8 49.2045 174.3 48.2841C173.8 47.3523 173.101 46.6193 172.203 46.0852C171.317 45.5511 170.283 45.2841 169.101 45.2841C167.839 45.2841 166.732 45.5909 165.777 46.2045C164.822 46.8068 164.078 47.6023 163.544 48.5909C163.021 49.5682 162.754 50.642 162.743 51.8125V55.4432C162.743 56.9659 163.021 58.2727 163.578 59.3636C164.135 60.4432 164.913 61.2727 165.913 61.8523C166.913 62.4205 168.084 62.7045 169.425 62.7045C170.322 62.7045 171.135 62.5795 171.862 62.3295C172.589 62.0682 173.22 61.6875 173.754 61.1875C174.288 60.6875 174.692 60.0682 174.964 59.3295L180.726 59.9773C180.362 61.5 179.669 62.8295 178.646 63.9659C177.635 65.0909 176.339 65.9659 174.76 66.5909C173.18 67.2045 171.374 67.5114 169.339 67.5114ZM190.685 40.8182L195.969 50.483L201.338 40.8182H207.866L199.974 53.9091L208.003 67H201.509L195.969 57.5739L190.48 67H183.935L191.912 53.9091L184.139 40.8182H190.685ZM217.685 40.8182L222.969 50.483L228.338 40.8182H234.866L226.974 53.9091L235.003 67H228.509L222.969 57.5739L217.48 67H210.935L218.912 53.9091L211.139 40.8182H217.685ZM256.327 55.9886V40.8182H262.497V67H256.514V62.3466H256.241C255.651 63.8125 254.679 65.0114 253.327 65.9432C251.986 66.875 250.332 67.3409 248.366 67.3409C246.651 67.3409 245.134 66.9602 243.815 66.1989C242.509 65.4261 241.486 64.3068 240.747 62.8409C240.009 61.3636 239.639 59.5795 239.639 57.4886V40.8182H245.81V56.5341C245.81 58.1932 246.264 59.5114 247.173 60.4886C248.082 61.4659 249.276 61.9545 250.753 61.9545C251.662 61.9545 252.543 61.733 253.395 61.2898C254.247 60.8466 254.946 60.1875 255.491 59.3125C256.048 58.4261 256.327 57.3182 256.327 55.9886ZM289.536 47.7386L283.911 48.3523C283.751 47.7841 283.473 47.25 283.075 46.75C282.689 46.25 282.166 45.8466 281.507 45.5398C280.848 45.233 280.041 45.0795 279.087 45.0795C277.803 45.0795 276.723 45.358 275.848 45.9148C274.984 46.4716 274.558 47.1932 274.57 48.0795C274.558 48.8409 274.837 49.4602 275.405 49.9375C275.984 50.4148 276.939 50.8068 278.268 51.1136L282.734 52.0682C285.212 52.6023 287.053 53.4489 288.257 54.608C289.473 55.767 290.087 57.2841 290.098 59.1591C290.087 60.8068 289.604 62.2614 288.649 63.5227C287.706 64.7727 286.393 65.75 284.712 66.4545C283.03 67.1591 281.098 67.5114 278.916 67.5114C275.712 67.5114 273.132 66.8409 271.178 65.5C269.223 64.1477 268.058 62.267 267.683 59.858L273.7 59.2784C273.973 60.4602 274.553 61.3523 275.439 61.9545C276.325 62.5568 277.479 62.858 278.899 62.858C280.365 62.858 281.541 62.5568 282.428 61.9545C283.325 61.3523 283.774 60.608 283.774 59.7216C283.774 58.9716 283.484 58.3523 282.905 57.8636C282.337 57.375 281.45 57 280.246 56.7386L275.78 55.8011C273.268 55.2784 271.411 54.3977 270.206 53.1591C269.001 51.9091 268.405 50.3295 268.416 48.4205C268.405 46.8068 268.842 45.4091 269.729 44.2273C270.626 43.0341 271.871 42.1136 273.462 41.4659C275.064 40.8068 276.911 40.4773 279.001 40.4773C282.07 40.4773 284.484 41.1307 286.246 42.4375C288.018 43.7443 289.115 45.5114 289.536 47.7386Z" fill="#33343A"/>
</g>
<rect x="311" y="40" width="95" height="30" rx="15" fill="#1473FB"/>
<path d="M333.233 60V49.8182H336.793C337.502 49.8182 338.087 49.9408 338.548 50.1861C339.008 50.428 339.351 50.7545 339.577 51.1655C339.802 51.5732 339.915 52.0256 339.915 52.5227C339.915 52.9602 339.837 53.3215 339.681 53.6065C339.529 53.8916 339.326 54.117 339.075 54.2827C338.826 54.4484 338.556 54.571 338.264 54.6506V54.75C338.576 54.7699 338.889 54.8793 339.204 55.0781C339.519 55.277 339.782 55.562 339.994 55.9332C340.206 56.3045 340.312 56.7585 340.312 57.2955C340.312 57.8059 340.196 58.2649 339.964 58.6726C339.732 59.0803 339.366 59.4034 338.866 59.642C338.365 59.8807 337.714 60 336.912 60H333.233ZM334.466 58.9062H336.912C337.717 58.9062 338.289 58.7505 338.627 58.4389C338.969 58.1241 339.139 57.7429 339.139 57.2955C339.139 56.9508 339.051 56.6326 338.876 56.3409C338.7 56.0459 338.45 55.8106 338.125 55.6349C337.8 55.456 337.416 55.3665 336.972 55.3665H334.466V58.9062ZM334.466 54.2926H336.753C337.124 54.2926 337.459 54.2197 337.757 54.0739C338.059 53.928 338.297 53.7225 338.473 53.4574C338.652 53.1922 338.741 52.8807 338.741 52.5227C338.741 52.0753 338.586 51.6958 338.274 51.3842C337.963 51.0694 337.469 50.9119 336.793 50.9119H334.466V54.2926ZM345.381 60.1591C344.645 60.1591 344.011 59.9967 343.477 59.6719C342.947 59.3438 342.537 58.8864 342.249 58.2997C341.964 57.7098 341.821 57.0237 341.821 56.2415C341.821 55.4593 341.964 54.7699 342.249 54.1733C342.537 53.5734 342.938 53.1061 343.452 52.7713C343.969 52.4332 344.572 52.2642 345.262 52.2642C345.659 52.2642 346.052 52.3305 346.44 52.4631C346.828 52.5956 347.181 52.8111 347.499 53.1094C347.817 53.4044 348.071 53.7955 348.26 54.2827C348.449 54.7699 348.543 55.3698 348.543 56.0824V56.5795H342.657V55.5653H347.35C347.35 55.1345 347.264 54.75 347.091 54.4119C346.922 54.0739 346.68 53.8071 346.365 53.6115C346.054 53.416 345.686 53.3182 345.262 53.3182C344.794 53.3182 344.39 53.4342 344.049 53.6662C343.711 53.8949 343.45 54.1932 343.268 54.5611C343.086 54.929 342.995 55.3234 342.995 55.7443V56.4205C342.995 56.9972 343.094 57.486 343.293 57.8871C343.495 58.2848 343.775 58.5881 344.133 58.7969C344.491 59.0024 344.907 59.1051 345.381 59.1051C345.689 59.1051 345.968 59.062 346.216 58.9759C346.468 58.8864 346.685 58.7538 346.868 58.5781C347.05 58.3991 347.191 58.1771 347.29 57.9119L348.424 58.2301C348.304 58.6146 348.104 58.9527 347.822 59.2443C347.54 59.5327 347.192 59.758 346.778 59.9205C346.364 60.0795 345.898 60.1591 345.381 60.1591ZM353.649 52.3636V53.358H349.691V52.3636H353.649ZM350.845 50.5341H352.018V57.8125C352.018 58.1439 352.066 58.3925 352.162 58.5582C352.262 58.7206 352.388 58.83 352.54 58.8864C352.696 58.9394 352.86 58.9659 353.032 58.9659C353.162 58.9659 353.268 58.9593 353.35 58.946C353.433 58.9295 353.5 58.9162 353.549 58.9062L353.788 59.9602C353.708 59.9901 353.597 60.0199 353.455 60.0497C353.312 60.0829 353.132 60.0994 352.913 60.0994C352.582 60.0994 352.257 60.0282 351.939 59.8857C351.624 59.7431 351.362 59.526 351.153 59.2344C350.948 58.9427 350.845 58.5748 350.845 58.1307V50.5341ZM357.661 60.179C357.177 60.179 356.738 60.0878 356.343 59.9055C355.949 59.7199 355.636 59.4531 355.404 59.1051C355.172 58.7538 355.056 58.3295 355.056 57.8324C355.056 57.3949 355.142 57.0402 355.314 56.7685C355.487 56.4934 355.717 56.2779 356.005 56.1222C356.294 55.9664 356.612 55.8504 356.96 55.7741C357.311 55.6946 357.664 55.6316 358.019 55.5852C358.483 55.5256 358.859 55.4808 359.147 55.451C359.439 55.4179 359.651 55.3632 359.784 55.2869C359.92 55.2107 359.988 55.0781 359.988 54.8892V54.8494C359.988 54.3589 359.853 53.9777 359.585 53.706C359.32 53.4342 358.917 53.2983 358.377 53.2983C357.817 53.2983 357.377 53.4209 357.059 53.6662C356.741 53.9115 356.517 54.1733 356.388 54.4517L355.275 54.054C355.473 53.59 355.739 53.2287 356.07 52.9702C356.405 52.7083 356.769 52.526 357.164 52.4233C357.561 52.3172 357.953 52.2642 358.337 52.2642C358.582 52.2642 358.864 52.294 359.182 52.3537C359.504 52.41 359.814 52.5277 360.112 52.7067C360.413 52.8857 360.664 53.1558 360.863 53.517C361.061 53.8783 361.161 54.3622 361.161 54.9688V60H359.988V58.9659H359.928C359.848 59.1316 359.716 59.3089 359.53 59.4979C359.345 59.6868 359.098 59.8475 358.789 59.9801C358.481 60.1127 358.105 60.179 357.661 60.179ZM357.84 59.125C358.304 59.125 358.695 59.0339 359.013 58.8516C359.335 58.6693 359.577 58.4339 359.739 58.1456C359.905 57.8572 359.988 57.554 359.988 57.2358V56.1619C359.938 56.2216 359.828 56.2763 359.659 56.326C359.494 56.3724 359.301 56.4138 359.083 56.4503C358.867 56.4834 358.657 56.5133 358.451 56.5398C358.249 56.563 358.085 56.5829 357.959 56.5994C357.654 56.6392 357.369 56.7038 357.104 56.7933C356.842 56.8795 356.63 57.0104 356.468 57.1861C356.309 57.3584 356.229 57.5937 356.229 57.892C356.229 58.2997 356.38 58.608 356.681 58.8168C356.986 59.0223 357.373 59.125 357.84 59.125ZM370.8 49.8182V60H369.567V51.1108H369.507L367.021 52.7614V51.5085L369.567 49.8182H370.8ZM374.001 60.0795C373.756 60.0795 373.546 59.9917 373.37 59.8161C373.194 59.6404 373.106 59.4299 373.106 59.1847C373.106 58.9394 373.194 58.7289 373.37 58.5533C373.546 58.3776 373.756 58.2898 374.001 58.2898C374.247 58.2898 374.457 58.3776 374.633 58.5533C374.808 58.7289 374.896 58.9394 374.896 59.1847C374.896 59.3471 374.855 59.4962 374.772 59.6321C374.692 59.768 374.585 59.8774 374.449 59.9602C374.316 60.0398 374.167 60.0795 374.001 60.0795ZM379.947 60.1392C379.198 60.1392 378.56 59.9354 378.033 59.5277C377.506 59.1167 377.104 58.5218 376.825 57.7429C376.547 56.9607 376.407 56.0161 376.407 54.9091C376.407 53.8087 376.547 52.8691 376.825 52.0902C377.107 51.308 377.511 50.7114 378.038 50.3004C378.568 49.8861 379.205 49.679 379.947 49.679C380.69 49.679 381.324 49.8861 381.851 50.3004C382.382 50.7114 382.786 51.308 383.064 52.0902C383.346 52.8691 383.487 53.8087 383.487 54.9091C383.487 56.0161 383.348 56.9607 383.069 57.7429C382.791 58.5218 382.388 59.1167 381.861 59.5277C381.334 59.9354 380.696 60.1392 379.947 60.1392ZM379.947 59.0455C380.69 59.0455 381.266 58.6875 381.677 57.9716C382.088 57.2557 382.294 56.2348 382.294 54.9091C382.294 54.0275 382.199 53.2768 382.01 52.657C381.825 52.0372 381.556 51.5649 381.205 51.2401C380.857 50.9152 380.438 50.7528 379.947 50.7528C379.211 50.7528 378.636 51.1158 378.222 51.8416C377.808 52.5642 377.601 53.5866 377.601 54.9091C377.601 55.7907 377.693 56.5398 377.879 57.1562C378.065 57.7727 378.331 58.2417 378.68 58.5632C379.031 58.8847 379.453 59.0455 379.947 59.0455Z" fill="white"/>
<rect x="406" y="83" width="30" height="287" rx="15" transform="rotate(90 406 83)" fill="#D9E9FF"/>
<path d="M146.963 97.9091C146.963 98.9962 146.764 99.9309 146.366 100.713C145.969 101.492 145.424 102.092 144.731 102.513C144.041 102.93 143.258 103.139 142.379 103.139C141.498 103.139 140.71 102.93 140.018 102.513C139.328 102.092 138.785 101.49 138.387 100.708C137.989 99.9259 137.79 98.9929 137.79 97.9091C137.79 96.822 137.989 95.889 138.387 95.1101C138.785 94.3279 139.328 93.728 140.018 93.3104C140.71 92.8894 141.498 92.679 142.379 92.679C143.258 92.679 144.041 92.8894 144.731 93.3104C145.424 93.728 145.969 94.3279 146.366 95.1101C146.764 95.889 146.963 96.822 146.963 97.9091ZM145.442 97.9091C145.442 97.0805 145.308 96.3828 145.039 95.8161C144.774 95.246 144.409 94.8151 143.945 94.5234C143.485 94.2285 142.963 94.081 142.379 94.081C141.793 94.081 141.269 94.2285 140.808 94.5234C140.348 94.8151 139.983 95.246 139.714 95.8161C139.449 96.3828 139.317 97.0805 139.317 97.9091C139.317 98.7377 139.449 99.437 139.714 100.007C139.983 100.574 140.348 101.005 140.808 101.3C141.269 101.591 141.793 101.737 142.379 101.737C142.963 101.737 143.485 101.591 143.945 101.3C144.409 101.005 144.774 100.574 145.039 100.007C145.308 99.437 145.442 98.7377 145.442 97.9091ZM148.878 103V92.8182H150.365V96.6016H150.454C150.541 96.4425 150.665 96.2585 150.827 96.0497C150.99 95.8409 151.215 95.6586 151.503 95.5028C151.792 95.3438 152.173 95.2642 152.647 95.2642C153.263 95.2642 153.814 95.42 154.297 95.7315C154.781 96.0431 155.161 96.4922 155.436 97.0788C155.714 97.6655 155.854 98.3714 155.854 99.1967C155.854 100.022 155.716 100.73 155.441 101.32C155.166 101.906 154.788 102.359 154.307 102.677C153.827 102.992 153.278 103.149 152.662 103.149C152.198 103.149 151.818 103.071 151.523 102.915C151.232 102.76 151.003 102.577 150.837 102.369C150.671 102.16 150.544 101.974 150.454 101.812H150.33V103H148.878ZM150.335 99.1818C150.335 99.7187 150.413 100.189 150.569 100.594C150.724 100.998 150.95 101.315 151.245 101.543C151.54 101.769 151.901 101.881 152.329 101.881C152.773 101.881 153.144 101.764 153.442 101.528C153.741 101.29 153.966 100.967 154.118 100.559C154.274 100.151 154.352 99.6922 154.352 99.1818C154.352 98.678 154.276 98.2256 154.123 97.8246C153.974 97.4235 153.749 97.107 153.447 96.875C153.149 96.643 152.776 96.527 152.329 96.527C151.898 96.527 151.533 96.638 151.235 96.8601C150.94 97.0821 150.716 97.392 150.564 97.7898C150.411 98.1875 150.335 98.6515 150.335 99.1818ZM161.087 95.3636V96.5568H156.916V95.3636H161.087ZM158.035 93.5341H159.521V100.758C159.521 101.046 159.564 101.263 159.651 101.409C159.737 101.552 159.848 101.649 159.984 101.702C160.123 101.752 160.274 101.777 160.436 101.777C160.555 101.777 160.66 101.769 160.749 101.752C160.839 101.736 160.908 101.722 160.958 101.712L161.227 102.94C161.14 102.973 161.018 103.007 160.859 103.04C160.7 103.076 160.501 103.096 160.262 103.099C159.871 103.106 159.506 103.036 159.168 102.891C158.83 102.745 158.557 102.519 158.348 102.214C158.139 101.91 158.035 101.527 158.035 101.066V93.5341ZM165.941 103.154C165.189 103.154 164.541 102.993 163.997 102.672C163.457 102.347 163.039 101.891 162.744 101.305C162.452 100.715 162.307 100.024 162.307 99.2315C162.307 98.4493 162.452 97.7599 162.744 97.1634C163.039 96.5668 163.45 96.1011 163.977 95.7663C164.507 95.4316 165.127 95.2642 165.836 95.2642C166.267 95.2642 166.685 95.3355 167.089 95.478C167.494 95.6205 167.857 95.8442 168.178 96.1491C168.5 96.4541 168.753 96.8501 168.939 97.3374C169.124 97.8213 169.217 98.4096 169.217 99.1023V99.6293H163.147V98.5156H167.76C167.76 98.1245 167.681 97.7782 167.522 97.4766C167.363 97.1716 167.139 96.9313 166.851 96.7557C166.566 96.58 166.231 96.4922 165.846 96.4922C165.429 96.4922 165.064 96.5949 164.753 96.8004C164.444 97.0026 164.206 97.2678 164.037 97.5959C163.871 97.9207 163.788 98.2737 163.788 98.6548V99.5249C163.788 100.035 163.878 100.469 164.057 100.827C164.239 101.185 164.492 101.459 164.817 101.648C165.142 101.833 165.522 101.926 165.956 101.926C166.238 101.926 166.494 101.886 166.726 101.807C166.958 101.724 167.159 101.601 167.328 101.439C167.497 101.277 167.626 101.076 167.716 100.837L169.123 101.091C169.01 101.505 168.808 101.868 168.516 102.18C168.228 102.488 167.865 102.728 167.427 102.901C166.993 103.07 166.498 103.154 165.941 103.154ZM172.353 98.4659V103H170.866V95.3636H172.293V96.6065H172.388C172.563 96.2022 172.839 95.8774 173.213 95.6321C173.591 95.3868 174.067 95.2642 174.64 95.2642C175.16 95.2642 175.616 95.3736 176.007 95.5923C176.398 95.8078 176.701 96.1293 176.917 96.5568C177.132 96.9844 177.24 97.513 177.24 98.1428V103H175.754V98.3217C175.754 97.7682 175.609 97.3357 175.321 97.0241C175.033 96.7093 174.637 96.5518 174.133 96.5518C173.788 96.5518 173.482 96.6264 173.213 96.7756C172.948 96.9247 172.737 97.1435 172.582 97.4318C172.429 97.7169 172.353 98.0616 172.353 98.4659ZM187.776 99.8331V95.3636H189.268V103H187.806V101.678H187.726C187.551 102.085 187.269 102.425 186.881 102.697C186.497 102.965 186.018 103.099 185.444 103.099C184.954 103.099 184.52 102.992 184.142 102.776C183.767 102.558 183.472 102.234 183.257 101.807C183.045 101.379 182.939 100.851 182.939 100.221V95.3636H184.425V100.042C184.425 100.562 184.569 100.977 184.858 101.285C185.146 101.593 185.521 101.747 185.981 101.747C186.26 101.747 186.537 101.678 186.812 101.538C187.09 101.399 187.32 101.189 187.503 100.907C187.688 100.625 187.779 100.267 187.776 99.8331ZM192.751 98.4659V103H191.265V95.3636H192.692V96.6065H192.786C192.962 96.2022 193.237 95.8774 193.612 95.6321C193.989 95.3868 194.465 95.2642 195.038 95.2642C195.559 95.2642 196.014 95.3736 196.406 95.5923C196.797 95.8078 197.1 96.1293 197.315 96.5568C197.531 96.9844 197.638 97.513 197.638 98.1428V103H196.152V98.3217C196.152 97.7682 196.008 97.3357 195.719 97.0241C195.431 96.7093 195.035 96.5518 194.531 96.5518C194.187 96.5518 193.88 96.6264 193.612 96.7756C193.346 96.9247 193.136 97.1435 192.98 97.4318C192.828 97.7169 192.751 98.0616 192.751 98.4659ZM203.337 103V95.3636H204.764V96.6065H204.858C205.018 96.1856 205.278 95.8575 205.639 95.6222C206 95.3835 206.433 95.2642 206.937 95.2642C207.447 95.2642 207.875 95.3835 208.219 95.6222C208.567 95.8608 208.824 96.1889 208.99 96.6065H209.069C209.252 96.1989 209.542 95.8741 209.939 95.6321C210.337 95.3868 210.811 95.2642 211.361 95.2642C212.054 95.2642 212.619 95.4813 213.057 95.9155C213.497 96.3497 213.718 97.0043 213.718 97.8793V103H212.231V98.0185C212.231 97.5014 212.09 97.1269 211.809 96.8949C211.527 96.6629 211.191 96.5469 210.8 96.5469C210.316 96.5469 209.939 96.696 209.671 96.9943C209.403 97.2893 209.268 97.6688 209.268 98.1328V103H207.787V97.924C207.787 97.5097 207.657 97.1766 207.399 96.9247C207.14 96.6728 206.804 96.5469 206.39 96.5469C206.108 96.5469 205.848 96.6214 205.609 96.7706C205.374 96.9164 205.183 97.1203 205.037 97.3821C204.895 97.6439 204.824 97.9472 204.824 98.2919V103H203.337ZM219.001 103.154C218.249 103.154 217.601 102.993 217.058 102.672C216.517 102.347 216.1 101.891 215.805 101.305C215.513 100.715 215.367 100.024 215.367 99.2315C215.367 98.4493 215.513 97.7599 215.805 97.1634C216.1 96.5668 216.511 96.1011 217.038 95.7663C217.568 95.4316 218.188 95.2642 218.897 95.2642C219.328 95.2642 219.746 95.3355 220.15 95.478C220.554 95.6205 220.917 95.8442 221.239 96.1491C221.56 96.4541 221.814 96.8501 221.999 97.3374C222.185 97.8213 222.278 98.4096 222.278 99.1023V99.6293H216.207V98.5156H220.821C220.821 98.1245 220.741 97.7782 220.582 97.4766C220.423 97.1716 220.2 96.9313 219.911 96.7557C219.626 96.58 219.291 96.4922 218.907 96.4922C218.489 96.4922 218.125 96.5949 217.813 96.8004C217.505 97.0026 217.266 97.2678 217.097 97.5959C216.932 97.9207 216.849 98.2737 216.849 98.6548V99.5249C216.849 100.035 216.938 100.469 217.117 100.827C217.299 101.185 217.553 101.459 217.878 101.648C218.203 101.833 218.582 101.926 219.016 101.926C219.298 101.926 219.555 101.886 219.787 101.807C220.019 101.724 220.219 101.601 220.388 101.439C220.558 101.277 220.687 101.076 220.776 100.837L222.183 101.091C222.071 101.505 221.868 101.868 221.577 102.18C221.288 102.488 220.925 102.728 220.488 102.901C220.054 103.07 219.558 103.154 219.001 103.154ZM229.649 97.228L228.302 97.4666C228.246 97.2943 228.156 97.1302 228.034 96.9744C227.914 96.8187 227.752 96.6911 227.546 96.5916C227.341 96.4922 227.084 96.4425 226.776 96.4425C226.355 96.4425 226.003 96.5369 225.722 96.7259C225.44 96.9115 225.299 97.1518 225.299 97.4467C225.299 97.7019 225.394 97.9074 225.583 98.0632C225.771 98.219 226.076 98.3466 226.497 98.446L227.71 98.7244C228.413 98.8868 228.937 99.1371 229.281 99.4751C229.626 99.8132 229.798 100.252 229.798 100.793C229.798 101.25 229.666 101.658 229.401 102.016C229.139 102.37 228.773 102.649 228.302 102.851C227.835 103.053 227.293 103.154 226.676 103.154C225.821 103.154 225.124 102.972 224.583 102.607C224.043 102.239 223.712 101.717 223.589 101.041L225.026 100.822C225.115 101.197 225.299 101.48 225.578 101.673C225.856 101.862 226.219 101.956 226.666 101.956C227.154 101.956 227.543 101.855 227.835 101.653C228.126 101.447 228.272 101.197 228.272 100.902C228.272 100.663 228.183 100.463 228.004 100.3C227.828 100.138 227.558 100.015 227.193 99.9325L225.901 99.6491C225.188 99.4867 224.661 99.2282 224.32 98.8736C223.982 98.5189 223.813 98.0698 223.813 97.5263C223.813 97.0755 223.939 96.6811 224.191 96.343C224.442 96.005 224.79 95.7415 225.235 95.5526C225.679 95.3603 226.187 95.2642 226.761 95.2642C227.586 95.2642 228.236 95.4432 228.71 95.8011C229.184 96.1558 229.497 96.6314 229.649 97.228ZM238.34 106.023C237.733 106.023 237.211 105.943 236.774 105.784C236.339 105.625 235.985 105.415 235.71 105.153C235.435 104.891 235.229 104.604 235.093 104.293L236.371 103.766C236.46 103.911 236.58 104.066 236.729 104.228C236.881 104.394 237.087 104.535 237.345 104.651C237.607 104.767 237.944 104.825 238.355 104.825C238.918 104.825 239.384 104.687 239.752 104.412C240.119 104.14 240.303 103.706 240.303 103.109V101.608H240.209C240.119 101.77 239.99 101.951 239.821 102.15C239.655 102.349 239.427 102.521 239.135 102.667C238.843 102.813 238.464 102.886 237.997 102.886C237.393 102.886 236.85 102.745 236.366 102.463C235.885 102.178 235.504 101.759 235.222 101.205C234.944 100.648 234.805 99.964 234.805 99.152C234.805 98.34 234.942 97.6439 235.218 97.0639C235.496 96.4839 235.877 96.0398 236.361 95.7315C236.845 95.42 237.393 95.2642 238.007 95.2642C238.481 95.2642 238.863 95.3438 239.155 95.5028C239.447 95.6586 239.674 95.8409 239.836 96.0497C240.002 96.2585 240.129 96.4425 240.219 96.6016H240.328V95.3636H241.785V103.169C241.785 103.825 241.633 104.364 241.328 104.785C241.023 105.206 240.61 105.517 240.09 105.719C239.573 105.922 238.989 106.023 238.34 106.023ZM238.325 101.653C238.752 101.653 239.114 101.553 239.409 101.354C239.707 101.152 239.932 100.864 240.085 100.489C240.24 100.112 240.318 99.6591 240.318 99.1321C240.318 98.6184 240.242 98.166 240.09 97.7749C239.937 97.3838 239.713 97.0788 239.419 96.8601C239.124 96.638 238.759 96.527 238.325 96.527C237.877 96.527 237.504 96.643 237.206 96.875C236.908 97.1037 236.682 97.4152 236.53 97.8097C236.381 98.2041 236.306 98.6449 236.306 99.1321C236.306 99.6326 236.383 100.072 236.535 100.45C236.687 100.827 236.913 101.122 237.211 101.335C237.513 101.547 237.884 101.653 238.325 101.653ZM243.779 103V95.3636H245.215V96.5767H245.295C245.434 96.1657 245.679 95.8426 246.031 95.6072C246.385 95.3686 246.786 95.2493 247.234 95.2493C247.327 95.2493 247.436 95.2526 247.562 95.2592C247.691 95.2659 247.792 95.2741 247.865 95.2841V96.706C247.806 96.6894 247.7 96.6712 247.547 96.6513C247.395 96.6281 247.242 96.6165 247.09 96.6165C246.738 96.6165 246.425 96.6911 246.15 96.8402C245.878 96.986 245.663 97.1899 245.504 97.4517C245.345 97.7102 245.265 98.0052 245.265 98.3366V103H243.779ZM251.306 103.169C250.822 103.169 250.384 103.08 249.993 102.901C249.602 102.718 249.292 102.455 249.063 102.11C248.838 101.765 248.725 101.343 248.725 100.842C248.725 100.411 248.808 100.057 248.974 99.7784C249.14 99.5 249.363 99.2796 249.645 99.1172C249.927 98.9548 250.242 98.8321 250.59 98.7493C250.938 98.6664 251.292 98.6035 251.654 98.5604C252.111 98.5073 252.482 98.4643 252.767 98.4311C253.052 98.3946 253.259 98.3366 253.389 98.2571C253.518 98.1776 253.583 98.0483 253.583 97.8693V97.8345C253.583 97.4003 253.46 97.0639 253.215 96.8253C252.973 96.5866 252.611 96.4673 252.131 96.4673C251.63 96.4673 251.236 96.5784 250.948 96.8004C250.663 97.0192 250.465 97.2628 250.356 97.5312L248.959 97.2131C249.125 96.7491 249.367 96.3745 249.685 96.0895C250.006 95.8011 250.376 95.5923 250.794 95.4631C251.211 95.3305 251.65 95.2642 252.111 95.2642C252.416 95.2642 252.739 95.3007 253.08 95.3736C253.425 95.4432 253.747 95.5724 254.045 95.7614C254.347 95.9503 254.593 96.2204 254.786 96.5717C254.978 96.9197 255.074 97.3722 255.074 97.929V103H253.622V101.956H253.563C253.467 102.148 253.322 102.337 253.13 102.523C252.938 102.708 252.691 102.862 252.389 102.985C252.088 103.108 251.727 103.169 251.306 103.169ZM251.629 101.976C252.04 101.976 252.391 101.895 252.683 101.732C252.978 101.57 253.201 101.358 253.354 101.096C253.51 100.831 253.588 100.547 253.588 100.246V99.2614C253.535 99.3144 253.432 99.3641 253.279 99.4105C253.13 99.4536 252.959 99.4917 252.767 99.5249C252.575 99.5547 252.388 99.5829 252.205 99.6094C252.023 99.6326 251.871 99.6525 251.748 99.669C251.46 99.7055 251.196 99.7668 250.958 99.853C250.722 99.9392 250.533 100.063 250.391 100.226C250.252 100.385 250.182 100.597 250.182 100.862C250.182 101.23 250.318 101.509 250.59 101.697C250.861 101.883 251.208 101.976 251.629 101.976ZM260.619 95.3636V96.5568H256.447V95.3636H260.619ZM257.566 93.5341H259.053V100.758C259.053 101.046 259.096 101.263 259.182 101.409C259.268 101.552 259.379 101.649 259.515 101.702C259.654 101.752 259.805 101.777 259.967 101.777C260.087 101.777 260.191 101.769 260.281 101.752C260.37 101.736 260.44 101.722 260.489 101.712L260.758 102.94C260.672 102.973 260.549 103.007 260.39 103.04C260.231 103.076 260.032 103.096 259.793 103.099C259.402 103.106 259.038 103.036 258.7 102.891C258.362 102.745 258.088 102.519 257.879 102.214C257.67 101.91 257.566 101.527 257.566 101.066V93.5341ZM262.263 103V95.3636H263.749V103H262.263ZM263.014 94.1854C262.755 94.1854 262.533 94.0992 262.347 93.9268C262.165 93.7512 262.074 93.5424 262.074 93.3004C262.074 93.0552 262.165 92.8464 262.347 92.674C262.533 92.4983 262.755 92.4105 263.014 92.4105C263.272 92.4105 263.493 92.4983 263.675 92.674C263.86 92.8464 263.953 93.0552 263.953 93.3004C263.953 93.5424 263.86 93.7512 263.675 93.9268C263.493 94.0992 263.272 94.1854 263.014 94.1854ZM271.472 97.228L270.124 97.4666C270.068 97.2943 269.978 97.1302 269.856 96.9744C269.737 96.8187 269.574 96.6911 269.369 96.5916C269.163 96.4922 268.906 96.4425 268.598 96.4425C268.177 96.4425 267.826 96.5369 267.544 96.7259C267.262 96.9115 267.121 97.1518 267.121 97.4467C267.121 97.7019 267.216 97.9074 267.405 98.0632C267.594 98.219 267.899 98.3466 268.32 98.446L269.533 98.7244C270.235 98.8868 270.759 99.1371 271.104 99.4751C271.448 99.8132 271.621 100.252 271.621 100.793C271.621 101.25 271.488 101.658 271.223 102.016C270.961 102.37 270.595 102.649 270.124 102.851C269.657 103.053 269.115 103.154 268.499 103.154C267.643 103.154 266.946 102.972 266.406 102.607C265.865 102.239 265.534 101.717 265.411 101.041L266.848 100.822C266.938 101.197 267.121 101.48 267.4 101.673C267.678 101.862 268.041 101.956 268.489 101.956C268.976 101.956 269.365 101.855 269.657 101.653C269.949 101.447 270.094 101.197 270.094 100.902C270.094 100.663 270.005 100.463 269.826 100.3C269.65 100.138 269.38 100.015 269.016 99.9325L267.723 99.6491C267.01 99.4867 266.483 99.2282 266.142 98.8736C265.804 98.5189 265.635 98.0698 265.635 97.5263C265.635 97.0755 265.761 96.6811 266.013 96.343C266.265 96.005 266.613 95.7415 267.057 95.5526C267.501 95.3603 268.01 95.2642 268.583 95.2642C269.408 95.2642 270.058 95.4432 270.532 95.8011C271.006 96.1558 271.319 96.6314 271.472 97.228ZM276.96 105.864V95.3636H278.412V96.6016H278.536C278.622 96.4425 278.747 96.2585 278.909 96.0497C279.071 95.8409 279.297 95.6586 279.585 95.5028C279.874 95.3438 280.255 95.2642 280.729 95.2642C281.345 95.2642 281.895 95.42 282.379 95.7315C282.863 96.0431 283.243 96.4922 283.518 97.0788C283.796 97.6655 283.935 98.3714 283.935 99.1967C283.935 100.022 283.798 100.73 283.523 101.32C283.248 101.906 282.87 102.359 282.389 102.677C281.909 102.992 281.36 103.149 280.744 103.149C280.28 103.149 279.9 103.071 279.605 102.915C279.313 102.76 279.085 102.577 278.919 102.369C278.753 102.16 278.626 101.974 278.536 101.812H278.447V105.864H276.96ZM278.417 99.1818C278.417 99.7187 278.495 100.189 278.651 100.594C278.806 100.998 279.032 101.315 279.327 101.543C279.622 101.769 279.983 101.881 280.411 101.881C280.855 101.881 281.226 101.764 281.524 101.528C281.822 101.29 282.048 100.967 282.2 100.559C282.356 100.151 282.434 99.6922 282.434 99.1818C282.434 98.678 282.358 98.2256 282.205 97.8246C282.056 97.4235 281.831 97.107 281.529 96.875C281.231 96.643 280.858 96.527 280.411 96.527C279.98 96.527 279.615 96.638 279.317 96.8601C279.022 97.0821 278.798 97.392 278.646 97.7898C278.493 98.1875 278.417 98.6515 278.417 99.1818ZM288.817 103.154C288.102 103.154 287.477 102.99 286.943 102.662C286.41 102.334 285.995 101.875 285.7 101.285C285.405 100.695 285.258 100.005 285.258 99.2166C285.258 98.4245 285.405 97.7318 285.7 97.1385C285.995 96.5452 286.41 96.0845 286.943 95.7564C287.477 95.4283 288.102 95.2642 288.817 95.2642C289.533 95.2642 290.158 95.4283 290.692 95.7564C291.225 96.0845 291.64 96.5452 291.935 97.1385C292.23 97.7318 292.377 98.4245 292.377 99.2166C292.377 100.005 292.23 100.695 291.935 101.285C291.64 101.875 291.225 102.334 290.692 102.662C290.158 102.99 289.533 103.154 288.817 103.154ZM288.822 101.906C289.286 101.906 289.671 101.784 289.976 101.538C290.281 101.293 290.506 100.967 290.652 100.559C290.801 100.151 290.876 99.7022 290.876 99.2116C290.876 98.7244 290.801 98.277 290.652 97.8693C290.506 97.4583 290.281 97.1286 289.976 96.88C289.671 96.6314 289.286 96.5071 288.822 96.5071C288.355 96.5071 287.967 96.6314 287.659 96.88C287.354 97.1286 287.127 97.4583 286.978 97.8693C286.832 98.277 286.759 98.7244 286.759 99.2116C286.759 99.7022 286.832 100.151 286.978 100.559C287.127 100.967 287.354 101.293 287.659 101.538C287.967 101.784 288.355 101.906 288.822 101.906ZM294.036 103V95.3636H295.473V96.5767H295.553C295.692 96.1657 295.937 95.8426 296.289 95.6072C296.643 95.3686 297.044 95.2493 297.492 95.2493C297.584 95.2493 297.694 95.2526 297.82 95.2592C297.949 95.2659 298.05 95.2741 298.123 95.2841V96.706C298.063 96.6894 297.957 96.6712 297.805 96.6513C297.652 96.6281 297.5 96.6165 297.347 96.6165C296.996 96.6165 296.683 96.6911 296.408 96.8402C296.136 96.986 295.921 97.1899 295.762 97.4517C295.602 97.7102 295.523 98.0052 295.523 98.3366V103H294.036ZM308.837 97.228L307.49 97.4666C307.433 97.2943 307.344 97.1302 307.221 96.9744C307.102 96.8187 306.939 96.6911 306.734 96.5916C306.528 96.4922 306.271 96.4425 305.963 96.4425C305.542 96.4425 305.191 96.5369 304.909 96.7259C304.628 96.9115 304.487 97.1518 304.487 97.4467C304.487 97.7019 304.581 97.9074 304.77 98.0632C304.959 98.219 305.264 98.3466 305.685 98.446L306.898 98.7244C307.601 98.8868 308.124 99.1371 308.469 99.4751C308.814 99.8132 308.986 100.252 308.986 100.793C308.986 101.25 308.853 101.658 308.588 102.016C308.326 102.37 307.96 102.649 307.49 102.851C307.022 103.053 306.48 103.154 305.864 103.154C305.009 103.154 304.311 102.972 303.771 102.607C303.231 102.239 302.899 101.717 302.776 101.041L304.213 100.822C304.303 101.197 304.487 101.48 304.765 101.673C305.044 101.862 305.406 101.956 305.854 101.956C306.341 101.956 306.731 101.855 307.022 101.653C307.314 101.447 307.46 101.197 307.46 100.902C307.46 100.663 307.37 100.463 307.191 100.3C307.016 100.138 306.745 100.015 306.381 99.9325L305.088 99.6491C304.376 99.4867 303.849 99.2282 303.507 98.8736C303.169 98.5189 303 98.0698 303 97.5263C303 97.0755 303.126 96.6811 303.378 96.343C303.63 96.005 303.978 95.7415 304.422 95.5526C304.866 95.3603 305.375 95.2642 305.948 95.2642C306.774 95.2642 307.423 95.4432 307.897 95.8011C308.371 96.1558 308.684 96.6314 308.837 97.228ZM315.458 99.8331V95.3636H316.949V103H315.488V101.678H315.408C315.232 102.085 314.951 102.425 314.563 102.697C314.178 102.965 313.699 103.099 313.126 103.099C312.636 103.099 312.201 102.992 311.824 102.776C311.449 102.558 311.154 102.234 310.939 101.807C310.726 101.379 310.62 100.851 310.62 100.221V95.3636H312.107V100.042C312.107 100.562 312.251 100.977 312.539 101.285C312.828 101.593 313.202 101.747 313.663 101.747C313.941 101.747 314.218 101.678 314.493 101.538C314.772 101.399 315.002 101.189 315.184 100.907C315.37 100.625 315.461 100.267 315.458 99.8331ZM319.066 103V92.8182H320.552V96.6016H320.642C320.728 96.4425 320.852 96.2585 321.015 96.0497C321.177 95.8409 321.403 95.6586 321.691 95.5028C321.979 95.3438 322.36 95.2642 322.834 95.2642C323.451 95.2642 324.001 95.42 324.485 95.7315C324.969 96.0431 325.348 96.4922 325.623 97.0788C325.902 97.6655 326.041 98.3714 326.041 99.1967C326.041 100.022 325.903 100.73 325.628 101.32C325.353 101.906 324.975 102.359 324.495 102.677C324.014 102.992 323.466 103.149 322.849 103.149C322.385 103.149 322.006 103.071 321.711 102.915C321.419 102.76 321.19 102.577 321.025 102.369C320.859 102.16 320.731 101.974 320.642 101.812H320.518V103H319.066ZM320.523 99.1818C320.523 99.7187 320.6 100.189 320.756 100.594C320.912 100.998 321.137 101.315 321.432 101.543C321.727 101.769 322.089 101.881 322.516 101.881C322.96 101.881 323.331 101.764 323.63 101.528C323.928 101.29 324.153 100.967 324.306 100.559C324.462 100.151 324.54 99.6922 324.54 99.1818C324.54 98.678 324.463 98.2256 324.311 97.8246C324.162 97.4235 323.936 97.107 323.635 96.875C323.336 96.643 322.964 96.527 322.516 96.527C322.085 96.527 321.721 96.638 321.422 96.8601C321.127 97.0821 320.904 97.392 320.751 97.7898C320.599 98.1875 320.523 98.6515 320.523 99.1818ZM333.433 97.228L332.085 97.4666C332.029 97.2943 331.939 97.1302 331.817 96.9744C331.697 96.8187 331.535 96.6911 331.33 96.5916C331.124 96.4922 330.867 96.4425 330.559 96.4425C330.138 96.4425 329.787 96.5369 329.505 96.7259C329.223 96.9115 329.082 97.1518 329.082 97.4467C329.082 97.7019 329.177 97.9074 329.366 98.0632C329.555 98.219 329.86 98.3466 330.281 98.446L331.494 98.7244C332.196 98.8868 332.72 99.1371 333.065 99.4751C333.409 99.8132 333.582 100.252 333.582 100.793C333.582 101.25 333.449 101.658 333.184 102.016C332.922 102.37 332.556 102.649 332.085 102.851C331.618 103.053 331.076 103.154 330.46 103.154C329.604 103.154 328.907 102.972 328.366 102.607C327.826 102.239 327.495 101.717 327.372 101.041L328.809 100.822C328.898 101.197 329.082 101.48 329.361 101.673C329.639 101.862 330.002 101.956 330.45 101.956C330.937 101.956 331.326 101.855 331.618 101.653C331.91 101.447 332.055 101.197 332.055 100.902C332.055 100.663 331.966 100.463 331.787 100.3C331.611 100.138 331.341 100.015 330.977 99.9325L329.684 99.6491C328.971 99.4867 328.444 99.2282 328.103 98.8736C327.765 98.5189 327.596 98.0698 327.596 97.5263C327.596 97.0755 327.722 96.6811 327.974 96.343C328.226 96.005 328.574 95.7415 329.018 95.5526C329.462 95.3603 329.971 95.2642 330.544 95.2642C331.369 95.2642 332.019 95.4432 332.493 95.8011C332.967 96.1558 333.28 96.6314 333.433 97.228ZM338.433 103.154C337.694 103.154 337.057 102.987 336.524 102.652C335.993 102.314 335.586 101.848 335.301 101.255C335.016 100.662 334.873 99.9822 334.873 99.2166C334.873 98.4411 335.019 97.7566 335.311 97.1634C335.602 96.5668 336.013 96.1011 336.544 95.7663C337.074 95.4316 337.699 95.2642 338.418 95.2642C338.998 95.2642 339.515 95.3719 339.969 95.5874C340.423 95.7995 340.789 96.0978 341.068 96.4822C341.349 96.8667 341.517 97.3158 341.57 97.8295H340.123C340.044 97.4716 339.861 97.1634 339.576 96.9048C339.294 96.6463 338.917 96.517 338.443 96.517C338.028 96.517 337.665 96.6264 337.354 96.8452C337.046 97.0606 336.805 97.3688 336.633 97.7699C336.461 98.1676 336.374 98.6383 336.374 99.1818C336.374 99.7386 336.459 100.219 336.628 100.624C336.797 101.028 337.036 101.341 337.344 101.563C337.655 101.785 338.022 101.896 338.443 101.896C338.724 101.896 338.98 101.845 339.208 101.742C339.44 101.636 339.634 101.485 339.79 101.29C339.949 101.094 340.06 100.859 340.123 100.584H341.57C341.517 101.078 341.356 101.518 341.088 101.906C340.819 102.294 340.459 102.599 340.009 102.821C339.561 103.043 339.036 103.154 338.433 103.154ZM343.159 103V95.3636H344.596V96.5767H344.676C344.815 96.1657 345.06 95.8426 345.412 95.6072C345.766 95.3686 346.167 95.2493 346.615 95.2493C346.708 95.2493 346.817 95.2526 346.943 95.2592C347.072 95.2659 347.173 95.2741 347.246 95.2841V96.706C347.186 96.6894 347.08 96.6712 346.928 96.6513C346.775 96.6281 346.623 96.6165 346.471 96.6165C346.119 96.6165 345.806 96.6911 345.531 96.8402C345.259 96.986 345.044 97.1899 344.885 97.4517C344.725 97.7102 344.646 98.0052 344.646 98.3366V103H343.159ZM348.532 103V95.3636H350.019V103H348.532ZM349.283 94.1854C349.025 94.1854 348.803 94.0992 348.617 93.9268C348.435 93.7512 348.344 93.5424 348.344 93.3004C348.344 93.0552 348.435 92.8464 348.617 92.674C348.803 92.4983 349.025 92.4105 349.283 92.4105C349.542 92.4105 349.762 92.4983 349.944 92.674C350.13 92.8464 350.223 93.0552 350.223 93.3004C350.223 93.5424 350.13 93.7512 349.944 93.9268C349.762 94.0992 349.542 94.1854 349.283 94.1854ZM352.019 105.864V95.3636H353.471V96.6016H353.595C353.681 96.4425 353.805 96.2585 353.968 96.0497C354.13 95.8409 354.355 95.6586 354.644 95.5028C354.932 95.3438 355.313 95.2642 355.787 95.2642C356.404 95.2642 356.954 95.42 357.438 95.7315C357.922 96.0431 358.301 96.4922 358.576 97.0788C358.855 97.6655 358.994 98.3714 358.994 99.1967C358.994 100.022 358.856 100.73 358.581 101.32C358.306 101.906 357.928 102.359 357.448 102.677C356.967 102.992 356.419 103.149 355.802 103.149C355.338 103.149 354.959 103.071 354.664 102.915C354.372 102.76 354.143 102.577 353.978 102.369C353.812 102.16 353.684 101.974 353.595 101.812H353.505V105.864H352.019ZM353.475 99.1818C353.475 99.7187 353.553 100.189 353.709 100.594C353.865 100.998 354.09 101.315 354.385 101.543C354.68 101.769 355.042 101.881 355.469 101.881C355.913 101.881 356.284 101.764 356.583 101.528C356.881 101.29 357.106 100.967 357.259 100.559C357.415 100.151 357.493 99.6922 357.493 99.1818C357.493 98.678 357.416 98.2256 357.264 97.8246C357.115 97.4235 356.889 97.107 356.588 96.875C356.289 96.643 355.917 96.527 355.469 96.527C355.038 96.527 354.674 96.638 354.375 96.8601C354.08 97.0821 353.857 97.392 353.704 97.7898C353.552 98.1875 353.475 98.6515 353.475 99.1818ZM363.876 103.154C363.137 103.154 362.501 102.987 361.967 102.652C361.437 102.314 361.029 101.848 360.744 101.255C360.459 100.662 360.316 99.9822 360.316 99.2166C360.316 98.4411 360.462 97.7566 360.754 97.1634C361.046 96.5668 361.457 96.1011 361.987 95.7663C362.517 95.4316 363.142 95.2642 363.861 95.2642C364.441 95.2642 364.958 95.3719 365.412 95.5874C365.866 95.7995 366.233 96.0978 366.511 96.4822C366.793 96.8667 366.96 97.3158 367.013 97.8295H365.566C365.487 97.4716 365.305 97.1634 365.02 96.9048C364.738 96.6463 364.36 96.517 363.886 96.517C363.472 96.517 363.109 96.6264 362.797 96.8452C362.489 97.0606 362.249 97.3688 362.076 97.7699C361.904 98.1676 361.818 98.6383 361.818 99.1818C361.818 99.7386 361.902 100.219 362.071 100.624C362.24 101.028 362.479 101.341 362.787 101.563C363.099 101.785 363.465 101.896 363.886 101.896C364.168 101.896 364.423 101.845 364.652 101.742C364.884 101.636 365.078 101.485 365.233 101.29C365.392 101.094 365.503 100.859 365.566 100.584H367.013C366.96 101.078 366.799 101.518 366.531 101.906C366.262 102.294 365.903 102.599 365.452 102.821C365.005 103.043 364.479 103.154 363.876 103.154ZM368.603 103V95.3636H370.089V103H368.603ZM369.354 94.1854C369.095 94.1854 368.873 94.0992 368.687 93.9268C368.505 93.7512 368.414 93.5424 368.414 93.3004C368.414 93.0552 368.505 92.8464 368.687 92.674C368.873 92.4983 369.095 92.4105 369.354 92.4105C369.612 92.4105 369.832 92.4983 370.015 92.674C370.2 92.8464 370.293 93.0552 370.293 93.3004C370.293 93.5424 370.2 93.7512 370.015 93.9268C369.832 94.0992 369.612 94.1854 369.354 94.1854ZM375.306 103.154C374.59 103.154 373.965 102.99 373.431 102.662C372.898 102.334 372.484 101.875 372.189 101.285C371.894 100.695 371.746 100.005 371.746 99.2166C371.746 98.4245 371.894 97.7318 372.189 97.1385C372.484 96.5452 372.898 96.0845 373.431 95.7564C373.965 95.4283 374.59 95.2642 375.306 95.2642C376.022 95.2642 376.646 95.4283 377.18 95.7564C377.714 96.0845 378.128 96.5452 378.423 97.1385C378.718 97.7318 378.865 98.4245 378.865 99.2166C378.865 100.005 378.718 100.695 378.423 101.285C378.128 101.875 377.714 102.334 377.18 102.662C376.646 102.99 376.022 103.154 375.306 103.154ZM375.311 101.906C375.775 101.906 376.159 101.784 376.464 101.538C376.769 101.293 376.994 100.967 377.14 100.559C377.289 100.151 377.364 99.7022 377.364 99.2116C377.364 98.7244 377.289 98.277 377.14 97.8693C376.994 97.4583 376.769 97.1286 376.464 96.88C376.159 96.6314 375.775 96.5071 375.311 96.5071C374.843 96.5071 374.456 96.6314 374.147 96.88C373.842 97.1286 373.615 97.4583 373.466 97.8693C373.32 98.277 373.248 98.7244 373.248 99.2116C373.248 99.7022 373.32 100.151 373.466 100.559C373.615 100.967 373.842 101.293 374.147 101.538C374.456 101.784 374.843 101.906 375.311 101.906ZM374.694 94.3445L375.858 92.0526H377.424L375.882 94.3445H374.694ZM382.011 98.4659V103H380.525V95.3636H381.952V96.6065H382.046C382.222 96.2022 382.497 95.8774 382.871 95.6321C383.249 95.3868 383.725 95.2642 384.298 95.2642C384.818 95.2642 385.274 95.3736 385.665 95.5923C386.056 95.8078 386.36 96.1293 386.575 96.5568C386.791 96.9844 386.898 97.513 386.898 98.1428V103H385.412V98.3217C385.412 97.7682 385.268 97.3357 384.979 97.0241C384.691 96.7093 384.295 96.5518 383.791 96.5518C383.446 96.5518 383.14 96.6264 382.871 96.7756C382.606 96.9247 382.396 97.1435 382.24 97.4318C382.087 97.7169 382.011 98.0616 382.011 98.4659Z" fill="#0045A7"/>
<defs>
<filter id="filter0_d_0_1" x="0" y="0" width="108" height="108" filterUnits="userSpaceOnUse" color-interpolation-filters="sRGB">
<feFlood flood-opacity="0" result="BackgroundImageFix"/>
<feColorMatrix in="SourceAlpha" type="matrix" values="0 0 0 0 0 0 0 0 0 0 0 0 0 0 0 0 0 0 127 0" result="hardAlpha"/>
<feOffset dy="4"/>
<feGaussianBlur stdDeviation="2"/>
<feComposite in2="hardAlpha" operator="out"/>
<feColorMatrix type="matrix" values="0 0 0 0 0 0 0 0 0 0 0 0 0 0 0 0 0 0 0.25 0"/>
<feBlend mode="normal" in2="BackgroundImageFix" result="effect1_dropShadow_0_1"/>
<feBlend mode="normal" in="SourceGraphic" in2="effect1_dropShadow_0_1" result="shape"/>
</filter>
<filter id="filter1_d_0_1" x="118.443" y="32.0909" width="175.654" height="43.4204" filterUnits="userSpaceOnUse" color-interpolation-filters="sRGB">
<feFlood flood-opacity="0" result="BackgroundImageFix"/>
<feColorMatrix in="SourceAlpha" type="matrix" values="0 0 0 0 0 0 0 0 0 0 0 0 0 0 0 0 0 0 127 0" result="hardAlpha"/>
<feOffset dy="4"/>
<feGaussianBlur stdDeviation="2"/>
<feComposite in2="hardAlpha" operator="out"/>
<feColorMatrix type="matrix" values="0 0 0 0 0 0 0 0 0 0 0 0 0 0 0 0 0 0 0.25 0"/>
<feBlend mode="normal" in2="BackgroundImageFix" result="effect1_dropShadow_0_1"/>
<feBlend mode="normal" in="SourceGraphic" in2="effect1_dropShadow_0_1" result="shape"/>
</filter>
</defs>
</svg>
