<svg width="250" height="50" viewBox="0 0 250 50" fill="none" xmlns="http://www.w3.org/2000/svg">
<rect x="0.5" y="0.5" width="249" height="49" rx="14.5" fill="#DEFFED" stroke="#00A34A"/>
<path d="M35.5739 33.9432H33.375L33.5568 25.7273H35.3864L35.5739 33.9432ZM34.4716 22.1818C34.8087 22.1818 35.1004 22.3049 35.3466 22.5511C35.5966 22.7936 35.7216 23.0871 35.7216 23.4318C35.7216 23.7727 35.5966 24.0644 35.3466 24.3068C35.1004 24.5492 34.8087 24.6705 34.4716 24.6705C34.1269 24.6705 33.8314 24.5492 33.5852 24.3068C33.3428 24.0644 33.2216 23.7727 33.2216 23.4318C33.2216 23.2008 33.2784 22.9905 33.392 22.8011C33.5057 22.6117 33.6572 22.4621 33.8466 22.3523C34.036 22.2386 34.2443 22.1818 34.4716 22.1818ZM45.8807 23.0795C45.786 22.7727 45.6553 22.4981 45.4886 22.2557C45.3258 22.0095 45.1288 21.7992 44.8977 21.625C44.6705 21.4508 44.4091 21.3201 44.1136 21.233C43.8182 21.142 43.4962 21.0966 43.1477 21.0966C42.5227 21.0966 41.9659 21.2538 41.4773 21.5682C40.9886 21.8826 40.6042 22.3447 40.3239 22.9545C40.0473 23.5606 39.9091 24.2992 39.9091 25.1705C39.9091 26.0492 40.0473 26.7936 40.3239 27.4034C40.6004 28.0133 40.9848 28.4773 41.4773 28.7955C41.9697 29.1098 42.5417 29.267 43.1932 29.267C43.7841 29.267 44.2955 29.1534 44.7273 28.9261C45.1629 28.6989 45.4981 28.3769 45.733 27.9602C45.9678 27.5398 46.0852 27.0473 46.0852 26.483L46.5625 26.5568H43.4034V24.9091H48.125V26.3068C48.125 27.303 47.9129 28.1648 47.4886 28.892C47.0644 29.6193 46.4811 30.1799 45.7386 30.5739C44.9962 30.964 44.1439 31.1591 43.1818 31.1591C42.1098 31.1591 41.1686 30.9186 40.358 30.4375C39.5511 29.9527 38.9205 29.2652 38.4659 28.375C38.0152 27.4811 37.7898 26.4205 37.7898 25.1932C37.7898 24.2538 37.9223 23.4148 38.1875 22.6761C38.4564 21.9375 38.8314 21.3106 39.3125 20.7955C39.7936 20.2765 40.358 19.8826 41.0057 19.6136C41.6534 19.3409 42.358 19.2045 43.1193 19.2045C43.7633 19.2045 44.3636 19.2992 44.9205 19.4886C45.4773 19.6742 45.9716 19.9394 46.4034 20.2841C46.839 20.6288 47.197 21.0379 47.4773 21.5114C47.7576 21.9848 47.9413 22.5076 48.0284 23.0795H45.8807ZM50.0724 31V22.2727H52.0668V23.7273H52.1577C52.3168 23.2235 52.5895 22.8352 52.9759 22.5625C53.366 22.286 53.8111 22.1477 54.3111 22.1477C54.4247 22.1477 54.5516 22.1534 54.6918 22.1648C54.8357 22.1723 54.955 22.1856 55.0497 22.2045V24.0966C54.9626 24.0663 54.8243 24.0398 54.6349 24.017C54.4493 23.9905 54.2694 23.9773 54.0952 23.9773C53.7202 23.9773 53.383 24.0587 53.0838 24.2216C52.7884 24.3807 52.5554 24.6023 52.3849 24.8864C52.2145 25.1705 52.1293 25.4981 52.1293 25.8693V31H50.0724ZM58.7713 31.1761C58.2183 31.1761 57.7202 31.0777 57.277 30.8807C56.8376 30.6799 56.4891 30.3845 56.2315 29.9943C55.9777 29.6042 55.8509 29.1231 55.8509 28.5511C55.8509 28.0587 55.9418 27.6515 56.1236 27.3295C56.3054 27.0076 56.5535 26.75 56.8679 26.5568C57.1823 26.3636 57.5365 26.2178 57.9304 26.1193C58.3281 26.017 58.7391 25.9432 59.1634 25.8977C59.6747 25.8447 60.0895 25.7973 60.4077 25.7557C60.7259 25.7102 60.9569 25.642 61.1009 25.5511C61.2486 25.4564 61.3224 25.3106 61.3224 25.1136V25.0795C61.3224 24.6515 61.1955 24.3201 60.9418 24.0852C60.688 23.8504 60.3224 23.733 59.8452 23.733C59.3414 23.733 58.9418 23.8428 58.6463 24.0625C58.3546 24.2822 58.1577 24.5417 58.0554 24.8409L56.1349 24.5682C56.2865 24.0379 56.5365 23.5947 56.8849 23.2386C57.2334 22.8788 57.6596 22.6098 58.1634 22.4318C58.6671 22.25 59.224 22.1591 59.8338 22.1591C60.2543 22.1591 60.6728 22.2083 61.0895 22.3068C61.5062 22.4053 61.8868 22.5682 62.2315 22.7955C62.5762 23.0189 62.8527 23.3239 63.0611 23.7102C63.2732 24.0966 63.3793 24.5795 63.3793 25.1591V31H61.402V29.8011H61.3338C61.2088 30.0436 61.0327 30.2708 60.8054 30.483C60.5819 30.6913 60.2997 30.8598 59.9588 30.9886C59.6217 31.1136 59.2259 31.1761 58.7713 31.1761ZM59.3054 29.6648C59.7183 29.6648 60.0762 29.5833 60.3793 29.4205C60.6823 29.2538 60.9152 29.0341 61.0781 28.7614C61.2448 28.4886 61.3281 28.1913 61.3281 27.8693V26.8409C61.2637 26.8939 61.1539 26.9432 60.9986 26.9886C60.8471 27.0341 60.6766 27.0739 60.4872 27.108C60.2978 27.142 60.1103 27.1723 59.9247 27.1989C59.7391 27.2254 59.5781 27.2481 59.4418 27.267C59.1349 27.3087 58.8603 27.3769 58.6179 27.4716C58.3755 27.5663 58.1842 27.6989 58.044 27.8693C57.9039 28.036 57.8338 28.2519 57.8338 28.517C57.8338 28.8958 57.9721 29.1818 58.2486 29.375C58.5251 29.5682 58.8774 29.6648 59.3054 29.6648ZM69.2543 31.1705C68.383 31.1705 67.6349 30.9792 67.0099 30.5966C66.3887 30.214 65.9096 29.6856 65.5724 29.0114C65.2391 28.3333 65.0724 27.553 65.0724 26.6705C65.0724 25.7841 65.2429 25.0019 65.5838 24.3239C65.9247 23.642 66.4058 23.1117 67.027 22.733C67.652 22.3504 68.3906 22.1591 69.2429 22.1591C69.9512 22.1591 70.5781 22.2898 71.1236 22.5511C71.6728 22.8087 72.1103 23.1742 72.4361 23.6477C72.7618 24.1174 72.9474 24.6667 72.9929 25.2955H71.027C70.9474 24.875 70.758 24.5246 70.4588 24.2443C70.1634 23.9602 69.7675 23.8182 69.2713 23.8182C68.8509 23.8182 68.4815 23.9318 68.1634 24.1591C67.8452 24.3826 67.5971 24.7045 67.419 25.125C67.2448 25.5455 67.1577 26.0492 67.1577 26.6364C67.1577 27.2311 67.2448 27.7424 67.419 28.1705C67.5933 28.5947 67.8376 28.9223 68.152 29.1534C68.4702 29.3807 68.8433 29.4943 69.2713 29.4943C69.5743 29.4943 69.8452 29.4375 70.0838 29.3239C70.3262 29.2064 70.5289 29.0379 70.6918 28.8182C70.8546 28.5985 70.9664 28.3314 71.027 28.017H72.9929C72.9437 28.6345 72.7618 29.1818 72.4474 29.6591C72.133 30.1326 71.705 30.5038 71.1634 30.7727C70.6217 31.0379 69.9853 31.1705 69.2543 31.1705ZM74.6818 31V22.2727H76.7386V31H74.6818ZM75.7159 21.0341C75.3902 21.0341 75.1098 20.9261 74.875 20.7102C74.6402 20.4905 74.5227 20.2273 74.5227 19.9205C74.5227 19.6098 74.6402 19.3466 74.875 19.1307C75.1098 18.911 75.3902 18.8011 75.7159 18.8011C76.0455 18.8011 76.3258 18.911 76.5568 19.1307C76.7917 19.3466 76.9091 19.6098 76.9091 19.9205C76.9091 20.2273 76.7917 20.4905 76.5568 20.7102C76.3258 20.9261 76.0455 21.0341 75.7159 21.0341ZM81.3651 31.1761C80.812 31.1761 80.3139 31.0777 79.8707 30.8807C79.4313 30.6799 79.0829 30.3845 78.8253 29.9943C78.5715 29.6042 78.4446 29.1231 78.4446 28.5511C78.4446 28.0587 78.5355 27.6515 78.7173 27.3295C78.8991 27.0076 79.1473 26.75 79.4616 26.5568C79.776 26.3636 80.1302 26.2178 80.5241 26.1193C80.9219 26.017 81.3329 25.9432 81.7571 25.8977C82.2685 25.8447 82.6832 25.7973 83.0014 25.7557C83.3196 25.7102 83.5507 25.642 83.6946 25.5511C83.8423 25.4564 83.9162 25.3106 83.9162 25.1136V25.0795C83.9162 24.6515 83.7893 24.3201 83.5355 24.0852C83.2817 23.8504 82.9162 23.733 82.4389 23.733C81.9351 23.733 81.5355 23.8428 81.2401 24.0625C80.9484 24.2822 80.7514 24.5417 80.6491 24.8409L78.7287 24.5682C78.8802 24.0379 79.1302 23.5947 79.4787 23.2386C79.8272 22.8788 80.2533 22.6098 80.7571 22.4318C81.2609 22.25 81.8177 22.1591 82.4276 22.1591C82.848 22.1591 83.2666 22.2083 83.6832 22.3068C84.0999 22.4053 84.4806 22.5682 84.8253 22.7955C85.17 23.0189 85.4465 23.3239 85.6548 23.7102C85.867 24.0966 85.973 24.5795 85.973 25.1591V31H83.9957V29.8011H83.9276C83.8026 30.0436 83.6264 30.2708 83.3991 30.483C83.1757 30.6913 82.8935 30.8598 82.5526 30.9886C82.2154 31.1136 81.8196 31.1761 81.3651 31.1761ZM81.8991 29.6648C82.312 29.6648 82.67 29.5833 82.973 29.4205C83.276 29.2538 83.509 29.0341 83.6719 28.7614C83.8385 28.4886 83.9219 28.1913 83.9219 27.8693V26.8409C83.8575 26.8939 83.7476 26.9432 83.5923 26.9886C83.4408 27.0341 83.2704 27.0739 83.081 27.108C82.8916 27.142 82.7041 27.1723 82.5185 27.1989C82.3329 27.2254 82.1719 27.2481 82.0355 27.267C81.7287 27.3087 81.4541 27.3769 81.2116 27.4716C80.9692 27.5663 80.7779 27.6989 80.6378 27.8693C80.4976 28.036 80.4276 28.2519 80.4276 28.517C80.4276 28.8958 80.5658 29.1818 80.8423 29.375C81.1188 29.5682 81.4711 29.6648 81.8991 29.6648ZM94.9389 24.5795L93.0639 24.7841C93.0109 24.5947 92.9181 24.4167 92.7855 24.25C92.6567 24.0833 92.4825 23.9489 92.2628 23.8466C92.0431 23.7443 91.7741 23.6932 91.456 23.6932C91.0279 23.6932 90.6681 23.786 90.3764 23.9716C90.0885 24.1572 89.9465 24.3977 89.9503 24.6932C89.9465 24.947 90.0393 25.1534 90.2287 25.3125C90.4219 25.4716 90.7401 25.6023 91.1832 25.7045L92.6719 26.0227C93.4976 26.2008 94.1113 26.483 94.5128 26.8693C94.9181 27.2557 95.1226 27.7614 95.1264 28.3864C95.1226 28.9356 94.9616 29.4205 94.6435 29.8409C94.3291 30.2576 93.8916 30.5833 93.331 30.8182C92.7704 31.053 92.1264 31.1705 91.3991 31.1705C90.331 31.1705 89.4711 30.947 88.8196 30.5C88.1681 30.0492 87.7798 29.4223 87.6548 28.6193L89.6605 28.4261C89.7514 28.8201 89.9446 29.1174 90.2401 29.3182C90.5355 29.5189 90.92 29.6193 91.3935 29.6193C91.8821 29.6193 92.2741 29.5189 92.5696 29.3182C92.8688 29.1174 93.0185 28.8693 93.0185 28.5739C93.0185 28.3239 92.9219 28.1174 92.7287 27.9545C92.5393 27.7917 92.2438 27.6667 91.8423 27.5795L90.3537 27.267C89.5166 27.0928 88.8973 26.7992 88.4957 26.3864C88.0942 25.9697 87.8954 25.4432 87.8991 24.8068C87.8954 24.2689 88.0412 23.803 88.3366 23.4091C88.6359 23.0114 89.0507 22.7045 89.581 22.4886C90.1151 22.2689 90.7306 22.1591 91.4276 22.1591C92.4503 22.1591 93.2552 22.3769 93.8423 22.8125C94.4332 23.2481 94.7988 23.8371 94.9389 24.5795ZM100.791 34.2727V22.2727H102.814V23.7159H102.933C103.039 23.5038 103.189 23.2784 103.382 23.0398C103.575 22.7973 103.837 22.5909 104.166 22.4205C104.496 22.2462 104.916 22.1591 105.428 22.1591C106.102 22.1591 106.71 22.3314 107.251 22.6761C107.797 23.017 108.229 23.5227 108.547 24.1932C108.869 24.8598 109.03 25.678 109.03 26.6477C109.03 27.6061 108.873 28.4205 108.558 29.0909C108.244 29.7614 107.816 30.2727 107.274 30.625C106.732 30.9773 106.119 31.1534 105.433 31.1534C104.933 31.1534 104.518 31.0701 104.189 30.9034C103.859 30.7367 103.594 30.536 103.393 30.3011C103.196 30.0625 103.043 29.8371 102.933 29.625H102.848V34.2727H100.791ZM102.808 26.6364C102.808 27.2008 102.888 27.6951 103.047 28.1193C103.21 28.5436 103.443 28.875 103.746 29.1136C104.053 29.3485 104.424 29.4659 104.859 29.4659C105.314 29.4659 105.695 29.3447 106.001 29.1023C106.308 28.8561 106.539 28.5208 106.695 28.0966C106.854 27.6686 106.933 27.1818 106.933 26.6364C106.933 26.0947 106.856 25.6136 106.7 25.1932C106.545 24.7727 106.314 24.4432 106.007 24.2045C105.7 23.9659 105.318 23.8466 104.859 23.8466C104.42 23.8466 104.047 23.9621 103.74 24.1932C103.433 24.4242 103.2 24.7481 103.041 25.1648C102.886 25.5814 102.808 26.072 102.808 26.6364ZM114.598 31.1705C113.746 31.1705 113.007 30.983 112.382 30.608C111.757 30.233 111.272 29.7083 110.928 29.0341C110.587 28.3598 110.416 27.572 110.416 26.6705C110.416 25.7689 110.587 24.9792 110.928 24.3011C111.272 23.6231 111.757 23.0966 112.382 22.7216C113.007 22.3466 113.746 22.1591 114.598 22.1591C115.45 22.1591 116.189 22.3466 116.814 22.7216C117.439 23.0966 117.922 23.6231 118.263 24.3011C118.607 24.9792 118.78 25.7689 118.78 26.6705C118.78 27.572 118.607 28.3598 118.263 29.0341C117.922 29.7083 117.439 30.233 116.814 30.608C116.189 30.983 115.45 31.1705 114.598 31.1705ZM114.609 29.5227C115.071 29.5227 115.458 29.3958 115.768 29.142C116.079 28.8845 116.31 28.5398 116.462 28.108C116.617 27.6761 116.695 27.1951 116.695 26.6648C116.695 26.1307 116.617 25.6477 116.462 25.2159C116.31 24.7803 116.079 24.4337 115.768 24.1761C115.458 23.9186 115.071 23.7898 114.609 23.7898C114.136 23.7898 113.742 23.9186 113.428 24.1761C113.117 24.4337 112.884 24.7803 112.729 25.2159C112.577 25.6477 112.501 26.1307 112.501 26.6648C112.501 27.1951 112.577 27.6761 112.729 28.108C112.884 28.5398 113.117 28.8845 113.428 29.142C113.742 29.3958 114.136 29.5227 114.609 29.5227ZM120.526 31V22.2727H122.52V23.7273H122.611C122.77 23.2235 123.043 22.8352 123.429 22.5625C123.819 22.286 124.264 22.1477 124.764 22.1477C124.878 22.1477 125.005 22.1534 125.145 22.1648C125.289 22.1723 125.408 22.1856 125.503 22.2045V24.0966C125.416 24.0663 125.277 24.0398 125.088 24.017C124.902 23.9905 124.723 23.9773 124.548 23.9773C124.173 23.9773 123.836 24.0587 123.537 24.2216C123.241 24.3807 123.009 24.6023 122.838 24.8864C122.668 25.1705 122.582 25.4981 122.582 25.8693V31H120.526ZM137.736 24.5795L135.861 24.7841C135.808 24.5947 135.715 24.4167 135.582 24.25C135.454 24.0833 135.279 23.9489 135.06 23.8466C134.84 23.7443 134.571 23.6932 134.253 23.6932C133.825 23.6932 133.465 23.786 133.173 23.9716C132.885 24.1572 132.743 24.3977 132.747 24.6932C132.743 24.947 132.836 25.1534 133.026 25.3125C133.219 25.4716 133.537 25.6023 133.98 25.7045L135.469 26.0227C136.295 26.2008 136.908 26.483 137.31 26.8693C137.715 27.2557 137.92 27.7614 137.923 28.3864C137.92 28.9356 137.759 29.4205 137.44 29.8409C137.126 30.2576 136.688 30.5833 136.128 30.8182C135.567 31.053 134.923 31.1705 134.196 31.1705C133.128 31.1705 132.268 30.947 131.616 30.5C130.965 30.0492 130.577 29.4223 130.452 28.6193L132.457 28.4261C132.548 28.8201 132.741 29.1174 133.037 29.3182C133.332 29.5189 133.717 29.6193 134.19 29.6193C134.679 29.6193 135.071 29.5189 135.366 29.3182C135.666 29.1174 135.815 28.8693 135.815 28.5739C135.815 28.3239 135.719 28.1174 135.526 27.9545C135.336 27.7917 135.041 27.6667 134.639 27.5795L133.151 27.267C132.313 27.0928 131.694 26.7992 131.293 26.3864C130.891 25.9697 130.692 25.4432 130.696 24.8068C130.692 24.2689 130.838 23.803 131.134 23.4091C131.433 23.0114 131.848 22.7045 132.378 22.4886C132.912 22.2689 133.527 22.1591 134.224 22.1591C135.247 22.1591 136.052 22.3769 136.639 22.8125C137.23 23.2481 137.596 23.8371 137.736 24.5795ZM145.182 27.3295V22.2727H147.239V31H145.244V29.4489H145.153C144.956 29.9375 144.633 30.3371 144.182 30.6477C143.735 30.9583 143.184 31.1136 142.528 31.1136C141.956 31.1136 141.451 30.9867 141.011 30.733C140.576 30.4754 140.235 30.1023 139.989 29.6136C139.742 29.1212 139.619 28.5265 139.619 27.8295V22.2727H141.676V27.5114C141.676 28.0644 141.828 28.5038 142.131 28.8295C142.434 29.1553 142.831 29.3182 143.324 29.3182C143.627 29.3182 143.92 29.2443 144.205 29.0966C144.489 28.9489 144.722 28.7292 144.903 28.4375C145.089 28.142 145.182 27.7727 145.182 27.3295ZM156.251 24.5795L154.376 24.7841C154.323 24.5947 154.231 24.4167 154.098 24.25C153.969 24.0833 153.795 23.9489 153.575 23.8466C153.356 23.7443 153.087 23.6932 152.768 23.6932C152.34 23.6932 151.981 23.786 151.689 23.9716C151.401 24.1572 151.259 24.3977 151.263 24.6932C151.259 24.947 151.352 25.1534 151.541 25.3125C151.734 25.4716 152.053 25.6023 152.496 25.7045L153.984 26.0227C154.81 26.2008 155.424 26.483 155.825 26.8693C156.231 27.2557 156.435 27.7614 156.439 28.3864C156.435 28.9356 156.274 29.4205 155.956 29.8409C155.642 30.2576 155.204 30.5833 154.643 30.8182C154.083 31.053 153.439 31.1705 152.712 31.1705C151.643 31.1705 150.784 30.947 150.132 30.5C149.481 30.0492 149.092 29.4223 148.967 28.6193L150.973 28.4261C151.064 28.8201 151.257 29.1174 151.553 29.3182C151.848 29.5189 152.232 29.6193 152.706 29.6193C153.195 29.6193 153.587 29.5189 153.882 29.3182C154.181 29.1174 154.331 28.8693 154.331 28.5739C154.331 28.3239 154.234 28.1174 154.041 27.9545C153.852 27.7917 153.556 27.6667 153.155 27.5795L151.666 27.267C150.829 27.0928 150.21 26.7992 149.808 26.3864C149.407 25.9697 149.208 25.4432 149.212 24.8068C149.208 24.2689 149.354 23.803 149.649 23.4091C149.948 23.0114 150.363 22.7045 150.893 22.4886C151.428 22.2689 152.043 22.1591 152.74 22.1591C153.763 22.1591 154.568 22.3769 155.155 22.8125C155.746 23.2481 156.111 23.8371 156.251 24.5795ZM161.942 31.1705C161.071 31.1705 160.322 30.9792 159.697 30.5966C159.076 30.214 158.597 29.6856 158.26 29.0114C157.927 28.3333 157.76 27.553 157.76 26.6705C157.76 25.7841 157.93 25.0019 158.271 24.3239C158.612 23.642 159.093 23.1117 159.714 22.733C160.339 22.3504 161.078 22.1591 161.93 22.1591C162.639 22.1591 163.266 22.2898 163.811 22.5511C164.36 22.8087 164.798 23.1742 165.124 23.6477C165.449 24.1174 165.635 24.6667 165.68 25.2955H163.714C163.635 24.875 163.446 24.5246 163.146 24.2443C162.851 23.9602 162.455 23.8182 161.959 23.8182C161.538 23.8182 161.169 23.9318 160.851 24.1591C160.533 24.3826 160.285 24.7045 160.107 25.125C159.932 25.5455 159.845 26.0492 159.845 26.6364C159.845 27.2311 159.932 27.7424 160.107 28.1705C160.281 28.5947 160.525 28.9223 160.839 29.1534C161.158 29.3807 161.531 29.4943 161.959 29.4943C162.262 29.4943 162.533 29.4375 162.771 29.3239C163.014 29.2064 163.216 29.0379 163.379 28.8182C163.542 28.5985 163.654 28.3314 163.714 28.017H165.68C165.631 28.6345 165.449 29.1818 165.135 29.6591C164.821 30.1326 164.393 30.5038 163.851 30.7727C163.309 31.0379 162.673 31.1705 161.942 31.1705ZM167.369 31V22.2727H169.364V23.7273H169.455C169.614 23.2235 169.886 22.8352 170.273 22.5625C170.663 22.286 171.108 22.1477 171.608 22.1477C171.722 22.1477 171.848 22.1534 171.989 22.1648C172.133 22.1723 172.252 22.1856 172.347 22.2045V24.0966C172.259 24.0663 172.121 24.0398 171.932 24.017C171.746 23.9905 171.566 23.9773 171.392 23.9773C171.017 23.9773 170.68 24.0587 170.381 24.2216C170.085 24.3807 169.852 24.6023 169.682 24.8864C169.511 25.1705 169.426 25.4981 169.426 25.8693V31H167.369ZM173.713 31V22.2727H175.77V31H173.713ZM174.747 21.0341C174.421 21.0341 174.141 20.9261 173.906 20.7102C173.671 20.4905 173.554 20.2273 173.554 19.9205C173.554 19.6098 173.671 19.3466 173.906 19.1307C174.141 18.911 174.421 18.8011 174.747 18.8011C175.077 18.8011 175.357 18.911 175.588 19.1307C175.823 19.3466 175.94 19.6098 175.94 19.9205C175.94 20.2273 175.823 20.4905 175.588 20.7102C175.357 20.9261 175.077 21.0341 174.747 21.0341ZM177.976 31V19.3636H180.033V23.7159H180.118C180.224 23.5038 180.374 23.2784 180.567 23.0398C180.76 22.7973 181.021 22.5909 181.351 22.4205C181.68 22.2462 182.101 22.1591 182.612 22.1591C183.286 22.1591 183.894 22.3314 184.436 22.6761C184.982 23.017 185.413 23.5227 185.732 24.1932C186.054 24.8598 186.214 25.678 186.214 26.6477C186.214 27.6061 186.057 28.4205 185.743 29.0909C185.429 29.7614 185 30.2727 184.459 30.625C183.917 30.9773 183.304 31.1534 182.618 31.1534C182.118 31.1534 181.703 31.0701 181.374 30.9034C181.044 30.7367 180.779 30.536 180.578 30.3011C180.381 30.0625 180.228 29.8371 180.118 29.625H179.999V31H177.976ZM179.993 26.6364C179.993 27.2008 180.072 27.6951 180.232 28.1193C180.394 28.5436 180.627 28.875 180.93 29.1136C181.237 29.3485 181.608 29.4659 182.044 29.4659C182.499 29.4659 182.879 29.3447 183.186 29.1023C183.493 28.8561 183.724 28.5208 183.879 28.0966C184.038 27.6686 184.118 27.1818 184.118 26.6364C184.118 26.0947 184.04 25.6136 183.885 25.1932C183.73 24.7727 183.499 24.4432 183.192 24.2045C182.885 23.9659 182.502 23.8466 182.044 23.8466C181.605 23.8466 181.232 23.9621 180.925 24.1932C180.618 24.4242 180.385 24.7481 180.226 25.1648C180.071 25.5814 179.993 26.072 179.993 26.6364ZM187.963 31V22.2727H190.02V31H187.963ZM188.997 21.0341C188.671 21.0341 188.391 20.9261 188.156 20.7102C187.921 20.4905 187.804 20.2273 187.804 19.9205C187.804 19.6098 187.921 19.3466 188.156 19.1307C188.391 18.911 188.671 18.8011 188.997 18.8011C189.327 18.8011 189.607 18.911 189.838 19.1307C190.073 19.3466 190.19 19.6098 190.19 19.9205C190.19 20.2273 190.073 20.4905 189.838 20.7102C189.607 20.9261 189.327 21.0341 188.997 21.0341ZM192.135 31V22.2727H194.129V23.7273H194.22C194.379 23.2235 194.652 22.8352 195.038 22.5625C195.429 22.286 195.874 22.1477 196.374 22.1477C196.487 22.1477 196.614 22.1534 196.754 22.1648C196.898 22.1723 197.018 22.1856 197.112 22.2045V24.0966C197.025 24.0663 196.887 24.0398 196.697 24.017C196.512 23.9905 196.332 23.9773 196.158 23.9773C195.783 23.9773 195.446 24.0587 195.146 24.2216C194.851 24.3807 194.618 24.6023 194.447 24.8864C194.277 25.1705 194.192 25.4981 194.192 25.8693V31H192.135ZM203.305 22.2727V23.8636H198.288V22.2727H203.305ZM199.527 20.1818H201.584V28.375C201.584 28.6515 201.625 28.8636 201.709 29.0114C201.796 29.1553 201.91 29.2538 202.05 29.3068C202.19 29.3598 202.345 29.3864 202.516 29.3864C202.644 29.3864 202.762 29.3769 202.868 29.358C202.978 29.339 203.061 29.322 203.118 29.3068L203.464 30.9148C203.355 30.9527 203.197 30.9943 202.993 31.0398C202.792 31.0852 202.546 31.1117 202.254 31.1193C201.739 31.1345 201.275 31.0568 200.862 30.8864C200.449 30.7121 200.122 30.4432 199.879 30.0795C199.641 29.7159 199.523 29.2614 199.527 28.7159V20.1818ZM208.795 31.1705C207.92 31.1705 207.165 30.9886 206.528 30.625C205.896 30.2576 205.409 29.7386 205.068 29.0682C204.727 28.3939 204.557 27.6004 204.557 26.6875C204.557 25.7898 204.727 25.0019 205.068 24.3239C205.413 23.642 205.894 23.1117 206.511 22.733C207.129 22.3504 207.854 22.1591 208.688 22.1591C209.225 22.1591 209.733 22.2462 210.21 22.4205C210.691 22.5909 211.116 22.8561 211.483 23.2159C211.854 23.5758 212.146 24.0341 212.358 24.5909C212.57 25.1439 212.676 25.803 212.676 26.5682V27.1989H205.523V25.8125H210.705C210.701 25.4186 210.616 25.0682 210.449 24.7614C210.282 24.4508 210.049 24.2064 209.75 24.0284C209.455 23.8504 209.11 23.7614 208.716 23.7614C208.295 23.7614 207.926 23.8636 207.608 24.0682C207.29 24.2689 207.042 24.5341 206.864 24.8636C206.689 25.1894 206.6 25.5473 206.597 25.9375V27.1477C206.597 27.6553 206.689 28.0909 206.875 28.4545C207.061 28.8144 207.32 29.0909 207.653 29.2841C207.987 29.4735 208.377 29.5682 208.824 29.5682C209.123 29.5682 209.394 29.5265 209.636 29.4432C209.879 29.3561 210.089 29.2292 210.267 29.0625C210.445 28.8958 210.58 28.6894 210.67 28.4432L212.591 28.6591C212.47 29.1667 212.239 29.6098 211.898 29.9886C211.561 30.3636 211.129 30.6553 210.602 30.8636C210.076 31.0682 209.473 31.1705 208.795 31.1705ZM216.933 19.3636L216.746 27.5795H214.916L214.734 19.3636H216.933ZM215.831 31.125C215.486 31.125 215.191 31.0038 214.945 30.7614C214.702 30.5189 214.581 30.2235 214.581 29.875C214.581 29.5341 214.702 29.2424 214.945 29C215.191 28.7576 215.486 28.6364 215.831 28.6364C216.168 28.6364 216.46 28.7576 216.706 29C216.956 29.2424 217.081 29.5341 217.081 29.875C217.081 30.1061 217.022 30.3163 216.905 30.5057C216.791 30.6951 216.64 30.8466 216.45 30.9602C216.265 31.0701 216.058 31.125 215.831 31.125Z" fill="#00A34A"/>
</svg>
